<svg width="393" height="260" viewBox="0 0 393 260" fill="none" xmlns="http://www.w3.org/2000/svg">
<g clip-path="url(#clip0_20_448)">
<path opacity="0.2" d="M393 0H0V260H393V0Z" fill="white"/>
<path opacity="0.2" d="M393 0H0V260H393V0Z" fill="#8F9CC8"/>
<rect x="-40" y="-6" width="440" height="242" fill="url(#paint0_linear_20_448)"/>
<path d="M-62 167.305C-62 143.006 -34.4572 128.945 -14.7763 143.196V143.196C-7.91905 148.162 0.728354 149.973 9.0017 148.175L43.8878 140.595C56.8548 137.777 70.2257 137.337 83.35 139.296L136.28 147.196C176.854 153.252 218.116 153.061 258.633 146.63L303.333 139.534C316.719 137.41 330.327 137.059 343.805 138.493L395.309 143.969C401.531 144.631 407.77 142.879 412.737 139.074V139.074C428.801 126.77 452 138.223 452 158.457V224.152C452 255.548 426.548 281 395.152 281H-3.86823C-35.9735 281 -62 254.974 -62 222.868V167.305Z" fill="url(#paint1_linear_20_448)"/>
<path d="M38.6667 67C38.6667 64.2386 40.9052 62 43.6667 62H47.4167C50.1781 62 52.4167 64.2386 52.4167 67V94.5L57 140.5V163V185V213.5V229C57 231.761 54.7614 234 52 234H40.4612C37.5261 234 35.2223 231.484 35.4806 228.56L38.6667 192.5V155.5L35.0443 111.537C35.0148 111.18 35.0239 110.821 35.0712 110.466L38.6667 83.5V67Z" fill="#EFE8E8"/>
<path d="M50 126.5C43.5 132 45.433 145.5 43.5 145.5C41.567 145.5 37.5 127.747 37.5 122.5C37.5 117.253 46.5 97.5 43.5 117C46 122.5 50 121.253 50 126.5Z" fill="#3A3838"/>
<path d="M54.5 171.436C54.5 177.235 54.5 188.936 49.5 186.436C45.5 186.436 51.5 180.299 51.5 174.5C51.5 168.701 46.1193 161.936 47.5 161.936C48.8807 161.936 54.5 165.637 54.5 171.436Z" fill="#3A3838"/>
<path d="M54 222.5C54 228.851 63 234 49 234C29.5 236 40.5 219.851 40.5 213.5C40.5 207.149 46.2386 211 49 211C51.7614 211 59.5 213.5 54 222.5Z" fill="#3A3838"/>
<path d="M99.0369 72.5C123.037 117.5 65.7248 150 50.537 150C35.3491 150 16.5 118.75 16.5 76.5C7.00002 37.5 35.3491 0 50.537 0C79.037 0 141.537 37 99.0369 72.5Z" fill="#2CD05A" fill-opacity="0.83"/>
<path d="M343.5 68.6875C343.5 66.0987 345.599 64 348.188 64C350.776 64 352.875 66.0987 352.875 68.6875V96.5L356 142.5V165V187V215.5V231C356 233.761 353.761 236 351 236H346.31C343.431 236 341.146 233.574 341.319 230.699L343.5 194.5V157.5L341.021 113.367C341.007 113.123 341.011 112.878 341.033 112.634L343.5 85.5V68.6875Z" fill="#EFE8E8"/>
<path d="M352 139.5C347.568 145 348.113 147.5 346.795 147.5C345.477 147.5 342.705 129.747 342.705 124.5C342.705 119.253 352 155 346.795 119C352 119 352 134.253 352 139.5Z" fill="#3A3838"/>
<path d="M353.5 177.5C353.5 183.299 354.295 190.936 350.886 188.436C348.159 188.436 346 179.235 346 173.436C346 167.637 348.581 163.936 349.523 163.936C350.464 163.936 353.5 171.701 353.5 177.5Z" fill="#3A3838"/>
<path d="M347.5 216.5C347.5 222.851 360.449 227.157 350.903 227.157C337.608 229.157 345.108 213.008 345.108 206.657C345.108 200.306 353.617 198.5 355.5 198.5C357.383 198.5 351.25 207.5 347.5 216.5Z" fill="#3A3838"/>
<path d="M387.55 49.1409C386.494 58.4282 388.543 67.865 390.045 77.0908C394.796 106.272 362.819 134 342.5 134C320.051 134 293.433 116.162 300.781 69.987C301.464 65.6933 301.597 61.2776 301.217 56.9465C297.277 11.9605 326.584 -4 349 -4C370.111 -4 392.077 9.34797 387.55 49.1409Z" fill="#2CD05A" fill-opacity="0.88"/>
<path d="M248.547 133.584C248.547 132.138 249.719 130.967 251.164 130.967C252.609 130.967 253.781 132.138 253.781 133.584V149.113L255.526 174.796V187.358V199.642V215.554V222.939C255.526 225.182 253.708 227 251.464 227C249.125 227 247.27 225.029 247.41 222.694L248.547 203.829V183.171L247.172 158.692C247.158 158.448 247.162 158.203 247.184 157.959L248.547 142.971V133.584Z" fill="#EFE8E8"/>
<path d="M253.293 173.121C250.818 176.192 251.123 177.588 250.387 177.588C249.651 177.588 248.103 167.675 248.103 164.746C248.103 161.816 253.293 181.775 250.387 161.675C253.293 161.675 253.293 170.191 253.293 173.121Z" fill="#3A3838"/>
<path d="M252.776 207.292C252.298 209.763 251.87 212.316 252.575 214.732C253.049 216.357 253.71 217.764 254.131 218.886C255.212 221.765 249.567 222.841 248.797 219.863C247.697 215.606 250.5 206.088 250.5 201.5C250.5 198.46 249.368 195.483 249.097 193.574C248.472 189.177 254.584 194.668 254.07 199.079C253.79 201.479 253.347 204.334 252.776 207.292Z" fill="#3A3838"/>
<path d="M281.5 126C292.667 144.704 265.5 183.5 247.988 170.05C242.5 201.5 211.858 163.975 218 135.5C213.812 107.583 238.895 103.5 252 103.5C265.105 103.5 288.2 97.525 281.5 126Z" fill="#2CD05A"/>
<path d="M6.07133 83C6.07133 80.2386 8.30991 78 11.0713 78H14.8213C17.5828 78 19.8213 80.2386 19.8213 83V110.5L24.4047 156.5V179V201V229.5V245C24.4047 247.761 22.1661 250 19.4047 250H7.86591C4.9308 250 2.62699 247.484 2.88531 244.56L6.07133 208.5V171.5L2.44892 127.537C2.4195 127.18 2.42854 126.821 2.4759 126.466L6.07133 99.5V83Z" fill="#EFE8E8"/>
<path d="M17.4047 142.5C10.9047 148 12.8377 161.5 10.9047 161.5C8.97167 161.5 4.90466 143.747 4.90466 138.5C4.90466 133.253 13.9047 113.5 10.9047 133C13.4047 138.5 17.4047 137.253 17.4047 142.5Z" fill="#3A3838"/>
<path d="M11 197.345C11 191.546 11 179.845 16 182.345C20 182.345 14 188.482 14 194.281C14 200.08 19.3807 206.845 18 206.845C16.6193 206.845 11 203.144 11 197.345Z" fill="#3A3838"/>
<path d="M22 232C22 238.351 30.4047 251 16.4047 251C-3.09528 253 5.00001 233.351 5.00001 227C5.00001 220.649 13.6433 227 16.4047 227C19.1661 227 27.5 223 22 232Z" fill="#3A3838"/>
<path d="M66.4416 88.5C90.4416 133.5 33.1295 166 17.9416 166C2.75379 166 -16.0953 134.75 -16.0953 92.5C-25.5953 53.5 2.75379 16 17.9416 16C46.4416 16 108.942 53 66.4416 88.5Z" fill="#2CD05A" fill-opacity="0.96"/>
<path d="M288.964 45.6875C288.964 43.0987 291.063 41 293.652 41V41C296.241 41 298.339 43.0987 298.339 45.6875V73.5L301.464 119.5V142V164V192.5V208C301.464 210.761 299.226 213 296.464 213H291.775C288.895 213 286.611 210.574 286.784 207.699L288.964 171.5V134.5L286.485 90.367C286.471 90.1227 286.475 89.8776 286.498 89.6339L288.964 62.5V45.6875Z" fill="#EFE8E8"/>
<path d="M300.295 123C295.864 117.5 296.409 115 295.091 115C293.773 115 290 115.753 290 121C290 126.247 295.205 108.5 290 144.5C295.205 144.5 300.295 128.247 300.295 123Z" fill="#3A3838"/>
<path d="M290.081 159.424C290.081 153.625 289.285 145.988 292.694 148.488C295.421 148.488 297.581 157.689 297.581 163.488C297.581 169.287 294.999 172.988 294.058 172.988C293.116 172.988 290.081 165.223 290.081 159.424Z" fill="#3A3838"/>
<path d="M299.5 193C299.5 199.351 304.045 213 294.5 213C281.205 215 289 187.851 289 181.5C289 175.149 299.082 175.5 300.964 175.5C302.847 175.5 303.25 184 299.5 193Z" fill="#3A3838"/>
<path d="M333.015 26.1409C331.958 35.4282 334.007 44.865 335.509 54.0908C340.26 83.2723 308.284 111 287.964 111C265.515 111 238.898 93.162 246.245 46.987C246.929 42.6933 247.061 38.2776 246.682 33.9465C242.741 -11.0395 272.048 -27 294.464 -27C315.576 -27 337.541 -13.652 333.015 26.1409Z" fill="#2CD05A" fill-opacity="0.88"/>
<path d="M171.473 69.767C171.473 68.0955 172.828 66.7405 174.5 66.7405V66.7405C176.171 66.7405 177.526 68.0955 177.526 69.767V90.8487L179.544 124.971V141.661V157.981V179.122V189.613C179.544 192.217 177.433 194.328 174.828 194.328V194.328C172.127 194.328 169.978 192.064 170.119 189.366L171.473 163.544V136.098L169.859 103.088L171.473 82.689V69.767Z" fill="#EFE8E8"/>
<path d="M176.462 114.586C173.601 118.666 174.452 128.68 173.601 128.68C172.75 128.68 170.96 115.511 170.96 111.619C170.96 107.727 174.922 93.0741 173.601 107.539C174.702 111.619 176.462 110.694 176.462 114.586Z" fill="#3A3838"/>
<path d="M174.803 145.973C174.891 145.393 174.939 144.797 174.946 144.21C174.996 139.948 175.444 134.268 177.5 136C179.261 136 179 140.789 179 145.091C179 149.393 177.108 160 176.5 160C175.904 160 172.574 160.568 174.803 145.973Z" fill="#3A3838"/>
<path d="M178.683 180.651C178.284 183.999 177.632 187.321 178.488 190.582C178.883 192.083 178.991 193.218 177.749 193.766C176.234 194.434 174.38 194.589 172.845 193.97C167.871 191.967 172 178.665 172 174.5C172 169.789 176.086 172.955 177.301 172.955C178.202 172.955 179.209 176.234 178.683 180.651Z" fill="#3A3838"/>
<path d="M218.221 74.136C232.948 107.602 192.252 132.303 182.932 132.303C173.612 132.303 160.801 101.455 154.359 84.243C142.801 35.4547 176.981 -5 186.301 -5C203.79 -5 244.301 47.7349 218.221 74.136Z" fill="#2CD05A" fill-opacity="0.85"/>
<path d="M97 257L149.929 158.5H227.429L277.5 257L423.429 274.5L452.429 341.5L-84.0714 338.5L-22.0714 278.5L97 257Z" fill="#7B7C79"/>
<rect x="181" y="99" width="17" height="7" fill="#B12D2D"/>
<rect x="185" y="82" width="8" height="171" fill="#C84747"/>
<rect x="141" y="130" width="104" height="4" fill="#C84747"/>
<rect x="165" y="148" width="49" height="4" fill="#C84747"/>
<rect x="188" y="39" width="2" height="45" fill="#C84747"/>
<path fill-rule="evenodd" clip-rule="evenodd" d="M160.94 36.3112C161.281 36.1216 161.702 36.148 162.017 36.379L168.907 41.4319C168.969 41.4771 169.025 41.5294 169.075 41.5875L174.78 48.2437C174.923 48.41 175.116 48.5248 175.33 48.5707L188.759 51.4483C188.917 51.4822 189.082 51.4772 189.238 51.4334L201.294 48.0577C201.43 48.0197 201.556 47.9533 201.664 47.863L215.705 36.1621C216.14 35.8001 216.788 35.87 217.135 36.3164L219.7 39.6139C219.889 39.8575 220.18 40 220.489 40H226.307C226.724 40 227.097 40.2586 227.243 40.6489L228.41 43.7606C228.469 43.9177 228.488 44.0871 228.464 44.2531L227.578 50.4523C227.53 50.7931 227.309 51.0849 226.994 51.2247L223.291 52.8709C223.102 52.9549 222.891 52.9782 222.688 52.9377L215.836 51.5673C215.618 51.5237 215.392 51.554 215.193 51.6534L204.681 56.9095C204.562 56.9692 204.431 57.0044 204.298 57.013L189.104 57.9933C189.035 57.9977 188.965 57.995 188.897 57.985L175.396 56.0295C175.262 56.01 175.133 55.9634 175.017 55.8925L161.797 47.7946C161.184 47.419 160.387 47.794 160.285 48.5059L159.612 53.2171C159.546 53.676 159.174 54.0296 158.712 54.0716L154.869 54.421C154.371 54.4663 153.916 54.137 153.804 53.65L152.526 48.111C152.509 48.0372 152.5 47.9618 152.5 47.8861V41.5884C152.5 41.2252 152.697 40.8906 153.014 40.7142L160.94 36.3112ZM158.5 48C158.5 49.1046 156.105 50.5 155 50.5C154.515 50.5 154.456 50.2103 154.373 49.8007C154.267 49.2789 154.121 48.5624 153.004 48.0022C153.1 48.0452 153.241 47.8028 153.434 47.473C153.781 46.8784 154.293 46 155 46C156.105 46 158.5 46.8954 158.5 48ZM222.818 48C223.822 48 226 46.7596 226 45.7778C226 44.7959 223.822 44 222.818 44C222.162 44 221.903 44.8149 221.736 45.3432C221.648 45.6184 221.586 45.8159 221.504 45.7799C222.553 46.2943 222.492 46.9568 222.449 47.4238V47.4238C222.417 47.7637 222.395 48 222.818 48ZM175.58 49.8304C175.149 50.8918 171.966 50.6028 168.469 49.1849C164.973 47.7669 162.07 43.0614 162.5 42C162.694 41.5217 163.215 41.9129 164.143 42.6097C165.275 43.4593 167.012 44.7631 169.5 45.5C172.996 46.9179 176.01 48.769 175.58 49.8304ZM213.659 47.7861C216.214 45.0098 217.486 42.0239 216.501 41.1171C215.515 40.2102 212.652 42.3155 210.097 45.0919C208.565 47.1915 206.665 48.2968 205.427 49.017C204.412 49.6077 203.842 49.9392 204.286 50.3479C205.272 51.2548 211.104 50.5625 213.659 47.7861Z" fill="#C84747"/>
<path d="M126.172 86.3123C126.172 84.6408 127.527 83.2858 129.199 83.2858C130.87 83.2858 132.225 84.6408 132.225 86.3123V107.394L134.243 141.516V158.207V174.526V195.667V206.158C134.243 208.762 132.132 210.874 129.527 210.874C126.826 210.874 124.677 208.609 124.818 205.911L126.172 180.089V152.643L124.558 119.634L126.172 99.2343V86.3123Z" fill="#EFE8E8"/>
<path d="M131.161 131.131C128.3 135.211 129.151 145.225 128.3 145.225C127.449 145.225 125.658 132.056 125.658 128.164C125.658 124.272 129.62 109.619 128.3 124.084C129.4 128.164 131.161 127.239 131.161 131.131Z" fill="#3A3838"/>
<path d="M130.641 166.118C130.549 166.698 130.492 167.295 130.533 167.88C130.83 172.084 132.996 177.322 130.941 175.591C129.18 175.591 127.5 171.302 127.5 167C127.5 162.698 130.892 152.5 131.5 152.5C132.096 152.5 132.966 151.538 130.641 166.118Z" fill="#3A3838"/>
<path d="M133.381 197.196C132.982 200.544 132.331 203.867 133.187 207.128C133.581 208.629 133.689 209.763 132.447 210.311C130.933 210.979 129.126 211.09 127.525 210.669C122.776 209.42 127.5 199.651 127.5 195.5C127.5 190.789 130.784 189.5 132 189.5C132.901 189.5 133.907 192.78 133.381 197.196Z" fill="#3A3838"/>
<path d="M172.919 90.6813C187.647 124.147 146.951 148.849 137.631 148.849C128.311 148.849 115.5 118 109.058 100.788C97.5 52 131.68 11.5453 141 11.5453C158.489 11.5453 198.999 64.2802 172.919 90.6813Z" fill="#2CD05A" fill-opacity="0.85"/>
<path d="M119.143 130V113.2H132.703V116.296H123.007V119.752H127.663C129.695 119.752 131.239 120.176 132.295 121.024C133.367 121.872 133.903 123.104 133.903 124.72C133.903 126.384 133.311 127.68 132.127 128.608C130.943 129.536 129.271 130 127.111 130H119.143ZM123.007 127.12H126.895C127.887 127.12 128.647 126.928 129.175 126.544C129.703 126.144 129.967 125.568 129.967 124.816C129.967 123.344 128.943 122.608 126.895 122.608H123.007V127.12ZM140.437 119.968H148.525V122.992H140.437V119.968ZM140.725 126.88H149.869V130H136.861V113.2H149.557V116.32H140.725V126.88ZM153.01 130V113.2H160.282C161.786 113.2 163.082 113.448 164.17 113.944C165.258 114.424 166.098 115.12 166.69 116.032C167.282 116.944 167.578 118.032 167.578 119.296C167.578 120.544 167.282 121.624 166.69 122.536C166.098 123.448 165.258 124.152 164.17 124.648C163.082 125.128 161.786 125.368 160.282 125.368H155.17L156.898 123.616V130H153.01ZM156.898 124.048L155.17 122.2H160.066C161.266 122.2 162.162 121.944 162.754 121.432C163.346 120.92 163.642 120.208 163.642 119.296C163.642 118.368 163.346 117.648 162.754 117.136C162.162 116.624 161.266 116.368 160.066 116.368H155.17L156.898 114.52V124.048ZM173.719 119.968H181.807V122.992H173.719V119.968ZM174.007 126.88H183.151V130H170.143V113.2H182.839V116.32H174.007V126.88ZM184.779 128.512L185.979 125.728C186.699 126.16 187.467 126.496 188.283 126.736C189.115 126.96 189.923 127.088 190.707 127.12C191.507 127.136 192.227 127.056 192.867 126.88C193.523 126.704 194.043 126.44 194.427 126.088C194.827 125.736 195.027 125.288 195.027 124.744C195.027 124.104 194.763 123.632 194.235 123.328C193.707 123.008 193.003 122.848 192.123 122.848H188.019V119.92H191.835C192.619 119.92 193.227 119.76 193.659 119.44C194.107 119.12 194.331 118.68 194.331 118.12C194.331 117.64 194.171 117.256 193.851 116.968C193.531 116.664 193.091 116.44 192.531 116.296C191.987 116.152 191.371 116.088 190.683 116.104C189.995 116.12 189.283 116.232 188.547 116.44C187.811 116.648 187.107 116.936 186.435 117.304L185.259 114.304C186.347 113.744 187.491 113.36 188.691 113.152C189.907 112.928 191.075 112.872 192.195 112.984C193.331 113.08 194.355 113.336 195.267 113.752C196.179 114.152 196.907 114.68 197.451 115.336C197.995 115.992 198.267 116.768 198.267 117.664C198.267 118.464 198.059 119.176 197.643 119.8C197.227 120.424 196.643 120.904 195.891 121.24C195.155 121.576 194.307 121.744 193.347 121.744L193.443 120.88C194.563 120.88 195.531 121.072 196.347 121.456C197.179 121.824 197.819 122.344 198.267 123.016C198.731 123.672 198.963 124.432 198.963 125.296C198.963 126.096 198.747 126.816 198.315 127.456C197.899 128.08 197.323 128.608 196.587 129.04C195.851 129.472 195.011 129.792 194.067 130C193.123 130.208 192.115 130.296 191.043 130.264C189.987 130.232 188.923 130.08 187.851 129.808C186.779 129.52 185.755 129.088 184.779 128.512ZM210.081 130.288C208.753 130.288 207.521 130.072 206.385 129.64C205.265 129.208 204.289 128.6 203.457 127.816C202.641 127.032 202.001 126.112 201.537 125.056C201.089 124 200.865 122.848 200.865 121.6C200.865 120.352 201.089 119.2 201.537 118.144C202.001 117.088 202.649 116.168 203.481 115.384C204.313 114.6 205.289 113.992 206.409 113.56C207.529 113.128 208.745 112.912 210.057 112.912C211.385 112.912 212.601 113.128 213.705 113.56C214.825 113.992 215.793 114.6 216.609 115.384C217.441 116.168 218.089 117.088 218.553 118.144C219.017 119.184 219.249 120.336 219.249 121.6C219.249 122.848 219.017 124.008 218.553 125.08C218.089 126.136 217.441 127.056 216.609 127.84C215.793 128.608 214.825 129.208 213.705 129.64C212.601 130.072 211.393 130.288 210.081 130.288ZM210.057 126.976C210.809 126.976 211.497 126.848 212.121 126.592C212.761 126.336 213.321 125.968 213.801 125.488C214.281 125.008 214.649 124.44 214.905 123.784C215.177 123.128 215.313 122.4 215.313 121.6C215.313 120.8 215.177 120.072 214.905 119.416C214.649 118.76 214.281 118.192 213.801 117.712C213.337 117.232 212.785 116.864 212.145 116.608C211.505 116.352 210.809 116.224 210.057 116.224C209.305 116.224 208.609 116.352 207.969 116.608C207.345 116.864 206.793 117.232 206.313 117.712C205.833 118.192 205.457 118.76 205.185 119.416C204.929 120.072 204.801 120.8 204.801 121.6C204.801 122.384 204.929 123.112 205.185 123.784C205.457 124.44 205.825 125.008 206.289 125.488C206.769 125.968 207.329 126.336 207.969 126.592C208.609 126.848 209.305 126.976 210.057 126.976ZM222.244 130V113.2H230.068C232.02 113.2 233.54 113.576 234.628 114.328C235.716 115.08 236.26 116.152 236.26 117.544C236.26 118.92 235.748 119.992 234.724 120.76C233.7 121.512 232.34 121.888 230.644 121.888L231.1 120.88C232.988 120.88 234.452 121.256 235.492 122.008C236.532 122.76 237.052 123.848 237.052 125.272C237.052 126.744 236.492 127.904 235.372 128.752C234.268 129.584 232.652 130 230.524 130H222.244ZM226.108 127.12H230.38C231.276 127.12 231.956 126.944 232.42 126.592C232.884 126.24 233.116 125.696 233.116 124.96C233.116 124.256 232.884 123.736 232.42 123.4C231.956 123.048 231.276 122.872 230.38 122.872H226.108V127.12ZM226.108 120.16H229.732C230.58 120.16 231.22 119.992 231.652 119.656C232.084 119.304 232.3 118.792 232.3 118.12C232.3 117.448 232.084 116.944 231.652 116.608C231.22 116.256 230.58 116.08 229.732 116.08H226.108V120.16ZM238.231 130L245.719 113.2H249.559L257.071 130H252.991L246.847 115.168H248.383L242.215 130H238.231ZM241.975 126.4L243.007 123.448H251.647L252.703 126.4H241.975ZM267.984 130V124.696L268.944 125.536H264.336C262.88 125.536 261.624 125.296 260.568 124.816C259.512 124.336 258.704 123.64 258.144 122.728C257.584 121.816 257.304 120.728 257.304 119.464C257.304 118.152 257.6 117.032 258.192 116.104C258.8 115.16 259.648 114.44 260.736 113.944C261.824 113.448 263.104 113.2 264.576 113.2H271.824V130H267.984ZM257.352 130L261.528 123.976H265.464L261.456 130H257.352ZM267.984 123.448V115.36L268.944 116.368H264.672C263.568 116.368 262.72 116.624 262.128 117.136C261.552 117.648 261.264 118.408 261.264 119.416C261.264 120.392 261.544 121.144 262.104 121.672C262.664 122.2 263.488 122.464 264.576 122.464H268.944L267.984 123.448Z" fill="white"/>
<path d="M150.111 151V134.2H157.383C158.887 134.2 160.183 134.448 161.271 134.944C162.359 135.424 163.199 136.12 163.791 137.032C164.383 137.944 164.679 139.032 164.679 140.296C164.679 141.544 164.383 142.624 163.791 143.536C163.199 144.448 162.359 145.152 161.271 145.648C160.183 146.128 158.887 146.368 157.383 146.368H152.271L153.999 144.616V151H150.111ZM153.999 145.048L152.271 143.2H157.167C158.367 143.2 159.263 142.944 159.855 142.432C160.447 141.92 160.743 141.208 160.743 140.296C160.743 139.368 160.447 138.648 159.855 138.136C159.263 137.624 158.367 137.368 157.167 137.368H152.271L153.999 135.52V145.048ZM175.519 151.288C174.191 151.288 172.959 151.072 171.823 150.64C170.703 150.208 169.727 149.6 168.895 148.816C168.079 148.032 167.439 147.112 166.975 146.056C166.527 145 166.303 143.848 166.303 142.6C166.303 141.352 166.527 140.2 166.975 139.144C167.439 138.088 168.087 137.168 168.919 136.384C169.751 135.6 170.727 134.992 171.847 134.56C172.967 134.128 174.183 133.912 175.495 133.912C176.823 133.912 178.039 134.128 179.143 134.56C180.263 134.992 181.231 135.6 182.047 136.384C182.879 137.168 183.527 138.088 183.991 139.144C184.455 140.184 184.687 141.336 184.687 142.6C184.687 143.848 184.455 145.008 183.991 146.08C183.527 147.136 182.879 148.056 182.047 148.84C181.231 149.608 180.263 150.208 179.143 150.64C178.039 151.072 176.831 151.288 175.519 151.288ZM175.495 147.976C176.247 147.976 176.935 147.848 177.559 147.592C178.199 147.336 178.759 146.968 179.239 146.488C179.719 146.008 180.087 145.44 180.343 144.784C180.615 144.128 180.751 143.4 180.751 142.6C180.751 141.8 180.615 141.072 180.343 140.416C180.087 139.76 179.719 139.192 179.239 138.712C178.775 138.232 178.223 137.864 177.583 137.608C176.943 137.352 176.247 137.224 175.495 137.224C174.743 137.224 174.047 137.352 173.407 137.608C172.783 137.864 172.231 138.232 171.751 138.712C171.271 139.192 170.895 139.76 170.623 140.416C170.367 141.072 170.239 141.8 170.239 142.6C170.239 143.384 170.367 144.112 170.623 144.784C170.895 145.44 171.263 146.008 171.727 146.488C172.207 146.968 172.767 147.336 173.407 147.592C174.047 147.848 174.743 147.976 175.495 147.976ZM197.714 147.832L196.85 148.72V134.2H200.714V148.72L199.802 147.832H206.906L205.994 148.72V134.2H209.858V151H187.682V134.2H191.546V148.72L190.658 147.832H197.714ZM208.538 154.48V150.088L209.45 151H205.922V147.832H212.138V154.48H208.538ZM212.997 151L220.485 134.2H224.325L231.837 151H227.757L221.613 136.168H223.149L216.981 151H212.997ZM216.741 147.4L217.773 144.448H226.413L227.469 147.4H216.741Z" fill="white"/>
<path fill-rule="evenodd" clip-rule="evenodd" d="M187.554 9.19067C188.041 7.14036 190.959 7.14036 191.446 9.19067L192.695 14.4472C193.32 17.0801 196.325 18.345 198.645 16.952L203.467 14.0569C205.295 12.9594 207.342 15.102 206.163 16.878L203.511 20.8701C201.951 23.2192 203.246 26.4018 206.004 26.9939L210.896 28.0446C213.002 28.4971 213.002 31.5029 210.896 31.9554L206.004 33.0061C203.246 33.5982 201.951 36.7808 203.511 39.1299L206.163 43.122C207.342 44.898 205.295 47.0406 203.467 45.9431L198.645 43.048C196.325 41.655 193.32 42.9199 192.695 45.5528L191.446 50.8093C190.959 52.8596 188.041 52.8596 187.554 50.8093L186.305 45.5528C185.68 42.9199 182.675 41.655 180.355 43.048L175.533 45.9431C173.705 47.0406 171.658 44.898 172.837 43.122L175.489 39.1299C177.049 36.7808 175.754 33.5982 172.996 33.0061L168.104 31.9554C165.998 31.5029 165.998 28.4971 168.104 28.0446L172.996 26.9939C175.754 26.4018 177.049 23.2192 175.489 20.8701L172.837 16.878C171.658 15.102 173.705 12.9594 175.533 14.0569L180.355 16.9519C182.675 18.345 185.68 17.0801 186.305 14.4472L187.554 9.19067ZM192.858 38.9098C192.858 38.0189 193.935 37.5728 194.565 38.2027L196.003 39.6405C196.512 40.1488 196.333 41.0114 195.665 41.2769L194.228 41.8483C193.571 42.1092 192.858 41.6255 192.858 40.919V38.9098ZM186.16 39.2652C186.155 38.3743 185.075 37.9342 184.449 38.5677L183.036 39.9964C182.539 40.4988 182.706 41.3439 183.356 41.62L184.78 42.2246C185.442 42.5055 186.175 42.0173 186.171 41.2985L186.16 39.2652ZM198.569 34.8768C197.939 34.2471 198.385 33.1698 199.276 33.1695L201.309 33.1687C202.028 33.1685 202.512 33.9042 202.228 34.5644L201.616 35.9853C201.336 36.6341 200.49 36.7964 199.991 36.297L198.569 34.8768ZM199.661 25.7604C199.069 26.4265 199.578 27.4754 200.468 27.4227L202.473 27.304C203.179 27.2623 203.619 26.5222 203.32 25.8822L202.665 24.4807C202.36 23.8295 201.489 23.7027 201.011 24.2402L199.661 25.7604ZM179.507 33.2092C180.395 33.1392 180.925 34.178 180.346 34.8555L179.026 36.4017C178.559 36.9484 177.685 36.8387 177.368 36.1935L176.685 34.8051C176.374 34.171 176.8 33.4225 177.504 33.367L179.507 33.2092ZM179.55 27.2435C180.44 27.283 180.934 26.2268 180.332 25.5695L178.976 24.0871C178.499 23.5659 177.647 23.6901 177.339 24.3258L176.663 25.7178C176.35 26.3647 176.801 27.1213 177.519 27.1532L179.55 27.2435ZM186.267 20.4813C186.291 21.3719 185.227 21.847 184.58 21.2343L183.104 19.8359C182.582 19.3415 182.736 18.4744 183.397 18.1909L184.819 17.5809C185.468 17.3024 186.194 17.7667 186.213 18.4729L186.267 20.4813ZM193.363 20.5154C193.233 21.3968 194.233 21.9956 194.948 21.4644L196.561 20.2666C197.128 19.8454 197.092 18.9848 196.491 18.6132L195.175 17.7996C194.564 17.4215 193.765 17.7928 193.66 18.5039L193.363 20.5154Z" fill="#982727"/>
<circle cx="189.5" cy="29.5" r="8" stroke="#C18832"/>
<path d="M334 68.5L337.5 67L341 254H331L334 68.5Z" fill="#9EB9D1"/>
<rect x="304" y="27.3337" width="4" height="52" transform="rotate(-35.6917 304 27.3337)" fill="#9EB9D1"/>
<path d="M284.65 19.0792C285.502 17.5512 287.248 16.7541 288.96 17.1116L298.013 19.0009C298.539 19.1107 299.044 19.3046 299.509 19.5751L307.127 24.0133C307.899 24.4629 308.378 25.2845 308.39 26.1777C308.411 27.8043 306.92 29.0321 305.327 28.6998L295.705 26.6915L287.326 24.9428C284.684 24.3915 283.335 21.4362 284.65 19.0792Z" fill="#9EB9D1"/>
<ellipse cx="294.444" cy="23.3906" rx="10" ry="2" transform="rotate(14.8212 294.444 23.3906)" fill="#625A5A"/>
<path fill-rule="evenodd" clip-rule="evenodd" d="M166 262.177V267H112V110C112 95.0883 124.088 83 139 83C153.912 83 166 95.0883 166 110V120.823C168.504 117.665 171.179 114.798 174 112.257V110C174 90.67 158.33 75 139 75C119.67 75 104 90.67 104 110V267V275H112H166H174V270.743C171.179 268.202 168.504 265.335 166 262.177Z" fill="#D9D9D9"/>
<path fill-rule="evenodd" clip-rule="evenodd" d="M177 263.819V267.143H100V104.5C100 83.237 117.237 66 138.5 66C159.763 66 177 83.237 177 104.5V105.152C179.442 102.838 181.993 100.687 184.644 98.714C181.795 75.7632 162.222 58 138.5 58C112.819 58 92 78.8187 92 104.5V267.143V275.143H100H177H185V270.521C182.222 268.476 179.551 266.237 177 263.819Z" fill="#D9D9D9"/>
<path fill-rule="evenodd" clip-rule="evenodd" d="M215 262.177V267H269V110C269 95.0883 256.912 83 242 83C227.088 83 215 95.0883 215 110V120.823C212.496 117.665 209.821 114.798 207 112.257V110C207 90.67 222.67 75 242 75C261.33 75 277 90.67 277 110V267V275H269H215H207V270.743C209.821 268.202 212.496 265.335 215 262.177Z" fill="#D9D9D9"/>
<path fill-rule="evenodd" clip-rule="evenodd" d="M204 263.819V267.143H281V104.5C281 83.237 263.763 66 242.5 66C221.237 66 204 83.237 204 104.5V105.152C201.558 102.838 199.007 100.687 196.356 98.714C199.205 75.7632 218.778 58 242.5 58C268.181 58 289 78.8187 289 104.5V267.143V275.143H281H204H196V270.521C198.778 268.476 201.449 266.237 204 263.819Z" fill="#D9D9D9"/>
</g>
<defs>
<linearGradient id="paint0_linear_20_448" x1="180" y1="-6" x2="180" y2="236" gradientUnits="userSpaceOnUse">
<stop stop-color="#1167EA"/>
<stop offset="1" stop-color="#A4BEE6"/>
</linearGradient>
<linearGradient id="paint1_linear_20_448" x1="195" y1="109" x2="195" y2="281" gradientUnits="userSpaceOnUse">
<stop stop-color="#1B800B"/>
<stop offset="1" stop-color="#50CC3C"/>
</linearGradient>
<clipPath id="clip0_20_448">
<path d="M0 0H393V260H0V0Z" fill="white"/>
</clipPath>
</defs>
</svg>
