<svg width="393" height="260" viewBox="0 0 393 260" fill="none" xmlns="http://www.w3.org/2000/svg">
<g clip-path="url(#clip0_22_697)">
<path d="M393 0H0V260H393V0Z" fill="white" fill-opacity="0.2"/>
<path d="M393 0H0V260H393V0Z" fill="#B9BEC4" fill-opacity="0.2"/>
<rect x="-10" y="-3" width="411" height="129" fill="url(#paint0_linear_22_697)"/>
<path d="M-20.7764 159.892C-20.7936 144.455 -7.0211 132.649 8.23226 135.027L34.101 139.06L95.7539 142.679L215.969 142.809L280.701 142.879L401.314 143.009C423.211 143.033 440.697 161.258 439.813 183.137V183.137C438.933 204.927 420.178 221.655 398.43 220.048L273.584 210.822L216.972 210.76C214.304 210.758 211.64 210.532 209.009 210.087L176.994 204.665L99.4061 193.133L34.1549 187.562L2.28026 184.915C-10.7404 183.834 -20.7619 172.958 -20.7764 159.892V159.892Z" fill="#5975D8"/>
<path d="M-20.7764 159.892C-20.7936 144.455 -7.0211 132.649 8.23226 135.027L34.101 139.06L95.7539 142.679L215.969 142.809L280.701 142.879L401.314 143.009C423.211 143.033 440.697 161.258 439.813 183.137V183.137C438.933 204.927 420.178 221.655 398.43 220.048L273.584 210.822L216.972 210.76C214.304 210.758 211.64 210.532 209.009 210.087L176.994 204.665L99.4061 193.133L34.1549 187.562L2.28026 184.915C-10.7404 183.834 -20.7619 172.958 -20.7764 159.892V159.892Z" fill="url(#paint1_linear_22_697)"/>
<path d="M186 141H193L201 174.5H194L192.5 168.219L186 141Z" fill="#D7D1D1"/>
<path d="M194 173L196.5 173.5L198 173.5L201 173L202.5 172L209.5 193L199.8 196.448L194 173Z" fill="#CBC4C4"/>
<path d="M116 141H187L200 196.5L109.5 180.5L116 141Z" fill="#A8A2A2"/>
<path d="M195.5 178.5L198 178.5L200.5 178.5L204 178L204.5 177.5L205 179.5L202 180L199 180.5L196 180.5L195.5 178.5Z" fill="#4F4F4F"/>
<path d="M-14 111L11.5 115L63 121L109 125H135.5L195 121L303.5 115L363.5 111H401V140H-14V111Z" fill="#33791B"/>
<path d="M-14 111L11.5 115L63 121L109 125H135.5L195 121L303.5 115L363.5 111H401V140H-14V111Z" fill="url(#paint2_linear_22_697)"/>
<path d="M-16.3572 149C-18.1509 143.584 -14.118 138 -8.41251 138H84.5995H191.801L245.922 141.348L300.564 138H351.042H401V149L379.664 144.696H321.9H273.503H216.78H98.1298L-16.3572 149V149Z" fill="#B5A38E"/>
<path d="M309.698 130.04L311.863 130.05L314.286 140.422L312.121 140.411L311.667 138.467L309.698 130.04Z" fill="#D7D1D1"/>
<path d="M312.124 139.947L312.896 140.106L313.36 140.108L314.288 139.958L314.754 139.651L316.887 146.155L313.882 147.207L312.124 139.947Z" fill="#CBC4C4"/>
<path d="M288.052 129.934L310.007 130.041L313.944 147.223L285.982 142.139L288.052 129.934Z" fill="#A8A2A2"/>
<path d="M312.579 141.65L313.352 141.654L314.125 141.658L315.208 141.509L315.364 141.355L315.515 141.974L314.587 142.124L313.659 142.274L312.731 142.27L312.579 141.65Z" fill="#4F4F4F"/>
<rect x="54" y="142.805" width="141" height="6" transform="rotate(-3.17322 54 142.805)" fill="#5E5B5B"/>
<path d="M-4.99997 142.5L-7.99997 132.5L69.5 134.5L167.5 132.5L325.402 125L325.714 130.064L-14 152.5L-4.99997 142.5Z" fill="#BABAD0"/>
<path d="M199.5 156.5L203.5 158H208H219.5H228H236.5L241 157L240 160H220H209H204L200.5 159L199.5 156.5Z" fill="#312B2B"/>
<path d="M199.5 156.5L241 157L238 158.5H204L199.5 156.5Z" fill="#681010"/>
<path d="M206 155C206 153.895 206.895 153 208 153H235C236.657 153 238 154.343 238 156V157H206V155Z" fill="#887A7A"/>
<rect x="209" y="154" width="2" height="2" fill="#082E8D"/>
<rect x="231" y="154" width="2" height="2" fill="#082E8D"/>
<rect x="219" y="154" width="2" height="2" fill="#082E8D"/>
<rect x="146" y="109.013" width="53.0202" height="2.22975" transform="rotate(-21.0145 146 109.013)" fill="#B0B7B9"/>
<rect x="143" y="112.167" width="58.7543" height="2" transform="rotate(-21.1167 143 112.167)" fill="#7E858A"/>
<rect width="47.3059" height="1.94454" transform="matrix(0.877026 0.480442 -0.462296 0.886725 158.055 90.8348)" fill="#B0B7B9"/>
<rect width="52.4201" height="1.74425" transform="matrix(0.877862 0.478913 -0.460678 0.887567 154.226 90.5944)" fill="#7E858A"/>
<rect x="162.593" y="89.4353" width="45.8311" height="1.92741" transform="rotate(-21.0145 162.593 89.4353)" fill="#B0B7B9"/>
<rect x="160" y="92.1616" width="50.7876" height="1.72882" transform="rotate(-21.1167 160 92.1616)" fill="#7E858A"/>
<rect width="29.0832" height="1.19548" transform="matrix(0.938069 0.346448 -0.327075 0.944998 174 78.7742)" fill="#B0B7B9"/>
<rect width="32.2273" height="1.07234" transform="matrix(0.938671 0.344813 -0.325351 0.945593 171.65 78.9737)" fill="#7E858A"/>
<rect width="21.4612" height="0.882178" transform="matrix(0.900264 0.435344 -0.416729 0.909031 187.272 67.0622)" fill="#B0B7B9"/>
<rect width="23.7814" height="0.79131" transform="matrix(0.901022 0.433774 -0.415071 0.909789 185.531 67.0414)" fill="#7E858A"/>
<rect x="174.424" y="76.4748" width="37.1902" height="1.56402" transform="rotate(-15.6558 174.424 76.4748)" fill="#B0B7B9"/>
<rect x="172.122" y="78.481" width="41.2122" height="1.40287" transform="rotate(-15.758 172.122 78.481)" fill="#7E858A"/>
<rect width="21.4612" height="0.882178" transform="matrix(0.960962 0.276679 -0.25685 0.966451 192.493 60.6547)" fill="#B0B7B9"/>
<rect width="23.7814" height="0.79131" transform="matrix(0.961443 0.275004 -0.255086 0.966918 190.774 60.9288)" fill="#7E858A"/>
<rect x="186.88" y="67.4489" width="28.8387" height="1.2128" transform="rotate(-15.6558 186.88 67.4489)" fill="#B0B7B9"/>
<rect x="185.095" y="69.0045" width="31.9575" height="1.08784" transform="rotate(-15.758 185.095 69.0045)" fill="#7E858A"/>
<rect width="18.6821" height="0.718969" transform="matrix(0.953004 0.302959 -0.225679 0.974202 197.122 54.8022)" fill="#B0B7B9"/>
<rect width="20.6999" height="0.644989" transform="matrix(0.953495 0.301408 -0.223786 0.974638 195.666 54.9694)" fill="#7E858A"/>
<rect x="192.837" y="60.2936" width="25.6015" height="1.07666" transform="rotate(-11.2896 192.837 60.2936)" fill="#B0B7B9"/>
<rect x="191.152" y="61.55" width="28.3703" height="0.965726" transform="rotate(-11.3917 191.152 61.55)" fill="#7E858A"/>
<path d="M233.5 40.5L217.5 50L209 57.5L202.5 63.5L196 71L185.5 83.5L175.5 103.5L173 102.5L168.5 105L173 95.5L183 82L198 65L206 57.5L216.5 49L233.5 40.5Z" fill="#B0B7B9"/>
<rect width="33.0913" height="1.90842" transform="matrix(-0.841208 -0.540711 -0.274144 0.961689 317.52 114.797)" fill="#B0B7B9"/>
<rect width="36.696" height="1.71113" transform="matrix(-0.839941 -0.542677 -0.275341 0.961347 319.145 117.661)" fill="#7E858A"/>
<rect width="30.6242" height="1.28964" transform="matrix(-0.687691 0.503567 0.347147 1.07343 309.524 100.442)" fill="#B0B7B9"/>
<rect width="33.9362" height="1.15675" transform="matrix(-0.688308 0.501648 0.345923 1.07433 311.461 100.458)" fill="#7E858A"/>
<rect width="28.6044" height="1.64965" transform="matrix(-0.841208 -0.540711 -0.274144 0.961689 308.593 97.0549)" fill="#B0B7B9"/>
<rect width="31.7203" height="1.47912" transform="matrix(-0.839941 -0.542677 -0.275341 0.961347 309.999 99.5311)" fill="#7E858A"/>
<rect width="19.8969" height="0.856154" transform="matrix(-0.751076 0.395809 0.207353 1.10622 302.335 87.1204)" fill="#B0B7B9"/>
<rect width="22.0495" height="0.76791" transform="matrix(-0.751425 0.393775 0.206051 1.10695 303.591 87.33)" fill="#7E858A"/>
<rect width="15.4265" height="0.625797" transform="matrix(-0.703349 0.489763 0.284007 1.09755 295.083 76.5499)" fill="#B0B7B9"/>
<rect width="17.0939" height="0.56135" transform="matrix(-0.703876 0.487902 0.282689 1.09838 296.037 76.5652)" fill="#7E858A"/>
<rect width="23.3003" height="1.33589" transform="matrix(-0.86931 -0.413599 -0.2161 0.996346 302.198 85.2932)" fill="#B0B7B9"/>
<rect width="25.838" height="1.1978" transform="matrix(-0.868183 -0.415733 -0.217318 0.996174 303.458 87.1232)" fill="#7E858A"/>
<rect width="14.0542" height="0.63198" transform="matrix(-0.784663 0.317861 0.150755 1.10681 292.285 70.6463)" fill="#B0B7B9"/>
<rect width="15.5759" height="0.566804" transform="matrix(-0.784859 0.315714 0.149461 1.10745 293.182 70.9011)" fill="#7E858A"/>
<rect width="18.0679" height="1.0359" transform="matrix(-0.86931 -0.413599 -0.2161 0.996346 295.323 77.0184)" fill="#B0B7B9"/>
<rect width="20.0358" height="0.928819" transform="matrix(-0.868183 -0.415733 -0.217318 0.996174 296.3 78.4374)" fill="#7E858A"/>
<rect width="12.4658" height="0.524958" transform="matrix(-0.781419 0.351724 0.12783 1.11741 289.217 66.0733)" fill="#B0B7B9"/>
<rect width="13.8139" height="0.470866" transform="matrix(-0.781645 0.349727 0.126439 1.11804 289.996 66.2397)" fill="#7E858A"/>
<rect width="16.178" height="0.915329" transform="matrix(-0.881617 -0.306345 -0.167711 1.02132 292.122 70.5364)" fill="#B0B7B9"/>
<rect width="17.9394" height="0.820719" transform="matrix(-0.880639 -0.308594 -0.16894 1.02128 293.051 71.6873)" fill="#7E858A"/>
<path d="M269.381 52.125L278.276 60.8918L282.927 67.7309L286.475 73.1962L289.977 79.9956L295.622 91.3213L300.749 109.307L302.215 108.468L304.723 110.78L302.431 102.242L297.104 90.0369L289.013 74.6196L284.65 67.7905L278.881 60.0223L269.381 52.125Z" fill="#B0B7B9"/>
<path d="M178.5 121.5L181.5 120.5L186 124L187.5 114.5L193 97.5L197.5 85L203.5 75L208.5 64.5L217.5 53L226.5 45L236 39L245 37.5H254L264 41L271.5 46L278 52.5L284.5 59.5L289.5 66L300 81L307.5 92L313 102.5L319 114L323 125L315 125.5L313.5 115L310.5 103.5L308 99L302 87.5L288.5 67.5L274 51.5L265 45L256 42.5L249 41.5H242L237 44L232 48.5L225.5 54L219 62L213 72L209.5 83L206 96L204 108.5L200 134L199 142L197 142.5H193.5L191.5 139.5L189.5 135.5L186 134L182.5 128L178.5 121.5Z" fill="#EC6D6F"/>
<path d="M234.5 45.5L239.5 42L245 41H251.5L258 42L265 44.5L271 48L281.5 58.5L288.5 66.5L293 73.5L303 89L310.5 103L312.5 109.5L298 84L280.5 60L272 53L273 55.5L278.5 62.5L282.5 70.5L287.5 84L289 92L291 101.5L293 113.5L294 126H287.5L288.5 115.5L287.5 105L286.5 94.5L284 84L279.5 73.5L275.5 65L270 58.5L266 53.5L262.5 49.5L258 46.5L246.5 43L234.5 45.5Z" fill="#CD5858"/>
<path d="M121 126L131.5 113.5L141.5 103L152 91.5L172.5 73L194.5 56L210.5 45.5L224.5 40.5L244.5 37.5L236 39L218.5 45.5L191 64L158 95L144 113.5L133 133H104.5V126H121Z" fill="#EC6D6F"/>
<path d="M161.5 90.5L179.5 73.5L192 63L206 52.5L219 45L235 39.5L220 46.5L204.5 56.5L188.5 69.5L168.5 88L146.5 113L142.5 118L138 123L148.5 106.5L161.5 90.5Z" fill="#CD5858"/>
<path d="M-2.22336 180.826L55.7766 186.326L112.277 192.826L209.277 207.827L259.777 204.827L308.777 207.827L338.777 207.827L363.777 212.327L383.277 212.326L411.277 217.826L397.757 293.496L-2.22335 236.65L-2.22336 180.826Z" fill="#B5A38E"/>
<path d="M-2.22336 180.826L55.7766 186.326L112.277 192.826L209.277 207.827L259.777 204.827L308.777 207.827L338.777 207.827L363.777 212.327L383.277 212.326L411.277 217.826L397.757 293.496L-2.22335 236.65L-2.22336 180.826Z" fill="url(#paint3_linear_22_697)" fill-opacity="0.58"/>
<rect x="251" y="109" width="5" height="13" fill="#A9BA7A"/>
<rect x="254" y="116" width="1" height="1" fill="#5B6CC4"/>
<rect x="252" y="116" width="1" height="1" fill="#5B6CC4"/>
<rect x="254" y="118" width="1" height="1" fill="#5B6CC4"/>
<rect x="252" y="118" width="1" height="1" fill="#5B6CC4"/>
<rect x="254" y="110" width="1" height="1" fill="#5B6CC4"/>
<rect x="252" y="110" width="1" height="1" fill="#5B6CC4"/>
<rect x="254" y="114" width="1" height="1" fill="#5B6CC4"/>
<rect x="252" y="114" width="1" height="1" fill="#5B6CC4"/>
<rect x="254" y="112" width="1" height="1" fill="#5B6CC4"/>
<rect x="252" y="112" width="1" height="1" fill="#5B6CC4"/>
<rect x="262" y="105" width="5" height="16" fill="#A39595"/>
<rect x="265" y="106" width="1" height="1" fill="#5B6CC4"/>
<rect x="263" y="106" width="1" height="1" fill="#5B6CC4"/>
<rect x="265" y="108" width="1" height="1" fill="#5B6CC4"/>
<rect x="263" y="108" width="1" height="1" fill="#5B6CC4"/>
<rect x="265" y="110" width="1" height="1" fill="#5B6CC4"/>
<rect x="263" y="110" width="1" height="1" fill="#5B6CC4"/>
<rect x="265" y="112" width="1" height="1" fill="#5B6CC4"/>
<rect x="263" y="112" width="1" height="1" fill="#5B6CC4"/>
<rect x="265" y="114" width="1" height="1" fill="#5B6CC4"/>
<rect x="263" y="114" width="1" height="1" fill="#5B6CC4"/>
<rect x="265" y="116" width="1" height="1" fill="#5B6CC4"/>
<rect x="263" y="116" width="1" height="1" fill="#5B6CC4"/>
<rect x="272" y="113" width="13" height="4" fill="#AF4545"/>
<rect x="273" y="114" width="1" height="1" fill="#5B6CC3"/>
<rect x="276" y="114" width="1" height="1" fill="#5B6CC3"/>
<rect x="279" y="114" width="1" height="1" fill="#5B6CC3"/>
<rect x="282" y="114" width="1" height="1" fill="#5B6CC3"/>
<path d="M-7 150.633L14.9204 134.084L16.4441 133.148C33.8011 122.489 52.9119 114.995 72.8876 111.015V111.015L89.4496 108.507L116.728 113.021L142.546 121.546L158.864 125.307L171.773 132.507L183 143L191 163L196.616 196L199 217.5L196.616 239.5L171.773 276.507H-1.64169L-7 150.633Z" fill="#1A9A17" fill-opacity="0.83"/>
<path d="M-7 148.125L14.9036 131.576L16.4309 130.637C33.7713 119.981 52.8663 112.488 72.8265 108.507V108.507L89.3759 106L96.6771 108.507L104.952 114.525L110.793 125.057V131.576L128.316 148.125V182.728L161.901 202.287L195 238.896L171.636 274H-1.64578L-7 148.125Z" fill="url(#paint4_linear_22_697)" fill-opacity="0.74"/>
<path d="M332.027 377.666L311.045 359.942L309.796 358.663C295.567 344.089 284.037 327.105 275.743 308.502V308.502L269.639 292.903L258 269.5L258 243L269.639 216.5L288.283 198L311.045 186L332.027 175.505L359 166L387.5 158.5L415.306 175.505L453.61 344.637L332.027 377.666Z" fill="#1A9A17" fill-opacity="0.74"/>
<path d="M332.027 377.666L311.049 359.958L309.796 358.676C295.572 344.118 284.047 327.15 275.756 308.561V308.561L269.655 292.975L270.488 285.3L274.53 275.9L283.511 267.877L269.655 267.877L294.5 238L332.027 222.5L357 186.5L375.938 160.606L415.336 175.639L453.611 344.641L332.027 377.666Z" fill="url(#paint5_linear_22_697)" fill-opacity="0.74"/>
</g>
<defs>
<linearGradient id="paint0_linear_22_697" x1="195.5" y1="-3" x2="195.5" y2="126" gradientUnits="userSpaceOnUse">
<stop stop-color="#5C0073"/>
<stop offset="0.963542" stop-color="#AE61D9"/>
</linearGradient>
<linearGradient id="paint1_linear_22_697" x1="210.435" y1="133.722" x2="207.206" y2="213.657" gradientUnits="userSpaceOnUse">
<stop stop-color="#1A2448"/>
<stop offset="1" stop-color="#6078CB" stop-opacity="0.46"/>
</linearGradient>
<linearGradient id="paint2_linear_22_697" x1="392" y1="126" x2="1.50002" y2="126" gradientUnits="userSpaceOnUse">
<stop stop-color="#308512"/>
<stop offset="1" stop-color="#225E0C"/>
</linearGradient>
<linearGradient id="paint3_linear_22_697" x1="206.255" y1="187.168" x2="195.234" y2="264.713" gradientUnits="userSpaceOnUse">
<stop stop-color="#CFA471" stop-opacity="0.47"/>
<stop offset="1" stop-color="#623603"/>
</linearGradient>
<linearGradient id="paint4_linear_22_697" x1="128.316" y1="156.651" x2="-6.47229" y2="270.517" gradientUnits="userSpaceOnUse">
<stop stop-color="#10940E"/>
<stop offset="1" stop-color="#039400"/>
</linearGradient>
<linearGradient id="paint5_linear_22_697" x1="310.454" y1="243.809" x2="451.279" y2="350.117" gradientUnits="userSpaceOnUse">
<stop stop-color="#10940E"/>
<stop offset="1" stop-color="#039400"/>
</linearGradient>
<clipPath id="clip0_22_697">
<path d="M0 0H393V260H0V0Z" fill="white"/>
</clipPath>
</defs>
</svg>
