<svg width="393" height="260" viewBox="0 0 393 260" fill="none" xmlns="http://www.w3.org/2000/svg">
<g clip-path="url(#clip0_14_2)">
<path opacity="0.1" d="M393 0H0V260H393V0Z" fill="white"/>
<path opacity="0.1" d="M393 0H0V260H393V0Z" fill="#2463AE"/>
<rect x="-2" width="395" height="160" fill="url(#paint0_linear_14_2)"/>
<path d="M97 114C99.7614 114 102 111.761 102 109V82.5V82.5C102 78.8431 107.336 78.4492 107.873 82.0665L110.612 100.521C111.048 103.455 114.238 105.092 116.875 103.735L129 97.5L152.714 88.9137C155.528 87.895 158.601 89.5593 159.284 92.4726L169.346 135.344C169.448 135.779 169.492 136.226 169.475 136.673L167.687 184.494C167.584 187.257 165.257 189.412 162.494 189.303L104.48 187.019C104.161 187.006 103.843 186.963 103.532 186.89L90.9965 183.94C88.6736 183.394 87.0606 181.282 87.1448 178.897L88.5 140.5L90.5726 118.53C90.8149 115.962 92.971 114 95.5505 114H97Z" fill="#20802A"/>
<path d="M247 87L316.5 79.5L313.5 128.5L297.5 226.5L280 152L262.5 191L177 189V143L180.873 128.8C182.489 122.874 189.904 120.904 194.248 125.248L203.5 134.5L200.051 110.354C199.727 108.088 200.984 105.891 203.101 105.022L247 87Z" fill="#20802A"/>
<path d="M255.223 49.3623C250.418 41.6311 256.547 31.7425 265.608 32.6055L324.878 38.2502C326.597 38.414 328.329 38.1298 329.905 37.4254L381.105 14.549C389.043 11.0023 398 16.8109 398 25.5051V101L405.5 139.5L363.42 154H320.253L255.223 49.3623Z" fill="#20802A"/>
<path d="M40 160L92 183.5L155 187.5H184.5H254.5L379 160V224H40V160Z" fill="#606F70"/>
<path d="M135 210H163.133L166.5 210.5L169 260H104L135 210Z" fill="#B65F5F"/>
<path d="M1 220L82 218L113 220L88 241L65.5 260H1V220Z" fill="#B65F5F"/>
<path d="M92.5 211L104.5 209.5L117.5 211L113 220H82L84 215.5L92.5 211Z" fill="#B65F5F"/>
<path d="M180.5 211H224L313 260H208.5L179 211H180.5Z" fill="#B65F5F"/>
<path d="M249 214H274L440.5 261H355L249 214Z" fill="#B65F5F"/>
<path d="M323.5 214H356H393V246.5L294.5 214H323.5Z" fill="#B65F5F"/>
<path d="M290 207H303L324 214H296L290 207Z" fill="#B65F5F"/>
<path d="M113 218H131L103 261.5H63.5L113 218Z" fill="#596869"/>
<path d="M165 218H184L209 260.5L168.5 266.5L165 218Z" fill="#596869"/>
<path d="M233.5 216.5L249.5 214L357.5 262H314L233.5 216.5Z" fill="#596869"/>
<path d="M292 214V211.5L289.5 208V207H290L413 253.5L276 214.5H285L292 214Z" fill="#596869"/>
<path d="M279.5 208H289.5L292 211.5H274.5L271.5 210.5L275 207.5H277.5L279.5 208Z" fill="#836175"/>
<path d="M274.5 211.5H292L292.5 214.5H276L272 214H268L265 210V204.5L274.5 211.5Z" fill="#664B62"/>
<path d="M118 104H131V211H118V104Z" fill="#CDD1E0"/>
<path d="M131 105V104.5L133.5 103.5V208L131 210V105Z" fill="#B2B3C7"/>
<path d="M118 210.5H130.5L133 214H115L118 210.5Z" fill="#836175"/>
<path d="M115.5 214H133L131 218H113L115.5 214Z" fill="#664B62"/>
<path d="M130.5 210.5L131 210L133.5 208L135 210L133 214L130.5 210.5Z" fill="#664B62"/>
<rect x="122" y="81" width="6" height="8" fill="#BDC5D7"/>
<rect x="170" y="81" width="6" height="8" fill="#BDC5D7"/>
<rect x="231" y="82" width="6" height="8" fill="#BDC5D7"/>
<rect x="277" y="82" width="6" height="8" fill="#BDC5D7"/>
<path d="M55 72L341 76V85L55 81.5V72Z" fill="#BDC5D7"/>
<rect x="66" y="73" width="5" height="8" fill="#090909"/>
<rect x="327" y="77" width="6" height="5" fill="#090909"/>
<path d="M54.5 81L82 81.5L81 116L53 116.5L54.5 81Z" fill="#BDC5D7"/>
<path d="M318 83.5L341.5 85L344 118H319.5L318 83.5Z" fill="#BDC5D7"/>
<path d="M319.5 118H344V121H320L319.5 118Z" fill="#D0D1C5"/>
<path d="M320 121H344L348 193.5H323.5L320 121Z" fill="#B7B08C"/>
<path d="M343.5 132H379.5L383.5 194H348L343.5 132Z" fill="#B7B08C"/>
<path d="M299 127.5L320 120.5L323.5 194.5L300.5 193L299 127.5Z" fill="#8A8880"/>
<path d="M310.539 157.591C310.517 155.853 311.849 154.396 313.582 154.263V154.263C315.448 154.119 317.058 155.556 317.128 157.426L318.5 194H311L310.539 157.591Z" fill="#D9D9D9"/>
<path d="M351.892 162.874C351.412 157.018 356.035 152 361.911 152V152C367.183 152 371.559 156.073 371.937 161.332L375 204H355.267L351.892 162.874Z" fill="#494545"/>
<path d="M352.323 164.684C351.88 159.198 356.213 154.5 361.718 154.5V154.5C366.665 154.5 370.77 158.325 371.119 163.26L374 204H355.5L352.323 164.684Z" fill="#D0CFCA"/>
<path d="M379 132H394V194H383.5L379 132Z" fill="#79735C"/>
<path d="M300.5 193L321.5 193.5L323 199L302.5 197L300.5 193Z" fill="#A7A49A"/>
<path d="M321.5 193.5H354.5L355 196H322L321.5 193.5Z" fill="#BFBDB6"/>
<path d="M322.5 198.5L355 198L355.5 205C355.5 205 325.5 205.5 323.5 204.5C321.5 203.5 322.5 198.5 322.5 198.5Z" fill="#BFBDB6"/>
<path d="M374.5 194H394V196L374.5 196.5V194Z" fill="#BFBDB6"/>
<path d="M374.5 198H395V204H375L374.5 198Z" fill="#BFBDB6"/>
<path d="M374.5 196.5L393 196V198H374.5V196.5Z" fill="#A7A49A"/>
<path d="M322 196H355V198L322.5 198.5L322 196Z" fill="#A7A49A"/>
<path d="M322 204H395V209L321.5 208L313 204H322Z" fill="#954444"/>
<path d="M321.5 208H395V215L383 214H361H339.5H330.5H323.5L303 207L302.5 202L313.5 204L321.5 208Z" fill="#852D2D"/>
<path d="M302.5 197L312.5 198L322.5 198.5L323 204H312.5L302.5 202V197Z" fill="#8A8880"/>
<path d="M296.5 89H314L315 123L299.5 128L296.5 89Z" fill="#566281"/>
<path d="M314 84H318L320.5 121L314 123.5V90H298V97H285L282.5 90V84H314Z" fill="#636F8F"/>
<path d="M169 106H178V212H169V106Z" fill="#C8CCDE"/>
<path d="M167 107L169 106V212L166.5 211.5V159.5L167 107Z" fill="#AAADBA"/>
<path d="M178 106H179V211.5L178 212V106Z" fill="#999BA6"/>
<path d="M231 105H240L243.5 210L234 210.5L231 105Z" fill="#C8CCDE"/>
<path d="M229 106.5L231 105.5L234 210L230.5 208.5L228.5 159L229 106.5Z" fill="#AAADBA"/>
<path d="M274.5 106H283.5L289.5 208H279.5L274.5 106Z" fill="#C8CCDE"/>
<path d="M272 108.5L274.5 106L279 189L279.5 205V207V208L275 207.5L274.5 180.5V158.5L272 108.5Z" fill="#AAADBA"/>
<path d="M164 212.5L166 211.5H166.5L169 212H178L179 211L182 215H164.5L164 212.5Z" fill="#836175"/>
<path d="M164.5 215H182L184 218H163.5L164.5 215Z" fill="#664B62"/>
<path d="M234 210H243.5L246 213.5L229 214L226.5 212.5L228 210L230.5 208.5L234 210Z" fill="#836175"/>
<path d="M220 208L222.5 206.5L225 207L230.5 208.5L228 210L226.5 212.5L229 213.833L246 213.5L247 215V216L233.5 216.5L228.5 213.567L224 211H219L220 208Z" fill="#664B62"/>
<path d="M53 120H81L78.5 199H50L53 120Z" fill="#B7B08C"/>
<path d="M0 127.5L15.5 130H53L50 199H17.5L0 200.5V127.5Z" fill="#B7B08C"/>
<path d="M21.9022 162.401C21.9564 157.469 25.9697 153.5 30.9016 153.5H35.3C40.348 153.5 44.4088 157.651 44.2979 162.698L43.5 199H21.5L21.9022 162.401Z" fill="#D0CFCA"/>
<path d="M-0.5 202L82 201L80.5 204L-0.5 205.5V202Z" fill="#A7A49A"/>
<path d="M53 116H67H81V120H53V116Z" fill="#D2DAEC"/>
<path d="M-2 200L19 199H48H82V201L48 201.5H25L0.5 202.5L-2 200Z" fill="#BFBDB6"/>
<path d="M1 205L37 203.5H80V211H44.5L1 212.5V205Z" fill="#BFBDB6"/>
<path d="M80 203L90 200.5L91 207.5L80 211V203Z" fill="#8A8880"/>
<path d="M81 119.5L91 126.5V197L82 199H78.5L81 119.5Z" fill="#8A8880"/>
<path d="M42 211H80L90.5 207.5L91.5 209.5L81 213.5H57H1L0 212.5L42 211Z" fill="#836175"/>
<path d="M0 213.5H41H81L91.5 209.5L92.5 211L91.5 211.5L84 215.5L83 218L55 219H37L0.5 220L0 213.5Z" fill="#664B62"/>
<path d="M81.5 88L82 81.5L122 82L119 85V89L117 90L119 93V96H91.5L91 126.5L81 120L81.5 88Z" fill="#636F8F"/>
<path d="M135.81 82L166.56 82.9787H169L166.56 89.8298L164.119 90.8085L166.56 93.2553L166.071 95.7021V99.617H164.119V95.7021H133.857L132.881 104L130.44 105V94.7234L132.881 89.8298L130.929 88.8511L128 82H135.81Z" fill="#636F8F"/>
<path d="M185.433 83L223 83.5H228V90.1489V91.1702L226.514 92L228 94.5V107L229 106.5L230.5 208.5L222.5 206.5L219.628 97.2979V96.2766L180.457 95.5L178.948 107V96.2766L181.448 92L178.948 90.1489L176 83H185.433Z" fill="#636F8F"/>
<path d="M236.5 83.5L268.425 84H274.452V89.4783L275 90.9723L273.356 92.1379L271.712 92.9644L274.452 95.4545L275 105.913L272 109.5L274.5 160L275 207.5L272 210.5L265 204.5L261.849 186L261 153L259.5 101.5V97.5L239.384 96.4506L239.384 95.4545L239.384 94.4585L241.575 92.1379L237.74 90.4743L237 90L236.5 83.5Z" fill="#636F8F"/>
<path d="M119 84.5L122 82V86V89H120H119V84.5Z" fill="#D2D9F1"/>
<path d="M128 82L130 86L131 89H128V82Z" fill="#D2D9F1"/>
<path d="M119 93L117 90L119 89H125H131L133.5 90L130.5 94.5V101V105L118 104L118.5 99.5V96L119 93Z" fill="#D2D9F1"/>
<path d="M167.5 87L169 83H170V87V90H168H166.5V89.5L167.5 87Z" fill="#D2D9F1"/>
<path d="M176 83L178 87L179 90H176V83Z" fill="#D2D9F1"/>
<path d="M166.5 94L164 91L166.5 89.5L170 89H173H176L179 90L181.5 92L179 96.5V102V106H169L167 107L164.5 105L163 102V100.5L164 99.5H164.5H165H166V95.5L166.5 94Z" fill="#D2D9F1"/>
<path d="M228 83.5H231V87V90H229H228V83.5Z" fill="#D2D9F1"/>
<path d="M228 94.5L226 92L228 90H234H237L241.5 92L239.5 96.5L240 101.5V105.5H231L228 107V101V97V94.5Z" fill="#D2D9F1"/>
<path d="M274 84H277V88V91H275L274 89.5V86.5V84Z" fill="#D2D9F1"/>
<path d="M272.5 94L271.5 93L275 91L277 90H279H282.5L284 93.5L285 97L284.5 102L283.5 106H275L272.5 100.5V97V94Z" fill="#D2D9F1"/>
<path d="M82 199L91 197V199L87.5 200L82 201V200V199Z" fill="#6B6A63"/>
<path d="M82 201L91 199L90 200.5L84.5 202L81 203L82 201Z" fill="#918E85"/>
<path d="M46 55L352 62L349.5 65L348 67L341.5 72V76L63 73H54.5L49 61L46 55Z" fill="#A4ADC1"/>
<path d="M65.9518 46.4682L66.5382 29.6784L68.2891 29.7396L67.7563 44.9943L77.9022 45.3486L78.4349 30.0939L80.1858 30.1551L79.5995 46.9449L65.9518 46.4682ZM80.4695 50.9136L80.6236 46.5003L81.0626 46.996L77.8485 46.8837L77.9022 45.3486L82.3155 45.5028L82.1245 50.9714L80.4695 50.9136ZM87.6985 37.934L96.5731 38.244L96.5203 39.7551L87.6457 39.4451L87.6985 37.934ZM87.6198 45.688L97.7176 46.0407L97.664 47.5758L85.7913 47.1611L86.3776 30.3713L97.8906 30.7734L97.837 32.3085L88.0989 31.9684L87.6198 45.688ZM114.469 31.3524L116.22 31.4136L115.633 48.2033L113.882 48.1422L114.469 31.3524ZM103.377 47.7753L101.602 47.7133L102.188 30.9235L103.963 30.9855L103.377 47.7753ZM114.321 40.4008L103.456 40.0213L103.51 38.4622L114.375 38.8417L114.321 40.4008ZM124.635 48.5177L125.184 32.7833L125.647 33.2797L119.267 33.0569L119.321 31.5219L132.873 31.9951L132.819 33.5302L126.463 33.3082L126.935 32.8444L126.386 48.5788L124.635 48.5177ZM135.402 48.8937L135.988 32.104L142.272 32.3234C143.695 32.3731 144.91 32.6477 145.918 33.1472C146.925 33.6306 147.686 34.3136 148.2 35.1961C148.73 36.0631 148.973 37.1042 148.931 38.3195C148.89 39.5028 148.574 40.5164 147.984 41.3603C147.411 42.1888 146.605 42.817 145.565 43.245C144.525 43.673 143.294 43.8621 141.871 43.8124L136.57 43.6273L137.391 42.8155L137.177 48.9557L135.402 48.8937ZM137.386 42.9594L136.625 42.0682L141.877 42.2517C143.556 42.3103 144.84 41.995 145.729 41.3055C146.634 40.6007 147.11 39.5847 147.156 38.2575C147.203 36.9143 146.8 35.8596 145.946 35.0933C145.108 34.3276 143.85 33.9155 142.171 33.8568L136.918 33.6734L137.739 32.8615L137.386 42.9594ZM148.859 49.3637L157.121 32.842L158.872 32.9032L165.961 49.961L164.09 49.8956L157.588 33.891L158.308 33.9161L150.706 49.4282L148.859 49.3637ZM152.038 44.984L152.616 43.5633L162.378 43.9042L162.855 45.3618L152.038 44.984ZM167.95 50.1745C167.726 50.1667 167.51 50.1432 167.304 50.1039C167.096 50.0807 166.866 50.0326 166.612 49.9597L166.812 48.3817C167.081 48.4552 167.344 48.4964 167.6 48.5053C168.319 48.5304 168.905 48.2707 169.356 47.7261C169.824 47.1661 170.19 46.2984 170.455 45.1229C170.721 43.9315 170.919 42.4014 171.048 40.5328L171.539 33.3456L182.932 33.7435L182.346 50.5332L180.595 50.4721L181.144 34.7377L181.583 35.2333L172.613 34.92L173.062 34.4314L172.633 40.5401C172.51 42.2169 172.339 43.6678 172.121 44.8929C171.902 46.102 171.611 47.1085 171.247 47.9122C170.883 48.7 170.43 49.2846 169.889 49.6659C169.347 50.0312 168.701 50.2008 167.95 50.1745ZM195.415 40.1831C197.398 40.2523 198.893 40.7528 199.901 41.6846C200.926 42.6009 201.408 43.9305 201.347 45.6735C201.284 47.4804 200.676 48.836 199.524 49.7403C198.372 50.6287 196.757 51.0365 194.678 50.9639L188.01 50.7311L188.597 33.9413L190.348 34.0024L190.138 39.9988L195.415 40.1831ZM194.68 49.5471C196.231 49.6013 197.418 49.2985 198.241 48.6389C199.081 47.9798 199.524 46.9866 199.57 45.6594C199.617 44.3323 199.251 43.3429 198.473 42.6913C197.696 42.0238 196.524 41.6627 194.957 41.608L190.088 41.4379L189.811 49.3771L194.68 49.5471ZM217.906 34.9649L219.657 35.0261L219.07 51.8158L217.319 51.7547L217.906 34.9649ZM206.814 51.3878L205.039 51.3258L205.625 34.536L207.4 34.598L206.814 51.3878ZM217.758 44.0133L206.892 43.6338L206.947 42.0747L217.812 42.4542L217.758 44.0133ZM232.142 41.4658C234.125 41.535 235.621 42.0355 236.629 42.9673C237.653 43.8836 238.135 45.2132 238.074 46.9562C238.011 48.7631 237.404 50.1187 236.251 51.023C235.1 51.9114 233.484 52.3192 231.406 52.2466L224.738 52.0138L225.324 35.224L227.075 35.2851L226.866 41.2815L232.142 41.4658ZM231.407 50.8298C232.958 50.884 234.146 50.5812 234.969 49.9216C235.809 49.2625 236.252 48.2693 236.298 46.9421C236.344 45.615 235.979 44.6256 235.201 43.974C234.424 43.3065 233.252 42.9454 231.684 42.8907L226.815 42.7206L226.538 50.6598L231.407 50.8298ZM240.784 52.5742L241.37 35.7844L243.121 35.8455L242.535 52.6353L240.784 52.5742ZM248.184 52.8326L248.771 36.0429L250.522 36.104L250.036 50.0155L261.267 36.4793L262.874 36.5354L262.288 53.3252L260.537 53.264L261.022 39.3765L249.791 52.8887L248.184 52.8326ZM255.817 35.0642C254.618 35.0223 253.676 34.7173 252.991 34.149C252.323 33.5813 251.998 32.8095 252.016 31.8335L253.335 31.8796C253.329 32.5198 253.551 33.0319 254.002 33.4158C254.469 33.8004 255.086 34.006 255.853 34.0328C256.621 34.0596 257.243 33.8972 257.719 33.5457C258.212 33.1946 258.477 32.6996 258.516 32.0606L259.835 32.1066C259.785 33.0815 259.399 33.8284 258.676 34.3475C257.953 34.8666 257.001 35.1055 255.817 35.0642ZM274.231 53.7423L274.817 36.9525L288.945 37.4459L288.358 54.2357L286.608 54.1745L287.157 38.4401L287.596 38.9357L276.059 38.5328L276.532 38.069L275.982 53.8034L274.231 53.7423ZM291.553 54.3473L299.815 37.8255L301.566 37.8867L308.655 54.9445L306.784 54.8792L300.283 38.8745L301.002 38.8996L293.4 54.4118L291.553 54.3473ZM294.732 49.9675L295.31 48.5468L305.072 48.8878L305.549 50.3453L294.732 49.9675ZM311.872 55.0569L312.459 38.2671L318.743 38.4866C320.166 38.5363 321.381 38.8109 322.388 39.3103C323.396 39.7938 324.157 40.4768 324.67 41.3592C325.2 42.2263 325.444 43.2674 325.401 44.4827C325.36 45.6659 325.045 46.6795 324.455 47.5235C323.882 48.352 323.075 48.9802 322.036 49.4082C320.996 49.8362 319.765 50.0253 318.341 49.9756L313.041 49.7905L313.862 48.9786L313.647 55.1189L311.872 55.0569ZM313.857 49.1225L313.095 48.2314L318.348 48.4149C320.027 48.4735 321.311 48.1581 322.199 47.4687C323.104 46.7639 323.58 45.7479 323.627 44.4207C323.673 43.0775 323.27 42.0228 322.416 41.2565C321.578 40.4908 320.32 40.0786 318.641 40.02L313.388 39.8365L314.209 39.0247L313.857 49.1225ZM340.132 56.0439L333.972 47.4476L335.442 46.6344L342.171 56.1151L340.132 56.0439ZM328.643 55.6426L329.23 38.8528L330.957 38.9132L330.37 55.7029L328.643 55.6426ZM330.111 47.9852L330.166 46.4261L335.419 46.6096L335.364 48.1686L330.111 47.9852ZM335.55 47.6708L333.929 47.326L340.479 39.2457L342.398 39.3127L335.55 47.6708Z" fill="white"/>
</g>
<defs>
<linearGradient id="paint0_linear_14_2" x1="195.5" y1="0" x2="195.5" y2="160" gradientUnits="userSpaceOnUse">
<stop stop-color="#3A5EE0"/>
<stop offset="1" stop-color="#BFC8E8"/>
</linearGradient>
<clipPath id="clip0_14_2">
<path d="M0 0H393V260H0V0Z" fill="white"/>
</clipPath>
</defs>
</svg>
