<svg width="393" height="260" viewBox="0 0 393 260" fill="none" xmlns="http://www.w3.org/2000/svg">
<g clip-path="url(#clip0_52_1484)">
<path d="M0 0H393V260H0V0Z" fill="white" fill-opacity="0.1"/>
<path d="M393 0H0V260H393V0Z" fill="white" fill-opacity="0.09"/>
<rect x="-8" width="401" height="190" fill="url(#paint0_linear_52_1484)"/>
<rect x="274" y="-35" width="163" height="129" fill="url(#paint1_radial_52_1484)"/>
<rect x="106" y="30" width="163" height="129" fill="url(#paint2_radial_52_1484)"/>
<path d="M17 37.5L64.5 28V133H17V37.5Z" fill="#94773F"/>
<path d="M64.5 28L141.5 70V125.5L64.5 132V28Z" fill="#A38347"/>
<path d="M22.5 44.8571L31 44V59L22.5 58.5714V44.8571Z" fill="#682222"/>
<path d="M22.925 45.1571L30.575 44.4286V58.5714L22.925 58.2714V45.1571Z" fill="url(#paint3_linear_52_1484)"/>
<path d="M41 44L51 43V60.5L41 60V44Z" fill="#682222"/>
<path d="M41.5 44.35L50.5 43.5V60L41.5 59.65V44.35Z" fill="url(#paint4_linear_52_1484)"/>
<path d="M23 69.9143L31 69V85L23 84.5429V69.9143Z" fill="#682222"/>
<path d="M23.4 70.2343L30.6 69.4571V84.5429L23.4 84.2229V70.2343Z" fill="url(#paint5_linear_52_1484)"/>
<path d="M41.5 69L51.5 68V85.5L41.5 85V69Z" fill="#682222"/>
<path d="M42 69.35L51 68.5V85L42 84.65V69.35Z" fill="url(#paint6_linear_52_1484)"/>
<path d="M22 94.9559L31 94.5V110L22 109.544V94.9559Z" fill="#682222"/>
<path d="M22.45 95.275L30.55 94.9559V109.544L22.45 109.225V95.275Z" fill="url(#paint7_linear_52_1484)"/>
<path d="M40.5 94L50.5 93.5V110.5L40.5 110V94Z" fill="#682222"/>
<path d="M41 94.35L50 94V110L41 109.65V94.35Z" fill="url(#paint8_linear_52_1484)"/>
<path d="M70 45H80V61H70V45Z" fill="#682222"/>
<path d="M70.5 45.35L79.5 45.35V60.65L70.5 60.65V45.35Z" fill="url(#paint9_linear_52_1484)"/>
<path d="M91 53H98.5V65H91V53Z" fill="#682222"/>
<path d="M91.375 53.2625L98.125 53.2625V64.7375L91.375 64.7375V53.2625Z" fill="url(#paint10_linear_52_1484)"/>
<path d="M109 60H115V69.6H109V60Z" fill="#682222"/>
<path d="M109.3 60.21L114.7 60.21V69.39L109.3 69.39V60.21Z" fill="url(#paint11_linear_52_1484)"/>
<path d="M126 67H130V73H126V67Z" fill="#682222"/>
<path d="M126.2 67.1312L129.8 67.1312V72.8687L126.2 72.8687V67.1312Z" fill="url(#paint12_linear_52_1484)"/>
<path d="M70 73H80V89H70V73Z" fill="#682222"/>
<path d="M70.5 73.35L79.5 73.35V88.65L70.5 88.65V73.35Z" fill="url(#paint13_linear_52_1484)"/>
<path d="M91 75H98.5V87H91V75Z" fill="#682222"/>
<path d="M91.375 75.2625L98.125 75.2625V86.7375L91.375 86.7375V75.2625Z" fill="url(#paint14_linear_52_1484)"/>
<path d="M109 77H115V86.6H109V77Z" fill="#682222"/>
<path d="M109.3 77.21L114.7 77.21V86.39L109.3 86.39V77.21Z" fill="url(#paint15_linear_52_1484)"/>
<path d="M126 81H130V87H126V81Z" fill="#682222"/>
<path d="M126.2 81.1312L129.8 81.1312V86.8687L126.2 86.8687V81.1312Z" fill="url(#paint16_linear_52_1484)"/>
<path d="M-3 86.5L23.2555 92.3346C26.729 93.1064 30.3044 93.3115 33.8433 92.9417L87.925 87.2914C92.9649 86.7649 98.0418 86.69 103.095 87.0679L149 90.5L193.705 96.5538C195.896 96.8505 198.111 96.9263 200.318 96.78L246 93.75L284.961 91.1658C291.505 90.7318 297.771 88.3579 302.96 84.3471L334.851 59.6946C354.115 44.8037 382.32 55.1882 387.328 79.0155L393 106V177H-3V86.5Z" fill="url(#paint17_linear_52_1484)"/>
<path d="M140.5 156.046C140.5 183.223 116.111 206.046 85 206.046C53.1338 206.046 27.5 186.585 27.5 160.046C27.5 132.638 54.1375 106.046 85 106.046C116.111 106.046 140.5 128.87 140.5 156.046Z" fill="url(#paint18_radial_52_1484)" stroke="url(#paint19_linear_52_1484)" stroke-width="10"/>
<path d="M140.5 156.046C140.5 183.223 116.111 206.046 85 206.046C53.1338 206.046 27.5 186.585 27.5 160.046C27.5 132.638 54.1375 106.046 85 106.046C116.111 106.046 140.5 128.87 140.5 156.046Z" stroke="url(#paint20_linear_52_1484)" stroke-width="10"/>
<path d="M-33 168L194.5 162L421 168V201H-29L-33 168Z" fill="url(#paint21_linear_52_1484)"/>
<rect x="-38" y="215" width="450" height="49" fill="url(#paint22_linear_52_1484)"/>
<ellipse cx="197" cy="215.5" rx="289" ry="30.5" fill="url(#paint23_linear_52_1484)"/>
<ellipse cx="205" cy="203.5" rx="259" ry="30.5" fill="url(#paint24_linear_52_1484)"/>
<path d="M43.6116 50.806C45.0743 47.8913 49.313 48.1424 50.4063 51.2085V51.2085C50.4687 51.3834 50.5441 51.5533 50.632 51.7168L53.0462 56.2066C53.9112 57.8154 52.3368 59.6496 50.6145 59.0395V59.0395C49.3291 58.5841 47.9723 59.5241 47.9456 60.8887L45.1014 206.011L44.1014 206.002L46.9233 62.4561C46.9526 60.9647 45.1943 60.1553 44.0761 61.1455V61.1455C42.9355 62.1557 41.1456 61.2915 41.2314 59.772L41.4601 55.7197C41.4864 55.2539 41.6081 54.7983 41.8175 54.381L43.6116 50.806Z" fill="url(#paint25_linear_52_1484)"/>
<path d="M42 54.5708L44 50.5856L47.5 50.1428L50 51.4712L53.5 57.2277V61.1772L54 64.6125L57.6527 90.919C58.2021 94.8759 53.9661 97.738 50.5 95.7518V95.7518V95.7518C49.6658 92.3745 44.8275 92.4845 44.1477 95.8962L42.5 104.165V104.165C37.9667 108.314 30.7999 104.093 32.2292 98.1167L41 61.4415L42 54.5708Z" fill="url(#paint26_linear_52_1484)"/>
<path d="M13.1677 71.8953C14.7049 69.1503 18.7351 69.4126 19.8938 72.3248V72.3248C19.9644 72.502 20.0493 72.6737 20.1474 72.8373L22.3122 76.4452C23.2456 78.001 21.7473 79.8924 20.0166 79.3429V79.3429C18.7616 78.9445 17.471 79.8692 17.4422 81.1875L14.6014 211.085L13.6014 211.076L16.4185 82.6577C16.4509 81.1763 14.7444 80.3341 13.5811 81.2574V81.2574C12.3912 82.2017 10.6515 81.2982 10.7468 79.7853L10.9538 76.5001C10.9842 76.017 11.123 75.5465 11.3599 75.1234L13.1677 71.8953Z" fill="url(#paint27_linear_52_1484)"/>
<path d="M11.5 75.3694L13.5 71.7979L17 71.4011L19.5 72.5916L23 77.7503V81.2898L23.5 84.3684L29.4707 108.958C30.9078 114.877 22.5684 117.796 20 112.274V112.274V112.274C18.2242 105.831 10.8585 102.782 5.04792 106.084L3.75 106.821L-3 132.116L10.5 81.5266L11.5 75.3694Z" fill="url(#paint28_linear_52_1484)"/>
<path d="M75.0839 38.3464C76.5039 35.3422 80.858 35.5936 81.915 38.7408V38.7408C81.9716 38.9094 82.0403 39.0736 82.1207 39.2323L84.6664 44.2589C85.4938 45.8928 83.8793 47.6931 82.1649 47.0483V47.0483C80.8659 46.5597 79.473 47.5057 79.4474 48.8939L76.6014 203.071L75.6014 203.061L78.4257 50.5295C78.4534 49.0319 76.6657 48.2408 75.5737 49.2676V49.2676C74.4611 50.3138 72.6429 49.4712 72.7239 47.9471L72.9634 43.4437C72.9876 42.989 73.1002 42.5432 73.2948 42.1313L75.0839 38.3464Z" fill="url(#paint29_linear_52_1484)"/>
<path d="M73.2698 42.5537L75.2381 38.3328L78.6825 37.8638L81.1429 39.2708L84.5873 45.3677V49.5509L85.0794 53.1894L88.7425 81.5824C89.247 85.4929 84.9909 88.2403 81.6349 86.1706V86.1706V86.1706C80.8602 82.795 76.0177 82.898 75.3872 86.3035L73.7619 95.0816V95.0816C66.9069 92.984 62.9223 85.8571 64.7256 78.9188L72.2857 49.8308L73.2698 42.5537Z" fill="url(#paint30_linear_52_1484)"/>
<path d="M114.954 24.1691C116.365 20.9943 120.954 21.2523 122 24.5654V24.5654L124.784 30.4118C125.573 32.0688 123.918 33.8327 122.214 33.1511V33.1511C120.904 32.6268 119.474 33.5769 119.449 34.9885L116.601 199.066L115.601 199.055L118.428 36.7063C118.454 35.2016 116.636 34.4297 115.571 35.4939V35.4939C114.489 36.5768 112.64 35.7566 112.717 34.227L112.967 29.2348C112.989 28.7923 113.092 28.3577 113.272 27.9528L114.954 24.1691Z" fill="url(#paint31_linear_52_1484)"/>
<path d="M113.5 28.0653L115.5 23.5653L119 23.0653L121.5 24.5653L125 31.0653V35.525L125.5 39.404L136.763 109.957C138.135 118.555 127.817 123.993 121.5 118V118L122 74.5653V74.5653C121.242 71.1024 116.27 71.2036 115.654 74.6945L114 84.0653V84.0653C106.466 84.0653 101.012 76.8756 103.042 69.6203L111.797 38.337C112.265 36.6635 112.612 34.9582 112.834 33.2347L113.5 28.0653Z" fill="url(#paint32_linear_52_1484)"/>
<path d="M345.888 50.806C344.426 47.8913 340.187 48.1424 339.094 51.2085V51.2085C339.031 51.3834 338.956 51.5533 338.868 51.7168L336.454 56.2066C335.589 57.8154 337.163 59.6496 338.885 59.0395V59.0395C340.171 58.5841 341.528 59.5241 341.554 60.8887L344.399 206.011L345.399 206.002L342.577 62.4561C342.547 60.9647 344.306 60.1553 345.424 61.1455V61.1455C346.565 62.1557 348.354 61.2915 348.269 59.772L348.04 55.7197C348.014 55.2539 347.892 54.7983 347.683 54.381L345.888 50.806Z" fill="url(#paint33_linear_52_1484)"/>
<path d="M347.5 54.5708L345.5 50.5856L342 50.1428L339.5 51.4712L336 57.2277V61.1772L335.5 64.6125L329.078 92.0617C327.65 98.1651 336.093 101.305 339 95.7518V95.7518V95.7518C339.834 92.3745 344.672 92.4845 345.352 95.8962L345.795 98.1193C346.373 101.019 349.693 102.422 352.175 100.816L355.823 98.4548C358.281 96.8641 359.349 93.8106 358.419 91.0348L349.691 64.9959C348.899 62.631 348.319 60.1999 347.96 57.7317L347.5 54.5708Z" fill="url(#paint34_linear_52_1484)"/>
<path d="M376.332 71.8953C374.795 69.1503 370.765 69.4126 369.606 72.3248V72.3248C369.536 72.502 369.451 72.6737 369.353 72.8373L367.188 76.4452C366.254 78.001 367.753 79.8924 369.483 79.3429V79.3429C370.738 78.9445 372.029 79.8692 372.058 81.1875L374.899 211.085L375.899 211.076L373.082 82.6577C373.049 81.1763 374.756 80.3341 375.919 81.2574V81.2574C377.109 82.2017 378.849 81.2982 378.753 79.7853L378.546 76.5001C378.516 76.017 378.377 75.5465 378.14 75.1234L376.332 71.8953Z" fill="url(#paint35_linear_52_1484)"/>
<path d="M378.27 74.0065L376.238 71.3007L372.683 71L370.143 71.902L366.587 75.8105V78.4921L366.394 79.3775C366.186 80.3358 365.822 81.2533 365.316 82.0938L358.731 93.0442C354.499 100.081 363.574 107.508 369.635 101.967V101.967V101.967C370.774 98.8845 375.182 99.0262 376.121 102.176L377.762 107.68V107.68C390.059 109.395 397.03 94.0393 387.644 85.9108L382.89 81.7932C380.55 79.7667 378.928 77.0311 378.27 74.0065V74.0065Z" fill="url(#paint36_linear_52_1484)"/>
<path d="M314.416 38.3464C312.996 35.3422 308.642 35.5936 307.585 38.7408V38.7408C307.528 38.9094 307.46 39.0736 307.379 39.2323L304.834 44.2589C304.006 45.8928 305.621 47.6931 307.335 47.0483V47.0483C308.634 46.5597 310.027 47.5057 310.053 48.8939L312.899 203.071L313.899 203.061L311.074 50.5295C311.047 49.0319 312.834 48.2408 313.926 49.2676V49.2676C315.039 50.3138 316.857 49.4712 316.776 47.9471L316.537 43.4437C316.512 42.989 316.4 42.5432 316.205 42.1313L314.416 38.3464Z" fill="url(#paint37_linear_52_1484)"/>
<path d="M316.23 43.9607L314.262 39.7397L310.817 39.2707L308.357 40.6777L304.913 46.7747V50.9579L304.421 54.5964L292 115.5V115.5C291.339 117.152 293.543 118.421 294.64 117.02L308.357 99.5V99.5C308.748 95.4432 314.705 95.5613 314.935 99.6304L315.659 112.46C315.864 116.093 318.302 119.216 321.776 120.297L325.737 121.529C331.218 123.234 336.399 118.169 334.817 112.651L318.016 54.0344C317.482 52.1724 317.084 50.2742 316.824 48.3548L316.23 43.9607Z" fill="url(#paint38_linear_52_1484)"/>
<path d="M274.546 24.1691C273.135 20.9943 268.546 21.2523 267.5 24.5654V24.5654L264.716 30.4118C263.927 32.0688 265.582 33.8327 267.286 33.1511V33.1511C268.596 32.6268 270.026 33.5769 270.051 34.9885L272.899 199.066L273.899 199.055L271.072 36.7063C271.046 35.2016 272.864 34.4297 273.929 35.4939V35.4939C275.011 36.5768 276.86 35.7566 276.783 34.227L276.533 29.2348C276.511 28.7923 276.408 28.3577 276.228 27.9528L274.546 24.1691Z" fill="url(#paint39_linear_52_1484)"/>
<path d="M276 28.0653L274 23.5653L270.5 23.0653L268 24.5653L264.5 31.0653V35.525L264 39.404L257.398 71.2181C256.105 77.4483 264.817 80.335 267.5 74.5653V74.5653V74.5653C268.759 68.808 276.407 67.5482 279.447 72.5975L283 78.5V78.5C283.587 79.9934 285.828 79.3313 285.509 77.7588L277 35.8234L276 28.0653Z" fill="url(#paint40_linear_52_1484)"/>
<path d="M154.954 19.1691C156.365 15.9943 160.954 16.2523 162 19.5654V19.5654L164.784 25.4118C165.573 27.0688 163.918 28.8327 162.214 28.1511V28.1511C160.904 27.6268 159.474 28.5769 159.449 29.9885L156.601 194.066L155.601 194.055L158.428 31.7063C158.454 30.2016 156.636 29.4297 155.571 30.4939V30.4939C154.489 31.5768 152.64 30.7566 152.717 29.227L152.967 24.2348C152.989 23.7923 153.092 23.3577 153.272 22.9528L154.954 19.1691Z" fill="url(#paint41_linear_52_1484)"/>
<path d="M153.5 23.0653L155.5 18.5653L159 18.0653L161.5 19.5653L165 26.0653V30.525L165.5 34.404L169.264 65.0168C169.754 69.0014 165.371 71.7463 162 69.5653V69.5653L161.536 67.4454C160.879 64.4413 156.565 64.529 156.031 67.5574V67.5574C155.268 71.8774 149.696 73.1705 147.109 69.6276L144.156 65.5832C143.427 64.5843 143.199 63.3045 143.54 62.1154L151.399 34.6697C152.132 32.1092 152.671 29.4969 153.011 26.8553L153.5 23.0653Z" fill="url(#paint42_linear_52_1484)"/>
<path d="M220.954 19.1691C222.365 15.9943 226.954 16.2523 228 19.5654V19.5654L230.784 25.4118C231.573 27.0688 229.918 28.8327 228.214 28.1511V28.1511C226.904 27.6268 225.474 28.5769 225.449 29.9885L222.601 194.066L221.601 194.055L224.428 31.7063C224.454 30.2016 222.636 29.4297 221.571 30.4939V30.4939C220.489 31.5768 218.64 30.7566 218.717 29.227L218.967 24.2348C218.989 23.7923 219.092 23.3577 219.272 22.9528L220.954 19.1691Z" fill="url(#paint43_linear_52_1484)"/>
<path d="M219.5 23.0653L221.5 18.5653L225 18.0653L227.5 19.5653L231 26.0653V30.525L231.5 34.404L235.264 65.0168C235.754 69.0014 231.371 71.7463 228 69.5653V69.5653V69.5653C227.242 66.1024 222.27 66.2036 221.654 69.6945L220 79.0653V79.0653C215.668 83.5419 208.178 79.5581 209.469 73.4638L218.5 30.8234L219.5 23.0653Z" fill="url(#paint44_linear_52_1484)"/>
<path d="M177.346 16.6323C181.663 12.3359 188.635 12.5301 192.517 17.0548L192.904 17.5063C193.092 17.725 193.301 17.9239 193.529 18.1001L194.794 19.0777C197.926 21.4983 195.779 26.5807 191.818 26.1242V26.1242C189.453 25.8517 187.348 27.7406 187.354 30.1298L187.758 192.763L185.284 192.865L184.91 33.8201C184.901 30.2288 181.173 27.9225 177.884 29.4279V29.4279C174.48 30.9861 170.671 28.4112 170.961 24.6991V24.6991C171.054 23.5029 171.578 22.3723 172.436 21.5187L177.346 16.6323Z" fill="url(#paint45_linear_52_1484)"/>
<path d="M172.663 29.8539L177.097 18.3238L185.697 16.6741L192.053 20.1613L201.453 36.0973L201.962 47.3011L203.642 56.9899L216.025 108.38C217.005 112.446 217.5 116.613 217.5 120.796L217.5 165.688C217.5 168.761 213.248 169.558 212.135 166.694V166.694C205.41 149.389 180.197 151.809 176.886 170.077L174 186V186C161.287 197.504 141.081 187.308 142.78 170.248L144 158L170.024 53.6737C170.724 50.867 171.193 48.0076 171.427 45.1243L172.663 29.8539Z" fill="url(#paint46_linear_52_1484)"/>
</g>
<defs>
<linearGradient id="paint0_linear_52_1484" x1="192" y1="15.5288" x2="216.533" y2="158.765" gradientUnits="userSpaceOnUse">
<stop stop-color="#78A0CE"/>
<stop offset="1" stop-color="#546880"/>
</linearGradient>
<radialGradient id="paint1_radial_52_1484" cx="0" cy="0" r="1" gradientUnits="userSpaceOnUse" gradientTransform="translate(355.5 29.5) rotate(90) scale(64.5 81.5)">
<stop stop-color="#A3A3A3" stop-opacity="0.5"/>
<stop offset="1" stop-color="#D9D9D9" stop-opacity="0"/>
</radialGradient>
<radialGradient id="paint2_radial_52_1484" cx="0" cy="0" r="1" gradientUnits="userSpaceOnUse" gradientTransform="translate(187.5 94.5) rotate(90) scale(64.5 81.5)">
<stop stop-color="#A3A3A3" stop-opacity="0.5"/>
<stop offset="1" stop-color="#D9D9D9" stop-opacity="0"/>
</radialGradient>
<linearGradient id="paint3_linear_52_1484" x1="26.75" y1="44" x2="26.75" y2="59.4286" gradientUnits="userSpaceOnUse">
<stop stop-color="#00224A"/>
<stop offset="1" stop-color="#6B84A0"/>
</linearGradient>
<linearGradient id="paint4_linear_52_1484" x1="46" y1="43" x2="46" y2="61" gradientUnits="userSpaceOnUse">
<stop stop-color="#00224A"/>
<stop offset="1" stop-color="#6B84A0"/>
</linearGradient>
<linearGradient id="paint5_linear_52_1484" x1="27" y1="69" x2="27" y2="85.4571" gradientUnits="userSpaceOnUse">
<stop stop-color="#00224A"/>
<stop offset="1" stop-color="#6B84A0"/>
</linearGradient>
<linearGradient id="paint6_linear_52_1484" x1="46.5" y1="68" x2="46.5" y2="86" gradientUnits="userSpaceOnUse">
<stop stop-color="#00224A"/>
<stop offset="1" stop-color="#6B84A0"/>
</linearGradient>
<linearGradient id="paint7_linear_52_1484" x1="26.5" y1="94.0441" x2="26.5" y2="110.456" gradientUnits="userSpaceOnUse">
<stop stop-color="#00224A"/>
<stop offset="1" stop-color="#6B84A0"/>
</linearGradient>
<linearGradient id="paint8_linear_52_1484" x1="45.5" y1="93" x2="45.5" y2="111" gradientUnits="userSpaceOnUse">
<stop stop-color="#00224A"/>
<stop offset="1" stop-color="#6B84A0"/>
</linearGradient>
<linearGradient id="paint9_linear_52_1484" x1="75" y1="44" x2="75" y2="62" gradientUnits="userSpaceOnUse">
<stop stop-color="#00224A"/>
<stop offset="1" stop-color="#6B84A0"/>
</linearGradient>
<linearGradient id="paint10_linear_52_1484" x1="94.75" y1="52.25" x2="94.75" y2="65.75" gradientUnits="userSpaceOnUse">
<stop stop-color="#00224A"/>
<stop offset="1" stop-color="#6B84A0"/>
</linearGradient>
<linearGradient id="paint11_linear_52_1484" x1="112" y1="59.4" x2="112" y2="70.2" gradientUnits="userSpaceOnUse">
<stop stop-color="#00224A"/>
<stop offset="1" stop-color="#6B84A0"/>
</linearGradient>
<linearGradient id="paint12_linear_52_1484" x1="128" y1="66.625" x2="128" y2="73.375" gradientUnits="userSpaceOnUse">
<stop stop-color="#00224A"/>
<stop offset="1" stop-color="#6B84A0"/>
</linearGradient>
<linearGradient id="paint13_linear_52_1484" x1="75" y1="72" x2="75" y2="90" gradientUnits="userSpaceOnUse">
<stop stop-color="#00224A"/>
<stop offset="1" stop-color="#6B84A0"/>
</linearGradient>
<linearGradient id="paint14_linear_52_1484" x1="94.75" y1="74.25" x2="94.75" y2="87.75" gradientUnits="userSpaceOnUse">
<stop stop-color="#00224A"/>
<stop offset="1" stop-color="#6B84A0"/>
</linearGradient>
<linearGradient id="paint15_linear_52_1484" x1="112" y1="76.4" x2="112" y2="87.2" gradientUnits="userSpaceOnUse">
<stop stop-color="#00224A"/>
<stop offset="1" stop-color="#6B84A0"/>
</linearGradient>
<linearGradient id="paint16_linear_52_1484" x1="128" y1="80.625" x2="128" y2="87.375" gradientUnits="userSpaceOnUse">
<stop stop-color="#00224A"/>
<stop offset="1" stop-color="#6B84A0"/>
</linearGradient>
<linearGradient id="paint17_linear_52_1484" x1="195" y1="79" x2="195" y2="177" gradientUnits="userSpaceOnUse">
<stop stop-color="#73B654" stop-opacity="0.74"/>
<stop offset="1" stop-color="#304E22"/>
</linearGradient>
<radialGradient id="paint18_radial_52_1484" cx="0" cy="0" r="1" gradientUnits="userSpaceOnUse" gradientTransform="translate(82 162.5) rotate(-90) scale(43 47.3)">
<stop stop-color="#C4C4C4"/>
<stop offset="0.973958" stop-color="#818181"/>
</radialGradient>
<linearGradient id="paint19_linear_52_1484" x1="32.5" y1="130.5" x2="143" y2="148" gradientUnits="userSpaceOnUse">
<stop stop-color="#E4E1E1"/>
<stop offset="1" stop-color="#B1B1B1"/>
</linearGradient>
<linearGradient id="paint20_linear_52_1484" x1="32.5" y1="130.5" x2="143" y2="148" gradientUnits="userSpaceOnUse">
<stop stop-color="#F8F5F5"/>
<stop offset="1" stop-color="#C4BBBB"/>
</linearGradient>
<linearGradient id="paint21_linear_52_1484" x1="340.5" y1="169" x2="9.00001" y2="177" gradientUnits="userSpaceOnUse">
<stop stop-color="#958282"/>
<stop offset="1" stop-color="#454242"/>
</linearGradient>
<linearGradient id="paint22_linear_52_1484" x1="58" y1="247.5" x2="407.5" y2="247" gradientUnits="userSpaceOnUse">
<stop stop-color="#572537"/>
<stop offset="1" stop-color="#3E1F28"/>
</linearGradient>
<linearGradient id="paint23_linear_52_1484" x1="182" y1="211" x2="185.965" y2="245.603" gradientUnits="userSpaceOnUse">
<stop stop-color="#56595F"/>
<stop offset="1" stop-color="#747474"/>
</linearGradient>
<linearGradient id="paint24_linear_52_1484" x1="205" y1="173" x2="114.5" y2="231.5" gradientUnits="userSpaceOnUse">
<stop stop-color="#414F68"/>
<stop offset="1" stop-color="#7B8597"/>
</linearGradient>
<linearGradient id="paint25_linear_52_1484" x1="48.4772" y1="43.0669" x2="46.9692" y2="206.028" gradientUnits="userSpaceOnUse">
<stop stop-color="#A3E9FF" stop-opacity="0.33"/>
<stop offset="0.328125" stop-color="#ADDEED" stop-opacity="0.652604"/>
<stop offset="1" stop-color="#AEE8FB"/>
</linearGradient>
<linearGradient id="paint26_linear_52_1484" x1="45.5" y1="52.7996" x2="45.1078" y2="91.3248" gradientUnits="userSpaceOnUse">
<stop stop-color="#D5FCF9"/>
<stop offset="1" stop-color="#CEFFFC" stop-opacity="0.12"/>
</linearGradient>
<linearGradient id="paint27_linear_52_1484" x1="17.9772" y1="65.06" x2="16.7661" y2="211.103" gradientUnits="userSpaceOnUse">
<stop stop-color="#A3E9FF" stop-opacity="0.33"/>
<stop offset="0.328125" stop-color="#ADDEED" stop-opacity="0.652604"/>
<stop offset="1" stop-color="#AEE8FB"/>
</linearGradient>
<linearGradient id="paint28_linear_52_1484" x1="15" y1="73.7821" x2="14.685" y2="108.308" gradientUnits="userSpaceOnUse">
<stop stop-color="#D5FCF9"/>
<stop offset="1" stop-color="#CEFFFC" stop-opacity="0.12"/>
</linearGradient>
<linearGradient id="paint29_linear_52_1484" x1="79.9772" y1="30.071" x2="78.2773" y2="203.088" gradientUnits="userSpaceOnUse">
<stop stop-color="#A3E9FF" stop-opacity="0.33"/>
<stop offset="0.328125" stop-color="#ADDEED" stop-opacity="0.652604"/>
<stop offset="1" stop-color="#AEE8FB"/>
</linearGradient>
<linearGradient id="paint30_linear_52_1484" x1="76.7143" y1="40.6777" x2="76.2673" y2="81.4811" gradientUnits="userSpaceOnUse">
<stop stop-color="#D5FCF9"/>
<stop offset="1" stop-color="#CEFFFC" stop-opacity="0.12"/>
</linearGradient>
<linearGradient id="paint31_linear_52_1484" x1="119.977" y1="15.0756" x2="118.055" y2="199.081" gradientUnits="userSpaceOnUse">
<stop stop-color="#A3E9FF" stop-opacity="0.33"/>
<stop offset="0.328125" stop-color="#ADDEED" stop-opacity="0.652604"/>
<stop offset="1" stop-color="#AEE8FB"/>
</linearGradient>
<linearGradient id="paint32_linear_52_1484" x1="117" y1="26.0653" x2="116.5" y2="69.5653" gradientUnits="userSpaceOnUse">
<stop stop-color="#D5FCF9"/>
<stop offset="1" stop-color="#CEFFFC" stop-opacity="0.12"/>
</linearGradient>
<linearGradient id="paint33_linear_52_1484" x1="341.023" y1="43.0669" x2="342.531" y2="206.028" gradientUnits="userSpaceOnUse">
<stop stop-color="#A3E9FF" stop-opacity="0.33"/>
<stop offset="0.328125" stop-color="#ADDEED" stop-opacity="0.652604"/>
<stop offset="1" stop-color="#AEE8FB"/>
</linearGradient>
<linearGradient id="paint34_linear_52_1484" x1="344" y1="52.7996" x2="344.392" y2="91.3248" gradientUnits="userSpaceOnUse">
<stop stop-color="#D5FCF9"/>
<stop offset="1" stop-color="#CEFFFC" stop-opacity="0.12"/>
</linearGradient>
<linearGradient id="paint35_linear_52_1484" x1="371.523" y1="65.06" x2="372.734" y2="211.103" gradientUnits="userSpaceOnUse">
<stop stop-color="#A3E9FF" stop-opacity="0.33"/>
<stop offset="0.328125" stop-color="#ADDEED" stop-opacity="0.652604"/>
<stop offset="1" stop-color="#AEE8FB"/>
</linearGradient>
<linearGradient id="paint36_linear_52_1484" x1="374.714" y1="72.8039" x2="374.892" y2="98.963" gradientUnits="userSpaceOnUse">
<stop stop-color="#D5FCF9"/>
<stop offset="1" stop-color="#CEFFFC" stop-opacity="0.12"/>
</linearGradient>
<linearGradient id="paint37_linear_52_1484" x1="309.523" y1="30.071" x2="311.223" y2="203.088" gradientUnits="userSpaceOnUse">
<stop stop-color="#A3E9FF" stop-opacity="0.33"/>
<stop offset="0.328125" stop-color="#ADDEED" stop-opacity="0.652604"/>
<stop offset="1" stop-color="#AEE8FB"/>
</linearGradient>
<linearGradient id="paint38_linear_52_1484" x1="312.786" y1="40.6777" x2="313.233" y2="81.4811" gradientUnits="userSpaceOnUse">
<stop stop-color="#D5FCF9"/>
<stop offset="1" stop-color="#CEFFFC" stop-opacity="0.12"/>
</linearGradient>
<linearGradient id="paint39_linear_52_1484" x1="269.523" y1="15.0756" x2="271.445" y2="199.081" gradientUnits="userSpaceOnUse">
<stop stop-color="#A3E9FF" stop-opacity="0.33"/>
<stop offset="0.328125" stop-color="#ADDEED" stop-opacity="0.652604"/>
<stop offset="1" stop-color="#AEE8FB"/>
</linearGradient>
<linearGradient id="paint40_linear_52_1484" x1="272.5" y1="26.0653" x2="273" y2="69.5653" gradientUnits="userSpaceOnUse">
<stop stop-color="#D5FCF9"/>
<stop offset="1" stop-color="#CEFFFC" stop-opacity="0.12"/>
</linearGradient>
<linearGradient id="paint41_linear_52_1484" x1="159.977" y1="10.0756" x2="158.055" y2="194.081" gradientUnits="userSpaceOnUse">
<stop stop-color="#A3E9FF" stop-opacity="0.33"/>
<stop offset="0.328125" stop-color="#ADDEED" stop-opacity="0.652604"/>
<stop offset="1" stop-color="#AEE8FB"/>
</linearGradient>
<linearGradient id="paint42_linear_52_1484" x1="157" y1="21.0653" x2="156.5" y2="64.5653" gradientUnits="userSpaceOnUse">
<stop stop-color="#D5FCF9"/>
<stop offset="1" stop-color="#CEFFFC" stop-opacity="0.12"/>
</linearGradient>
<linearGradient id="paint43_linear_52_1484" x1="225.977" y1="10.0756" x2="224.055" y2="194.081" gradientUnits="userSpaceOnUse">
<stop stop-color="#A3E9FF" stop-opacity="0.33"/>
<stop offset="0.328125" stop-color="#ADDEED" stop-opacity="0.652604"/>
<stop offset="1" stop-color="#AEE8FB"/>
</linearGradient>
<linearGradient id="paint44_linear_52_1484" x1="223" y1="21.0653" x2="222.5" y2="64.5653" gradientUnits="userSpaceOnUse">
<stop stop-color="#D5FCF9"/>
<stop offset="1" stop-color="#CEFFFC" stop-opacity="0.12"/>
</linearGradient>
<linearGradient id="paint45_linear_52_1484" x1="187.751" y1="8.58262" x2="195.334" y2="192.45" gradientUnits="userSpaceOnUse">
<stop stop-color="#A3E9FF" stop-opacity="0.33"/>
<stop offset="0.328125" stop-color="#ADDEED" stop-opacity="0.652604"/>
<stop offset="1" stop-color="#AEE8FB"/>
</linearGradient>
<linearGradient id="paint46_linear_52_1484" x1="181.093" y1="24.4359" x2="184.785" y2="133.776" gradientUnits="userSpaceOnUse">
<stop stop-color="#D5FCF9"/>
<stop offset="1" stop-color="#CEFFFC" stop-opacity="0.12"/>
</linearGradient>
<clipPath id="clip0_52_1484">
<path d="M0 0H393V260H0V0Z" fill="white"/>
</clipPath>
</defs>
</svg>
