<svg width="393" height="260" viewBox="0 0 393 260" fill="none" xmlns="http://www.w3.org/2000/svg">
<g clip-path="url(#clip0_43_668)">
<path d="M393 0H0V260H393V0Z" fill="white" fill-opacity="0.12"/>
<rect y="-4" width="87" height="180" fill="url(#paint0_linear_43_668)"/>
<rect x="-8" y="160" width="251" height="36" fill="url(#paint1_linear_43_668)"/>
<rect x="228" y="175" width="182" height="33" fill="#1C8E12"/>
<path d="M47.5 -5L441 -9V189L34.5 179L47.5 -5Z" fill="#526997"/>
<rect x="333" y="95" width="23" height="43" fill="#9E8787"/>
<rect x="334" y="96" width="21" height="41" fill="#889CBA"/>
<rect x="294" y="95" width="23" height="43" fill="#9E8787"/>
<rect x="295" y="96" width="21" height="41" fill="#889CBA"/>
<rect x="256" y="95" width="23" height="43" fill="#9E8787"/>
<rect x="257" y="96" width="21" height="41" fill="#889CBA"/>
<rect x="217" y="95" width="23" height="43" fill="#9E8787"/>
<rect x="218" y="96" width="21" height="41" fill="#889CBA"/>
<rect x="180" y="95" width="23" height="43" fill="#9E8787"/>
<rect x="181" y="96" width="21" height="41" fill="#889CBA"/>
<rect x="138" y="95" width="23" height="43" fill="#9E8787"/>
<rect x="139" y="96" width="21" height="41" fill="#889CBA"/>
<rect x="100" y="95" width="23" height="43" fill="#9E8787"/>
<rect x="101" y="96" width="21" height="41" fill="#889CBA"/>
<rect x="59" y="95" width="23" height="43" fill="#9E8787"/>
<rect x="60" y="96" width="21" height="41" fill="#889CBA"/>
<rect x="337" y="33" width="23" height="43" fill="#9E8787"/>
<rect x="338" y="34" width="21" height="41" fill="#889CBA"/>
<rect x="298" y="33" width="23" height="43" fill="#9E8787"/>
<rect x="299" y="34" width="21" height="41" fill="#889CBA"/>
<rect x="260" y="33" width="23" height="43" fill="#9E8787"/>
<rect x="261" y="34" width="21" height="41" fill="#889CBA"/>
<rect x="221" y="33" width="23" height="43" fill="#9E8787"/>
<rect x="222" y="34" width="21" height="41" fill="#889CBA"/>
<rect x="184" y="33" width="23" height="43" fill="#9E8787"/>
<rect x="185" y="34" width="21" height="41" fill="#889CBA"/>
<rect x="142" y="33" width="23" height="43" fill="#9E8787"/>
<rect x="143" y="34" width="21" height="41" fill="#889CBA"/>
<rect x="104" y="33" width="23" height="43" fill="#9E8787"/>
<rect x="105" y="34" width="21" height="41" fill="#889CBA"/>
<rect x="63" y="33" width="23" height="43" fill="#9E8787"/>
<rect x="64" y="34" width="21" height="41" fill="#889CBA"/>
<rect x="337" y="-29" width="23" height="43" fill="#9E8787"/>
<rect x="338" y="-28" width="21" height="41" fill="#889CBA"/>
<rect x="298" y="-29" width="23" height="43" fill="#9E8787"/>
<rect x="299" y="-28" width="21" height="41" fill="#889CBA"/>
<rect x="260" y="-29" width="23" height="43" fill="#9E8787"/>
<rect x="261" y="-28" width="21" height="41" fill="#889CBA"/>
<rect x="221" y="-29" width="23" height="43" fill="#9E8787"/>
<rect x="222" y="-28" width="21" height="41" fill="#889CBA"/>
<rect x="184" y="-29" width="23" height="43" fill="#9E8787"/>
<rect x="185" y="-28" width="21" height="41" fill="#889CBA"/>
<rect x="142" y="-29" width="23" height="43" fill="#9E8787"/>
<rect x="143" y="-28" width="21" height="41" fill="#889CBA"/>
<rect x="104" y="-29" width="23" height="43" fill="#9E8787"/>
<rect x="105" y="-28" width="21" height="41" fill="#889CBA"/>
<rect x="63" y="-29" width="23" height="43" fill="#9E8787"/>
<rect x="64" y="-28" width="21" height="41" fill="#889CBA"/>
<path d="M-17.5 184.5H208.5L399.5 201.5L393 260H-4L-17.5 184.5Z" fill="url(#paint2_linear_43_668)"/>
<path d="M355.609 216.37C359.54 230.947 289.165 241 207.203 241C125.241 241 55.3572 227.931 59.2884 214.862C53.8829 191.238 125.241 195.259 207.203 195.259C289.165 195.259 361.997 198.275 355.609 216.37Z" fill="url(#paint3_linear_43_668)"/>
<path d="M358 209.5C362 224 290.395 234 207 234C123.605 234 52.5 221 56.5 208C51 184.5 123.605 188.5 207 188.5C290.395 188.5 364.5 191.5 358 209.5Z" fill="url(#paint4_linear_43_668)"/>
<path d="M345.281 200.457C346.901 200.822 348.307 201.182 349.507 201.533C348.303 201.871 346.893 202.217 345.27 202.565C337.917 204.142 327.105 205.574 313.544 206.764C286.474 209.139 248.987 210.506 207.522 210.289C166.056 210.071 128.586 208.311 101.542 205.652C87.9939 204.32 77.1977 202.775 69.8613 201.121C68.242 200.756 66.836 200.396 65.6352 200.045C66.8396 199.706 68.2493 199.36 69.8724 199.012C77.2257 197.436 88.0375 196.004 101.598 194.814C128.669 192.439 166.156 191.072 207.621 191.289C249.086 191.507 286.557 193.267 313.601 195.926C327.149 197.258 337.945 198.803 345.281 200.457Z" stroke="#666666" stroke-width="9"/>
<ellipse cx="207.5" cy="198.5" rx="134.5" ry="9.5" fill="url(#paint5_linear_43_668)"/>
<path d="M345.21 198.668C346.829 199.033 348.235 199.393 349.436 199.744C348.232 200.082 346.822 200.428 345.199 200.777C337.846 202.353 327.034 203.785 313.473 204.975C286.402 207.35 248.915 208.717 207.45 208.5C165.985 208.282 128.514 206.522 101.47 203.863C87.9226 202.531 77.1264 200.986 69.79 199.332C68.1707 198.967 66.7647 198.607 65.5639 198.256C66.7683 197.918 68.178 197.572 69.801 197.223C77.1544 195.647 87.9662 194.215 101.527 193.025C128.598 190.65 166.085 189.283 207.55 189.5C249.015 189.718 286.486 191.478 313.53 194.137C327.077 195.469 337.874 197.014 345.21 198.668Z" stroke="url(#paint6_linear_43_668)" stroke-width="9"/>
<path d="M323 198.5C323 203.471 285.282 195 211 195C136.718 195 92.5 202.471 92.5 197.5C92.5 192.529 133.218 186 207.5 186C281.782 186 323 193.529 323 198.5Z" fill="#4E4635"/>
<path d="M110.898 171.061C119.254 162.093 130.961 157 143.219 157H265.484C282.828 157 301.064 162.634 310 177.5V177.5C316.713 188.668 315.5 200 315.5 200L291 202.5H265.5L238 204H209.5L153.5 202.5L125.5 201L98 199L100.623 189.464C102.513 182.59 106.038 176.276 110.898 171.061V171.061Z" fill="url(#paint7_linear_43_668)"/>
<rect x="203" y="133" width="6" height="6" fill="url(#paint8_linear_43_668)"/>
<path d="M200 137.5L202 137L206 136.5L209.5 137L212 137.5V200H200V137.5Z" fill="url(#paint9_linear_43_668)"/>
<rect x="201" y="131" width="10" height="3" rx="1.5" fill="url(#paint10_linear_43_668)"/>
<circle cx="206" cy="97" r="35" fill="url(#paint11_radial_43_668)"/>
<path d="M181 86L182.5 87V96.5L183.5 101.5L189.5 118L202.5 131.5L201.5 132L196 126.5L189.5 120L186 112L182.5 102.5L181 86Z" fill="#7A6C48"/>
<path d="M191.5 92L192.5 90.5L195 106.5L207.5 132H206.5L199.5 119.5L193 105L191.5 92Z" fill="#7A6C48"/>
<path d="M204 90.5H205L210 110.5L214 131H213L209 110.5L204 90.5Z" fill="#7A6C48"/>
<path d="M214 81.5V82.5L220 103.5L218 129.5L219 129L220.75 106.5L220 99.5L217.5 91L214 81.5Z" fill="#7A6C48"/>
<path d="M218 72L218.5 71.5L222.5 75.5L226 81L229.5 90.5L231 109L225 126L224.5 125.5L229.5 110.5V105.5L228.5 92L224.5 82L218 72Z" fill="#7A6C48"/>
<path d="M216.5 65.5V64.5L230 74L236.5 86L237.5 104.5L236.5 104L234.5 86L229 75L216.5 65.5Z" fill="#7A6C48"/>
<path d="M211 77.5L231.5 73.5L232 74L211 78.5V77.5Z" fill="#7A6C48"/>
<path d="M174 104L193.5 101L240.5 90.5V91L193.5 102L174 104.5V104Z" fill="#7A6C48"/>
<path d="M180.5 121L199 118.5L216 114.5L236 109.5L234 111.5L216 116L199 120L182 122.5L180.5 121Z" fill="#7A6C48"/>
<path d="M183.5 70L187.5 67L192 65L196 63.5L200.5 63L206 62.5L211 63L217.5 65L214.5 67L219 72.5L217.5 74L219 76L216 74L213 75V74L211 75.5L215.5 79.5L214 84L208.5 84.5L208 86.5L210.5 88V91.5L205 90.5V93.5L204 91.5L202.5 87.5L201 88L198.5 85.5L192 90.5V94.5L189.5 93L187.5 89.5L185.5 88L181 87.5L178 85L177 87.5L180 88.5V91.5L177.5 94.5L175 93.5L173.5 86.5L175 82L178 79.5L176.5 77L179.5 73.5L183.5 70Z" fill="#8E6A6A"/>
<path d="M172 88.5L174 98L178 99L175.5 104L174.5 108.5L177 110L175.5 114L172 108.5L171 102L170.5 96.5V92L172 88.5Z" fill="#8E6A6A"/>
<path d="M217 95.5H219.5L222 93L221.5 98L219 99L217.5 98.5L217 95.5Z" fill="#8E6A6A"/>
<path d="M233 106L240.5 101V104L239.5 106.5L238.5 109.5L237.5 112.5L236 114.5L232 116L229.5 113.5V109H231L233 106Z" fill="#8E6A6A"/>
</g>
<defs>
<linearGradient id="paint0_linear_43_668" x1="15" y1="-48.5" x2="43.5" y2="176" gradientUnits="userSpaceOnUse">
<stop stop-color="#3683C9"/>
<stop offset="1" stop-color="#C5F3F1"/>
</linearGradient>
<linearGradient id="paint1_linear_43_668" x1="248.5" y1="178" x2="-8.00001" y2="170" gradientUnits="userSpaceOnUse">
<stop stop-color="#9E9B9B"/>
<stop offset="1" stop-color="#9C9B9B"/>
</linearGradient>
<linearGradient id="paint2_linear_43_668" x1="-2.5" y1="216" x2="191" y2="260" gradientUnits="userSpaceOnUse">
<stop stop-color="#E48C73"/>
<stop offset="1" stop-color="#7E4434"/>
</linearGradient>
<linearGradient id="paint3_linear_43_668" x1="327.598" y1="221.9" x2="75.5039" y2="219.497" gradientUnits="userSpaceOnUse">
<stop stop-color="#5E4E43"/>
<stop offset="1" stop-color="#9B6E4E"/>
</linearGradient>
<linearGradient id="paint4_linear_43_668" x1="329.5" y1="215" x2="73" y2="212.5" gradientUnits="userSpaceOnUse">
<stop stop-color="#726257"/>
<stop offset="1" stop-color="#C89471"/>
</linearGradient>
<linearGradient id="paint5_linear_43_668" x1="204" y1="189" x2="207.5" y2="208" gradientUnits="userSpaceOnUse">
<stop stop-color="#7FA9FA"/>
<stop offset="1" stop-color="#3E5D98"/>
</linearGradient>
<linearGradient id="paint6_linear_43_668" x1="207.573" y1="185" x2="207.427" y2="213" gradientUnits="userSpaceOnUse">
<stop stop-color="#E2E2E2"/>
<stop offset="1" stop-color="#A38F80"/>
</linearGradient>
<linearGradient id="paint7_linear_43_668" x1="207" y1="157" x2="207" y2="209" gradientUnits="userSpaceOnUse">
<stop stop-color="#D9D9D9" stop-opacity="0.49"/>
<stop offset="1" stop-color="#135276"/>
</linearGradient>
<linearGradient id="paint8_linear_43_668" x1="208" y1="134.5" x2="204" y2="134.5" gradientUnits="userSpaceOnUse">
<stop stop-color="#6C6961"/>
<stop offset="1" stop-color="#1D1D1D"/>
</linearGradient>
<linearGradient id="paint9_linear_43_668" x1="214" y1="164.5" x2="195" y2="164" gradientUnits="userSpaceOnUse">
<stop stop-color="#8B8476"/>
<stop offset="1"/>
</linearGradient>
<linearGradient id="paint10_linear_43_668" x1="211" y1="134" x2="194.5" y2="134" gradientUnits="userSpaceOnUse">
<stop stop-color="#6A543F"/>
<stop offset="1"/>
</linearGradient>
<radialGradient id="paint11_radial_43_668" cx="0" cy="0" r="1" gradientUnits="userSpaceOnUse" gradientTransform="translate(218 104.5) rotate(113.575) scale(30.0042)">
<stop stop-color="#DAECF1"/>
<stop offset="1" stop-color="#62696B"/>
</radialGradient>
<clipPath id="clip0_43_668">
<path d="M0 0H393V260H0V0Z" fill="white"/>
</clipPath>
</defs>
</svg>
