<svg width="393" height="260" viewBox="0 0 393 260" fill="none" xmlns="http://www.w3.org/2000/svg">
<g clip-path="url(#clip0_53_1640)">
<path d="M393 0H0V260H393V0Z" fill="white" fill-opacity="0.12"/>
<path d="M-32 109L210 60L433 109V280H-32V109Z" fill="url(#paint0_linear_53_1640)"/>
<rect x="-35" y="-21" width="470" height="151" fill="url(#paint1_linear_53_1640)"/>
<path d="M330.5 -11L413 0V145H313L330.5 -11Z" fill="url(#paint2_linear_53_1640)"/>
<path d="M-39 0H161.755L192 136H-39V0Z" fill="url(#paint3_linear_53_1640)"/>
<path d="M19.825 23L29.25 46H23.45L31.425 57H23.45L34.325 74L25.625 70L37.225 86L25.625 82L40.125 95L25.625 91L43.025 103L25.625 99L45.2 112L25.625 110L51 123H-7L16.2 110L-3.375 112L16.2 99L-1.2 103L16.2 91L2.425 95L16.2 82L5.325 86L16.2 70L7.5 74L16.2 57L9.675 59L16.2 46H9.675L19.825 23Z" fill="#3A482B"/>
<path d="M94.8375 -33L106.375 -0.340001H99.275L109.038 15.28H99.275L112.587 39.42L101.937 33.74L116.138 56.46L101.937 50.78L119.687 69.24L101.937 63.56L123.238 80.6L101.937 74.92L125.9 93.38L101.937 90.54L133 109H62L90.4 90.54L66.4375 93.38L90.4 74.92L69.1 80.6L90.4 63.56L73.5375 69.24L90.4 50.78L77.0875 56.46L90.4 33.74L79.75 39.42L90.4 15.28L82.4125 18.12L90.4 -0.340001H82.4125L94.8375 -33Z" fill="#3A482B"/>
<path d="M389.825 35L399.25 58H393.45L401.425 69H393.45L404.325 86L395.625 82L407.225 98L395.625 94L410.125 107L395.625 103L413.025 115L395.625 111L415.2 124L395.625 122L421 135H363L386.2 122L366.625 124L386.2 111L368.8 115L386.2 103L372.425 107L386.2 94L375.325 98L386.2 82L377.5 86L386.2 69L379.675 71L386.2 58H379.675L389.825 35Z" fill="#3A482B"/>
<path d="M307.825 23L317.25 46H311.45L319.425 57H311.45L322.325 74L313.625 70L325.225 86L313.625 82L328.125 95L313.625 91L331.025 103L313.625 99L333.2 112L313.625 110L339 123H281L304.2 110L284.625 112L304.2 99L286.8 103L304.2 91L290.425 95L304.2 82L293.325 86L304.2 70L295.5 74L304.2 57L297.675 59L304.2 46H297.675L307.825 23Z" fill="#3A482B"/>
<ellipse cx="198.5" cy="161.5" rx="140.5" ry="72.5" fill="url(#paint4_linear_53_1640)"/>
<path d="M324.999 144.299C324.996 144.348 324.987 144.425 324.956 144.546C324.912 144.715 324.808 145.04 324.555 145.53C324.029 146.546 322.896 148.197 320.62 150.325C315.93 154.712 307.895 159.721 296.045 164.408C272.482 173.729 238.357 180 199.5 180C160.643 180 126.518 173.729 102.955 164.408C91.1054 159.721 83.0702 154.712 78.38 150.325C76.1039 148.197 74.9713 146.546 74.4454 145.53C74.192 145.04 74.0876 144.715 74.0442 144.546C74.0031 144.385 74 144.302 74 144.259C74 144.054 74.0796 141.485 78.7108 136.722C83.3243 131.978 91.1162 126.555 102.489 121.441C125.144 111.255 158.229 104 196.626 104C235.031 104 269.735 111.259 294.051 121.622C306.272 126.831 314.841 132.387 319.977 137.303C324.526 141.658 324.964 144.047 324.999 144.299Z" stroke="url(#paint5_linear_53_1640)" stroke-width="46"/>
<path d="M305 124.5C305 126.583 303.625 129.689 298.455 133.479C293.409 137.178 285.724 140.76 275.687 143.871C255.686 150.073 227.688 154 196.5 154C165.312 154 137.314 150.073 117.313 143.871C107.276 140.76 99.5907 137.178 94.5452 133.479C89.3753 129.689 88 126.583 88 124.5C88 122.417 89.3753 119.311 94.5452 115.521C99.5907 111.822 107.276 108.24 117.313 105.129C137.314 98.9274 165.312 95 196.5 95C227.688 95 255.686 98.9274 275.687 105.129C285.724 108.24 293.409 111.822 298.455 115.521C303.625 119.311 305 122.417 305 124.5Z" stroke="#917062" stroke-width="12"/>
<path d="M313 133.5C313 155.315 261.065 173 197 173C132.935 173 81 155.315 81 133.5C73 111 132.935 99 197 99C261.065 99 318.5 109 313 133.5Z" fill="url(#paint6_linear_53_1640)"/>
<path d="M198 57.5646L199 57L201 63.7751V172.5H200V64.9043L198 57.5646Z" fill="url(#paint7_linear_53_1640)"/>
<path d="M193.031 58.6417L191.976 57.9768L189.165 64.5289L180 172.5L181.105 172.602L190.17 65.7568L193.031 58.6417Z" fill="url(#paint8_linear_53_1640)"/>
<path d="M178.334 54.6472L179.999 52.9513L184.437 51.8207L188.321 51.8207L189.986 52.9513L183.328 52.9513L178.889 54.6472L160.015 171L158.915 170.855L178.334 54.6472Z" fill="url(#paint9_linear_53_1640)"/>
<path d="M209.804 57.7235L208.223 55.9468L203.844 54.5967L199.964 54.4034L198.247 55.4498L204.898 55.7811L209.25 57.6959L221.5 172L222.606 171.909L209.804 57.7235Z" fill="url(#paint10_linear_53_1640)"/>
<path d="M177.616 53.2386V53.2386C179.675 50.0906 183.261 48.2984 187.02 48.5378L189.822 48.7162L192.608 49.1552C193.74 49.3336 194.578 50.3163 194.578 51.4657V51.4657V51.4657C194.578 52.593 193.377 53.3008 192.391 52.7548L189.381 51.0889C188.595 50.6541 187.676 50.5348 186.811 50.7551L179.28 52.6733L170.957 64.5446L164.854 79.2424L155.422 109.769L140.275 167.657L139.197 167.39L153.757 109.769L163.189 79.2424L169.848 64.5446L177.616 53.2386Z" fill="url(#paint11_linear_53_1640)"/>
<path d="M210.84 53.726L207.78 48.4657L198.885 48.5508L195.295 48.4815C194.781 48.4715 194.291 48.7085 193.976 49.1192V49.1192L193.216 50.1331C192.779 50.7157 192.782 51.5166 193.223 52.0907V52.0907C193.667 52.6691 194.446 52.8734 195.121 52.5884L198.368 51.2174C199.718 50.6471 201.224 50.5734 202.617 51.0095L209.207 53.0716L216.901 65.3756L222.231 80.3823L230.062 111.375L242.176 170L243.267 169.792L231.724 111.465L223.893 80.4722L218.009 65.4355L210.84 53.726Z" fill="url(#paint12_linear_53_1640)"/>
<path d="M137.756 122.453L145.466 101.866L150.46 89.9951L157.673 78.1238L166.55 66.2525L179.866 52.6853L182.086 54.3812L178.202 54.9465L167.105 66.2525L158.782 77.5585L152.124 88.2992L149.963 92.2563L146.576 100.736L138.311 122.453L123.113 163.721L122.5 163.5L137.756 122.453Z" fill="url(#paint13_linear_53_1640)"/>
<path d="M248.756 125.767L242.503 104.674L238.35 92.4705L231.984 80.1066L223.958 67.6222L211.622 53.1245L209.29 54.6553L213.125 55.5006L223.404 67.582L230.917 79.4624L236.808 90.6583L238.688 94.762L241.475 103.465L248.203 125.726L259.5 166.5L260.127 166.324L248.756 125.767Z" fill="url(#paint14_linear_53_1640)"/>
<path d="M126.848 119.219L135.794 99.158L141.499 87.6244L149.42 76.2308L159.002 64.9422L173.117 52.2408L182.086 52.6853L180.976 54.3927L171.318 54.3927L159.555 64.9772L150.562 75.7366L143.264 86.0368L140.866 89.85L136.97 98.0996L127.402 119.254L110.098 159.259L109.5 159L126.848 119.219Z" fill="url(#paint15_linear_53_1640)"/>
<path d="M263.781 124.126L255.387 103.819L249.999 92.1283L242.393 80.5143L233.124 68.9583L219.361 55.8614L207.054 53.8159L210.383 56.0512L211.446 57.7895L221.1 58.0635L232.569 68.9775L241.265 79.9879L248.279 90.4912L250.571 94.3709L254.24 102.728L263.227 124.145L278.395 161.742L279 161.5L263.781 124.126Z" fill="url(#paint16_linear_53_1640)"/>
<path d="M171.238 52H174V53.1309L163.504 58.7853L151.35 68.3979L132.566 92.1466L114.888 121.55L99.5 154.5H98.3951L113.783 121.55L131.462 92.1466L150.245 68.3979L171.238 52Z" fill="url(#paint17_linear_53_1640)"/>
<path d="M166.907 51.8965L169.679 52.0113L169.634 53.1409L158.875 58.3531L146.295 67.4501L126.5 90.3925L107.587 119.029L91 149.5L91 148.5L110.382 111.872L125.391 90.3466L145.187 67.4042L166.907 51.8965Z" fill="url(#paint18_linear_53_1640)"/>
<path d="M222.797 57H220V58.1414L230.629 63.8482L242.937 73.5497L261.958 97.5183L279.86 127.194L293.5 155H295L280.979 127.194L263.077 97.5183L244.056 73.5497L222.797 57Z" fill="url(#paint19_linear_53_1640)"/>
<path d="M227.781 56.4189L225.009 56.5337L225.054 57.6633L235.813 62.8755L248.393 71.9725L268.189 94.9149L287.101 123.552L301.5 150L302.5 150L288.21 123.506L269.297 94.869L249.502 71.9266L227.781 56.4189Z" fill="url(#paint20_linear_53_1640)"/>
<path d="M126.899 76.3257L145.835 62.1829L167 52L155.861 58.2229L144.722 64.4457L126.899 78.0229L102.949 114.794L86 144.5L84.5 142.5L100.722 114.794L126.899 76.3257Z" fill="url(#paint21_linear_53_1640)"/>
<path d="M127.683 74.0888L147.464 61.3237L169.191 52.663L157.697 58.082L146.203 63.501L127.567 75.7806L101.264 110.75L82.5 139L81.5 135L99.0504 110.593L127.683 74.0888Z" fill="url(#paint22_linear_53_1640)"/>
<path d="M265.101 80.3257L246.165 66.1829L225 56L236.139 62.2229L247.278 68.4457L265.101 82.0229L289.051 118.794L305 147.5L306.5 146L291.278 118.794L265.101 80.3257Z" fill="url(#paint23_linear_53_1640)"/>
<path d="M266.317 77.4806L246.536 64.7155L224.809 56.0548L236.303 61.4738L247.797 66.8928L266.433 79.1724L292.736 114.142L310.5 141L311.5 139L294.95 113.985L266.317 77.4806Z" fill="url(#paint24_linear_53_1640)"/>
<path d="M179 64.5H213V72L210.5 80L206 85L201.5 87.5L199.5 90L198.5 91.5V98.5V105.5H195.5H192V97V91.5L191 90L189 87.5L185.5 85L181 80L179 72V64.5Z" fill="url(#paint25_linear_53_1640)"/>
<path d="M186.651 63.9633C188.738 61.4524 191.834 60 195.099 60V60C198.266 60 201.279 61.3668 203.365 63.7497L211.389 72.9173C212.295 73.9519 213.063 75.099 213.676 76.3301L223.56 96.2013C224.125 97.3381 224.553 98.5382 224.835 99.7763L226.797 108.395C228.995 118.054 221.978 127.368 212.089 127.921L179.347 129.751C168.391 130.363 160.084 120.016 163.05 109.451L167.181 94.7357C167.489 93.6399 167.912 92.5801 168.445 91.5743L175.991 77.3202C176.507 76.3456 177.122 75.4269 177.827 74.5789L186.651 63.9633Z" fill="url(#paint26_linear_53_1640)"/>
</g>
<defs>
<linearGradient id="paint0_linear_53_1640" x1="181.5" y1="258.5" x2="203" y2="58" gradientUnits="userSpaceOnUse">
<stop stop-color="#867381"/>
<stop offset="1" stop-color="#8A7D87"/>
</linearGradient>
<linearGradient id="paint1_linear_53_1640" x1="200" y1="-21" x2="200" y2="130" gradientUnits="userSpaceOnUse">
<stop stop-color="#054BFF"/>
<stop offset="1" stop-color="#7092EB"/>
</linearGradient>
<linearGradient id="paint2_linear_53_1640" x1="363" y1="-5.26317e-07" x2="363" y2="145" gradientUnits="userSpaceOnUse">
<stop stop-color="#56D905"/>
<stop offset="1" stop-color="#438F14"/>
</linearGradient>
<linearGradient id="paint3_linear_53_1640" x1="100" y1="-4.68966" x2="100" y2="131.31" gradientUnits="userSpaceOnUse">
<stop stop-color="#82FF20"/>
<stop offset="1" stop-color="#599B25"/>
</linearGradient>
<linearGradient id="paint4_linear_53_1640" x1="63" y1="189.5" x2="318.5" y2="206.5" gradientUnits="userSpaceOnUse">
<stop stop-color="#575757"/>
<stop offset="0.53576" stop-color="#8A7562"/>
<stop offset="1" stop-color="#737373"/>
</linearGradient>
<linearGradient id="paint5_linear_53_1640" x1="199.5" y1="85.5185" x2="199.5" y2="203" gradientUnits="userSpaceOnUse">
<stop stop-color="#A78171"/>
<stop offset="1" stop-color="#9F7564"/>
</linearGradient>
<linearGradient id="paint6_linear_53_1640" x1="196.823" y1="99" x2="196.823" y2="173" gradientUnits="userSpaceOnUse">
<stop stop-color="#4F5375"/>
<stop offset="1" stop-color="#565FB4"/>
</linearGradient>
<linearGradient id="paint7_linear_53_1640" x1="199.5" y1="57" x2="199.5" y2="175" gradientUnits="userSpaceOnUse">
<stop stop-color="#CED8F0" stop-opacity="0.17"/>
<stop offset="1" stop-color="#002D9F" stop-opacity="0.73"/>
</linearGradient>
<linearGradient id="paint8_linear_53_1640" x1="191.423" y1="57.9258" x2="180.575" y2="175.556" gradientUnits="userSpaceOnUse">
<stop stop-color="#CED8F0" stop-opacity="0.17"/>
<stop offset="1" stop-color="#002D9F" stop-opacity="0.73"/>
</linearGradient>
<linearGradient id="paint9_linear_53_1640" x1="181.518" y1="55.2685" x2="165.547" y2="176.079" gradientUnits="userSpaceOnUse">
<stop stop-color="#CED8F0" stop-opacity="0.17"/>
<stop offset="1" stop-color="#002D9F" stop-opacity="0.73"/>
</linearGradient>
<linearGradient id="paint10_linear_53_1640" x1="206.112" y1="53.9001" x2="216.056" y2="175.378" gradientUnits="userSpaceOnUse">
<stop stop-color="#CED8F0" stop-opacity="0.17"/>
<stop offset="1" stop-color="#002D9F" stop-opacity="0.73"/>
</linearGradient>
<linearGradient id="paint11_linear_53_1640" x1="180.152" y1="51.1245" x2="149.559" y2="174.756" gradientUnits="userSpaceOnUse">
<stop stop-color="#CED8F0" stop-opacity="0.17"/>
<stop offset="1" stop-color="#002D9F" stop-opacity="0.73"/>
</linearGradient>
<linearGradient id="paint12_linear_53_1640" x1="208.599" y1="52.2725" x2="232.494" y2="177.425" gradientUnits="userSpaceOnUse">
<stop stop-color="#CED8F0" stop-opacity="0.17"/>
<stop offset="1" stop-color="#002D9F" stop-opacity="0.73"/>
</linearGradient>
<linearGradient id="paint13_linear_53_1640" x1="172.943" y1="50.1921" x2="129.885" y2="169.763" gradientUnits="userSpaceOnUse">
<stop stop-color="#CED8F0" stop-opacity="0.17"/>
<stop offset="1" stop-color="#002D9F" stop-opacity="0.73"/>
</linearGradient>
<linearGradient id="paint14_linear_53_1640" x1="218.702" y1="51.1393" x2="253.041" y2="173.601" gradientUnits="userSpaceOnUse">
<stop stop-color="#CED8F0" stop-opacity="0.17"/>
<stop offset="1" stop-color="#002D9F" stop-opacity="0.73"/>
</linearGradient>
<linearGradient id="paint15_linear_53_1640" x1="170.231" y1="47.5548" x2="118.541" y2="166.991" gradientUnits="userSpaceOnUse">
<stop stop-color="#CED8F0" stop-opacity="0.17"/>
<stop offset="1" stop-color="#002D9F" stop-opacity="0.73"/>
</linearGradient>
<linearGradient id="paint16_linear_53_1640" x1="220.114" y1="48.5962" x2="269.66" y2="172.562" gradientUnits="userSpaceOnUse">
<stop stop-color="#CED8F0" stop-opacity="0.17"/>
<stop offset="1" stop-color="#002D9F" stop-opacity="0.73"/>
</linearGradient>
<linearGradient id="paint17_linear_53_1640" x1="134.5" y1="52" x2="134.5" y2="160" gradientUnits="userSpaceOnUse">
<stop stop-color="#CED8F0" stop-opacity="0.17"/>
<stop offset="1" stop-color="#002D9F" stop-opacity="0.73"/>
</linearGradient>
<linearGradient id="paint18_linear_53_1640" x1="130.04" y1="50.3697" x2="125.573" y2="158.246" gradientUnits="userSpaceOnUse">
<stop stop-color="#CED8F0" stop-opacity="0.17"/>
<stop offset="1" stop-color="#002D9F" stop-opacity="0.73"/>
</linearGradient>
<linearGradient id="paint19_linear_53_1640" x1="260" y1="57" x2="260" y2="166" gradientUnits="userSpaceOnUse">
<stop stop-color="#CED8F0" stop-opacity="0.17"/>
<stop offset="1" stop-color="#002D9F" stop-opacity="0.73"/>
</linearGradient>
<linearGradient id="paint20_linear_53_1640" x1="264.648" y1="54.8921" x2="269.116" y2="162.768" gradientUnits="userSpaceOnUse">
<stop stop-color="#CED8F0" stop-opacity="0.17"/>
<stop offset="1" stop-color="#002D9F" stop-opacity="0.73"/>
</linearGradient>
<linearGradient id="paint21_linear_53_1640" x1="123" y1="52" x2="123" y2="151" gradientUnits="userSpaceOnUse">
<stop stop-color="#CED8F0" stop-opacity="0.17"/>
<stop offset="1" stop-color="#002D9F" stop-opacity="0.73"/>
</linearGradient>
<linearGradient id="paint22_linear_53_1640" x1="125.463" y1="49.565" x2="118.473" y2="148.236" gradientUnits="userSpaceOnUse">
<stop stop-color="#CED8F0" stop-opacity="0.17"/>
<stop offset="1" stop-color="#002D9F" stop-opacity="0.73"/>
</linearGradient>
<linearGradient id="paint23_linear_53_1640" x1="269" y1="56" x2="269" y2="155" gradientUnits="userSpaceOnUse">
<stop stop-color="#CED8F0" stop-opacity="0.17"/>
<stop offset="1" stop-color="#002D9F" stop-opacity="0.73"/>
</linearGradient>
<linearGradient id="paint24_linear_53_1640" x1="268.537" y1="52.9568" x2="275.527" y2="151.628" gradientUnits="userSpaceOnUse">
<stop stop-color="#CED8F0" stop-opacity="0.17"/>
<stop offset="1" stop-color="#002D9F" stop-opacity="0.73"/>
</linearGradient>
<linearGradient id="paint25_linear_53_1640" x1="215.5" y1="69" x2="180" y2="75.5" gradientUnits="userSpaceOnUse">
<stop stop-color="#5A4031"/>
<stop offset="0.520833" stop-color="#A2623E"/>
<stop offset="0.967066" stop-color="#382E29"/>
</linearGradient>
<linearGradient id="paint26_linear_53_1640" x1="194" y1="60" x2="194" y2="131" gradientUnits="userSpaceOnUse">
<stop stop-color="#B6BDDA"/>
<stop offset="1" stop-color="#D9D9D9" stop-opacity="0"/>
</linearGradient>
<clipPath id="clip0_53_1640">
<path d="M0 0H393V260H0V0Z" fill="white"/>
</clipPath>
</defs>
</svg>
