<svg width="393" height="260" viewBox="0 0 393 260" fill="none" xmlns="http://www.w3.org/2000/svg">
<path d="M393 0H0V260H393V0Z" fill="white"/>
<path d="M393 0H0V260H393V0Z" fill="#332E2F"/>
<path d="M44.5667 82.8202C40.3893 82.8202 36.5939 82.1553 33.1806 80.8254C29.8183 79.4444 27.0418 77.4497 24.8512 74.8412L34.5561 63.333C35.9826 65.1231 37.3836 66.453 38.7591 67.3225C40.1346 68.192 41.561 68.6267 43.0384 68.6267C44.9233 68.6267 46.3498 68.0641 47.3177 66.9389C48.3366 65.8136 48.8461 64.1513 48.8461 61.952V41.5441H30.6589V27.8877H66.6511V60.8779C66.6511 68.192 64.7662 73.6903 60.9963 77.373C57.2774 81.0044 51.8008 82.8202 44.5667 82.8202ZM93.1083 38.8589C100.444 38.8589 106.048 40.5212 109.92 43.8458C113.792 47.1192 115.728 52.1828 115.728 59.0366V81.5926H99.6801V76.0687C97.6933 80.2628 93.7451 82.3598 87.8355 82.3598C84.5242 82.3598 81.6967 81.7972 79.3533 80.672C77.0608 79.4956 75.3032 77.9356 74.0805 75.992C72.9088 73.9972 72.323 71.7723 72.323 69.3172C72.323 65.1743 73.9022 62.0287 77.0608 59.8805C80.2193 57.7323 85.0081 56.6582 91.4271 56.6582H98.381C97.8207 53.3848 95.197 51.748 90.5101 51.748C88.6252 51.748 86.7148 52.0549 84.7789 52.6687C82.843 53.2313 81.1873 54.0241 79.8118 55.0471L74.3098 43.6156C76.7042 42.1323 79.5825 40.9815 82.9449 40.1631C86.3582 39.2936 89.746 38.8589 93.1083 38.8589ZM93.0319 71.9258C94.2545 71.9258 95.3498 71.5933 96.3178 70.9284C97.2857 70.2635 97.999 69.2661 98.4575 67.9362V65.0208H94.1781C90.663 65.0208 88.9054 66.1972 88.9054 68.55C88.9054 69.5218 89.262 70.3402 89.9752 71.0051C90.7394 71.6189 91.7583 71.9258 93.0319 71.9258ZM168.983 39.6261L152.171 81.5926H134.29L117.478 39.6261H135.207L143.612 62.1054L152.63 39.6261H168.983ZM188.853 38.8589C196.189 38.8589 201.793 40.5212 205.665 43.8458C209.536 47.1192 211.472 52.1828 211.472 59.0366V81.5926H195.425V76.0687C193.438 80.2628 189.49 82.3598 183.58 82.3598C180.269 82.3598 177.441 81.7972 175.098 80.672C172.805 79.4956 171.048 77.9356 169.825 75.992C168.653 73.9972 168.068 71.7723 168.068 69.3172C168.068 65.1743 169.647 62.0287 172.805 59.8805C175.964 57.7323 180.753 56.6582 187.172 56.6582H194.126C193.565 53.3848 190.942 51.748 186.255 51.748C184.37 51.748 182.459 52.0549 180.523 52.6687C178.588 53.2313 176.932 54.0241 175.556 55.0471L170.054 43.6156C172.449 42.1323 175.327 40.9815 178.689 40.1631C182.103 39.2936 185.491 38.8589 188.853 38.8589ZM188.776 71.9258C189.999 71.9258 191.094 71.5933 192.062 70.9284C193.03 70.2635 193.744 69.2661 194.202 67.9362V65.0208H189.923C186.408 65.0208 184.65 66.1972 184.65 68.55C184.65 69.5218 185.007 70.3402 185.72 71.0051C186.484 71.6189 187.503 71.9258 188.776 71.9258Z" fill="white"/>
<path d="M354.24 219.591C353.581 236.134 318.484 249.285 275.725 249.12C232.967 248.955 198.859 235.389 199.435 218.846C200.094 202.303 235.191 189.151 277.95 189.317C320.708 189.565 354.899 203.131 354.24 219.591Z" fill="#A2B2B2"/>
<path d="M353.251 218.184C352.674 234.314 317.907 247.217 275.643 246.97C233.378 246.804 199.6 233.57 200.176 217.44C200.753 201.311 235.52 188.407 277.785 188.655C320.132 188.821 353.828 202.055 353.251 218.184Z" fill="white"/>
<path opacity="0.4" d="M325.24 212.973C324.828 222.982 303.325 230.923 277.208 230.84C251.009 230.675 230.165 222.486 230.495 212.56C230.907 202.551 252.41 194.611 278.527 194.694C304.725 194.776 325.651 202.965 325.24 212.973Z" fill="#404041"/>
<path d="M236.18 180.715C235.685 180.301 235.109 179.97 234.532 179.722C233.543 179.309 232.143 178.812 230.989 178.73C228.93 178.481 226.87 178.233 224.811 177.902C220.279 177.241 215.913 176.33 211.546 175.172C203.884 173.105 189.137 169.052 185.924 162.435C183.123 156.893 187.819 149.697 195.975 151.268C200.176 152.095 203.637 155.817 207.921 156.893C223.327 160.945 213.688 142.666 207.591 139.274C201.907 136.048 193.915 135.966 187.325 137.62C170.27 141.921 167.716 155.817 172.66 166.157C177.356 176.083 189.219 182.038 200.918 185.925C206.52 187.745 212.452 189.069 218.384 189.979C224.481 190.889 230.742 191.964 236.18 189.069C239.97 186.835 239.887 182.782 236.18 180.715Z" fill="#E6E6D0"/>
<path d="M204.378 173.105C204.955 174.842 205.037 176.662 204.461 178.398C204.214 179.143 203.802 179.805 203.307 180.301C201.495 181.459 199.024 182.121 196.387 182.286C193.668 182.121 190.702 181.376 187.984 180.549C192.021 182.7 196.469 184.437 200.836 185.926C206.356 187.746 212.123 188.986 217.972 189.896C218.631 185.346 215.5 179.97 213.194 176.413C213.029 176.083 212.782 175.751 212.535 175.421C212.205 175.338 211.876 175.255 211.464 175.172C209.569 174.594 207.015 173.932 204.378 173.105Z" fill="#C8D8D8"/>
<path opacity="0.5" d="M188.396 165.495C187.325 164.503 186.418 163.509 185.924 162.434C183.123 156.893 187.819 149.697 195.975 151.268C200.177 152.095 203.637 155.817 207.921 156.892C209.074 157.223 212.452 158.133 213.523 157.223C214.512 156.396 213.194 154.825 213.029 153.832C212.205 150.027 211.381 146.718 209.569 142.996C208.333 140.432 206.685 134.725 202.072 134.891C198.529 134.973 197.953 139.026 197.788 141.094C197.623 143.41 198.364 145.064 194.904 145.974C192.844 146.553 190.62 146.139 188.56 146.801C184.441 148.125 181.887 151.433 181.393 154.907C180.898 158.795 183.946 163.675 188.396 165.495Z" fill="#A4BABA"/>
<path d="M354.817 131.912C353.169 126.536 347.731 121.242 343.2 118.265C335.373 113.219 325.816 111.151 316.836 109.249C296.899 105.03 276.302 104.12 256.035 106.188C240.381 107.76 222.421 109.745 209.651 119.919C203.966 124.468 200.506 131.003 199.518 138.116C198.941 142.252 199.765 146.553 200.753 150.523C202.072 155.9 203.555 161.359 204.791 166.735C209.651 187.414 218.137 207.514 241.287 219.177C262.955 230.013 290.802 229.682 312.635 219.508C321.944 215.207 330.101 209.417 335.62 201.972C340.646 195.19 344.189 187.91 347.319 180.549C353.498 165.578 359.76 147.711 354.817 131.912Z" fill="#E6E6D0"/>
<path opacity="0.3" d="M348.308 178.15C350.038 173.932 351.686 169.465 353.086 164.916C274.819 209.003 216.16 172.195 203.884 163.344C204.131 164.503 204.461 165.66 204.708 166.818C205.449 169.961 206.273 173.104 207.179 176.248C224.151 187.249 277.867 215.207 348.308 178.15Z" fill="white"/>
<path opacity="0.3" d="M193.998 140.681C186.006 138.778 177.603 143.658 175.049 149.614C173.483 153.253 173.154 156.976 173.978 160.781C174.637 163.924 176.779 168.059 180.075 169.962C181.31 170.706 182.958 169.714 182.958 168.638C183.04 166.157 180.651 163.758 179.662 161.442C178.344 158.299 178.674 154.908 179.827 151.765C180.981 148.704 183.617 146.388 187.242 145.147C189.796 144.237 192.35 143.824 194.492 142.335C195.234 141.838 194.822 140.929 193.998 140.681Z" fill="white"/>
<path opacity="0.2" d="M315.683 161.938C315.683 161.938 341.305 157.885 353.004 145.809C353.004 145.809 344.848 217.937 286.683 222.237C286.683 222.32 308.268 206.77 315.683 161.938Z" fill="white"/>
<path d="M205.779 136.959C206.026 137.62 210.475 133.319 210.804 132.74C211.958 130.258 213.276 130.01 216.901 128.108C220.856 126.04 226.458 124.717 231.813 123.724C244.006 121.574 257.353 118.761 270.288 118.43C285.282 118.099 299.617 118.678 314.035 120.994C321.779 122.235 329.194 124.055 336.114 126.123C339.41 127.115 342.458 128.356 345.012 129.762C347.484 131.169 347.648 132.74 347.813 134.477C347.896 135.635 351.933 137.62 353.086 136.297C353.086 136.297 363.549 109.579 280.998 109.579C197.54 109.579 204.626 134.973 205.779 136.959Z" fill="#CCCBCB"/>
<path d="M349.296 133.815C345.095 142.831 327.381 146.801 316.589 151.599C316.259 151.764 316.094 152.012 316.094 152.178C319.554 151.433 322.933 150.606 326.228 149.531C335.043 146.801 344.106 143.575 349.626 138.778C355.146 133.98 353.663 129.514 348.884 125.709C350.285 128.356 350.614 131.086 349.296 133.815Z" fill="#878F8C"/>
<path d="M353.169 134.146C353.169 146.139 320.297 155.817 279.763 155.817C239.228 155.817 206.356 146.057 206.356 134.146C206.356 122.152 239.228 112.475 279.763 112.475C320.297 112.392 353.169 122.152 353.169 134.146Z" fill="#AA784B"/>
<path d="M217.662 120.827C223.16 118.231 229.725 116.284 235.553 115.149C248.518 112.716 262.716 111.58 276.257 111.499C293.409 111.337 309.658 112.31 325.907 115.068C338.135 117.096 352.332 121.638 354.63 129.749C356.846 137.698 347.818 143.538 337.232 147.674C318.11 155.056 292.424 157.813 269.856 156.759C257.136 156.191 244.498 154.406 233.336 150.757C224.391 147.836 215.118 144.349 209.456 139.239C201.495 132.02 207.814 125.45 217.662 120.827Z" fill="#AA784B"/>
<path d="M277.867 150.193C274.902 150.193 271.935 150.11 268.97 150.027C255.541 149.365 243.595 147.298 233.626 143.824C225.47 141.011 216.49 137.455 211.546 132.657C210.393 131.582 210.063 130.837 209.981 130.589C210.31 129.679 212.288 127.032 218.549 123.889C223.328 121.491 229.424 119.423 235.356 118.265C247.219 115.866 261.061 114.542 275.396 114.46C276.467 114.46 277.538 114.46 278.609 114.46C295.416 114.46 310.41 115.701 324.416 118.182C340.976 121.159 348.143 126.536 348.967 129.514C349.544 131.83 345.425 136.297 334.879 140.681C319.885 146.719 299.123 150.193 277.867 150.193Z" fill="#C28F5F"/>
<path d="M277.621 151.929C274.325 151.929 271.029 151.847 267.734 151.682C252.905 150.772 238.816 149.861 227.776 144.982C220.774 141.838 212.205 141.425 207.921 130.92C208.992 130.01 210.31 129.018 212.04 127.86C217.149 124.634 223.657 121.821 230.001 120.25C243.183 116.859 258.589 115.039 274.572 114.873C275.725 114.873 276.961 114.873 278.115 114.873C296.899 114.873 313.624 116.61 329.277 120.167C342.211 123.145 348.967 127.529 351.851 130.258C350.038 132.244 347.32 137.455 340.976 140.763C324.91 149.282 301.183 151.929 277.621 151.929Z" fill="url(#paint0_radial_1_19)"/>
<path d="M276.22 155.155C272.925 155.155 269.629 155.073 266.416 154.825C251.751 153.749 238.981 150.027 227.529 145.643C223.08 143.907 220.938 142.913 217.89 141.177C215.5 139.77 209.981 136.214 211.629 132.078C212.535 129.679 222.257 126.122 225.222 125.296C237.333 121.821 248.62 119.423 260.566 118.513C264.85 118.182 269.052 118.016 273.336 117.934C274.49 117.934 275.725 117.934 276.879 117.934C292.368 117.934 307.939 119.34 323.098 122.979C327.217 123.972 331.254 124.882 335.291 126.205C337.763 127.032 346.496 129.101 345.836 133.401C345.342 136.544 342.046 138.695 339.987 139.936C323.839 149.944 299.535 155.155 276.22 155.155Z" fill="#131416"/>
<path d="M220.444 121.325C220.444 121.325 212.452 124.303 209.075 128.025L209.652 128.604C209.569 128.604 217.066 122.649 220.444 121.325Z" fill="#B18661"/>
<path d="M343.2 123.228C343.2 123.228 346.743 124.965 348.638 126.619L348.473 127.032L343.2 123.228Z" fill="#B18661"/>
<path d="M278.609 107.843C236.756 107.843 202.73 118.43 202.73 131.582C202.73 148.207 236.674 157.306 278.609 157.306C320.461 157.306 354.487 151.682 354.487 131.582C354.405 118.43 320.461 107.843 278.609 107.843ZM278.609 150.275C240.216 150.275 209.157 141.26 209.157 130.093C209.157 118.927 240.216 109.911 278.609 109.911C317.001 109.911 348.061 118.927 348.061 130.093C348.061 141.177 317.001 150.275 278.609 150.275Z" fill="#E6E6D0"/>
<path opacity="0.5" d="M267.487 152.261C267.487 152.426 267.404 152.591 267.239 152.757C266.004 154.825 258.918 153.17 257.024 153.005C249.938 152.178 242.853 151.35 235.85 149.862C232.308 149.118 228.765 148.207 225.387 147.132C211.876 142.914 204.049 137.206 204.049 131.582C204.049 126.95 209.239 122.317 218.549 118.43C211.546 121.821 207.756 125.792 207.756 130.01C207.756 136.048 215.336 141.508 229.012 145.478C239.723 148.621 250.845 150.027 261.967 150.854C262.956 150.937 267.816 150.854 267.487 152.261Z" fill="white"/>
<path opacity="0.2" d="M337.351 132.657C337.351 138.613 319.061 143.41 296.487 143.41C273.913 143.41 283.634 133.732 288.742 132.657C316.177 126.784 273.913 121.904 296.487 121.904C319.061 121.904 337.351 129.018 337.351 132.657Z" fill="white"/>
<path opacity="0.5" d="M304.149 150.441C304.149 150.441 297.97 150.937 296.734 152.178C295.416 153.419 301.018 154.907 313.129 152.591C325.24 150.275 339.081 146.139 342.294 142.169C345.425 138.199 339.987 141.177 332.902 144.154C325.652 147.05 304.149 150.441 304.149 150.441Z" fill="white"/>
<g opacity="0.5">
<path opacity="0.5" d="M254.469 9.7424C254.469 9.7424 279.927 27.4435 268.228 48.9494C256.529 70.5379 268.228 90.3071 268.228 90.3071C266.498 87.1639 266.992 80.8777 267.157 77.5689C267.486 69.4626 269.052 61.3564 272.595 53.9123C274.984 48.9494 278.444 44.3173 279.02 38.7754C279.927 29.3459 271.935 22.1497 264.767 16.8559C261.472 14.4572 258.012 12.0584 254.469 9.7424Z" fill="white"/>
<path opacity="0.5" d="M281.904 24.6312C281.904 24.6312 293.026 35.7978 285.529 46.7162C277.949 57.6346 284.623 68.8009 284.623 68.8009C283.881 66.9815 284.541 63.6728 284.787 61.8534C285.447 57.5519 286.765 53.2507 289.072 49.4458C290.637 46.9643 292.779 44.6483 293.438 41.6705C294.509 36.625 290.637 32.3238 287.012 29.0152C285.364 27.609 283.716 26.1201 281.904 24.6312Z" fill="white"/>
<path opacity="0.5" d="M280.092 48.3704C280.092 48.3704 269.052 73.9295 277.702 89.3974C285.859 104.121 276.467 112.805 276.467 112.805C276.467 112.805 291.214 106.271 283.223 89.8936C273.254 69.7111 280.092 48.3704 280.092 48.3704Z" fill="white"/>
</g>
<path opacity="0.7" d="M270.041 91.796C270.041 91.796 278.279 98.4129 272.677 104.948C267.074 111.399 272.018 118.099 272.018 118.099C271.441 117.024 271.935 115.039 272.183 113.964C272.677 111.399 273.666 108.835 275.396 106.602C276.549 105.113 278.114 103.707 278.609 101.97C279.35 98.9919 276.549 96.4279 273.913 94.4428C272.595 93.5331 271.359 92.6228 270.041 91.796Z" fill="white"/>
<path d="M108.997 160.564V162.614H62.6787C57.1408 162.614 52.651 167.121 52.6519 172.681V214.947C52.6519 220.507 48.1611 225.014 42.6223 225.014H41.5667C36.0278 225.014 31.537 220.507 31.537 214.947V148.966C31.537 143.405 36.0278 138.898 41.5667 138.899H64.0657C66.8816 138.899 69.5677 140.088 71.4684 142.174L78.2974 149.676C78.7722 150.198 79.4442 150.495 80.149 150.495H98.9675C104.506 150.495 108.997 155.002 108.997 160.564Z" fill="#E9B78A"/>
<path d="M121.296 172.681V214.947C121.296 220.507 116.805 225.014 111.267 225.014H42.6222C48.1611 225.014 52.6518 220.507 52.6518 214.947V172.681C52.6509 167.121 57.1407 162.614 62.6786 162.614H111.267C116.805 162.614 121.296 167.12 121.296 172.681Z" fill="#AA784B"/>
<path d="M70.1099 203.855C69.4173 203.856 68.7968 203.422 68.5579 202.769C68.3183 202.116 68.51 201.382 69.037 200.931L78.2567 193.048L69.037 185.165C68.3559 184.566 68.2801 183.53 68.8666 182.839C69.453 182.147 70.4847 182.057 71.1815 182.637L81.8792 191.784C82.248 192.099 82.4602 192.561 82.4602 193.048C82.4602 193.535 82.248 193.996 81.8792 194.312L71.1815 203.459C70.8825 203.714 70.5023 203.856 70.1099 203.855Z" fill="#424345"/>
<path d="M103.838 205.387H82.5791C81.6657 205.387 80.9258 204.644 80.9258 203.727C80.9258 202.81 81.6657 202.067 82.5791 202.067H103.838C104.751 202.067 105.491 202.81 105.491 203.727C105.491 204.644 104.751 205.387 103.838 205.387Z" fill="#424345"/>
<defs>
<radialGradient id="paint0_radial_1_19" cx="0" cy="0" r="1" gradientUnits="userSpaceOnUse" gradientTransform="translate(280.842 133.148) scale(78.6164 20.5105)">
<stop offset="0.2673" stop-color="#131416"/>
<stop offset="0.4512" stop-color="#151617"/>
<stop offset="0.5522" stop-color="#1D1B1A"/>
<stop offset="0.633" stop-color="#2B2520"/>
<stop offset="0.7032" stop-color="#3F3328"/>
<stop offset="0.7665" stop-color="#584433"/>
<stop offset="0.8248" stop-color="#775A40"/>
<stop offset="0.8782" stop-color="#9B744F"/>
<stop offset="0.9255" stop-color="#C28F5F"/>
</radialGradient>
</defs>
</svg>
