<svg width="393" height="260" viewBox="0 0 393 260" fill="none" xmlns="http://www.w3.org/2000/svg">
<g clip-path="url(#clip0_19_214)">
<path opacity="0.2" d="M393 0H0V260H393V0Z" fill="white"/>
<path opacity="0.2" d="M393 0H0V260H393V0Z" fill="#C7C6EF"/>
<rect x="-55" y="-27" width="475" height="217" fill="url(#paint0_linear_19_214)"/>
<rect x="-14" y="198" width="390" height="62" rx="31" fill="#2B7D0F"/>
<path d="M-55 148L79.5 152.5L135.5 142H193.5L249.5 145.5L294 159L334.5 148L361.5 145.5L438 148V205H-55V148Z" fill="#2A9247"/>
<path d="M-29.9627 195.742C-32.8557 181.81 -20.5118 169.482 -6.58302 172.393L72.1278 188.845C80.6173 190.619 89.3564 190.854 97.929 189.54L110.897 187.551C129.558 184.688 148.599 185.501 166.948 189.941L186.39 194.647C199.129 197.73 212.246 198.959 225.335 198.297L382.952 190.323C400.777 189.421 414.08 206.502 408.84 223.563V223.563C404.569 237.473 389.619 245.073 375.863 240.327L347.812 230.65C342.427 228.792 336.784 227.792 331.089 227.685L197.159 225.177L65.9426 208.198L22.9756 207.393C20.5279 207.347 18.0805 207.502 15.658 207.855L-7.77436 211.271C-18.1137 212.779 -27.8384 205.973 -29.9627 195.742V195.742Z" fill="#7BB0E0"/>
<rect x="30" y="104" width="27" height="59" fill="#BFBFBF"/>
<rect x="32" y="108" width="5" height="6" fill="#5174CD"/>
<rect width="1" height="6" transform="matrix(-1 0 0 1 35 108)" fill="#2F2D78"/>
<rect x="41" y="108" width="5" height="6" fill="#5174CD"/>
<rect width="1" height="6" transform="matrix(-1 0 0 1 44 108)" fill="#2F2D78"/>
<rect x="50" y="108" width="5" height="6" fill="#5174CD"/>
<rect width="1" height="6" transform="matrix(-1 0 0 1 53 108)" fill="#2F2D78"/>
<rect x="32" y="118" width="5" height="6" fill="#5174CD"/>
<rect width="1" height="6" transform="matrix(-1 0 0 1 35 118)" fill="#2F2D78"/>
<rect x="41" y="118" width="5" height="6" fill="#5174CD"/>
<rect width="1" height="6" transform="matrix(-1 0 0 1 44 118)" fill="#2F2D78"/>
<rect x="50" y="118" width="5" height="6" fill="#5174CD"/>
<rect width="1" height="6" transform="matrix(-1 0 0 1 53 118)" fill="#2F2D78"/>
<rect x="32" y="128" width="5" height="6" fill="#5174CD"/>
<rect width="1" height="6" transform="matrix(-1 0 0 1 35 128)" fill="#2F2D78"/>
<rect x="41" y="128" width="5" height="6" fill="#5174CD"/>
<rect width="1" height="6" transform="matrix(-1 0 0 1 44 128)" fill="#2F2D78"/>
<rect x="50" y="128" width="5" height="6" fill="#5174CD"/>
<rect width="1" height="6" transform="matrix(-1 0 0 1 53 128)" fill="#2F2D78"/>
<rect x="32" y="138" width="5" height="6" fill="#5174CD"/>
<rect width="1" height="6" transform="matrix(-1 0 0 1 35 138)" fill="#2F2D78"/>
<rect x="41" y="138" width="5" height="6" fill="#5174CD"/>
<rect width="1" height="6" transform="matrix(-1 0 0 1 44 138)" fill="#2F2D78"/>
<rect x="50" y="138" width="5" height="6" fill="#5174CD"/>
<rect width="1" height="6" transform="matrix(-1 0 0 1 53 138)" fill="#2F2D78"/>
<rect x="32" y="148" width="5" height="6" fill="#5174CD"/>
<rect width="1" height="6" transform="matrix(-1 0 0 1 35 148)" fill="#2F2D78"/>
<rect x="41" y="148" width="5" height="6" fill="#5174CD"/>
<rect width="1" height="6" transform="matrix(-1 0 0 1 44 148)" fill="#2F2D78"/>
<rect x="50" y="148" width="5" height="6" fill="#5174CD"/>
<rect width="1" height="6" transform="matrix(-1 0 0 1 53 148)" fill="#2F2D78"/>
<rect x="41" y="155" width="5" height="8" fill="#734713"/>
<rect x="44" y="158" width="1" height="2" fill="#312C15"/>
<rect x="126" y="112" width="20" height="44" fill="#EC5454"/>
<rect x="127.481" y="114.983" width="3.7037" height="4.47458" fill="#5174CD"/>
<rect width="0.740741" height="4.47458" transform="matrix(-1 0 0 1 129.704 114.983)" fill="#2F2D78"/>
<rect x="134.148" y="114.983" width="3.7037" height="4.47458" fill="#5174CD"/>
<rect width="0.740741" height="4.47458" transform="matrix(-1 0 0 1 136.37 114.983)" fill="#2F2D78"/>
<rect x="140.815" y="114.983" width="3.7037" height="4.47458" fill="#5174CD"/>
<rect width="0.740741" height="4.47458" transform="matrix(-1 0 0 1 143.037 114.983)" fill="#2F2D78"/>
<rect x="127.481" y="122.441" width="3.7037" height="4.47458" fill="#5174CD"/>
<rect width="0.740741" height="4.47458" transform="matrix(-1 0 0 1 129.704 122.441)" fill="#2F2D78"/>
<rect x="134.148" y="122.441" width="3.7037" height="4.47458" fill="#5174CD"/>
<rect width="0.740741" height="4.47458" transform="matrix(-1 0 0 1 136.37 122.441)" fill="#2F2D78"/>
<rect x="140.815" y="122.441" width="3.7037" height="4.47458" fill="#5174CD"/>
<rect width="0.740741" height="4.47458" transform="matrix(-1 0 0 1 143.037 122.441)" fill="#2F2D78"/>
<rect x="127.481" y="129.898" width="3.7037" height="4.47458" fill="#5174CD"/>
<rect width="0.740741" height="4.47458" transform="matrix(-1 0 0 1 129.704 129.898)" fill="#2F2D78"/>
<rect x="134.148" y="129.898" width="3.7037" height="4.47458" fill="#5174CD"/>
<rect width="0.740741" height="4.47458" transform="matrix(-1 0 0 1 136.37 129.898)" fill="#2F2D78"/>
<rect x="140.815" y="129.898" width="3.7037" height="4.47458" fill="#5174CD"/>
<rect width="0.740741" height="4.47458" transform="matrix(-1 0 0 1 143.037 129.898)" fill="#2F2D78"/>
<rect x="127.481" y="137.356" width="3.7037" height="4.47458" fill="#5174CD"/>
<rect width="0.740741" height="4.47458" transform="matrix(-1 0 0 1 129.704 137.356)" fill="#2F2D78"/>
<rect x="134.148" y="137.356" width="3.7037" height="4.47458" fill="#5174CD"/>
<rect width="0.740741" height="4.47458" transform="matrix(-1 0 0 1 136.37 137.356)" fill="#2F2D78"/>
<rect x="140.815" y="137.356" width="3.7037" height="4.47458" fill="#5174CD"/>
<rect width="0.740741" height="4.47458" transform="matrix(-1 0 0 1 143.037 137.356)" fill="#2F2D78"/>
<rect x="127.481" y="144.814" width="3.7037" height="4.47458" fill="#5174CD"/>
<rect width="0.740741" height="4.47458" transform="matrix(-1 0 0 1 129.704 144.814)" fill="#2F2D78"/>
<rect x="134.148" y="144.814" width="3.7037" height="4.47458" fill="#5174CD"/>
<rect width="0.740741" height="4.47458" transform="matrix(-1 0 0 1 136.37 144.814)" fill="#2F2D78"/>
<rect x="140.815" y="144.814" width="3.7037" height="4.47458" fill="#5174CD"/>
<rect width="0.740741" height="4.47458" transform="matrix(-1 0 0 1 143.037 144.814)" fill="#2F2D78"/>
<rect x="134.148" y="150.034" width="3.7037" height="5.9661" fill="#734713"/>
<rect x="136.37" y="152.271" width="0.740741" height="1.49153" fill="#312C15"/>
<rect x="314" y="98" width="48" height="64" fill="#431717"/>
<rect x="317.556" y="102.339" width="8.88889" height="6.50847" fill="#5174CD"/>
<rect width="1.77778" height="6.50847" transform="matrix(-1 0 0 1 322.889 102.339)" fill="#2F2D78"/>
<rect x="333.556" y="102.339" width="8.88889" height="6.50847" fill="#5174CD"/>
<rect width="1.77778" height="6.50847" transform="matrix(-1 0 0 1 338.889 102.339)" fill="#2F2D78"/>
<rect x="349.556" y="102.339" width="8.88889" height="6.50847" fill="#5174CD"/>
<rect width="1.77778" height="6.50847" transform="matrix(-1 0 0 1 354.889 102.339)" fill="#2F2D78"/>
<rect x="317.556" y="113.186" width="8.88889" height="6.50847" fill="#5174CD"/>
<rect width="1.77778" height="6.50847" transform="matrix(-1 0 0 1 322.889 113.186)" fill="#2F2D78"/>
<rect x="333.556" y="113.186" width="8.88889" height="6.50847" fill="#5174CD"/>
<rect width="1.77778" height="6.50847" transform="matrix(-1 0 0 1 338.889 113.186)" fill="#2F2D78"/>
<rect x="349.556" y="113.186" width="8.88889" height="6.50847" fill="#5174CD"/>
<rect width="1.77778" height="6.50847" transform="matrix(-1 0 0 1 354.889 113.186)" fill="#2F2D78"/>
<rect x="317.556" y="124.034" width="8.88889" height="6.50847" fill="#5174CD"/>
<rect width="1.77778" height="6.50847" transform="matrix(-1 0 0 1 322.889 124.034)" fill="#2F2D78"/>
<rect x="333.556" y="124.034" width="8.88889" height="6.50847" fill="#5174CD"/>
<rect width="1.77778" height="6.50847" transform="matrix(-1 0 0 1 338.889 124.034)" fill="#2F2D78"/>
<rect x="349.556" y="124.034" width="8.88889" height="6.50847" fill="#5174CD"/>
<rect width="1.77778" height="6.50847" transform="matrix(-1 0 0 1 354.889 124.034)" fill="#2F2D78"/>
<rect x="317.556" y="134.881" width="8.88889" height="6.50847" fill="#5174CD"/>
<rect width="1.77778" height="6.50847" transform="matrix(-1 0 0 1 322.889 134.881)" fill="#2F2D78"/>
<rect x="333.556" y="134.881" width="8.88889" height="6.50847" fill="#5174CD"/>
<rect width="1.77778" height="6.50847" transform="matrix(-1 0 0 1 338.889 134.881)" fill="#2F2D78"/>
<rect x="349.556" y="134.881" width="8.88889" height="6.50847" fill="#5174CD"/>
<rect width="1.77778" height="6.50847" transform="matrix(-1 0 0 1 354.889 134.881)" fill="#2F2D78"/>
<rect x="317.556" y="145.729" width="8.88889" height="6.50847" fill="#5174CD"/>
<rect width="1.77778" height="6.50847" transform="matrix(-1 0 0 1 322.889 145.729)" fill="#2F2D78"/>
<rect x="333.556" y="145.729" width="8.88889" height="6.50847" fill="#5174CD"/>
<rect width="1.77778" height="6.50847" transform="matrix(-1 0 0 1 338.889 145.729)" fill="#2F2D78"/>
<rect x="349.556" y="145.729" width="8.88889" height="6.50847" fill="#5174CD"/>
<rect width="1.77778" height="6.50847" transform="matrix(-1 0 0 1 354.889 145.729)" fill="#2F2D78"/>
<rect x="333.556" y="153.322" width="8.88889" height="8.67797" fill="#734713"/>
<rect x="338.889" y="156.576" width="1.77778" height="2.16949" fill="#312C15"/>
<path d="M185.702 32.799L188.691 32.5418L195.499 112.989L193.999 112.984L192.5 113.5L185.702 32.799Z" fill="#9E8383"/>
<path d="M212.681 33.668L215.607 34.3276L197.502 113.493L196.003 112.986L194.5 113L212.681 33.668Z" fill="#9E8383"/>
<rect x="192.446" y="17" width="3.79336" height="18" transform="rotate(27.9841 192.446 17)" fill="#9E8383"/>
<rect x="216.352" y="35.0543" width="3.79336" height="18" transform="rotate(161.345 216.352 35.0543)" fill="#9E8383"/>
<path d="M261.869 57.2527L263.888 59.4732L201.556 115.289L200.654 114.089L199.321 113.219L261.869 57.2527Z" fill="#9E8383"/>
<path d="M277.453 79.2929L278.677 82.0379L202.35 117.2L201.863 115.688L200.943 114.499L277.453 79.2929Z" fill="#9E8383"/>
<rect width="3.82437" height="18.5159" transform="matrix(0.144871 0.989451 -0.984696 0.174281 278.993 52.7297)" fill="#9E8383"/>
<rect width="3.8078" height="18.5926" transform="matrix(-0.833544 -0.552453 0.570486 -0.821307 278.526 83.0863)" fill="#9E8383"/>
<path d="M212.244 33.5679L215.169 34.2323L197.178 112.937L195.75 112.475L194.165 112.511L212.244 33.5679Z" fill="#9E8383"/>
<path d="M237.679 42.604L240.266 44.1227L198.932 114.026L197.659 113.087L196.223 112.643L237.679 42.604Z" fill="#9E8383"/>
<rect x="223.474" y="20.5698" width="3.79336" height="18" transform="rotate(45.6974 223.474 20.5698)" fill="#9E8383"/>
<rect x="240.754" y="45.0415" width="3.79336" height="18" transform="rotate(179.058 240.754 45.0415)" fill="#9E8383"/>
<path d="M239.021 43.469L241.586 45.027L197.71 116.092L196.506 115.198L194.982 114.74L239.021 43.469Z" fill="#9E8383"/>
<path d="M260.212 60.1898L262.164 62.4747L199.014 117.699L198.118 116.388L196.899 115.509L260.212 60.1898Z" fill="#9E8383"/>
<rect width="3.82275" height="18.4892" transform="matrix(0.419951 0.907547 -0.895308 0.445446 254.145 34.304)" fill="#9E8383"/>
<rect width="3.80704" height="18.562" transform="matrix(-0.955739 -0.294215 0.313923 -0.949448 262.318 63.5216)" fill="#9E8383"/>
<path d="M275.351 83.9879L276.403 86.7983L197.793 115.548L197.4 114.1L196.485 112.798L275.351 83.9879Z" fill="#9E8383"/>
<path d="M281.658 110.234L281.777 113.237L197.822 117.618L197.93 116.033L197.516 114.588L281.658 110.234Z" fill="#9E8383"/>
<rect width="3.82472" height="23.4998" transform="matrix(-0.232292 0.972646 -0.979201 -0.202892 297.813 87.1413)" fill="#9E8383"/>
<rect width="3.80797" height="18.5993" transform="matrix(-0.569559 -0.821951 0.8343 -0.55131 281.248 114.155)" fill="#9E8383"/>
<path d="M160.032 42.3759L162.75 41.1065L196.809 114.306L195.398 114.816L194.169 115.817L160.032 42.3759Z" fill="#9E8383"/>
<path d="M185.664 33.9138L188.638 33.5267L198.863 114.09L197.282 114.129L195.875 114.659L185.664 33.9138Z" fill="#9E8383"/>
<rect x="160.931" y="25.2214" width="3.79336" height="18" transform="rotate(7.86875 160.931 25.2214)" fill="#9E8383"/>
<rect x="189.587" y="33.953" width="3.79336" height="18" transform="rotate(141.229 189.587 33.953)" fill="#9E8383"/>
<path d="M136.337 57.6545L138.485 55.5599L194.774 113.436L193.611 114.383L192.78 115.733L136.337 57.6545Z" fill="#9E8383"/>
<path d="M157.745 41.2145L160.426 39.8682L196.642 112.555L195.162 113.114L194.009 114.078L157.745 41.2145Z" fill="#9E8383"/>
<rect x="131.53" y="41.163" width="3.79336" height="18" transform="rotate(-11.3826 131.53 41.163)" fill="#9E8383"/>
<rect x="161.463" y="39.9578" width="3.79336" height="18" transform="rotate(121.978 161.463 39.9578)" fill="#9E8383"/>
<path d="M120.014 78.2243L121.485 75.6095L191.795 115.29L190.946 116.527L190.528 118.056L120.014 78.2243Z" fill="#9E8383"/>
<path d="M135.926 56.4206L138.119 54.3737L193.339 113.919L192.076 114.872L191.242 116.122L135.926 56.4206Z" fill="#9E8383"/>
<rect x="110.757" y="63.7541" width="3.79336" height="18" transform="rotate(-27.74 110.757 63.7541)" fill="#9E8383"/>
<rect x="139.139" y="54.1678" width="3.79336" height="18" transform="rotate(105.621 139.139 54.1678)" fill="#9E8383"/>
<path d="M108.602 102.939L109.234 100.007L188.129 117.144L187.683 118.576L187.736 120.161L108.602 102.939Z" fill="#9E8383"/>
<path d="M117.361 77.4078L118.852 74.8043L189.199 115.378L188.274 116.661L187.846 118.102L117.361 77.4078Z" fill="#9E8383"/>
<rect x="95.4824" y="91.8499" width="3.79336" height="18" transform="rotate(-44.9238 95.4824 91.8499)" fill="#9E8383"/>
<rect x="119.765" y="74.3063" width="3.79336" height="18" transform="rotate(88.4369 119.765 74.3063)" fill="#9E8383"/>
<path d="M287.11 111.41L287.229 114.27L198.39 115.662L198.478 114.235L197.992 112.777L287.11 111.41Z" fill="#9E8383"/>
<path d="M284.679 137.022L283.794 139.765L197.727 117.536L198.366 116.142L198.433 114.711L284.679 137.022Z" fill="#9E8383"/>
<rect width="3.74632" height="19.2703" transform="matrix(-0.571376 0.820688 -0.883129 -0.469131 304.115 118.824)" fill="#9E8383"/>
<rect width="3.67661" height="19.5703" transform="matrix(-0.309479 -0.950906 0.974397 -0.224834 282.954 140.427)" fill="#9E8383"/>
<path d="M277.411 137.549L276.728 140.305L199.692 120.522L200.16 119.181L200.142 117.675L277.411 137.549Z" fill="#9E8383"/>
<path d="M268.27 161.4L266.752 163.805L198.604 122.151L199.539 120.974L199.99 119.625L268.27 161.4Z" fill="#9E8383"/>
<rect width="3.62275" height="28.2972" transform="matrix(-0.74321 0.669059 -0.693644 -0.720318 297.475 156.378)" fill="#9E8383"/>
<rect width="3.605" height="25.1521" transform="matrix(-0.00562911 -0.999984 0.999821 0.018945 265.845 164.238)" fill="#9E8383"/>
<path d="M267.657 163.528L266.101 166.093L195.268 122.493L196.161 121.287L196.62 119.764L267.657 163.528Z" fill="#9E8383"/>
<path d="M250.961 184.738L248.68 186.694L193.664 123.799L194.972 122.901L195.85 121.681L250.961 184.738Z" fill="#9E8383"/>
<rect width="3.8191" height="18.4289" transform="matrix(-0.906388 0.422446 -0.444848 -0.895606 276.783 178.602)" fill="#9E8383"/>
<rect width="3.80534" height="19.8191" transform="matrix(0.294475 -0.955659 0.950146 0.311805 246.376 186.437)" fill="#9E8383"/>
<path d="M105.848 129.023L105.642 126.028L191.388 121.164L191.348 122.663L191.864 124.174L105.848 129.023Z" fill="#9E8383"/>
<path d="M107.384 102.072L108.152 99.1624L191.969 119.174L191.396 120.659L191.377 122.163L107.384 102.072Z" fill="#9E8383"/>
<rect width="3.84832" height="18.9075" transform="matrix(0.511839 -0.859082 0.884323 0.466876 90 120.306)" fill="#9E8383"/>
<rect width="4.08112" height="24.141" transform="matrix(0.404846 0.914385 -0.929007 0.370063 109.689 99)" fill="#9E8383"/>
<path d="M114.067 153.363L113.03 150.547L193.085 121.979L193.469 123.429L194.383 124.735L114.067 153.363Z" fill="#9E8383"/>
<path d="M107.948 127.072L107.859 124.066L193.078 119.907L192.951 121.493L193.356 122.941L107.948 127.072Z" fill="#9E8383"/>
<rect width="3.8387" height="25.1706" transform="matrix(0.139693 -0.990195 0.995279 0.0970504 94.9203 152.271)" fill="#9E8383"/>
<rect width="3.29439" height="25.7587" transform="matrix(0.771582 0.63613 -0.660056 0.751217 105.843 123.52)" fill="#9E8383"/>
<path d="M130.545 176.595L128.617 174.297L190.534 122.486L191.392 123.717L192.676 124.647L130.545 176.595Z" fill="#9E8383"/>
<path d="M114.906 152.008L113.914 149.177L190.637 122.56L191.002 124.099L191.811 125.366L114.906 152.008Z" fill="#9E8383"/>
<rect x="113.741" y="180.158" width="3.79336" height="21.1257" transform="rotate(-97.1008 113.741 180.158)" fill="#9E8383"/>
<rect x="114.774" y="150.219" width="3.79336" height="19.5235" transform="rotate(36.2598 114.774 150.219)" fill="#9E8383"/>
<path d="M248.237 181.631L246.302 183.336L194.657 121.378L195.707 120.632L196.451 119.462L248.237 181.631Z" fill="#9E8383"/>
<path d="M228.911 194.427L226.485 195.356L192.966 121.971L194.307 121.633L195.348 120.869L228.911 194.427Z" fill="#9E8383"/>
<rect width="3.36259" height="22.5711" transform="matrix(-0.993325 0.115348 -0.231831 -0.972756 254.236 202.61)" fill="#9E8383"/>
<rect width="2.48015" height="22.9737" transform="matrix(0.542825 -0.839846 0.786098 0.618102 225.995 194.436)" fill="#9E8383"/>
<path d="M157.363 194.048L154.755 192.566L194.726 122.42L195.959 123.275L197.486 123.699L157.363 194.048Z" fill="#9E8383"/>
<path d="M132.947 176.105L131 173.823L192.948 121.312L193.843 122.616L195.055 123.505L132.947 176.105Z" fill="#9E8383"/>
<rect x="140.805" y="204.313" width="3.79336" height="20.3121" transform="rotate(-117.503 140.805 204.313)" fill="#9E8383"/>
<rect x="133.386" y="174.824" width="3.79336" height="19.9159" transform="rotate(15.8571 133.386 174.824)" fill="#9E8383"/>
<path d="M179.735 201.998L177.151 201.711L188.134 121.799L189.403 122.075L190.779 121.84L179.735 201.998Z" fill="#9E8383"/>
<path d="M154.331 195.941L152.147 194.5L192.508 124.618L193.572 125.516L194.808 125.922L154.331 195.941Z" fill="#9E8383"/>
<rect width="3.40169" height="17.4953" transform="matrix(-0.724599 -0.689171 0.597731 -0.801697 168.465 216.37)" fill="#9E8383"/>
<rect width="3.3385" height="17.7672" transform="matrix(0.986859 -0.161583 0.0744987 0.997221 154.262 194.271)" fill="#9E8383"/>
<path d="M232.139 195.785L229.531 197.145L193.357 127.988L194.717 127.425L195.88 126.397L232.139 195.785Z" fill="#9E8383"/>
<path d="M207.41 205.221L204.516 205.741L191.358 128.297L192.902 128.181L194.257 127.6L207.41 205.221Z" fill="#9E8383"/>
<rect width="3.70816" height="17.4547" transform="matrix(-0.996288 -0.0860831 0.0979493 -0.995191 231.933 212.425)" fill="#9E8383"/>
<rect width="3.71439" height="19.8012" transform="matrix(0.753417 -0.657543 0.664085 0.747657 201.994 203.598)" fill="#9E8383"/>
<path d="M205.287 205.943L202.304 206.261L193.863 125.968L195.364 125.944L196.851 125.397L205.287 205.943Z" fill="#9E8383"/>
<path d="M178.297 205.622L175.357 205.022L191.851 125.506L193.359 125.982L194.862 125.937L178.297 205.622Z" fill="#9E8383"/>
<rect x="198.866" y="221.876" width="3.79336" height="18" transform="rotate(-153.18 198.866 221.876)" fill="#9E8383"/>
<rect x="174.598" y="204.311" width="3.79336" height="18" transform="rotate(-19.8193 174.598 204.311)" fill="#9E8383"/>
<ellipse cx="202" cy="11.5" rx="11" ry="11.5" fill="#CFD868"/>
<path d="M209 10C209 13.866 207 13.5 202 14C197 13.5 195 13.866 195 10C195 6.13401 198.134 3 202 3C205.866 3 209 6.13401 209 10Z" fill="#8ABFDD"/>
<ellipse cx="168" cy="15.5" rx="11" ry="11.5" fill="#CFD868"/>
<path d="M175 14C175 17.866 173 17.5 168 18C163 17.5 161 17.866 161 14C161 10.134 164.134 7 168 7C171.866 7 175 10.134 175 14Z" fill="#8ABFDD"/>
<ellipse cx="135" cy="30.5" rx="11" ry="10.5" fill="#CFD868"/>
<path d="M142 29.1304C142 32.6603 140 32.3261 135 32.7826C130 32.3261 128 32.6603 128 29.1304C128 25.6006 131.134 22.7391 135 22.7391C138.866 22.7391 142 25.6006 142 29.1304Z" fill="#8ABFDD"/>
<ellipse cx="235" cy="18.5" rx="11" ry="11.5" fill="#CFD868"/>
<path d="M242 17C242 20.866 240 20.5 235 21C230 20.5 228 20.866 228 17C228 13.134 231.134 10 235 10C238.866 10 242 13.134 242 17Z" fill="#8ABFDD"/>
<ellipse cx="111" cy="54.5" rx="12" ry="11.5" fill="#CFD868"/>
<path d="M118.636 53C118.636 56.866 116.455 56.5 111 57C105.545 56.5 103.364 56.866 103.364 53C103.364 49.134 106.783 46 111 46C115.217 46 118.636 49.134 118.636 53Z" fill="#8ABFDD"/>
<ellipse cx="95" cy="82.5" rx="11" ry="11.5" fill="#CFD868"/>
<path d="M102 81C102 84.866 100 84.5 95 85C90 84.5 88 84.866 88 81C88 77.134 91.134 74 95 74C98.866 74 102 77.134 102 81Z" fill="#8ABFDD"/>
<ellipse cx="82" cy="118.5" rx="11" ry="11.5" fill="#CFD868"/>
<path d="M89 117C89 120.866 87 120.5 82 121C77 120.5 75 120.866 75 117C75 113.134 78.134 110 82 110C85.866 110 89 113.134 89 117Z" fill="#8ABFDD"/>
<ellipse cx="86" cy="151.5" rx="11" ry="11.5" fill="#CFD868"/>
<path d="M93 150C93 153.866 91 153.5 86 154C81 153.5 79 153.866 79 150C79 146.134 82.134 143 86 143C89.866 143 93 146.134 93 150Z" fill="#8ABFDD"/>
<ellipse cx="265" cy="36.5" rx="11" ry="11.5" fill="#CFD868"/>
<path d="M272 35C272 38.866 270 38.5 265 39C260 38.5 258 38.866 258 35C258 31.134 261.134 28 265 28C268.866 28 272 31.134 272 35Z" fill="#8ABFDD"/>
<ellipse cx="287" cy="58.5" rx="11" ry="11.5" fill="#CFD868"/>
<path d="M294 57C294 60.866 292 60.5 287 61C282 60.5 280 60.866 280 57C280 53.134 283.134 50 287 50C290.866 50 294 53.134 294 57Z" fill="#8ABFDD"/>
<ellipse cx="303" cy="96.5" rx="11" ry="11.5" fill="#CFD868"/>
<path d="M310 95C310 98.866 308 98.5 303 99C298 98.5 296 98.866 296 95C296 91.134 299.134 88 303 88C306.866 88 310 91.134 310 95Z" fill="#8ABFDD"/>
<ellipse cx="309" cy="128.5" rx="11" ry="11.5" fill="#CFD868"/>
<path d="M316 127C316 130.866 314 130.5 309 131C304 130.5 302 130.866 302 127C302 123.134 305.134 120 309 120C312.866 120 316 123.134 316 127Z" fill="#8ABFDD"/>
<ellipse cx="299" cy="166.5" rx="11" ry="11.5" fill="#CFD868"/>
<path d="M306 165C306 168.866 304 168.5 299 169C294 168.5 292 168.866 292 165C292 161.134 295.134 158 299 158C302.866 158 306 161.134 306 165Z" fill="#8ABFDD"/>
<ellipse cx="276" cy="189.5" rx="11" ry="11.5" fill="#CFD868"/>
<path d="M283 188C283 191.866 281 191.5 276 192C271 191.5 269 191.866 269 188C269 184.134 272.134 181 276 181C279.866 181 283 184.134 283 188Z" fill="#8ABFDD"/>
<ellipse cx="252" cy="213.5" rx="11" ry="11.5" fill="#CFD868"/>
<path d="M259 212C259 215.866 257 215.5 252 216C247 215.5 245 215.866 245 212C245 208.134 248.134 205 252 205C255.866 205 259 208.134 259 212Z" fill="#8ABFDD"/>
<ellipse cx="226" cy="222.5" rx="11" ry="11.5" fill="#CFD868"/>
<path d="M233 221C233 224.866 231 224.5 226 225C221 224.5 219 224.866 219 221C219 217.134 222.134 214 226 214C229.866 214 233 217.134 233 221Z" fill="#8ABFDD"/>
<ellipse cx="189" cy="225.5" rx="11" ry="11.5" fill="#CFD868"/>
<path d="M196 224C196 227.866 194 227.5 189 228C184 227.5 182 227.866 182 224C182 220.134 185.134 217 189 217C192.866 217 196 220.134 196 224Z" fill="#8ABFDD"/>
<ellipse cx="129" cy="204.5" rx="11" ry="11.5" fill="#CFD868"/>
<path d="M136 203C136 206.866 134 206.5 129 207C124 206.5 122 206.866 122 203C122 199.134 125.134 196 129 196C132.866 196 136 199.134 136 203Z" fill="#8ABFDD"/>
<ellipse cx="159" cy="219.5" rx="11" ry="11.5" fill="#CFD868"/>
<path d="M166 218C166 221.866 164 221.5 159 222C154 221.5 152 221.866 152 218C152 214.134 155.134 211 159 211C162.866 211 166 214.134 166 218Z" fill="#8ABFDD"/>
<ellipse cx="103" cy="177.5" rx="11" ry="11.5" fill="#CFD868"/>
<path d="M110 176C110 179.866 108 179.5 103 180C98 179.5 96 179.866 96 176C96 172.134 99.134 169 103 169C106.866 169 110 172.134 110 176Z" fill="#8ABFDD"/>
<rect x="190.329" y="122" width="6" height="124.178" transform="rotate(13.491 190.329 122)" fill="#DCD8D8"/>
<rect x="196" y="124.218" width="6" height="117.753" transform="rotate(-11.7089 196 124.218)" fill="#DCD8D8"/>
<ellipse cx="195.5" cy="121" rx="8.5" ry="8" fill="#978989"/>
<circle cx="195" cy="117" r="84" stroke="#B0A0A0" stroke-width="6"/>
<path d="M-24.7154 230.629L183.798 239.744L258.352 233.334L395.409 236.87L394.548 294.863L-25.5768 288.623L-24.7154 230.629Z" fill="#A6A6A6"/>
</g>
<defs>
<linearGradient id="paint0_linear_19_214" x1="182.5" y1="-27" x2="182.5" y2="190" gradientUnits="userSpaceOnUse">
<stop stop-color="#838CE3"/>
<stop offset="1" stop-color="#ADB0CB" stop-opacity="0.79"/>
</linearGradient>
<clipPath id="clip0_19_214">
<path d="M0 0H393V260H0V0Z" fill="white"/>
</clipPath>
</defs>
</svg>
