<svg width="393" height="260" viewBox="0 0 393 260" fill="none" xmlns="http://www.w3.org/2000/svg">
<g clip-path="url(#clip0_62_395)">
<path d="M0 0H393V260H0V0Z" fill="white" fill-opacity="0.21"/>
<path d="M393 0H0V260H393V0Z" fill="white" fill-opacity="0.16"/>
<rect x="-4" y="203" width="401" height="68" fill="url(#paint0_linear_62_395)"/>
<rect x="-1" y="-3" width="410" height="100" fill="url(#paint1_linear_62_395)"/>
<path d="M118.246 62.0162L196.076 21.7776L282.377 65.1929V222.971H118.246V62.0162Z" fill="#534646"/>
<path d="M276 53.1634L313.305 32L347.907 53.1634L352.772 90.7285H404.134L409 223H276V53.1634Z" fill="#534646"/>
<path d="M124 53.1634L85.8537 32L50.4715 53.1634L45.4959 90.7285H-7.02439L-12 223H124V53.1634Z" fill="#534646"/>
<path d="M124 71L197.5 33L279 74V223H124V71Z" fill="url(#paint2_linear_62_395)"/>
<path d="M276 62.5L310.5 42.5L342.5 62.5L347 98H394.5L399 223H276V62.5Z" fill="url(#paint3_linear_62_395)"/>
<path d="M124 63L89.5 43L57.5 63L53 98.5H5.5L1 223.5H124V63Z" fill="url(#paint4_linear_62_395)"/>
<rect x="129" y="128" width="19" height="28" fill="#938E76"/>
<rect x="130" y="129" width="17" height="26" fill="url(#paint5_linear_62_395)"/>
<rect x="138" y="129" width="1" height="26" fill="#938E76"/>
<rect x="130" y="137" width="8" height="1" fill="#938E76"/>
<rect x="157" y="128" width="19" height="28" fill="#938E76"/>
<rect x="158" y="129" width="17" height="26" fill="url(#paint6_linear_62_395)"/>
<rect x="166" y="129" width="1" height="26" fill="#938E76"/>
<rect x="158" y="137" width="8" height="1" fill="#938E76"/>
<rect x="192" y="128" width="19" height="28" fill="#938E76"/>
<rect x="193" y="129" width="17" height="26" fill="url(#paint7_linear_62_395)"/>
<rect x="201" y="129" width="1" height="26" fill="#938E76"/>
<rect x="193" y="137" width="8" height="1" fill="#938E76"/>
<rect x="227" y="127" width="19" height="28" fill="#938E76"/>
<rect x="228" y="128" width="17" height="26" fill="url(#paint8_linear_62_395)"/>
<rect x="236" y="128" width="1" height="26" fill="#938E76"/>
<rect x="228" y="136" width="8" height="1" fill="#938E76"/>
<rect x="255" y="127" width="19" height="28" fill="#938E76"/>
<rect x="256" y="128" width="17" height="26" fill="url(#paint9_linear_62_395)"/>
<rect x="264" y="128" width="1" height="26" fill="#938E76"/>
<rect x="256" y="136" width="8" height="1" fill="#938E76"/>
<path d="M133 91C133 80.5066 141.507 72 152 72V72C162.493 72 171 80.5066 171 91V99H133V91Z" fill="#9EA8B1"/>
<path d="M137 90C137 82.268 143.268 76 151 76V76C158.732 76 165 82.268 165 90V96H137V90Z" fill="#999580"/>
<path d="M140 90.5C140 84.1487 145.149 79 151.5 79V79C157.851 79 163 84.1487 163 90.5V94H140V90.5Z" fill="url(#paint10_linear_62_395)"/>
<rect x="151" y="79" width="2" height="17" fill="#999580"/>
<path d="M263 91C263 80.5066 254.493 72 244 72V72C233.507 72 225 80.5066 225 91V99H263V91Z" fill="#9EA8B1"/>
<path d="M259 90C259 82.268 252.732 76 245 76V76C237.268 76 231 82.268 231 90V96H259V90Z" fill="#999580"/>
<path d="M256 90.5C256 84.1487 250.851 79 244.5 79V79C238.149 79 233 84.1487 233 90.5V94H256V90.5Z" fill="url(#paint11_linear_62_395)"/>
<rect width="2" height="17" transform="matrix(-1 0 0 1 245 79)" fill="#999580"/>
<path d="M225 90C225 75.0883 212.912 63 198 63V63C183.088 63 171 75.0883 171 90V99H225V90Z" fill="#9EA8B1"/>
<path d="M219.316 88.2281C219.316 77.2405 210.409 68.3333 199.421 68.3333V68.3333C188.433 68.3333 179.526 77.2405 179.526 88.2281V95H219.316V88.2281Z" fill="#999580"/>
<path d="M215.684 88.3421C215.684 79.3166 208.368 72 199.342 72V72C190.317 72 183 79.3166 183 88.3421V92H215.684V88.3421Z" fill="url(#paint12_linear_62_395)"/>
<rect width="2" height="23" transform="matrix(-1 0 0 1 201 72)" fill="#999580"/>
<path d="M173 138C173 137.448 173.448 137 174 137H237C237.552 137 238 137.448 238 138V231H173V138Z" fill="#8A8E89"/>
<path d="M171 174C171 172.895 171.895 172 173 172H238C239.105 172 240 172.895 240 174V182C240 183.105 239.105 184 238 184H173C171.895 184 171 183.105 171 182V174Z" fill="#BABABA"/>
<path d="M189 173.5C189 164.387 196.387 157 205.5 157V157C214.613 157 222 164.387 222 173.5V231H189V173.5Z" fill="#D9D9D9"/>
<path d="M192 177.5C192 170.044 198.044 164 205.5 164V164C212.956 164 219 170.044 219 177.5V231H192V177.5Z" fill="#6A5858"/>
<path d="M203.5 164H208.5V167L207 168.5V175L206.5 188L206.876 189.504C206.953 189.812 206.863 190.137 206.638 190.362V190.362C206.286 190.714 205.714 190.714 205.362 190.362V190.362C205.137 190.137 205.047 189.812 205.124 189.504L205.5 188L205 175V168.5L203.5 167V164Z" fill="#584F4F"/>
<path d="M202.877 179.111C202.954 178.418 203.376 177.812 204 177.5V177.5L206 177L208 177.5V177.5C208.624 177.812 209.046 178.418 209.123 179.111L209.5 182.5L210.5 186L212 188H206H200L201.5 186L202.5 182.5L202.877 179.111Z" fill="url(#paint13_linear_62_395)"/>
<path d="M187.412 148.784H187.988L186.614 150.332L188.102 152H187.49L186.038 150.368V152H185.51V148.784H186.038V150.344L187.412 148.784ZM191.365 150.386C191.365 150.654 191.329 150.892 191.257 151.1C191.189 151.304 191.089 151.478 190.957 151.622C190.829 151.766 190.671 151.876 190.483 151.952C190.299 152.024 190.093 152.06 189.865 152.06C189.653 152.06 189.457 152.024 189.277 151.952C189.097 151.876 188.941 151.766 188.809 151.622C188.677 151.478 188.573 151.304 188.497 151.1C188.425 150.892 188.389 150.654 188.389 150.386C188.389 150.03 188.449 149.73 188.569 149.486C188.689 149.238 188.861 149.05 189.085 148.922C189.309 148.79 189.575 148.724 189.883 148.724C190.175 148.724 190.431 148.79 190.651 148.922C190.875 149.05 191.049 149.238 191.173 149.486C191.301 149.73 191.365 150.03 191.365 150.386ZM188.935 150.386C188.935 150.638 188.967 150.858 189.031 151.046C189.099 151.23 189.203 151.372 189.343 151.472C189.483 151.572 189.661 151.622 189.877 151.622C190.093 151.622 190.271 151.572 190.411 151.472C190.551 151.372 190.653 151.23 190.717 151.046C190.785 150.858 190.819 150.638 190.819 150.386C190.819 150.13 190.785 149.912 190.717 149.732C190.649 149.552 190.545 149.414 190.405 149.318C190.269 149.218 190.091 149.168 189.871 149.168C189.543 149.168 189.305 149.276 189.157 149.492C189.009 149.708 188.935 150.006 188.935 150.386ZM194.649 152H194.115V149.222H193.167C193.127 149.73 193.077 150.164 193.017 150.524C192.957 150.88 192.881 151.17 192.789 151.394C192.697 151.618 192.587 151.782 192.459 151.886C192.331 151.99 192.181 152.042 192.009 152.042C191.957 152.042 191.905 152.038 191.853 152.03C191.805 152.026 191.765 152.016 191.733 152V151.604C191.757 151.612 191.783 151.618 191.811 151.622C191.839 151.626 191.867 151.628 191.895 151.628C191.983 151.628 192.063 151.592 192.135 151.52C192.207 151.448 192.271 151.338 192.327 151.19C192.387 151.042 192.441 150.856 192.489 150.632C192.537 150.404 192.579 150.136 192.615 149.828C192.651 149.52 192.683 149.172 192.711 148.784H194.649V152ZM198.466 150.386C198.466 150.654 198.43 150.892 198.358 151.1C198.29 151.304 198.19 151.478 198.058 151.622C197.93 151.766 197.772 151.876 197.584 151.952C197.4 152.024 197.194 152.06 196.966 152.06C196.754 152.06 196.558 152.024 196.378 151.952C196.198 151.876 196.042 151.766 195.91 151.622C195.778 151.478 195.674 151.304 195.598 151.1C195.526 150.892 195.49 150.654 195.49 150.386C195.49 150.03 195.55 149.73 195.67 149.486C195.79 149.238 195.962 149.05 196.186 148.922C196.41 148.79 196.676 148.724 196.984 148.724C197.276 148.724 197.532 148.79 197.752 148.922C197.976 149.05 198.15 149.238 198.274 149.486C198.402 149.73 198.466 150.03 198.466 150.386ZM196.036 150.386C196.036 150.638 196.068 150.858 196.132 151.046C196.2 151.23 196.304 151.372 196.444 151.472C196.584 151.572 196.762 151.622 196.978 151.622C197.194 151.622 197.372 151.572 197.512 151.472C197.652 151.372 197.754 151.23 197.818 151.046C197.886 150.858 197.92 150.638 197.92 150.386C197.92 150.13 197.886 149.912 197.818 149.732C197.75 149.552 197.646 149.414 197.506 149.318C197.37 149.218 197.192 149.168 196.972 149.168C196.644 149.168 196.406 149.276 196.258 149.492C196.11 149.708 196.036 150.006 196.036 150.386ZM201.205 148.784H201.781L200.407 150.332L201.895 152H201.283L199.831 150.368V152H199.303V148.784H199.831V150.344L201.205 148.784ZM205.158 150.386C205.158 150.654 205.122 150.892 205.05 151.1C204.982 151.304 204.882 151.478 204.75 151.622C204.622 151.766 204.464 151.876 204.276 151.952C204.092 152.024 203.886 152.06 203.658 152.06C203.446 152.06 203.25 152.024 203.07 151.952C202.89 151.876 202.734 151.766 202.602 151.622C202.47 151.478 202.366 151.304 202.29 151.1C202.218 150.892 202.182 150.654 202.182 150.386C202.182 150.03 202.242 149.73 202.362 149.486C202.482 149.238 202.654 149.05 202.878 148.922C203.102 148.79 203.368 148.724 203.676 148.724C203.968 148.724 204.224 148.79 204.444 148.922C204.668 149.05 204.842 149.238 204.966 149.486C205.094 149.73 205.158 150.03 205.158 150.386ZM202.728 150.386C202.728 150.638 202.76 150.858 202.824 151.046C202.892 151.23 202.996 151.372 203.136 151.472C203.276 151.572 203.454 151.622 203.67 151.622C203.886 151.622 204.064 151.572 204.204 151.472C204.344 151.372 204.446 151.23 204.51 151.046C204.578 150.858 204.612 150.638 204.612 150.386C204.612 150.13 204.578 149.912 204.51 149.732C204.442 149.552 204.338 149.414 204.198 149.318C204.062 149.218 203.884 149.168 203.664 149.168C203.336 149.168 203.098 149.276 202.95 149.492C202.802 149.708 202.728 150.006 202.728 150.386ZM208.442 152H207.908V149.222H206.96C206.92 149.73 206.87 150.164 206.81 150.524C206.75 150.88 206.674 151.17 206.582 151.394C206.49 151.618 206.38 151.782 206.252 151.886C206.124 151.99 205.974 152.042 205.802 152.042C205.75 152.042 205.698 152.038 205.646 152.03C205.598 152.026 205.558 152.016 205.526 152V151.604C205.55 151.612 205.576 151.618 205.604 151.622C205.632 151.626 205.66 151.628 205.688 151.628C205.776 151.628 205.856 151.592 205.928 151.52C206 151.448 206.064 151.338 206.12 151.19C206.18 151.042 206.234 150.856 206.282 150.632C206.33 150.404 206.372 150.136 206.408 149.828C206.444 149.52 206.476 149.172 206.504 148.784H208.442V152ZM214.712 148.784V152H214.238V149.948C214.238 149.864 214.24 149.776 214.244 149.684C214.252 149.592 214.26 149.502 214.268 149.414H214.25L213.2 152H212.756L211.736 149.414H211.718C211.726 149.502 211.73 149.592 211.73 149.684C211.734 149.776 211.736 149.87 211.736 149.966V152H211.262V148.784H211.964L212.978 151.37L214.01 148.784H214.712ZM216.237 150.746C216.237 150.782 216.235 150.834 216.231 150.902C216.231 150.966 216.229 151.036 216.225 151.112C216.221 151.184 216.217 151.254 216.213 151.322C216.209 151.386 216.205 151.438 216.201 151.478L217.923 148.784H218.571V152H218.079V150.104C218.079 150.04 218.079 149.956 218.079 149.852C218.083 149.748 218.087 149.646 218.091 149.546C218.095 149.442 218.099 149.364 218.103 149.312L216.393 152H215.739V148.784H216.237V150.746ZM221.124 148.724C221.52 148.724 221.838 148.862 222.078 149.138C222.322 149.414 222.444 149.83 222.444 150.386C222.444 150.75 222.388 151.058 222.276 151.31C222.168 151.558 222.014 151.746 221.814 151.874C221.618 151.998 221.386 152.06 221.118 152.06C220.954 152.06 220.808 152.038 220.68 151.994C220.552 151.95 220.442 151.894 220.35 151.826C220.262 151.754 220.186 151.676 220.122 151.592H220.086C220.094 151.66 220.102 151.746 220.11 151.85C220.118 151.954 220.122 152.044 220.122 152.12V153.44H219.594V148.784H220.026L220.098 149.222H220.122C220.186 149.13 220.262 149.046 220.35 148.97C220.442 148.894 220.55 148.834 220.674 148.79C220.802 148.746 220.952 148.724 221.124 148.724ZM221.028 149.168C220.812 149.168 220.638 149.21 220.506 149.294C220.374 149.374 220.278 149.496 220.218 149.66C220.158 149.824 220.126 150.032 220.122 150.284V150.386C220.122 150.65 220.15 150.874 220.206 151.058C220.262 151.242 220.356 151.382 220.488 151.478C220.624 151.574 220.808 151.622 221.04 151.622C221.236 151.622 221.396 151.568 221.52 151.46C221.648 151.352 221.742 151.206 221.802 151.022C221.866 150.834 221.898 150.62 221.898 150.38C221.898 150.012 221.826 149.718 221.682 149.498C221.542 149.278 221.324 149.168 221.028 149.168ZM224.503 148.73C224.895 148.73 225.185 148.816 225.373 148.988C225.561 149.16 225.655 149.434 225.655 149.81V152H225.271L225.169 151.544H225.145C225.053 151.66 224.957 151.758 224.857 151.838C224.761 151.914 224.649 151.97 224.521 152.006C224.397 152.042 224.245 152.06 224.065 152.06C223.873 152.06 223.699 152.026 223.543 151.958C223.391 151.89 223.271 151.786 223.183 151.646C223.095 151.502 223.051 151.322 223.051 151.106C223.051 150.786 223.177 150.54 223.429 150.368C223.681 150.192 224.069 150.096 224.593 150.08L225.139 150.062V149.87C225.139 149.602 225.081 149.416 224.965 149.312C224.849 149.208 224.685 149.156 224.473 149.156C224.305 149.156 224.145 149.182 223.993 149.234C223.841 149.282 223.699 149.338 223.567 149.402L223.405 149.006C223.545 148.93 223.711 148.866 223.903 148.814C224.095 148.758 224.295 148.73 224.503 148.73ZM224.659 150.446C224.259 150.462 223.981 150.526 223.825 150.638C223.673 150.75 223.597 150.908 223.597 151.112C223.597 151.292 223.651 151.424 223.759 151.508C223.871 151.592 224.013 151.634 224.185 151.634C224.457 151.634 224.683 151.56 224.863 151.412C225.043 151.26 225.133 151.028 225.133 150.716V150.428L224.659 150.446Z" fill="#FFF5CD"/>
<rect x="127" y="103" width="146" height="15" fill="#CDCDCD"/>
<rect x="95" y="96" width="29" height="17" fill="#D9D9D9"/>
<rect x="276" y="95" width="28" height="17" fill="#D9D9D9"/>
<path d="M124 96.5L127 103V118L119.5 112.5L124 96.5Z" fill="#A5A3A3"/>
<path d="M276 96L273 103V118L280.5 112L276 96Z" fill="#A5A3A3"/>
<path d="M146.296 114L144.416 108.992H144.384C144.395 109.099 144.403 109.235 144.408 109.4C144.419 109.565 144.427 109.747 144.432 109.944C144.437 110.136 144.44 110.333 144.44 110.536V114H143.776V108.288H144.84L146.6 112.968H146.632L148.424 108.288H149.48V114H148.768V110.488C148.768 110.301 148.771 110.117 148.776 109.936C148.781 109.749 148.789 109.576 148.8 109.416C148.811 109.251 148.819 109.112 148.824 109H148.792L146.888 114H146.296ZM155.824 112.376C155.654 112.755 155.48 113.072 155.304 113.328C155.134 113.579 154.931 113.768 154.696 113.896C154.462 114.019 154.163 114.08 153.8 114.08C153.651 114.08 153.51 114.069 153.376 114.048C153.248 114.027 153.131 113.997 153.024 113.96V113.248C153.131 113.296 153.246 113.336 153.368 113.368C153.491 113.395 153.619 113.408 153.752 113.408C153.95 113.408 154.118 113.381 154.256 113.328C154.4 113.269 154.526 113.176 154.632 113.048C154.744 112.92 154.848 112.749 154.944 112.536L152.744 108.288H153.536L155.128 111.432C155.15 111.469 155.171 111.515 155.192 111.568C155.214 111.616 155.235 111.667 155.256 111.72C155.283 111.773 155.304 111.824 155.32 111.872H155.352C155.368 111.835 155.384 111.792 155.4 111.744C155.422 111.691 155.44 111.64 155.456 111.592C155.478 111.539 155.496 111.493 155.512 111.456L156.888 108.288H157.648L155.824 112.376ZM164.199 109.624C164.199 110.013 164.076 110.323 163.831 110.552C163.586 110.776 163.258 110.92 162.847 110.984V111.016C163.327 111.08 163.692 111.229 163.943 111.464C164.194 111.699 164.319 112.005 164.319 112.384C164.319 112.72 164.234 113.016 164.063 113.272C163.892 113.523 163.636 113.72 163.295 113.864C162.954 114.008 162.527 114.08 162.015 114.08C161.706 114.08 161.41 114.056 161.127 114.008C160.85 113.965 160.591 113.885 160.351 113.768V113.112C160.516 113.192 160.692 113.261 160.879 113.32C161.071 113.373 161.263 113.416 161.455 113.448C161.647 113.475 161.831 113.488 162.007 113.488C162.519 113.488 162.906 113.392 163.167 113.2C163.434 113.008 163.567 112.736 163.567 112.384C163.567 112.021 163.412 111.757 163.103 111.592C162.794 111.427 162.362 111.344 161.807 111.344H160.991V110.744H161.767C162.146 110.744 162.458 110.701 162.703 110.616C162.954 110.531 163.14 110.411 163.263 110.256C163.391 110.096 163.455 109.909 163.455 109.696C163.455 109.408 163.348 109.187 163.135 109.032C162.922 108.877 162.644 108.8 162.303 108.8C161.946 108.8 161.647 108.845 161.407 108.936C161.172 109.027 160.943 109.144 160.719 109.288L160.375 108.8C160.524 108.688 160.695 108.589 160.887 108.504C161.084 108.413 161.303 108.341 161.543 108.288C161.783 108.235 162.039 108.208 162.311 108.208C162.722 108.208 163.066 108.269 163.343 108.392C163.626 108.515 163.839 108.683 163.983 108.896C164.127 109.104 164.199 109.347 164.199 109.624ZM171.116 114H167.924V108.288H171.116V108.92H168.644V110.704H170.972V111.328H168.644V113.368H171.116V114ZM178.664 106.512C178.643 106.779 178.576 107.003 178.464 107.184C178.358 107.365 178.198 107.501 177.984 107.592C177.771 107.683 177.494 107.728 177.152 107.728C176.806 107.728 176.526 107.683 176.312 107.592C176.104 107.501 175.952 107.368 175.856 107.192C175.76 107.011 175.702 106.784 175.68 106.512H176.336C176.363 106.8 176.438 106.995 176.56 107.096C176.688 107.192 176.891 107.24 177.168 107.24C177.414 107.24 177.606 107.189 177.744 107.088C177.888 106.981 177.974 106.789 178 106.512H178.664ZM174.776 108.288H175.448V111.424C175.448 111.557 175.446 111.704 175.44 111.864C175.44 112.019 175.438 112.173 175.432 112.328C175.427 112.483 175.419 112.621 175.408 112.744C175.403 112.861 175.398 112.952 175.392 113.016H175.424L178.568 108.288H179.368V114H178.696V110.896C178.696 110.752 178.699 110.597 178.704 110.432C178.71 110.261 178.715 110.099 178.72 109.944C178.731 109.784 178.739 109.643 178.744 109.52C178.75 109.397 178.755 109.307 178.76 109.248H178.728L175.576 114H174.776V108.288ZM199.667 114H198.947V111.336H196.019V114H195.299V108.288H196.019V110.704H198.947V108.288H199.667V114ZM201.653 114.096C201.509 114.096 201.384 114.043 201.277 113.936C201.17 113.829 201.117 113.704 201.117 113.56C201.117 113.395 201.165 113.264 201.261 113.168C201.357 113.072 201.488 113.024 201.653 113.024C201.792 113.024 201.914 113.077 202.021 113.184C202.133 113.291 202.189 113.416 202.189 113.56C202.189 113.72 202.138 113.851 202.037 113.952C201.936 114.048 201.808 114.096 201.653 114.096ZM210.194 114H209.33L206.746 111.104V114H206.026V108.288H206.746V111.056L209.266 108.288H210.082L207.602 111.064L210.194 114ZM211.395 114.096C211.251 114.096 211.126 114.043 211.019 113.936C210.913 113.829 210.859 113.704 210.859 113.56C210.859 113.395 210.907 113.264 211.003 113.168C211.099 113.072 211.23 113.024 211.395 113.024C211.534 113.024 211.657 113.077 211.763 113.184C211.875 113.291 211.931 113.416 211.931 113.56C211.931 113.72 211.881 113.851 211.779 113.952C211.678 114.048 211.55 114.096 211.395 114.096ZM219.679 108.288C220.425 108.288 220.969 108.435 221.311 108.728C221.652 109.021 221.823 109.435 221.823 109.968C221.823 110.203 221.783 110.429 221.703 110.648C221.628 110.861 221.503 111.053 221.327 111.224C221.151 111.395 220.916 111.531 220.623 111.632C220.329 111.728 219.969 111.776 219.543 111.776H218.887V114H218.167V108.288H219.679ZM219.615 108.904H218.887V111.16H219.463C219.825 111.16 220.127 111.123 220.367 111.048C220.607 110.968 220.785 110.843 220.903 110.672C221.02 110.501 221.079 110.277 221.079 110C221.079 109.632 220.961 109.357 220.727 109.176C220.492 108.995 220.121 108.904 219.615 108.904ZM228.601 114H225.409V108.288H228.601V108.92H226.129V110.704H228.457V111.328H226.129V113.368H228.601V114ZM233.765 108.288C234.511 108.288 235.055 108.435 235.397 108.728C235.738 109.021 235.909 109.435 235.909 109.968C235.909 110.203 235.869 110.429 235.789 110.648C235.714 110.861 235.589 111.053 235.413 111.224C235.237 111.395 235.002 111.531 234.709 111.632C234.415 111.728 234.055 111.776 233.629 111.776H232.973V114H232.253V108.288H233.765ZM233.701 108.904H232.973V111.16H233.549C233.911 111.16 234.213 111.123 234.453 111.048C234.693 110.968 234.871 110.843 234.989 110.672C235.106 110.501 235.165 110.277 235.165 110C235.165 109.632 235.047 109.357 234.813 109.176C234.578 108.995 234.207 108.904 233.701 108.904ZM239.503 108.288H240.175V111.424C240.175 111.557 240.172 111.704 240.167 111.864C240.167 112.019 240.164 112.173 240.159 112.328C240.153 112.483 240.145 112.621 240.135 112.744C240.129 112.861 240.124 112.952 240.119 113.016H240.151L243.295 108.288H244.095V114H243.423V110.896C243.423 110.752 243.425 110.597 243.431 110.432C243.436 110.261 243.441 110.099 243.447 109.944C243.457 109.784 243.465 109.643 243.471 109.52C243.476 109.397 243.481 109.307 243.487 109.248H243.455L240.303 114H239.503V108.288ZM251.914 114H251.098L249.586 111.52L248.05 114H247.29L249.186 111.024L247.41 108.288H248.21L249.61 110.528L251.018 108.288H251.778L250.01 111.008L251.914 114ZM258.704 114L258.016 112.232H255.752L255.072 114H254.344L256.576 108.264H257.224L259.448 114H258.704ZM257.16 109.864C257.144 109.821 257.117 109.744 257.08 109.632C257.042 109.52 257.005 109.405 256.968 109.288C256.936 109.165 256.909 109.072 256.888 109.008C256.861 109.115 256.832 109.224 256.8 109.336C256.773 109.443 256.744 109.541 256.712 109.632C256.685 109.723 256.661 109.8 256.64 109.864L255.992 111.592H257.8L257.16 109.864Z" fill="#BEAF76"/>
<rect x="104" y="107" width="10" height="122" fill="#D9D9D9"/>
<rect x="290" y="107" width="10" height="122" fill="#D9D9D9"/>
<rect x="340" y="107" width="10" height="122" fill="#D9D9D9"/>
<rect x="49" y="111" width="10" height="118" fill="#D9D9D9"/>
<rect y="98" width="68" height="16" fill="#D9D9D9"/>
<rect x="329" y="97" width="68" height="16" fill="#D9D9D9"/>
<path d="M65 86.5C65 76.835 72.835 69 82.5 69V69C92.165 69 100 76.835 100 86.5V164H65V86.5Z" fill="#999580"/>
<path d="M70 88.5C70 81.5964 75.5964 76 82.5 76V76C89.4036 76 95 81.5964 95 88.5V164H70V88.5Z" fill="url(#paint14_linear_62_395)"/>
<path d="M302 86.5C302 76.835 309.835 69 319.5 69V69C329.165 69 337 76.835 337 86.5V164H302V86.5Z" fill="#999580"/>
<path d="M307 88.5C307 81.5964 312.596 76 319.5 76V76C326.404 76 332 81.5964 332 88.5V164H307V88.5Z" fill="url(#paint15_linear_62_395)"/>
<rect x="14" y="185" width="2" height="47" fill="black"/>
<rect x="118" y="185" width="2" height="47" fill="black"/>
<rect x="287" y="184" width="2" height="47" fill="black"/>
<rect x="390" y="184" width="2" height="47" fill="black"/>
<path d="M54 166H106.5L119.5 184H14.5L54 166Z" fill="url(#paint16_linear_62_395)"/>
<path d="M352.5 166H300L287 184H392L352.5 166Z" fill="url(#paint17_linear_62_395)"/>
<rect x="14" y="184" width="106" height="2" fill="#CDBEBE"/>
<rect x="287" y="184" width="105" height="2" fill="#CDBEBE"/>
</g>
<defs>
<linearGradient id="paint0_linear_62_395" x1="196.5" y1="203" x2="196.5" y2="271" gradientUnits="userSpaceOnUse">
<stop stop-color="#BBD9F5"/>
<stop offset="1" stop-color="#657685"/>
</linearGradient>
<linearGradient id="paint1_linear_62_395" x1="204" y1="-3" x2="204" y2="97" gradientUnits="userSpaceOnUse">
<stop stop-color="#AAD7FE"/>
<stop offset="1" stop-color="#D6D6D6"/>
</linearGradient>
<linearGradient id="paint2_linear_62_395" x1="201.5" y1="33" x2="201.5" y2="223" gradientUnits="userSpaceOnUse">
<stop stop-color="#8A8E89"/>
<stop offset="1" stop-color="#676967"/>
</linearGradient>
<linearGradient id="paint3_linear_62_395" x1="337.5" y1="42.5" x2="337.5" y2="223" gradientUnits="userSpaceOnUse">
<stop stop-color="#8A8E89"/>
<stop offset="1" stop-color="#676967"/>
</linearGradient>
<linearGradient id="paint4_linear_62_395" x1="62.5" y1="43" x2="62.5" y2="223.5" gradientUnits="userSpaceOnUse">
<stop stop-color="#8A8E89"/>
<stop offset="1" stop-color="#676967"/>
</linearGradient>
<linearGradient id="paint5_linear_62_395" x1="139.5" y1="129" x2="138.5" y2="155" gradientUnits="userSpaceOnUse">
<stop stop-color="#4A5C8B"/>
<stop offset="1" stop-color="#1A243D"/>
</linearGradient>
<linearGradient id="paint6_linear_62_395" x1="167.5" y1="129" x2="166.5" y2="155" gradientUnits="userSpaceOnUse">
<stop stop-color="#4A5C8B"/>
<stop offset="1" stop-color="#1A243D"/>
</linearGradient>
<linearGradient id="paint7_linear_62_395" x1="202.5" y1="129" x2="201.5" y2="155" gradientUnits="userSpaceOnUse">
<stop stop-color="#4A5C8B"/>
<stop offset="1" stop-color="#1A243D"/>
</linearGradient>
<linearGradient id="paint8_linear_62_395" x1="237.5" y1="128" x2="236.5" y2="154" gradientUnits="userSpaceOnUse">
<stop stop-color="#4A5C8B"/>
<stop offset="1" stop-color="#1A243D"/>
</linearGradient>
<linearGradient id="paint9_linear_62_395" x1="265.5" y1="128" x2="264.5" y2="154" gradientUnits="userSpaceOnUse">
<stop stop-color="#4A5C8B"/>
<stop offset="1" stop-color="#1A243D"/>
</linearGradient>
<linearGradient id="paint10_linear_62_395" x1="151.5" y1="79" x2="151.5" y2="94" gradientUnits="userSpaceOnUse">
<stop stop-color="#588EBF"/>
<stop offset="1" stop-color="#1E5486"/>
</linearGradient>
<linearGradient id="paint11_linear_62_395" x1="244.5" y1="79" x2="244.5" y2="94" gradientUnits="userSpaceOnUse">
<stop stop-color="#588EBF"/>
<stop offset="1" stop-color="#1E5486"/>
</linearGradient>
<linearGradient id="paint12_linear_62_395" x1="199.342" y1="72" x2="199.342" y2="92" gradientUnits="userSpaceOnUse">
<stop stop-color="#588EBF"/>
<stop offset="1" stop-color="#1E5486"/>
</linearGradient>
<linearGradient id="paint13_linear_62_395" x1="206" y1="177" x2="206" y2="188" gradientUnits="userSpaceOnUse">
<stop stop-color="#866C6C"/>
<stop offset="1" stop-color="#3C3C3C"/>
</linearGradient>
<linearGradient id="paint14_linear_62_395" x1="82.5" y1="76" x2="82.5" y2="164" gradientUnits="userSpaceOnUse">
<stop stop-color="#2C3B8A"/>
<stop offset="1" stop-color="#041154"/>
</linearGradient>
<linearGradient id="paint15_linear_62_395" x1="319.5" y1="76" x2="319.5" y2="164" gradientUnits="userSpaceOnUse">
<stop stop-color="#2C3B8A"/>
<stop offset="1" stop-color="#041154"/>
</linearGradient>
<linearGradient id="paint16_linear_62_395" x1="67" y1="166" x2="67" y2="184" gradientUnits="userSpaceOnUse">
<stop stop-color="#837F7F"/>
<stop offset="1" stop-color="#A5A5A5"/>
</linearGradient>
<linearGradient id="paint17_linear_62_395" x1="339.5" y1="166" x2="339.5" y2="184" gradientUnits="userSpaceOnUse">
<stop stop-color="#837F7F"/>
<stop offset="1" stop-color="#A5A5A5"/>
</linearGradient>
<clipPath id="clip0_62_395">
<path d="M0 0H393V260H0V0Z" fill="white"/>
</clipPath>
</defs>
</svg>
