<svg width="393" height="260" viewBox="0 0 393 260" fill="none" xmlns="http://www.w3.org/2000/svg">
<g clip-path="url(#clip0_41_413)">
<path d="M393 0H0V260H393V0Z" fill="white"/>
<path d="M-8.5 -6.5L162.5 -2.5L305.5 126L296.5 222.5L105.5 235.5L-8.5 243L-14.5 170.5L-8.5 -6.5Z" fill="url(#paint0_linear_41_413)"/>
<path d="M93.5 0.388321H397.5V80.3883L310.941 117.741C289.636 126.936 265.205 125.298 245.317 113.342L200.428 86.3564C193.855 82.4053 186.67 79.5775 179.168 77.9893L129.165 67.4039C115.106 64.4277 104.164 53.3753 101.328 39.2871L93.5 0.388321Z" fill="url(#paint1_linear_41_413)"/>
<rect x="288" y="223" width="131" height="31" fill="#2E5A14"/>
<path d="M116.5 217H148.5L419.5 254L448 274.5L74 229.5L116.5 217Z" fill="#A0A0A0"/>
<path d="M32 225L404 266H76.5H-4L-15 232L32 225Z" fill="url(#paint2_linear_41_413)"/>
<path d="M270 65L296.5 49.5H305L366 30V15.5L396.5 5L399 65L394 224.5L325 221L278 217L270 65Z" fill="#969591"/>
<path d="M325 65.5L361 56V59.5L332 67L314 71.5L306 71L325 65.5Z" fill="#83817A"/>
<path d="M314 71.5L361 59.5L376 220L322.5 218L316 91L314 71.5Z" fill="#90918D"/>
<path d="M296 51.5L304.5 52.5L306 71L307 98H316.5L317.5 121.5H309L310 148.5H319L320 173H312.5L314 203H322L322.5 218H315H305.5L296 51.5Z" fill="#9A9CA3"/>
<path d="M280 64L296 51.5L305.5 218L288 217.5L285 83L280 64Z" fill="#9D9C99"/>
<path d="M279 217.5L393 224V237L283.5 232L279 217.5Z" fill="#64474C"/>
<rect x="306.481" y="72.3592" width="9" height="26" transform="rotate(-1.34144 306.481 72.3592)" fill="#734848"/>
<rect x="307" y="73.2121" width="8" height="24" transform="rotate(-1.51896 307 73.2121)" fill="#6C8E9C"/>
<rect x="309" y="122.211" width="9" height="26" transform="rotate(-1.34144 309 122.211)" fill="#734848"/>
<rect x="309.519" y="123.064" width="8" height="24" transform="rotate(-1.51896 309.519 123.064)" fill="#6C8E9C"/>
<rect width="7.49673" height="28.7713" transform="matrix(0.999516 -0.031104 0.0176182 0.999845 313 174.233)" fill="#734848"/>
<rect width="6.66415" height="26.5572" transform="matrix(0.99938 -0.0352172 0.0199498 0.999801 313.432 175.177)" fill="#6C8E9C"/>
<path d="M140 208H228.5V267L136 262.5L140 208Z" fill="url(#paint3_linear_41_413)"/>
<path d="M228 208.5H295L296.5 262L228 260V208.5Z" fill="url(#paint4_linear_41_413)"/>
<path d="M140.5 204L226.5 203V208H140.5V204Z" fill="#533C32"/>
<path d="M226.5 203L291 205L292 208.5H226.5V203Z" fill="url(#paint5_radial_41_413)"/>
<path d="M192 132L203 136L211 170.5L195 199.5L189.5 203.5H177H159V199.5L172.5 191V179.5L165.5 170.5V159V148.5L167.5 141L161 132L159 123.5L166 115L171.82 117L170 123.5L173.5 111L192 132Z" fill="url(#paint6_linear_41_413)"/>
<path d="M202.5 136L217.5 134L231.5 136L236 144.5L239 191L225.5 188.5L217.5 194L215 197.5L194 200.5L202.5 180L204.75 169L207 158L202.5 136Z" fill="url(#paint7_linear_41_413)"/>
<path d="M212.5 150L214 146.5L217.5 144L221.5 142.5L225.5 143L234 144L239.5 150L244.5 158L253.5 166.5V173V183L251 190L242 191.5L231.5 187L221.5 181L216.5 174L214 165L212.5 158V150Z" fill="url(#paint8_linear_41_413)"/>
<path d="M152 200.5L165 207.5L179.5 207L185 206.5L190 203L191 202.5L192.5 201L194 200H195.5L211 198L215 197.5H220.5H229.5L248 200.5V203.5L239.5 204.5L229 203.5H221.5H209L201 207.5L193.5 211L180 213.5H167H160.5L154.5 210L149.5 207L147 201.5L147.5 200L149.5 198.5L160 199V201L159 202.5L155.5 202L152 200.5Z" fill="url(#paint9_linear_41_413)"/>
<path d="M176.5 126.5H178L183.5 138.5L186 144.5L187 151L188 157V164.5L184.5 172L173 194L166 205.5L162.5 219.5V247L160 248L161 221L164 206.5L169.5 195.5L176.5 184.5L182.5 172L186 163.5V153.5L184.5 144.5L176.5 126.5Z" fill="url(#paint10_linear_41_413)"/>
<path d="M160.5 150.5L174.5 126.5L175.5 127.5L166 144L162 154L163.5 163L173 181.5L181.5 197.5L182.5 207L181.5 241H180L181.5 210.5L180 200L171.5 181.5L168 174L163.5 168L160.5 160.5V150.5Z" fill="url(#paint11_linear_41_413)"/>
<path d="M162 221L181 223.5V225.5L161.5 223L162 221Z" fill="url(#paint12_linear_41_413)"/>
<path d="M163 214L181.5 216V218L163 216V214Z" fill="url(#paint13_linear_41_413)"/>
<path d="M165 208L182 210V212L164.5 209.5L165 208Z" fill="url(#paint14_linear_41_413)"/>
<path d="M168 200.5L181 202.5V204L167.5 202L168 200.5Z" fill="url(#paint15_linear_41_413)"/>
<path d="M172 194L179.5 195V197L171.5 196L172 194Z" fill="url(#paint16_linear_41_413)"/>
<path d="M171.5 181L179 182L177.5 183.5L173 183L171.5 181Z" fill="url(#paint17_linear_41_413)"/>
<path d="M169 174.5L181 176V177.5L169.5 176L169 174.5Z" fill="url(#paint18_linear_41_413)"/>
<rect x="166" y="169" width="18" height="1" fill="url(#paint19_linear_41_413)"/>
<path d="M163 163L186 164V165L163 164V163Z" fill="url(#paint20_linear_41_413)"/>
<rect x="162" y="157" width="25" height="1" fill="url(#paint21_linear_41_413)"/>
<rect x="162" y="151" width="24" height="1" fill="url(#paint22_linear_41_413)"/>
<path d="M164.5 146L185 144V145L164 147.5L164.5 146Z" fill="url(#paint23_linear_41_413)"/>
<path d="M167.5 140L181 136L182 137L167.5 141.5V140Z" fill="url(#paint24_linear_41_413)"/>
<path d="M217 193L222.5 190.5L218 197.5H215.5H215L217 193Z" fill="url(#paint25_linear_41_413)"/>
<path d="M222 190.5L225.5 188.5H228.5L225.5 193.5L221.5 197.5H218L222 190.5Z" fill="url(#paint26_linear_41_413)"/>
<path d="M228 188.5L233 190L230.5 193.5L227 197.5H225H221.5L225.5 193.5L228 188.5Z" fill="url(#paint27_linear_41_413)"/>
<path d="M232 189.5L234 190H247.5L253.5 182.5V166.5L251.5 142.5L256.5 152.5L259 162V173.5L256 180.5L253.5 189.5L251.5 193.5L248.5 202.5L234 198.5L229.5 197.5H227L232 189.5Z" fill="#78727C"/>
<path d="M204 113L215.5 115L220.5 120L224.5 127L231.5 137.5L223 135L215 128.5L204 113Z" fill="url(#paint28_linear_41_413)"/>
<path d="M204 113L209 111L226 110L251.5 142.5L253.5 166L243.5 158.5L240 151L236 146.5L230 137L220.5 120.5L215.5 115L204 113Z" fill="url(#paint29_linear_41_413)"/>
<path d="M227 99L235 85.5L239.5 89L245.5 97.5L248 107.5L253.5 115L255.5 122V129L253.5 135.5L251.5 142.5L245 134.5L236.5 124L230 115L226 110L227 99Z" fill="url(#paint30_linear_41_413)"/>
<path d="M179 100L193.5 102.5L203 99.5L210.5 96.5L221 91L227.5 84L232 74L235 86L230 94L227.5 98.5L226 110L218 110.5L209.5 111L204 113L197 118L186.5 113L176.5 114.5L174.5 112V107.5L179 106V100Z" fill="url(#paint31_linear_41_413)"/>
<path d="M186.5 113L197 118L204 113L209 120L215 128.5L223 135L217.5 134L203 136L192 132L184 130L182 124.5L180 122L176.5 114.5L186.5 113Z" fill="url(#paint32_linear_41_413)"/>
<path d="M166 130H168L149.5 158.5L148 157.5L166 130Z" fill="url(#paint33_linear_41_413)"/>
<path d="M183.5 127.5L185 126L193 156H191L183.5 127.5Z" fill="url(#paint34_linear_41_413)"/>
<path d="M180.5 119L182 120.5L178.7 123.5L177.5 126.5L176 125L177.5 121.25L180.5 119Z" fill="url(#paint35_linear_41_413)"/>
<path d="M180.95 120.5L182.45 122L179.15 125L177.95 128L176.45 126.5L177.95 122.75L180.95 120.5Z" fill="url(#paint36_linear_41_413)"/>
<path d="M182.45 122L183.95 123.5L180.65 126.5L179.45 129.5L177.95 128L179.45 124.25L182.45 122Z" fill="url(#paint37_linear_41_413)"/>
<path d="M183.95 123.5L185.45 125L182.15 128L180.95 131L179.45 129.5L180.95 125.75L183.95 123.5Z" fill="url(#paint38_linear_41_413)"/>
<path d="M166.333 115L164.111 117.222L169 121.667L170.778 126.111L173 123.889L170.778 118.333L166.333 115Z" fill="url(#paint39_linear_41_413)"/>
<path d="M165.667 117.222L163.444 119.444L168.333 123.889L170.111 128.333L172.333 126.111L170.111 120.556L165.667 117.222Z" fill="url(#paint40_linear_41_413)"/>
<path d="M163.444 119.444L161.222 121.667L166.111 126.111L167.889 130.556L170.111 128.333L167.889 122.778L163.444 119.444Z" fill="url(#paint41_linear_41_413)"/>
<path d="M161.222 121.667L159 123.889L163.889 128.333L165.667 132.778L167.889 130.556L165.667 125L161.222 121.667Z" fill="url(#paint42_linear_41_413)"/>
<path d="M220.5 28L225 23.5L229 21.5H234L238.5 22.5L243.5 26.5L246.5 31L246.25 34.75L246 38.5L244.5 42.5L241.5 46.5L238 49L234 50.5L230 53.5L224.5 55V59.5L218 53.5L212 43.5V41L216 34L220.5 28Z" fill="url(#paint43_linear_41_413)"/>
<path d="M158.5 33L162 32L165 33L171 39L173 44L176.5 49L172 58.5L170 65.5L165 59L163 53V46.5L161 38.5L158.5 33Z" fill="url(#paint44_linear_41_413)"/>
<path d="M191.5 53H199L212.5 60.5L221 61.5L228.5 64.5L232 74L227.5 84.5L220.5 91.5L202 100.5L193.5 103L183 101L179.5 99.5L174 95L169.5 89.5L168 81L170 75V62.5L177.5 56L181.5 62L184 69.5V80.5L185 88L191 83.5L190 77V69V61L191.5 53Z" fill="url(#paint45_linear_41_413)"/>
<path d="M174 50L177.5 46L184 42L187 40L193.5 39L200 38.5L205.5 39L211.5 41L215 46L221 54.5L225 59L228.5 64.5L221 61.5L212.5 60.5L199 53H191.5L190 60.5V67V76.5L191.5 84.5V90L188.5 90.5H186.5L185 89L184 80.5V69.5L181.5 62.5L177.5 56L170 62.5L171 57.5L174 50Z" fill="url(#paint46_linear_41_413)"/>
<path d="M197 65L199 63L201.5 61.5L206 63L209 65.5L212 68.5L210 71L206.5 72.5L202.5 73L197.5 70.5L196 68L197 65Z" fill="#928888"/>
<path d="M201 63L204.5 63.5L207 65.5L208.5 68L208 70L204.5 71.5L200.5 70.5L197.5 68.5L198 65L201 63Z" fill="#454444"/>
<path d="M171.5 70L175 66.25L178.5 65L181 67.5V71.5L178.5 73.5L174 74.5L171.75 73.5L171.5 70Z" fill="#928888"/>
<path d="M174 69L176 68.5L178 69L178.5 70.5L178 72L176 72.5L174 72L173.5 70.5L174 69Z" fill="#454444"/>
<path d="M181.5 78.5L185.5 76L190.5 75.5L192 79L189 78L186 78.5L183.5 79.5L181 82L181.5 78.5Z" fill="#4E3C3C"/>
<path d="M181 79.5C181 83.6421 177.642 87 173.5 87C171.448 87 169.854 86.1788 168.756 84.8684C167.644 83.5406 167 81.6554 167 79.5C167 77.3446 167.644 75.4594 168.756 74.1316C169.854 72.8212 171.448 72 173.5 72C177.642 72 181 75.3579 181 79.5Z" stroke="#4E3C3C" stroke-width="2"/>
<path d="M205.5 74C205.5 77.8306 202.454 81 198 81C193.468 81 190 77.7585 190 74C190 70.2415 193.468 67 198 67C202.454 67 205.5 70.1694 205.5 74Z" stroke="#4E3C3C" stroke-width="2"/>
</g>
<defs>
<linearGradient id="paint0_linear_41_413" x1="-3.00001" y1="8.00001" x2="286.5" y2="165" gradientUnits="userSpaceOnUse">
<stop stop-color="#6BB947"/>
<stop offset="1" stop-color="#87B525"/>
</linearGradient>
<linearGradient id="paint1_linear_41_413" x1="246" y1="-24.5" x2="252.5" y2="159.5" gradientUnits="userSpaceOnUse">
<stop stop-color="#4D78B8"/>
<stop offset="1" stop-color="#A7B1C1"/>
</linearGradient>
<linearGradient id="paint2_linear_41_413" x1="-7.5" y1="225" x2="171.5" y2="266" gradientUnits="userSpaceOnUse">
<stop stop-color="#206508"/>
<stop offset="1" stop-color="#BB9C2C"/>
</linearGradient>
<linearGradient id="paint3_linear_41_413" x1="139.5" y1="230.5" x2="229" y2="233.5" gradientUnits="userSpaceOnUse">
<stop stop-color="#766D64"/>
<stop offset="1" stop-color="#8F7D69"/>
</linearGradient>
<linearGradient id="paint4_linear_41_413" x1="228.5" y1="229" x2="297" y2="231.5" gradientUnits="userSpaceOnUse">
<stop stop-color="#C9C2CA"/>
<stop offset="1" stop-color="#DCD3DD"/>
</linearGradient>
<radialGradient id="paint5_radial_41_413" cx="0" cy="0" r="1" gradientUnits="userSpaceOnUse" gradientTransform="translate(291 205.5) rotate(179.559) scale(65.0019 774.114)">
<stop stop-color="#4B464B"/>
<stop offset="0.0208333" stop-color="#9A5131"/>
<stop offset="1" stop-color="#4E3023"/>
</radialGradient>
<linearGradient id="paint6_linear_41_413" x1="185" y1="132" x2="185" y2="203.5" gradientUnits="userSpaceOnUse">
<stop stop-color="#7B7375"/>
<stop offset="1" stop-color="#151515"/>
</linearGradient>
<linearGradient id="paint7_linear_41_413" x1="228.5" y1="132.5" x2="207" y2="199.5" gradientUnits="userSpaceOnUse">
<stop offset="0.0538009" stop-color="#78767F"/>
<stop offset="1" stop-color="#0C0C0C"/>
</linearGradient>
<linearGradient id="paint8_linear_41_413" x1="239.5" y1="146" x2="231.5" y2="194" gradientUnits="userSpaceOnUse">
<stop stop-color="#786D72"/>
<stop offset="1" stop-color="#1B1B1B"/>
</linearGradient>
<linearGradient id="paint9_linear_41_413" x1="149" y1="201" x2="244.5" y2="203" gradientUnits="userSpaceOnUse">
<stop stop-color="#49454D"/>
<stop offset="1" stop-color="#A0A0A0"/>
</linearGradient>
<linearGradient id="paint10_linear_41_413" x1="177" y1="126" x2="174" y2="248" gradientUnits="userSpaceOnUse">
<stop stop-color="#312323"/>
<stop offset="1" stop-color="#735F5F"/>
</linearGradient>
<linearGradient id="paint11_linear_41_413" x1="173.857" y1="126.029" x2="170.467" y2="240.97" gradientUnits="userSpaceOnUse">
<stop stop-color="#312323"/>
<stop offset="1" stop-color="#735F5F"/>
</linearGradient>
<linearGradient id="paint12_linear_41_413" x1="173.339" y1="220.981" x2="173.333" y2="225.503" gradientUnits="userSpaceOnUse">
<stop stop-color="#312323"/>
<stop offset="1" stop-color="#735F5F"/>
</linearGradient>
<linearGradient id="paint13_linear_41_413" x1="174.232" y1="213.984" x2="174.227" y2="218.002" gradientUnits="userSpaceOnUse">
<stop stop-color="#312323"/>
<stop offset="1" stop-color="#735F5F"/>
</linearGradient>
<linearGradient id="paint14_linear_41_413" x1="175.125" y1="207.984" x2="175.12" y2="212.002" gradientUnits="userSpaceOnUse">
<stop stop-color="#312323"/>
<stop offset="1" stop-color="#735F5F"/>
</linearGradient>
<linearGradient id="paint15_linear_41_413" x1="175.696" y1="200.486" x2="175.691" y2="204.002" gradientUnits="userSpaceOnUse">
<stop stop-color="#312323"/>
<stop offset="1" stop-color="#735F5F"/>
</linearGradient>
<linearGradient id="paint16_linear_41_413" x1="176.357" y1="193.988" x2="176.351" y2="197.002" gradientUnits="userSpaceOnUse">
<stop stop-color="#312323"/>
<stop offset="1" stop-color="#735F5F"/>
</linearGradient>
<linearGradient id="paint17_linear_41_413" x1="176.054" y1="180.99" x2="176.049" y2="183.502" gradientUnits="userSpaceOnUse">
<stop stop-color="#312323"/>
<stop offset="1" stop-color="#735F5F"/>
</linearGradient>
<linearGradient id="paint18_linear_41_413" x1="176.286" y1="174.488" x2="176.281" y2="177.502" gradientUnits="userSpaceOnUse">
<stop stop-color="#312323"/>
<stop offset="1" stop-color="#735F5F"/>
</linearGradient>
<linearGradient id="paint19_linear_41_413" x1="176.929" y1="168.996" x2="176.928" y2="170.001" gradientUnits="userSpaceOnUse">
<stop stop-color="#312323"/>
<stop offset="1" stop-color="#735F5F"/>
</linearGradient>
<linearGradient id="paint20_linear_41_413" x1="176.964" y1="162.992" x2="176.963" y2="165.001" gradientUnits="userSpaceOnUse">
<stop stop-color="#312323"/>
<stop offset="1" stop-color="#735F5F"/>
</linearGradient>
<linearGradient id="paint21_linear_41_413" x1="177.179" y1="156.996" x2="177.178" y2="158.001" gradientUnits="userSpaceOnUse">
<stop stop-color="#312323"/>
<stop offset="1" stop-color="#735F5F"/>
</linearGradient>
<linearGradient id="paint22_linear_41_413" x1="176.571" y1="150.996" x2="176.571" y2="152.001" gradientUnits="userSpaceOnUse">
<stop stop-color="#312323"/>
<stop offset="1" stop-color="#735F5F"/>
</linearGradient>
<linearGradient id="paint23_linear_41_413" x1="176.75" y1="143.986" x2="176.747" y2="147.502" gradientUnits="userSpaceOnUse">
<stop stop-color="#312323"/>
<stop offset="1" stop-color="#735F5F"/>
</linearGradient>
<linearGradient id="paint24_linear_41_413" x1="176.304" y1="135.977" x2="176.292" y2="141.503" gradientUnits="userSpaceOnUse">
<stop stop-color="#312323"/>
<stop offset="1" stop-color="#735F5F"/>
</linearGradient>
<linearGradient id="paint25_linear_41_413" x1="218.75" y1="190.5" x2="218.75" y2="197.5" gradientUnits="userSpaceOnUse">
<stop stop-color="#BDB9C9"/>
<stop offset="1" stop-color="#717172"/>
</linearGradient>
<linearGradient id="paint26_linear_41_413" x1="223.25" y1="188.5" x2="223.25" y2="197.5" gradientUnits="userSpaceOnUse">
<stop stop-color="#BDB9C9"/>
<stop offset="1" stop-color="#717172"/>
</linearGradient>
<linearGradient id="paint27_linear_41_413" x1="227.25" y1="188.5" x2="227.25" y2="197.5" gradientUnits="userSpaceOnUse">
<stop stop-color="#BDB9C9"/>
<stop offset="1" stop-color="#717172"/>
</linearGradient>
<linearGradient id="paint28_linear_41_413" x1="210" y1="112" x2="225" y2="138" gradientUnits="userSpaceOnUse">
<stop stop-color="#9E9CB1"/>
<stop offset="1" stop-color="#525254"/>
</linearGradient>
<linearGradient id="paint29_linear_41_413" x1="218.5" y1="112" x2="252" y2="163" gradientUnits="userSpaceOnUse">
<stop stop-color="#8C8AA0"/>
<stop offset="1" stop-color="#3F3F3F"/>
</linearGradient>
<linearGradient id="paint30_linear_41_413" x1="219" y1="95.5" x2="261" y2="125.5" gradientUnits="userSpaceOnUse">
<stop stop-color="#B5B1BC"/>
<stop offset="1" stop-color="#303030"/>
</linearGradient>
<linearGradient id="paint31_linear_41_413" x1="233.5" y1="83" x2="164" y2="110.5" gradientUnits="userSpaceOnUse">
<stop stop-color="#838291"/>
<stop offset="1" stop-color="#303030"/>
</linearGradient>
<linearGradient id="paint32_linear_41_413" x1="210.5" y1="119.5" x2="180.5" y2="124.5" gradientUnits="userSpaceOnUse">
<stop stop-color="#9795A8"/>
<stop offset="1" stop-color="#383838"/>
</linearGradient>
<linearGradient id="paint33_linear_41_413" x1="166" y1="130.5" x2="149" y2="160" gradientUnits="userSpaceOnUse">
<stop stop-color="#503F3B"/>
<stop offset="1" stop-color="#36382E"/>
</linearGradient>
<linearGradient id="paint34_linear_41_413" x1="183.5" y1="126.5" x2="191.5" y2="157.5" gradientUnits="userSpaceOnUse">
<stop stop-color="#312626"/>
<stop offset="1" stop-color="#D1C6CE"/>
</linearGradient>
<linearGradient id="paint35_linear_41_413" x1="181.048" y1="125.094" x2="174.39" y2="123.645" gradientUnits="userSpaceOnUse">
<stop stop-color="#59454A"/>
<stop offset="1"/>
</linearGradient>
<linearGradient id="paint36_linear_41_413" x1="181.498" y1="126.594" x2="174.84" y2="125.145" gradientUnits="userSpaceOnUse">
<stop stop-color="#59454A"/>
<stop offset="1"/>
</linearGradient>
<linearGradient id="paint37_linear_41_413" x1="182.998" y1="128.094" x2="176.34" y2="126.645" gradientUnits="userSpaceOnUse">
<stop stop-color="#59454A"/>
<stop offset="1"/>
</linearGradient>
<linearGradient id="paint38_linear_41_413" x1="184.498" y1="129.594" x2="177.84" y2="128.145" gradientUnits="userSpaceOnUse">
<stop stop-color="#59454A"/>
<stop offset="1"/>
</linearGradient>
<linearGradient id="paint39_linear_41_413" x1="165.522" y1="124.028" x2="175.385" y2="121.881" gradientUnits="userSpaceOnUse">
<stop stop-color="#59454A"/>
<stop offset="1"/>
</linearGradient>
<linearGradient id="paint40_linear_41_413" x1="164.855" y1="126.25" x2="174.718" y2="124.103" gradientUnits="userSpaceOnUse">
<stop stop-color="#59454A"/>
<stop offset="1"/>
</linearGradient>
<linearGradient id="paint41_linear_41_413" x1="162.633" y1="128.472" x2="172.496" y2="126.325" gradientUnits="userSpaceOnUse">
<stop stop-color="#59454A"/>
<stop offset="1"/>
</linearGradient>
<linearGradient id="paint42_linear_41_413" x1="160.411" y1="130.694" x2="170.274" y2="128.547" gradientUnits="userSpaceOnUse">
<stop stop-color="#59454A"/>
<stop offset="1"/>
</linearGradient>
<linearGradient id="paint43_linear_41_413" x1="229.25" y1="21.5" x2="229.25" y2="59.5" gradientUnits="userSpaceOnUse">
<stop stop-color="#676675"/>
<stop offset="1" stop-color="#565656"/>
</linearGradient>
<linearGradient id="paint44_linear_41_413" x1="167.5" y1="32" x2="167.5" y2="65.5" gradientUnits="userSpaceOnUse">
<stop stop-color="#676675"/>
<stop offset="1" stop-color="#565656"/>
</linearGradient>
<linearGradient id="paint45_linear_41_413" x1="228.5" y1="69.5" x2="172" y2="92" gradientUnits="userSpaceOnUse">
<stop stop-color="#ABA9C2"/>
<stop offset="1" stop-color="#65544A"/>
</linearGradient>
<linearGradient id="paint46_linear_41_413" x1="199.25" y1="38.5" x2="191.5" y2="91" gradientUnits="userSpaceOnUse">
<stop stop-color="#BABCD2"/>
<stop offset="1" stop-color="#574E61"/>
</linearGradient>
<clipPath id="clip0_41_413">
<path d="M0 0H393V260H0V0Z" fill="white"/>
</clipPath>
</defs>
</svg>
