<svg width="393" height="260" viewBox="0 0 393 260" fill="none" xmlns="http://www.w3.org/2000/svg">
<g clip-path="url(#clip0_56_1725)">
<path d="M393 0H0V260H393V0Z" fill="white" fill-opacity="0.16"/>
<rect y="120" width="431" height="145" fill="url(#paint0_linear_56_1725)"/>
<rect x="-7" y="235" width="423" height="25" fill="#B1884B"/>
<rect x="-7" width="328" height="145" fill="url(#paint1_linear_56_1725)"/>
<path d="M304.5 -8L421 -10.5L423.5 136L225.5 118.5L304.5 -8Z" fill="url(#paint2_linear_56_1725)"/>
<path d="M64 60C75.3332 44.7143 103 29.5 103 29.5C103 29.5 127.109 46.5849 134.5 63C142.956 81.7795 195 235 195 235H-7V219L18 204.5L27 169.5H38V149.5L44 146.5C44 146.5 46.4268 83.702 64 60Z" fill="#353333"/>
<path d="M314.758 66C303.425 50.7143 275.758 35.5 275.758 35.5C275.758 35.5 251.649 52.5849 244.258 69C235.802 87.7795 244.258 241 244.258 241H385.758V225L360.758 210.5L351.758 175.5H340.758V155.5L334.758 152.5C334.758 152.5 332.331 89.702 314.758 66Z" fill="#353333"/>
<path d="M147.5 51.5C157.776 27.1938 193.5 2 193.5 2C193.5 2 232.447 26.3449 243.5 51.5C255.597 79.0298 245.5 240 245.5 240L128.5 236C128.5 236 135.79 79.1967 147.5 51.5Z" fill="#353333"/>
<path d="M64.5 66.5C75.8332 51.2143 103.5 36 103.5 36C103.5 36 127.609 53.0849 135 69.5C143.456 88.2795 195.5 241.5 195.5 241.5H-6.5V225.5L18.5 211L27.5 176H38.5V156L44.5 153C44.5 153 46.9268 90.202 64.5 66.5Z" fill="url(#paint3_linear_56_1725)"/>
<path d="M315.258 72.5C303.925 57.2143 276.258 42 276.258 42C276.258 42 252.149 59.0849 244.758 75.5C236.302 94.2795 244.758 247.5 244.758 247.5H386.258V231.5L361.258 217L352.258 182H341.258V162L335.258 159C335.258 159 332.831 96.202 315.258 72.5Z" fill="url(#paint4_linear_56_1725)"/>
<path d="M148 58C158.276 33.6938 194 8.5 194 8.5C194 8.5 232.947 32.8449 244 58C256.097 85.5298 246 246.5 246 246.5L129 242.5C129 242.5 136.29 85.6967 148 58Z" fill="url(#paint5_linear_56_1725)"/>
<path d="M164 117H165V128.872L173 122.5V123.5L167 129L171.5 138L181.5 138.5L183.5 137L184.5 135H181.5L179 134.5L177.5 133L176.5 131.5V125L173 123.5V122.5L177.5 124.5V130.5L178 132.5L179.5 133.5L181 134H184.5L185 126.5L185.5 131V135.5L185 136.5L184.5 137.5L183.5 138.5L188 137.5L188.5 127H189.5V134L197 127H202.5L204 126H205.5H207.5L208.5 126.5L211 128L213 130L213.5 132V134.5L213 136L211.5 138L211 138.5H214L218 119.5L221.5 117.5L222 118L222.5 149.5H228V150.5H222L221.5 150L221 118.5L219 120L215.5 140H209L208 138.5L210 137.5L211.5 136L212 134.5L212.5 133V131L211 129L209 128L207 127H204.5L202.5 128L200.5 130L200 131.5V133.5L200.5 135L202.5 137.5L204.5 138L208 138.5L209 140L204 139.5L202 139L202.5 138H202L200 136.5L199 134.5V132L199.5 130L201 128H197.5L194.5 131L199 138L196.5 137.5L193.5 132L189.5 135.5V137.5H197.5L202.5 138L202 139L193 138L186.5 139L182 139.5H171L166 129.5L165 130.5V151L164 152.5V117Z" fill="url(#paint6_linear_56_1725)"/>
<path d="M155 176.5C155 155.237 172.237 138 193.5 138V138C214.763 138 232 155.237 232 176.5V242H155V176.5Z" fill="#79736E"/>
<path d="M158 180C158 160.67 173.67 145 193 145V145C212.33 145 228 160.67 228 180V242H158V180Z" fill="#474542"/>
<path d="M163 185.5C163 169.76 175.76 157 191.5 157V157C207.24 157 220 169.76 220 185.5V238H163V185.5Z" fill="url(#paint7_linear_56_1725)"/>
<path d="M59.8854 91.0011C60.2917 71.8552 76.1419 56.6638 95.2877 57.0702V57.0702C114.434 57.4765 129.625 73.3267 129.219 92.4725L126.029 242.764L56.6957 241.293L59.8854 91.0011Z" fill="url(#paint8_linear_56_1725)"/>
<rect x="68.8315" y="122" width="46" height="114" transform="rotate(2.429 68.8315 122)" fill="#5B3E13"/>
<rect x="70.6632" y="125.07" width="42.423" height="110.029" transform="rotate(2.429 70.6632 125.07)" fill="#4B5291"/>
<path d="M323.225 95.8627C322.875 78.3014 308.356 64.387 290.796 64.784V64.784C273.235 65.181 259.284 79.7391 259.633 97.3005L262.527 242.529L326.119 241.091L323.225 95.8627Z" fill="url(#paint9_linear_56_1725)"/>
<rect width="41.3354" height="109.099" transform="matrix(-0.998981 0.0451411 0.0397896 0.999208 313.918 126.944)" fill="#5B3E13"/>
<rect width="38.1211" height="105.299" transform="matrix(-0.998981 0.0451411 0.0397896 0.999208 312.272 129.882)" fill="#4B5291"/>
<ellipse cx="194.5" cy="77" rx="37.5" ry="37" fill="#ECD5C2"/>
<ellipse cx="194" cy="76.5" rx="35" ry="34.5" fill="#5C6697"/>
<ellipse cx="194.5" cy="75.5" rx="27.5" ry="24.5" fill="#ECD5C2"/>
<ellipse cx="194.5" cy="75.5" rx="26.5" ry="23.5" fill="#D1D2C7"/>
<path d="M191.586 80.9143L192.5 77L193.5 79V81.9143H196.086L196 77.5L196.086 73.5L197 70L198.5 69L207 65H211.5L216.5 65.5L213 67.8333L212.5 66.5L210.5 66L205.5 66.5L199.5 69.5L200 71L201 72L202.5 73L209.5 74L212.5 73H216L218 71.5L217 70.5H214.5L213.5 69.5L212 68.5L216.5 65.5L219 67.5L220.5 69.5L219.5 71.5L217.5 73.5L212.5 75.5L211.5 75L206.5 79L203.5 86.5L203 86.3333L202.5 83V80.5L203.5 78.5L205.5 76L208.5 74.5L203.5 74L198 72L197 75.5L197.5 80L198.5 81L202.5 86.5L204 86L206 88H203.5L198.5 90L199 88L202 87L197.5 82L196.086 82.9143H194.586L191.5 82.5L188 86.5L190.5 87.5L191.5 90L187.5 87.5H185.5L186 86.5H187L190.586 81.9143L191.586 80.9143Z" fill="#ECD5C2"/>
<path d="M195.634 82.2072L196.382 81.5L195.853 82L195.414 82.4143L193.914 81.4143L194 77L193.914 73L193 69.5L191.5 68.5L183 64.5H178.5L173.5 65L177 67.3333L177.5 66L179.5 65.5L184.5 66L190.5 69L190 70.5L189 71.5L187.5 72.5L180.5 73.5L177.5 72.5H174L172 71L173 70H175.5L176.5 69L178 68L173.5 65L171 67L169.5 69L170.5 71L172.5 73L177.5 75L178.5 74.5L183.5 78.5L186.5 86L187 85.8333L187.5 82.5V80L186.5 78L184.5 75.5L181.5 74L186.5 73.5L192 71.5L193 75L192.5 79.5L191.5 80.5L187.5 86L186 85.5L184 87.5H186.5L191.5 89.5L191 87.5L188 86.5L192.5 81.5L193.914 82.4143H195.414L197 81L199 83L198 81.5L198.5 82L199 83V82.5L197.414 80.9143L195.634 82.2072Z" fill="#ECD5C2"/>
<ellipse cx="178.5" cy="83" rx="8.5" ry="8" fill="#977C84"/>
<ellipse cx="178.5" cy="81" rx="6.5" ry="6" fill="#ECD5C2"/>
<circle cx="178.5" cy="80.5" r="5.5" fill="#D1D2C7"/>
<ellipse cx="211.5" cy="83" rx="8.5" ry="8" fill="#977C84"/>
<ellipse cx="211.5" cy="81" rx="6.5" ry="6" fill="#ECD5C2"/>
<circle cx="211.5" cy="80.5" r="5.5" fill="#D1D2C7"/>
<circle cx="195" cy="96" r="4" fill="#ECD5C2"/>
<circle cx="195" cy="96" r="3" fill="#977C84"/>
<path d="M190.625 86.6L191.875 85H193.125L194 86.6H195.625L196.875 85H198.125L199.375 86.6L200.5 87.5L198.125 89H191.875L190 87.4L190.625 86.6Z" fill="#ECD5C2"/>
<path d="M191 87L192 86H193L194 87H195.5L196.5 86H197.5L198.5 87L199 87.5L197.5 88.5H192.5L190.5 87.5L191 87Z" fill="#977C84"/>
<path d="M191 89.75L190.5 88L193 89V89.75H195H197V89L199.5 88L199 89.75L198.333 91.25L197 92L196 92.5H195H194L193 92L191.667 91.25L191 89.75Z" fill="#ECD5C2"/>
<path d="M192 90V89.5H193.5V90H195H196.5V89.5H198V90L197.5 91L196.5 91.5H195H193.5L192.5 91L192 90Z" fill="#977C84"/>
<ellipse cx="179.5" cy="71" rx="5.5" ry="3" fill="#977C84"/>
<ellipse cx="180" cy="70" rx="2" ry="1" fill="#ECD5C2"/>
<ellipse cx="209.5" cy="71" rx="5.5" ry="3" fill="#977C84"/>
<ellipse cx="210" cy="70" rx="2" ry="1" fill="#ECD5C2"/>
<ellipse cx="89.8311" cy="94.5" rx="27.8311" ry="26.5" fill="#ECD5C2"/>
<ellipse cx="89.46" cy="94.1419" rx="25.9757" ry="24.7095" fill="#5C6697"/>
<ellipse cx="89.8311" cy="93.4257" rx="20.4095" ry="17.5473" fill="#ECD5C2"/>
<ellipse cx="89.8311" cy="93.4257" rx="19.6673" ry="16.8311" fill="#D1D2C7"/>
<path d="M87.6682 97.3035L88.3468 94.5L89.0889 95.9324V98.0197H91.0079L90.9443 94.8581L91.0079 91.9932L91.6865 89.4865L92.7997 88.7703L99.1081 85.9054H102.448L106.159 86.2635L103.561 87.9347L103.19 86.9797L101.706 86.6216L97.9949 86.9797L93.5419 89.1284L93.913 90.2027L94.6551 90.9189L95.7684 91.6351L100.964 92.3513L103.19 91.6351H105.788L107.272 90.5608L106.53 89.8446H104.674L103.932 89.1284L102.819 88.4122L106.159 86.2635L108.014 87.6959L109.127 89.1284L108.385 90.5608L106.901 91.9932L103.19 93.4257L102.448 93.0676L98.737 95.9324L96.5105 101.304L96.1395 101.185L95.7684 98.7973V97.0067L96.5105 95.5743L97.9949 93.7838L100.221 92.7094L96.5105 92.3513L92.4286 90.9189L91.6865 93.4257L92.0576 96.6486L92.7997 97.3649L95.7684 101.304L96.8816 100.946L98.3659 102.378H96.5105L92.7997 103.811L93.1708 102.378L95.3973 101.662L92.0576 98.0811L91.0079 98.7359H89.8947L87.6046 98.4392L85.007 101.304L86.8624 102.02L87.6046 103.811L84.6359 102.02H83.1516L83.5227 101.304H84.2649L86.926 98.0197L87.6682 97.3035Z" fill="#ECD5C2"/>
<path d="M90.6724 98.2295L91.2281 97.723L90.8352 98.0811L90.5096 98.3778L89.3964 97.6616L89.46 94.5L89.3964 91.6351L88.7178 89.1284L87.6046 88.4122L81.2962 85.5473H77.9565L74.2457 85.9054L76.8432 87.5766L77.2143 86.6216L78.6987 86.2635L82.4095 86.6216L86.8624 88.7703L86.4914 89.8446L85.7492 90.5608L84.6359 91.277L79.4408 91.9932L77.2143 91.277H74.6168L73.1324 90.2027L73.8746 89.4865H75.73L76.4722 88.7703L77.5854 88.0541L74.2457 85.9054L72.3903 87.3378L71.277 88.7703L72.0192 90.2027L73.5035 91.6351L77.2143 93.0676L77.9565 92.7095L81.6673 95.5743L83.8938 100.946L84.2649 100.827L84.6359 98.4392V96.6487L83.8938 95.2162L82.4095 93.4257L80.183 92.3514L83.8938 91.9932L87.9757 90.5608L88.7178 93.0676L88.3468 96.2905L87.6046 97.0068L84.6359 100.946L83.5227 100.588L82.0384 102.02H83.8938L87.6046 103.453L87.2335 102.02L85.007 101.304L88.3468 97.723L89.3964 98.3778H90.5096L91.6865 97.3649L93.1708 98.7973L92.4286 97.723L92.7997 98.0811L93.1708 98.7973V98.4392L91.994 97.3035L90.6724 98.2295Z" fill="#ECD5C2"/>
<ellipse cx="77.9565" cy="98.7973" rx="6.30838" ry="5.72973" fill="#977C84"/>
<ellipse cx="77.9565" cy="97.3649" rx="4.82405" ry="4.2973" fill="#ECD5C2"/>
<ellipse cx="77.9565" cy="97.0068" rx="4.08189" ry="3.93919" fill="#D1D2C7"/>
<ellipse cx="102.448" cy="98.7973" rx="6.30838" ry="5.72973" fill="#977C84"/>
<ellipse cx="102.448" cy="97.3649" rx="4.82405" ry="4.2973" fill="#ECD5C2"/>
<ellipse cx="102.448" cy="97.0068" rx="4.08189" ry="3.93919" fill="#D1D2C7"/>
<ellipse cx="90.2022" cy="108.108" rx="2.96865" ry="2.86487" fill="#ECD5C2"/>
<ellipse cx="90.2022" cy="108.108" rx="2.22649" ry="2.14865" fill="#977C84"/>
<path d="M86.9552 101.376L87.8829 100.23H88.8106L89.46 101.376H90.666L91.5937 100.23H92.5214L93.4491 101.376L94.2841 102.02L92.5214 103.095H87.8829L86.4913 101.949L86.9552 101.376Z" fill="#ECD5C2"/>
<path d="M87.2335 101.662L87.9757 100.946H88.7178L89.46 101.662H90.5732L91.3154 100.946H92.0576L92.7997 101.662L93.1708 102.02L92.0576 102.736H88.3468L86.8624 102.02L87.2335 101.662Z" fill="#977C84"/>
<path d="M87.2335 103.632L86.8624 102.378L88.7178 103.095V103.632H90.2022H91.6865V103.095L93.5419 102.378L93.1708 103.632L92.676 104.706L91.6865 105.243L90.9443 105.601H90.2022H89.46L88.7178 105.243L87.7283 104.706L87.2335 103.632Z" fill="#ECD5C2"/>
<path d="M87.9757 103.811V103.453H89.0889V103.811H90.2022H91.3154V103.453H92.4287V103.811L92.0576 104.527L91.3154 104.885H90.2022H89.0889L88.3468 104.527L87.9757 103.811Z" fill="#977C84"/>
<ellipse cx="78.6987" cy="90.2027" rx="4.08189" ry="2.14865" fill="#977C84"/>
<ellipse cx="79.0697" cy="89.4865" rx="1.48432" ry="0.716216" fill="#ECD5C2"/>
<ellipse cx="100.964" cy="90.2027" rx="4.08189" ry="2.14865" fill="#977C84"/>
<ellipse cx="101.335" cy="89.4865" rx="1.48432" ry="0.716216" fill="#ECD5C2"/>
<ellipse cx="296" cy="99.6667" rx="25" ry="24.6667" fill="#ECD5C2"/>
<ellipse cx="295.667" cy="99.3333" rx="23.3333" ry="23" fill="#5C6697"/>
<ellipse cx="296" cy="98.6667" rx="18.3333" ry="16.3333" fill="#ECD5C2"/>
<ellipse cx="296" cy="98.6667" rx="17.6667" ry="15.6667" fill="#D1D2C7"/>
<path d="M294.057 102.276L294.667 99.6667L295.333 101V102.943H297.057L297 100L297.057 97.3333L297.667 95L298.667 94.3333L304.333 91.6667H307.333L310.667 92L308.333 93.5556L308 92.6667L306.667 92.3333L303.333 92.6667L299.333 94.6667L299.667 95.6667L300.333 96.3333L301.333 97L306 97.6667L308 97H310.333L311.667 96L311 95.3333H309.333L308.667 94.6667L307.667 94L310.667 92L312.333 93.3333L313.333 94.6667L312.667 96L311.333 97.3333L308 98.6667L307.333 98.3333L304 101L302 106L301.667 105.889L301.333 103.667V102L302 100.667L303.333 99L305.333 98L302 97.6667L298.333 96.3333L297.667 98.6667L298 101.667L298.667 102.333L301.333 106L302.333 105.667L303.667 107H302L298.667 108.333L299 107L301 106.333L298 103L297.057 103.61H296.057L294 103.333L291.667 106L293.333 106.667L294 108.333L291.333 106.667H290L290.333 106H291L293.39 102.943L294.057 102.276Z" fill="#ECD5C2"/>
<path d="M296.756 103.138L297.255 102.667L296.902 103L296.61 103.276L295.61 102.61L295.667 99.6667L295.61 97L295 94.6667L294 94L288.333 91.3333H285.333L282 91.6667L284.333 93.2222L284.667 92.3333L286 92L289.333 92.3333L293.333 94.3333L293 95.3333L292.333 96L291.333 96.6667L286.667 97.3333L284.667 96.6667H282.333L281 95.6667L281.667 95H283.333L284 94.3333L285 93.6667L282 91.6667L280.333 93L279.333 94.3333L280 95.6667L281.333 97L284.667 98.3333L285.333 98L288.667 100.667L290.667 105.667L291 105.556L291.333 103.333V101.667L290.667 100.333L289.333 98.6667L287.333 97.6667L290.667 97.3333L294.333 96L295 98.3333L294.667 101.333L294 102L291.333 105.667L290.333 105.333L289 106.667H290.667L294 108L293.667 106.667L291.667 106L294.667 102.667L295.61 103.276H296.61L297.667 102.333L299 103.667L298.333 102.667L298.667 103L299 103.667V103.333L297.943 102.276L296.756 103.138Z" fill="#ECD5C2"/>
<ellipse cx="285.333" cy="103.667" rx="5.66667" ry="5.33333" fill="#977C84"/>
<ellipse cx="285.333" cy="102.333" rx="4.33333" ry="4" fill="#ECD5C2"/>
<circle cx="285.333" cy="102" r="3.66667" fill="#D1D2C7"/>
<ellipse cx="307.333" cy="103.667" rx="5.66667" ry="5.33333" fill="#977C84"/>
<ellipse cx="307.333" cy="102.333" rx="4.33333" ry="4" fill="#ECD5C2"/>
<circle cx="307.333" cy="102" r="3.66667" fill="#D1D2C7"/>
<circle cx="296.333" cy="112.333" r="2.66667" fill="#ECD5C2"/>
<circle cx="296.333" cy="112.333" r="2" fill="#977C84"/>
<path d="M293.417 106.067L294.25 105H295.083L295.667 106.067H296.75L297.583 105H298.417L299.25 106.067L300 106.667L298.417 107.667H294.25L293 106.6L293.417 106.067Z" fill="#ECD5C2"/>
<path d="M293.667 106.333L294.333 105.667H295L295.667 106.333H296.667L297.333 105.667H298L298.667 106.333L299 106.667L298 107.333H294.667L293.333 106.667L293.667 106.333Z" fill="#977C84"/>
<path d="M293.667 108.167L293.333 107L295 107.667V108.167H296.333H297.667V107.667L299.333 107L299 108.167L298.556 109.167L297.667 109.667L297 110H296.333H295.667L295 109.667L294.111 109.167L293.667 108.167Z" fill="#ECD5C2"/>
<path d="M294.333 108.333V108H295.333V108.333H296.333H297.333V108H298.333V108.333L298 109L297.333 109.333H296.333H295.333L294.667 109L294.333 108.333Z" fill="#977C84"/>
<ellipse cx="286" cy="95.6667" rx="3.66667" ry="2" fill="#977C84"/>
<ellipse cx="286.333" cy="95" rx="1.33333" ry="0.666667" fill="#ECD5C2"/>
<ellipse cx="306" cy="95.6667" rx="3.66667" ry="2" fill="#977C84"/>
<ellipse cx="306.333" cy="95" rx="1.33333" ry="0.666667" fill="#ECD5C2"/>
</g>
<defs>
<linearGradient id="paint0_linear_56_1725" x1="215.5" y1="120" x2="215.5" y2="265" gradientUnits="userSpaceOnUse">
<stop stop-color="#842B2B"/>
<stop offset="1" stop-color="#5E0000"/>
</linearGradient>
<linearGradient id="paint1_linear_56_1725" x1="87" y1="-35.5" x2="68" y2="129.5" gradientUnits="userSpaceOnUse">
<stop stop-color="#4B59DB"/>
<stop offset="1" stop-color="#8588A8"/>
</linearGradient>
<linearGradient id="paint2_linear_56_1725" x1="363" y1="-4.5" x2="315.5" y2="168.5" gradientUnits="userSpaceOnUse">
<stop offset="0.0258065" stop-color="#DFC8AC"/>
<stop offset="1" stop-color="#403D3A"/>
</linearGradient>
<linearGradient id="paint3_linear_56_1725" x1="94.5" y1="36" x2="94.5" y2="241.5" gradientUnits="userSpaceOnUse">
<stop stop-color="#F1ECE2"/>
<stop offset="1" stop-color="#B3A995"/>
</linearGradient>
<linearGradient id="paint4_linear_56_1725" x1="313.629" y1="42" x2="313.629" y2="247.5" gradientUnits="userSpaceOnUse">
<stop stop-color="#F1ECE2"/>
<stop offset="1" stop-color="#B3A995"/>
</linearGradient>
<linearGradient id="paint5_linear_56_1725" x1="189.474" y1="8.5" x2="189.474" y2="246.5" gradientUnits="userSpaceOnUse">
<stop stop-color="#F1ECE2"/>
<stop offset="1" stop-color="#B3A995"/>
</linearGradient>
<linearGradient id="paint6_linear_56_1725" x1="196" y1="108" x2="196" y2="145.5" gradientUnits="userSpaceOnUse">
<stop stop-color="#FFBCBC"/>
<stop offset="1" stop-color="#605454"/>
</linearGradient>
<linearGradient id="paint7_linear_56_1725" x1="207.5" y1="162" x2="164.5" y2="236" gradientUnits="userSpaceOnUse">
<stop stop-color="#181803"/>
<stop offset="0.5879" stop-color="#6B6C27"/>
<stop offset="1" stop-color="#F0F289"/>
</linearGradient>
<linearGradient id="paint8_linear_56_1725" x1="115.5" y1="63.5" x2="109" y2="117" gradientUnits="userSpaceOnUse">
<stop stop-color="#686868"/>
<stop offset="1" stop-color="#BBB9B9"/>
</linearGradient>
<linearGradient id="paint9_linear_56_1725" x1="313" y1="64" x2="273.793" y2="173.105" gradientUnits="userSpaceOnUse">
<stop stop-color="#6D6D6D"/>
<stop offset="1" stop-color="#BBB9B9"/>
</linearGradient>
<clipPath id="clip0_56_1725">
<path d="M0 0H393V260H0V0Z" fill="white"/>
</clipPath>
</defs>
</svg>
