<svg width="393" height="260" viewBox="0 0 393 260" fill="none" xmlns="http://www.w3.org/2000/svg">
<g clip-path="url(#clip0_49_1231)">
<path d="M0 0H393V260H0V0Z" fill="white"/>
<rect width="403" height="247" fill="url(#paint0_linear_49_1231)"/>
<rect x="-54" y="-58" width="173" height="144" fill="url(#paint1_radial_49_1231)"/>
<rect x="-8" y="241" width="467" height="33" fill="#B39D9D"/>
<rect x="-8" y="216" width="468" height="31" fill="url(#paint2_linear_49_1231)"/>
<path d="M31 60L402.5 29L398 214L25 219.5L31 60Z" fill="#5B5858"/>
<path d="M31 63L402.5 32L398 217L25 222.5L31 63Z" fill="url(#paint3_linear_49_1231)"/>
<path d="M389.867 61.8372H414.533V193L386.783 191.907L389.867 61.8372Z" fill="url(#paint4_linear_49_1231)"/>
<path d="M383.7 54.1861H386.783L391.1 62.9302L389.25 191.907H380L383.7 54.1861Z" fill="url(#paint5_linear_49_1231)"/>
<path d="M384.317 54.186L414.533 52.5465V62.9302H391.1L384.317 54.186Z" fill="url(#paint6_linear_49_1231)"/>
<path d="M353.733 63.6279H383.067V192L350.067 190.93L353.733 63.6279Z" fill="url(#paint7_linear_49_1231)"/>
<path d="M346.4 56.1395H350.067L355.2 64.6977L353 190.93H342L346.4 56.1395Z" fill="url(#paint8_linear_49_1231)"/>
<path d="M347.133 56.1395L383.067 54.5349V64.6977H355.2L347.133 56.1395Z" fill="url(#paint9_linear_49_1231)"/>
<path d="M383.067 54H386V192H383.067V54Z" fill="url(#paint10_linear_49_1231)"/>
<path d="M317.2 66.5582H345.2V194L313.7 192.938L317.2 66.5582Z" fill="url(#paint11_linear_49_1231)"/>
<path d="M310.2 59.124H313.7L318.6 67.6201L316.5 192.938H306L310.2 59.124Z" fill="url(#paint12_linear_49_1231)"/>
<path d="M310.9 59.124L345.2 57.531V67.6202H318.6L310.9 59.124Z" fill="url(#paint13_linear_49_1231)"/>
<path d="M345.2 57H348V194H345.2V57Z" fill="url(#paint14_linear_49_1231)"/>
<path d="M283.4 68.5582H309.4V196L280.15 194.938L283.4 68.5582Z" fill="url(#paint15_linear_49_1231)"/>
<path d="M276.9 61.124H280.15L284.7 69.6201L282.75 194.938H273L276.9 61.124Z" fill="url(#paint16_linear_49_1231)"/>
<path d="M277.55 61.124L309.4 59.531V69.6202H284.7L277.55 61.124Z" fill="url(#paint17_linear_49_1231)"/>
<path d="M309.4 59H312V196H309.4V59Z" fill="url(#paint18_linear_49_1231)"/>
<path d="M249.4 71.4186H275.4V197L246.15 195.953L249.4 71.4186Z" fill="url(#paint19_linear_49_1231)"/>
<path d="M242.9 64.093H246.15L250.7 72.4651L248.75 195.953H239L242.9 64.093Z" fill="url(#paint20_linear_49_1231)"/>
<path d="M243.55 64.093L275.4 62.5233V72.4651H250.7L243.55 64.093Z" fill="url(#paint21_linear_49_1231)"/>
<path d="M275.4 62H278V197H275.4V62Z" fill="url(#paint22_linear_49_1231)"/>
<path d="M215.867 74.4186H240.533V200L212.783 198.953L215.867 74.4186Z" fill="url(#paint23_linear_49_1231)"/>
<path d="M209.7 67.093H212.783L217.1 75.4651L215.25 198.953H206L209.7 67.093Z" fill="url(#paint24_linear_49_1231)"/>
<path d="M210.317 67.093L240.533 65.5233V75.4651H217.1L210.317 67.093Z" fill="url(#paint25_linear_49_1231)"/>
<path d="M240.533 65H243V200H240.533V65Z" fill="url(#paint26_linear_49_1231)"/>
<path d="M184.6 76.2093H208.6V199L181.6 197.977L184.6 76.2093Z" fill="url(#paint27_linear_49_1231)"/>
<path d="M178.6 69.0465H181.6L185.8 77.2326L184 197.977H175L178.6 69.0465Z" fill="url(#paint28_linear_49_1231)"/>
<path d="M179.2 69.0465L208.6 67.5116V77.2326H185.8L179.2 69.0465Z" fill="url(#paint29_linear_49_1231)"/>
<path d="M208.6 67H211V199H208.6V67Z" fill="url(#paint30_linear_49_1231)"/>
<path d="M154.067 78.1395H176.733V200L151.233 198.985L154.067 78.1395Z" fill="url(#paint31_linear_49_1231)"/>
<path d="M148.4 71.031H151.233L155.2 79.155L153.5 198.984H145L148.4 71.031Z" fill="url(#paint32_linear_49_1231)"/>
<path d="M148.967 71.031L176.733 69.5078V79.155H155.2L148.967 71.031Z" fill="url(#paint33_linear_49_1231)"/>
<path d="M176.733 69H179V200H176.733V69Z" fill="url(#paint34_linear_49_1231)"/>
<path d="M122.567 80.0048L147.482 79.9928L147.54 199.993L119.51 199.006L122.567 80.0048Z" fill="url(#paint35_linear_49_1231)"/>
<path d="M116.335 73.0078L119.449 73.0063L123.813 81.0042L122.002 199.005L112.658 199.01L116.335 73.0078Z" fill="url(#paint36_linear_49_1231)"/>
<path d="M116.958 73.0074L147.478 71.4928L147.482 80.9928L123.813 81.0041L116.958 73.0074Z" fill="url(#paint37_linear_49_1231)"/>
<path d="M147.477 70.9928L149.969 70.9916L150.031 199.992L147.54 199.993L147.477 70.9928Z" fill="url(#paint38_linear_49_1231)"/>
<path d="M93.5333 83H114.867V203L90.8667 202L93.5333 83Z" fill="url(#paint39_linear_49_1231)"/>
<path d="M88.2 76H90.8667L94.6 84L93 202H85L88.2 76Z" fill="url(#paint40_linear_49_1231)"/>
<path d="M88.7333 76L114.867 74.5V84H94.6L88.7333 76Z" fill="url(#paint41_linear_49_1231)"/>
<path d="M114.867 74H117V203H114.867V74Z" fill="url(#paint42_linear_49_1231)"/>
<path d="M67 84H87V204L64.5 203L67 84Z" fill="url(#paint43_linear_49_1231)"/>
<path d="M62 77H64.5L68 85L66.5 203H59L62 77Z" fill="url(#paint44_linear_49_1231)"/>
<path d="M62.5 77L87 75.5V85H68L62.5 77Z" fill="url(#paint45_linear_49_1231)"/>
<path d="M87 75H89V204H87V75Z" fill="url(#paint46_linear_49_1231)"/>
<path d="M91.5 197H391L379 226.5H74.5L91.5 197Z" fill="url(#paint47_linear_49_1231)"/>
<path d="M43.0283 154.832C43.5898 150.509 49.2401 148.74 52.4324 151.71C60.2505 158.983 72.5777 168.269 83.5 167C93.8734 165.794 106.365 154.674 108.82 152.404C109.112 152.133 109.424 151.899 109.768 151.698L134.486 137.299C134.828 137.1 135.191 136.943 135.569 136.83L205.391 115.931C207.282 115.365 209.329 115.964 210.616 117.461L223.531 132.485C229.754 139.724 234.16 148.343 236.382 157.627L241.5 179L254 211L44.5 217L39.5964 182.675C39.5324 182.227 39.5295 181.773 39.5878 181.324L43.0283 154.832Z" fill="url(#paint48_linear_49_1231)"/>
<path d="M365.5 136L394.25 128V128C408.699 123.979 423 134.844 423 149.842V230H377H340.5V206L343.5 196.75V196.75C351.902 191.53 352.997 179.803 348.111 171.203C345.086 165.878 343.151 160.094 345 155.5C349.125 145.25 365.5 136 365.5 136Z" fill="url(#paint49_linear_49_1231)"/>
<path d="M77.1244 177.657C77.2881 176.7 78.1181 176 79.0895 176V176C80.1197 176 80.9802 176.785 81.0747 177.811L84.4079 214H70.9079L77.1244 177.657Z" fill="url(#paint50_linear_49_1231)"/>
<path d="M97.0297 174.614C97.1614 173.688 97.9542 173 98.8895 173V173C99.8713 173 100.688 173.756 100.763 174.735L104 217H91L97.0297 174.614Z" fill="url(#paint51_linear_49_1231)"/>
<path d="M118.745 147.609C118.955 146.113 120.235 145 121.746 145V145C123.331 145 124.648 146.221 124.767 147.802L130 217H109L118.745 147.609Z" fill="url(#paint52_linear_49_1231)"/>
<path d="M142.776 140.621C142.967 139.122 144.243 138 145.753 138V138C147.331 138 148.64 139.221 148.748 140.796L154 217H133L142.776 140.621Z" fill="url(#paint53_linear_49_1231)"/>
<path d="M168.838 121.644C168.993 120.142 170.259 119 171.769 119V119C173.332 119 174.623 120.221 174.71 121.783L180 217H159L168.838 121.644Z" fill="url(#paint54_linear_49_1231)"/>
<path d="M185.538 117.769C187.379 116.297 190.093 116.765 191.334 118.77L191.834 119.579C193.339 122.009 196.974 121.667 198 119V119L201.647 111.707C202.17 110.661 203.239 110 204.408 110V110C208.039 110 210.972 112.961 210.938 116.592L210 217H189L181.5 121L185.538 117.769Z" fill="url(#paint55_linear_49_1231)"/>
<path d="M296.863 115.652C297.004 114.149 298.265 113 299.775 113V113C301.333 113 302.617 114.221 302.696 115.777L308 221H287L296.863 115.652Z" fill="url(#paint56_linear_49_1231)"/>
<path d="M314.818 132.636C314.985 131.136 316.254 130 317.764 130V130C319.332 130 320.629 131.221 320.722 132.787L326 221H305L314.818 132.636Z" fill="url(#paint57_linear_49_1231)"/>
<path d="M331.776 140.621C331.967 139.122 333.243 138 334.753 138V138C336.331 138 337.64 139.221 337.748 140.796L343 217H322L331.776 140.621Z" fill="url(#paint58_linear_49_1231)"/>
<path d="M345.533 178.515C345.871 177.043 347.181 176 348.691 176V176C350.327 176 351.706 177.219 351.907 178.843L357 220H336L345.533 178.515Z" fill="url(#paint59_linear_49_1231)"/>
<path d="M102 221C102 192.833 124.833 170 153 170H226C254.167 170 277 192.833 277 221V221H102V221Z" fill="url(#paint60_linear_49_1231)"/>
<path d="M84.5 214L89.5 215L95 215.5L205.5 217.5H280.5L316 216V221.5L84.5 222V214Z" fill="url(#paint61_linear_49_1231)"/>
<rect x="314" y="213" width="69" height="19" fill="url(#paint62_linear_49_1231)"/>
<path d="M383 213L395 217.5V225.5L383 232V213Z" fill="url(#paint63_linear_49_1231)"/>
<rect x="81" y="213" width="4" height="8" fill="url(#paint64_linear_49_1231)"/>
<rect x="28" y="213" width="53" height="16" fill="url(#paint65_linear_49_1231)"/>
<path d="M56 223C56 221.895 56.8954 221 58 221H313C314.105 221 315 221.895 315 223V230H56V223Z" fill="url(#paint66_linear_49_1231)"/>
</g>
<defs>
<linearGradient id="paint0_linear_49_1231" x1="44.5" y1="2.18326e-06" x2="165" y2="207.5" gradientUnits="userSpaceOnUse">
<stop stop-color="#4CA2F2"/>
<stop offset="0.52019" stop-color="#6DABE4"/>
<stop offset="1" stop-color="#E0E3E6"/>
</linearGradient>
<radialGradient id="paint1_radial_49_1231" cx="0" cy="0" r="1" gradientUnits="userSpaceOnUse" gradientTransform="translate(-6.73712 -5.79999) rotate(57.8467) scale(98.8628 119.398)">
<stop stop-color="#D5D5D5"/>
<stop offset="1" stop-color="#E2C7C7" stop-opacity="0"/>
</radialGradient>
<linearGradient id="paint2_linear_49_1231" x1="226" y1="216" x2="226" y2="247" gradientUnits="userSpaceOnUse">
<stop stop-color="#D9D9D9"/>
<stop offset="0.0001" stop-color="#C9DCE8"/>
<stop offset="1" stop-color="#A6ABAE"/>
</linearGradient>
<linearGradient id="paint3_linear_49_1231" x1="31" y1="129" x2="415.5" y2="119.5" gradientUnits="userSpaceOnUse">
<stop stop-color="#949693"/>
<stop offset="1" stop-color="#879090"/>
</linearGradient>
<linearGradient id="paint4_linear_49_1231" x1="400.658" y1="61.8372" x2="400.658" y2="193" gradientUnits="userSpaceOnUse">
<stop stop-color="#4C6277"/>
<stop offset="1" stop-color="#B3C0C9"/>
</linearGradient>
<linearGradient id="paint5_linear_49_1231" x1="375.067" y1="94.0814" x2="391.043" y2="92.0014" gradientUnits="userSpaceOnUse">
<stop stop-color="#F5F1E8"/>
<stop offset="1" stop-color="#647474"/>
</linearGradient>
<linearGradient id="paint6_linear_49_1231" x1="399.425" y1="52.5465" x2="402.646" y2="63.1691" gradientUnits="userSpaceOnUse">
<stop stop-color="#959998"/>
<stop offset="1" stop-color="#7C8281"/>
</linearGradient>
<linearGradient id="paint7_linear_49_1231" x1="366.567" y1="63.6279" x2="366.567" y2="192" gradientUnits="userSpaceOnUse">
<stop stop-color="#4C6277"/>
<stop offset="1" stop-color="#B3C0C9"/>
</linearGradient>
<linearGradient id="paint8_linear_49_1231" x1="336.133" y1="95.186" x2="354.982" y2="92.2043" gradientUnits="userSpaceOnUse">
<stop stop-color="#F5F1E8"/>
<stop offset="1" stop-color="#647474"/>
</linearGradient>
<linearGradient id="paint9_linear_49_1231" x1="365.1" y1="54.5349" x2="367.767" y2="65.2217" gradientUnits="userSpaceOnUse">
<stop stop-color="#959998"/>
<stop offset="1" stop-color="#7C8281"/>
</linearGradient>
<linearGradient id="paint10_linear_49_1231" x1="384.533" y1="54" x2="384.533" y2="192" gradientUnits="userSpaceOnUse">
<stop stop-color="#8D9192"/>
<stop offset="1" stop-color="#888D87"/>
</linearGradient>
<linearGradient id="paint11_linear_49_1231" x1="329.45" y1="66.5582" x2="329.45" y2="194" gradientUnits="userSpaceOnUse">
<stop stop-color="#4C6277"/>
<stop offset="1" stop-color="#B3C0C9"/>
</linearGradient>
<linearGradient id="paint12_linear_49_1231" x1="300.4" y1="97.8876" x2="318.425" y2="95.1458" gradientUnits="userSpaceOnUse">
<stop stop-color="#F5F1E8"/>
<stop offset="1" stop-color="#647474"/>
</linearGradient>
<linearGradient id="paint13_linear_49_1231" x1="328.05" y1="57.531" x2="330.79" y2="68.0898" gradientUnits="userSpaceOnUse">
<stop stop-color="#959998"/>
<stop offset="1" stop-color="#7C8281"/>
</linearGradient>
<linearGradient id="paint14_linear_49_1231" x1="346.6" y1="57" x2="346.6" y2="194" gradientUnits="userSpaceOnUse">
<stop stop-color="#8D9192"/>
<stop offset="1" stop-color="#888D87"/>
</linearGradient>
<linearGradient id="paint15_linear_49_1231" x1="294.775" y1="68.5582" x2="294.775" y2="196" gradientUnits="userSpaceOnUse">
<stop stop-color="#4C6277"/>
<stop offset="1" stop-color="#B3C0C9"/>
</linearGradient>
<linearGradient id="paint16_linear_49_1231" x1="267.8" y1="99.8876" x2="284.59" y2="97.5161" gradientUnits="userSpaceOnUse">
<stop stop-color="#F5F1E8"/>
<stop offset="1" stop-color="#647474"/>
</linearGradient>
<linearGradient id="paint17_linear_49_1231" x1="293.475" y1="59.531" x2="296.396" y2="69.9845" gradientUnits="userSpaceOnUse">
<stop stop-color="#959998"/>
<stop offset="1" stop-color="#7C8281"/>
</linearGradient>
<linearGradient id="paint18_linear_49_1231" x1="310.7" y1="59" x2="310.7" y2="196" gradientUnits="userSpaceOnUse">
<stop stop-color="#8D9192"/>
<stop offset="1" stop-color="#888D87"/>
</linearGradient>
<linearGradient id="paint19_linear_49_1231" x1="260.775" y1="71.4186" x2="260.775" y2="197" gradientUnits="userSpaceOnUse">
<stop stop-color="#4C6277"/>
<stop offset="1" stop-color="#B3C0C9"/>
</linearGradient>
<linearGradient id="paint20_linear_49_1231" x1="233.8" y1="102.291" x2="250.58" y2="99.8855" gradientUnits="userSpaceOnUse">
<stop stop-color="#F5F1E8"/>
<stop offset="1" stop-color="#647474"/>
</linearGradient>
<linearGradient id="paint21_linear_49_1231" x1="259.475" y1="62.5233" x2="262.318" y2="72.8458" gradientUnits="userSpaceOnUse">
<stop stop-color="#959998"/>
<stop offset="1" stop-color="#7C8281"/>
</linearGradient>
<linearGradient id="paint22_linear_49_1231" x1="276.7" y1="62" x2="276.7" y2="197" gradientUnits="userSpaceOnUse">
<stop stop-color="#8D9192"/>
<stop offset="1" stop-color="#888D87"/>
</linearGradient>
<linearGradient id="paint23_linear_49_1231" x1="226.658" y1="74.4186" x2="226.658" y2="200" gradientUnits="userSpaceOnUse">
<stop stop-color="#4C6277"/>
<stop offset="1" stop-color="#B3C0C9"/>
</linearGradient>
<linearGradient id="paint24_linear_49_1231" x1="201.067" y1="105.291" x2="217.018" y2="103.122" gradientUnits="userSpaceOnUse">
<stop stop-color="#F5F1E8"/>
<stop offset="1" stop-color="#647474"/>
</linearGradient>
<linearGradient id="paint25_linear_49_1231" x1="225.425" y1="65.5233" x2="228.398" y2="75.7656" gradientUnits="userSpaceOnUse">
<stop stop-color="#959998"/>
<stop offset="1" stop-color="#7C8281"/>
</linearGradient>
<linearGradient id="paint26_linear_49_1231" x1="241.767" y1="65" x2="241.767" y2="200" gradientUnits="userSpaceOnUse">
<stop stop-color="#8D9192"/>
<stop offset="1" stop-color="#888D87"/>
</linearGradient>
<linearGradient id="paint27_linear_49_1231" x1="195.1" y1="76.2093" x2="195.1" y2="199" gradientUnits="userSpaceOnUse">
<stop stop-color="#4C6277"/>
<stop offset="1" stop-color="#B3C0C9"/>
</linearGradient>
<linearGradient id="paint28_linear_49_1231" x1="170.2" y1="106.395" x2="185.723" y2="104.295" gradientUnits="userSpaceOnUse">
<stop stop-color="#F5F1E8"/>
<stop offset="1" stop-color="#647474"/>
</linearGradient>
<linearGradient id="paint29_linear_49_1231" x1="193.9" y1="67.5116" x2="196.819" y2="77.5187" gradientUnits="userSpaceOnUse">
<stop stop-color="#959998"/>
<stop offset="1" stop-color="#7C8281"/>
</linearGradient>
<linearGradient id="paint30_linear_49_1231" x1="209.8" y1="67" x2="209.8" y2="199" gradientUnits="userSpaceOnUse">
<stop stop-color="#8D9192"/>
<stop offset="1" stop-color="#888D87"/>
</linearGradient>
<linearGradient id="paint31_linear_49_1231" x1="163.983" y1="78.1395" x2="163.983" y2="200" gradientUnits="userSpaceOnUse">
<stop stop-color="#4C6277"/>
<stop offset="1" stop-color="#B3C0C9"/>
</linearGradient>
<linearGradient id="paint32_linear_49_1231" x1="140.467" y1="108.097" x2="155.153" y2="106.206" gradientUnits="userSpaceOnUse">
<stop stop-color="#F5F1E8"/>
<stop offset="1" stop-color="#647474"/>
</linearGradient>
<linearGradient id="paint33_linear_49_1231" x1="162.85" y1="69.5078" x2="165.87" y2="79.3585" gradientUnits="userSpaceOnUse">
<stop stop-color="#959998"/>
<stop offset="1" stop-color="#7C8281"/>
</linearGradient>
<linearGradient id="paint34_linear_49_1231" x1="177.867" y1="69" x2="177.867" y2="200" gradientUnits="userSpaceOnUse">
<stop stop-color="#8D9192"/>
<stop offset="1" stop-color="#888D87"/>
</linearGradient>
<linearGradient id="paint35_linear_49_1231" x1="133.467" y1="79.9995" x2="133.525" y2="199.999" gradientUnits="userSpaceOnUse">
<stop stop-color="#4C6277"/>
<stop offset="1" stop-color="#B3C0C9"/>
</linearGradient>
<linearGradient id="paint36_linear_49_1231" x1="107.632" y1="109.512" x2="123.709" y2="107.193" gradientUnits="userSpaceOnUse">
<stop stop-color="#F5F1E8"/>
<stop offset="1" stop-color="#647474"/>
</linearGradient>
<linearGradient id="paint37_linear_49_1231" x1="132.217" y1="71.5001" x2="134.932" y2="81.3665" gradientUnits="userSpaceOnUse">
<stop stop-color="#959998"/>
<stop offset="1" stop-color="#7C8281"/>
</linearGradient>
<linearGradient id="paint38_linear_49_1231" x1="148.723" y1="70.9922" x2="148.785" y2="199.992" gradientUnits="userSpaceOnUse">
<stop stop-color="#8D9192"/>
<stop offset="1" stop-color="#888D87"/>
</linearGradient>
<linearGradient id="paint39_linear_49_1231" x1="102.867" y1="83" x2="102.867" y2="203" gradientUnits="userSpaceOnUse">
<stop stop-color="#4C6277"/>
<stop offset="1" stop-color="#B3C0C9"/>
</linearGradient>
<linearGradient id="paint40_linear_49_1231" x1="80.7333" y1="112.5" x2="94.5749" y2="110.796" gradientUnits="userSpaceOnUse">
<stop stop-color="#F5F1E8"/>
<stop offset="1" stop-color="#647474"/>
</linearGradient>
<linearGradient id="paint41_linear_49_1231" x1="101.8" y1="74.5" x2="104.886" y2="84.1221" gradientUnits="userSpaceOnUse">
<stop stop-color="#959998"/>
<stop offset="1" stop-color="#7C8281"/>
</linearGradient>
<linearGradient id="paint42_linear_49_1231" x1="115.933" y1="74" x2="115.933" y2="203" gradientUnits="userSpaceOnUse">
<stop stop-color="#8D9192"/>
<stop offset="1" stop-color="#888D87"/>
</linearGradient>
<linearGradient id="paint43_linear_49_1231" x1="75.75" y1="84" x2="75.75" y2="204" gradientUnits="userSpaceOnUse">
<stop stop-color="#4C6277"/>
<stop offset="1" stop-color="#B3C0C9"/>
</linearGradient>
<linearGradient id="paint44_linear_49_1231" x1="55" y1="113.5" x2="68" y2="112" gradientUnits="userSpaceOnUse">
<stop stop-color="#F5F1E8"/>
<stop offset="1" stop-color="#647474"/>
</linearGradient>
<linearGradient id="paint45_linear_49_1231" x1="74.75" y1="75.5" x2="78" y2="85" gradientUnits="userSpaceOnUse">
<stop stop-color="#959998"/>
<stop offset="1" stop-color="#7C8281"/>
</linearGradient>
<linearGradient id="paint46_linear_49_1231" x1="88" y1="75" x2="88" y2="204" gradientUnits="userSpaceOnUse">
<stop stop-color="#8D9192"/>
<stop offset="1" stop-color="#888D87"/>
</linearGradient>
<linearGradient id="paint47_linear_49_1231" x1="233" y1="193" x2="232.75" y2="226.5" gradientUnits="userSpaceOnUse">
<stop stop-color="#E7DCDC"/>
<stop offset="1" stop-color="#696969"/>
</linearGradient>
<linearGradient id="paint48_linear_49_1231" x1="146.75" y1="115" x2="146.75" y2="217" gradientUnits="userSpaceOnUse">
<stop stop-color="#3E8C0F" stop-opacity="0.76"/>
<stop offset="1" stop-color="#1E4209"/>
</linearGradient>
<linearGradient id="paint49_linear_49_1231" x1="381.75" y1="120" x2="381.75" y2="230" gradientUnits="userSpaceOnUse">
<stop stop-color="#53AD0C" stop-opacity="0.69"/>
<stop offset="1" stop-color="#265700"/>
</linearGradient>
<linearGradient id="paint50_linear_49_1231" x1="72" y1="195" x2="85" y2="195" gradientUnits="userSpaceOnUse">
<stop stop-color="#C5C5C5" stop-opacity="0.19"/>
<stop offset="0.500525" stop-color="#BFADF0"/>
<stop offset="0.718199" stop-color="#C2B7E0" stop-opacity="0.679089"/>
<stop offset="1" stop-color="#C7C7C7" stop-opacity="0.19"/>
</linearGradient>
<linearGradient id="paint51_linear_49_1231" x1="92.0517" y1="195" x2="104.57" y2="195" gradientUnits="userSpaceOnUse">
<stop stop-color="#C5C5C5" stop-opacity="0.19"/>
<stop offset="0.500525" stop-color="#BFADF0"/>
<stop offset="0.718199" stop-color="#C2B7E0" stop-opacity="0.679089"/>
<stop offset="1" stop-color="#C7C7C7" stop-opacity="0.19"/>
</linearGradient>
<linearGradient id="paint52_linear_49_1231" x1="110.699" y1="181" x2="130.921" y2="181" gradientUnits="userSpaceOnUse">
<stop stop-color="#C5C5C5" stop-opacity="0.19"/>
<stop offset="0.500525" stop-color="#BFADF0"/>
<stop offset="0.718199" stop-color="#C2B7E0" stop-opacity="0.679089"/>
<stop offset="1" stop-color="#C7C7C7" stop-opacity="0.19"/>
</linearGradient>
<linearGradient id="paint53_linear_49_1231" x1="134.699" y1="177.5" x2="154.921" y2="177.5" gradientUnits="userSpaceOnUse">
<stop stop-color="#C5C5C5" stop-opacity="0.19"/>
<stop offset="0.500525" stop-color="#BFADF0"/>
<stop offset="0.718199" stop-color="#C2B7E0" stop-opacity="0.679089"/>
<stop offset="1" stop-color="#C7C7C7" stop-opacity="0.19"/>
</linearGradient>
<linearGradient id="paint54_linear_49_1231" x1="160.699" y1="168" x2="180.921" y2="168" gradientUnits="userSpaceOnUse">
<stop stop-color="#C5C5C5" stop-opacity="0.19"/>
<stop offset="0.500525" stop-color="#BFADF0"/>
<stop offset="0.718199" stop-color="#C2B7E0" stop-opacity="0.679089"/>
<stop offset="1" stop-color="#C7C7C7" stop-opacity="0.19"/>
</linearGradient>
<linearGradient id="paint55_linear_49_1231" x1="190.699" y1="166" x2="210.921" y2="166" gradientUnits="userSpaceOnUse">
<stop stop-color="#C5C5C5" stop-opacity="0.19"/>
<stop offset="0.500525" stop-color="#BFADF0"/>
<stop offset="0.718199" stop-color="#C2B7E0" stop-opacity="0.679089"/>
<stop offset="1" stop-color="#C7C7C7" stop-opacity="0.19"/>
</linearGradient>
<linearGradient id="paint56_linear_49_1231" x1="288.699" y1="167" x2="308.921" y2="167" gradientUnits="userSpaceOnUse">
<stop stop-color="#C5C5C5" stop-opacity="0.19"/>
<stop offset="0.500525" stop-color="#BFADF0"/>
<stop offset="0.718199" stop-color="#C2B7E0" stop-opacity="0.679089"/>
<stop offset="1" stop-color="#C7C7C7" stop-opacity="0.19"/>
</linearGradient>
<linearGradient id="paint57_linear_49_1231" x1="306.699" y1="175.5" x2="326.921" y2="175.5" gradientUnits="userSpaceOnUse">
<stop stop-color="#C5C5C5" stop-opacity="0.19"/>
<stop offset="0.500525" stop-color="#BFADF0"/>
<stop offset="0.718199" stop-color="#C2B7E0" stop-opacity="0.679089"/>
<stop offset="1" stop-color="#C7C7C7" stop-opacity="0.19"/>
</linearGradient>
<linearGradient id="paint58_linear_49_1231" x1="323.699" y1="177.5" x2="343.921" y2="177.5" gradientUnits="userSpaceOnUse">
<stop stop-color="#C5C5C5" stop-opacity="0.19"/>
<stop offset="0.500525" stop-color="#BFADF0"/>
<stop offset="0.718199" stop-color="#C2B7E0" stop-opacity="0.679089"/>
<stop offset="1" stop-color="#C7C7C7" stop-opacity="0.19"/>
</linearGradient>
<linearGradient id="paint59_linear_49_1231" x1="337.699" y1="198" x2="357.921" y2="198" gradientUnits="userSpaceOnUse">
<stop stop-color="#C5C5C5" stop-opacity="0.19"/>
<stop offset="0.500525" stop-color="#BFADF0"/>
<stop offset="0.718199" stop-color="#C2B7E0" stop-opacity="0.679089"/>
<stop offset="1" stop-color="#C7C7C7" stop-opacity="0.19"/>
</linearGradient>
<linearGradient id="paint60_linear_49_1231" x1="189" y1="175.5" x2="189.5" y2="221" gradientUnits="userSpaceOnUse">
<stop stop-color="#B4D5FC" stop-opacity="0.53"/>
<stop offset="0.745278" stop-color="#547398" stop-opacity="0.96"/>
<stop offset="1" stop-color="#1F3D61"/>
</linearGradient>
<linearGradient id="paint61_linear_49_1231" x1="85" y1="218.5" x2="313" y2="219.5" gradientUnits="userSpaceOnUse">
<stop stop-color="#482D3A"/>
<stop offset="1" stop-color="#B698A6"/>
</linearGradient>
<linearGradient id="paint62_linear_49_1231" x1="383" y1="220.5" x2="316" y2="219" gradientUnits="userSpaceOnUse">
<stop stop-color="#382E36"/>
<stop offset="1" stop-color="#4F4D4E"/>
</linearGradient>
<linearGradient id="paint63_linear_49_1231" x1="389" y1="213" x2="389" y2="232" gradientUnits="userSpaceOnUse">
<stop stop-color="#796B5C"/>
<stop offset="1" stop-color="#999897"/>
</linearGradient>
<linearGradient id="paint64_linear_49_1231" x1="81" y1="218" x2="86" y2="217" gradientUnits="userSpaceOnUse">
<stop stop-color="#A08E8D"/>
<stop offset="1" stop-color="#BDB0AF"/>
</linearGradient>
<linearGradient id="paint65_linear_49_1231" x1="79.5" y1="217" x2="30" y2="220.5" gradientUnits="userSpaceOnUse">
<stop stop-color="#3A333A"/>
<stop offset="1" stop-color="#4D4D4D"/>
</linearGradient>
<linearGradient id="paint66_linear_49_1231" x1="60" y1="226" x2="317.5" y2="226" gradientUnits="userSpaceOnUse">
<stop stop-color="#2F2428"/>
<stop offset="0.5" stop-color="#4E4246"/>
<stop offset="1" stop-color="#8B7270"/>
</linearGradient>
<clipPath id="clip0_49_1231">
<path d="M0 0H393V260H0V0Z" fill="white"/>
</clipPath>
</defs>
</svg>
