<svg width="393" height="260" viewBox="0 0 393 260" fill="none" xmlns="http://www.w3.org/2000/svg">
<g clip-path="url(#clip0_38_250)">
<path d="M0 0H393V260H0V0Z" fill="white" fill-opacity="0.16"/>
<path d="M393 0H0V260H393V0Z" fill="white" fill-opacity="0.16"/>
<path d="M-32 -10H195.5L191.5 149L-13 159.5L-32 -10Z" fill="url(#paint0_linear_38_250)"/>
<rect x="180" y="-5" width="213" height="150" fill="url(#paint1_linear_38_250)"/>
<rect x="196" y="92" width="27" height="35" fill="#624040"/>
<rect x="197" y="93" width="25" height="33" fill="#5163BF"/>
<rect x="209" y="93" width="1" height="33" fill="#B78888"/>
<rect x="253" y="92" width="27" height="35" fill="#624040"/>
<rect x="254" y="93" width="25" height="33" fill="#5163BF"/>
<rect x="266" y="93" width="1" height="33" fill="#B78888"/>
<rect x="310" y="92" width="27" height="35" fill="#624040"/>
<rect x="311" y="93" width="25" height="33" fill="#5163BF"/>
<rect x="323" y="93" width="1" height="33" fill="#B78888"/>
<rect x="367" y="92" width="27" height="35" fill="#624040"/>
<rect x="368" y="93" width="25" height="33" fill="#5163BF"/>
<rect x="380" y="93" width="1" height="33" fill="#B78888"/>
<rect x="196" y="27" width="27" height="35" fill="#624040"/>
<rect x="197" y="28" width="25" height="33" fill="#5163BF"/>
<rect x="209" y="28" width="1" height="33" fill="#B78888"/>
<rect x="253" y="27" width="27" height="35" fill="#624040"/>
<rect x="254" y="28" width="25" height="33" fill="#5163BF"/>
<rect x="266" y="28" width="1" height="33" fill="#B78888"/>
<rect x="310" y="27" width="27" height="35" fill="#624040"/>
<rect x="311" y="28" width="25" height="33" fill="#5163BF"/>
<rect x="323" y="28" width="1" height="33" fill="#B78888"/>
<rect x="367" y="27" width="27" height="35" fill="#624040"/>
<rect x="368" y="28" width="25" height="33" fill="#5163BF"/>
<rect x="380" y="28" width="1" height="33" fill="#B78888"/>
<path d="M119.5 141.5L424 145L414.982 366L61 272.519L-13 264.5L-17 174L119.5 141.5Z" fill="url(#paint2_linear_38_250)"/>
<path d="M85.5436 78.1882C88.9449 66.8502 97.8708 58.0151 109.243 54.7298V54.7298C112.053 53.918 114.674 52.5563 116.953 50.7237L139 33L161.497 29.4361C175.928 27.15 188.805 38.7237 188.066 53.3159L183.5 143.5H113.5L88.3549 145.571C79.4412 146.305 72.1343 138.607 73.332 129.743L76 110L85.5436 78.1882Z" fill="#249D10"/>
<path d="M147 142H154.5L-12.5 267.5L-43 200.5L147 142Z" fill="url(#paint3_linear_38_250)"/>
<path d="M133 156L425.5 145V148.5L123 162.5L133 156Z" fill="#868F8F"/>
<path d="M78.5 192.5L94 187.75H104H153L199.5 189L252 193.5L399.5 215.5L389.5 251.5L364.5 264.5L302 259.5L69.5 264.5L58.5 228.5L61.5 210.5L78.5 192.5Z" fill="url(#paint4_linear_38_250)"/>
<path d="M79.5 195L93 191L113 189.5H132H151L187.5 191.5L234 195L278.5 199.169L312 204.5L366 213.5L382.5 221L386.5 234.5L377.5 243.5L354 251.5L300 255.358H194.949H89.8978L78 243.5L66.5 225.5L70.5 204L79.5 195Z" fill="#AEA19A"/>
<ellipse cx="167.486" cy="225.578" rx="25.9457" ry="12.5" transform="rotate(-2.60023 167.486 225.578)" fill="#8C9799"/>
<path d="M141.5 226L146 231.5L150.5 234L159 235H166L173 234L180 233L186.5 230.5L191 228L193.5 224L196 227.5L196.5 232L194.5 234.5L192 236.5L188.5 238.5L183 240.5L173 242L165.5 243L158.5 242.5L146 241L142 238.5L140.5 236L140 231L141.5 226Z" fill="#6A7479"/>
<path d="M160 178.5L167.5 179.5L169 222.5L156 218.5L160 178.5Z" fill="#686F71"/>
<path d="M156 218.5L169 222.5V228L158.5 224.5L156 218.5Z" fill="#5A5F61"/>
<path d="M167.5 179.5L174 178L179.5 216.5L169 222L167.5 179.5Z" fill="#545753"/>
<path d="M169 222L179.5 216.5L177 224L169 228V222Z" fill="#494B49"/>
<path d="M166.5 176L174 178L167.5 179.5L160 178.5L166.5 176Z" fill="#8A8D8C"/>
<path d="M162.5 89H167.5L170 177.5L169.5 178L169 178.5L166.5 179H164.5L163.5 178.5L163 177.5L162.5 89Z" fill="#5B5F5F"/>
<path d="M162 88H166H168.5L169.5 88.5L168.5 89H166H162L161 88.5L162 88Z" fill="#5B6363"/>
<path d="M161 84H169.5V88.5H161V84Z" fill="#858B8F"/>
<path d="M160 25.5L164 24L168.5 23H182.5V25L182 26.5L181.5 27H179.5L175.5 26.5H169L164 27.5L156 30.5L153 32L150 33.5H149L148.5 32.5V31.5L160 25.5Z" fill="#7A8284"/>
<path d="M181 27L182.5 23L191 33L190 34.5L188.5 35L185 32L181 27Z" fill="#4E4C4D"/>
<path d="M150.5 83L175 79.5L182.5 84L156.5 86.5L150.5 83Z" fill="#515251"/>
<path d="M181 27L188.5 35L182.5 84L175 79.5L181 27Z" fill="#55585A"/>
<path d="M150 33.5L152.5 32L156.5 30L160.5 28.5L165 27L168.5 26.5H173H177.5L181 27L175 79.5L150 83V33.5Z" fill="#C7C4AF"/>
<path d="M151 33.8142L153.339 32.354L157.081 30.4071L160.823 28.9469L165.032 27.4867L168.306 27H172.516H176.726L180 27.4867L174.387 78.5929L151 82V33.8142Z" fill="#696D70"/>
<circle cx="162.5" cy="69.5" r="7" stroke="#DCE6BF"/>
<circle cx="162.5" cy="69.5" r="6.5" fill="#606869"/>
<circle cx="163.5" cy="53.5" r="7" stroke="#DCE6BF"/>
<circle cx="163.5" cy="53.5" r="6.5" fill="#606869"/>
<circle cx="163.5" cy="38.5" r="7" stroke="#DCE6BF"/>
<circle cx="163.5" cy="38.5" r="6.5" fill="#606869"/>
<path d="M189.5 200L191.5 201L193.5 201.5H195.5L197 201V205L198 207.5V210L196.5 211.5H193.5L190 211L189 208.5L189.5 205.5L190 203L189.5 200Z" fill="#7A7D7D"/>
<path d="M198.5 200L200.5 201L203.5 200L205 199.5H207V201L209 203L211.5 206L212 207V209L210.5 210H208.5L206 209.5L204 209L201 207.5L197.5 205V202L198.5 200Z" fill="#7A7D7D"/>
<path d="M189 179.5L195.5 178L202 177.5L199.5 182.5L197 201L193 204L189.5 200L188.5 191L189 179.5Z" fill="url(#paint5_linear_38_250)"/>
<path d="M200 178L213 173L210.5 181L207.5 188.5L207 200L202 202L198.5 200.5L199 191.5L196.5 185L200 178Z" fill="url(#paint6_linear_38_250)"/>
<path d="M187.5 162L193 166H205.5L215 163.5V168.5L213 173L204 175L190 174L182.5 170.5L187.5 162Z" fill="#5E6261"/>
<path d="M181 169L189.5 173L203 174.5L213 173L211.5 178L209 182.5L205 183.5L198 184.5L191.5 183.5L186.5 180.5L179.5 175.5V173L181 169Z" fill="#70716C"/>
<path d="M187 131L192.5 133.5L195 137L200 138L205 136L214.5 141.5L210.5 144.5L211.5 152L215 163.5L203 167.5L191 166L183 159.5L186 151L185.5 147L183 140L185 136.5L187 131Z" fill="url(#paint7_linear_38_250)"/>
<path d="M183 157L185.5 159.5L188 162L186.5 164.5L183 170L181.5 169.5V162.5L180 161L183 157Z" fill="url(#paint8_linear_38_250)"/>
<path d="M191.5 133L193 133.5V138L194.5 142.5L198.5 147L200.5 150L203.5 152.5L213.5 158.5L213 159.5L202 153L199 150.5L195 145.5L193 143L192 141L191.5 138V133Z" fill="url(#paint9_linear_38_250)"/>
<path d="M210.5 144.5L214.5 141.5L214 149V153.5L213 157L211.5 152L210.5 144.5Z" fill="url(#paint10_linear_38_250)"/>
<path d="M201.5 124.5L205.5 125.5L207.5 127L207 132L205 136.5L200.5 139L195 137.5L193 135.5V133.5V129.5L194 125.5L198 124L201.5 124.5Z" fill="url(#paint11_linear_38_250)"/>
<path d="M196.5 122.5L198.5 120.5L201 119.5L204.5 120L206.5 122L208.5 124L209 126.5L207 127L205.5 125.5L201.5 124.5H199H197L196.5 122.5Z" fill="url(#paint12_linear_38_250)"/>
<path d="M181 123H187L198.5 122L197 124.5L188 127.5L185 130L187 131L186 136.5L183 140.5L177 135.5L173.5 132.5L172.5 129L176 125L178.5 123.5L181 123Z" fill="url(#paint13_linear_38_250)"/>
<path d="M-13 153L129.5 137.5L132.5 142.5L-16.5 174.5L-13 153Z" fill="url(#paint14_linear_38_250)"/>
</g>
<defs>
<linearGradient id="paint0_linear_38_250" x1="12.5" y1="7.5" x2="175" y2="156.5" gradientUnits="userSpaceOnUse">
<stop stop-color="#8375D8"/>
<stop offset="1" stop-color="#A29EBC"/>
</linearGradient>
<linearGradient id="paint1_linear_38_250" x1="180" y1="63.5" x2="435" y2="63.5" gradientUnits="userSpaceOnUse">
<stop stop-color="#A18982"/>
<stop offset="1" stop-color="#9A6252"/>
</linearGradient>
<linearGradient id="paint2_linear_38_250" x1="244.5" y1="122" x2="244.5" y2="366" gradientUnits="userSpaceOnUse">
<stop stop-color="#D9D9D9"/>
<stop offset="0.0001" stop-color="#205706"/>
<stop offset="1" stop-color="#728A57"/>
</linearGradient>
<linearGradient id="paint3_linear_38_250" x1="55.75" y1="142" x2="55.75" y2="267.5" gradientUnits="userSpaceOnUse">
<stop stop-color="#899393"/>
<stop offset="1" stop-color="#727575"/>
</linearGradient>
<linearGradient id="paint4_linear_38_250" x1="180.75" y1="187.75" x2="180.75" y2="264.5" gradientUnits="userSpaceOnUse">
<stop stop-color="#CDCFCE"/>
<stop offset="1" stop-color="#787A79"/>
</linearGradient>
<linearGradient id="paint5_linear_38_250" x1="194.837" y1="187.331" x2="195.829" y2="203.965" gradientUnits="userSpaceOnUse">
<stop stop-color="#555554"/>
<stop offset="1" stop-color="#72726C"/>
</linearGradient>
<linearGradient id="paint6_linear_38_250" x1="204.245" y1="183.758" x2="205.218" y2="201.975" gradientUnits="userSpaceOnUse">
<stop stop-color="#555554"/>
<stop offset="1" stop-color="#72726C"/>
</linearGradient>
<linearGradient id="paint7_linear_38_250" x1="199" y1="131" x2="199" y2="167.5" gradientUnits="userSpaceOnUse">
<stop stop-color="#869398"/>
<stop offset="1" stop-color="#656A6C"/>
</linearGradient>
<linearGradient id="paint8_linear_38_250" x1="184" y1="157" x2="184" y2="170" gradientUnits="userSpaceOnUse">
<stop stop-color="#AEB0A5"/>
<stop offset="1" stop-color="#2E2F2B"/>
</linearGradient>
<linearGradient id="paint9_linear_38_250" x1="194.5" y1="133" x2="212.5" y2="161" gradientUnits="userSpaceOnUse">
<stop stop-color="#9DADA8"/>
<stop offset="1" stop-color="#343837"/>
</linearGradient>
<linearGradient id="paint10_linear_38_250" x1="212.5" y1="141.5" x2="212.5" y2="157" gradientUnits="userSpaceOnUse">
<stop stop-color="#7A8589"/>
<stop offset="1" stop-color="#2D2D2E"/>
</linearGradient>
<linearGradient id="paint11_linear_38_250" x1="200.25" y1="124" x2="200.25" y2="139" gradientUnits="userSpaceOnUse">
<stop stop-color="#848684"/>
<stop offset="1" stop-color="#515251"/>
</linearGradient>
<linearGradient id="paint12_linear_38_250" x1="209" y1="124" x2="196.5" y2="122.5" gradientUnits="userSpaceOnUse">
<stop stop-color="#5D625C"/>
<stop offset="1" stop-color="#919490"/>
</linearGradient>
<linearGradient id="paint13_linear_38_250" x1="185.5" y1="122" x2="185" y2="137" gradientUnits="userSpaceOnUse">
<stop stop-color="#5C5D59"/>
<stop offset="1" stop-color="#828E94"/>
</linearGradient>
<linearGradient id="paint14_linear_38_250" x1="7" y1="160.5" x2="156.5" y2="131.5" gradientUnits="userSpaceOnUse">
<stop stop-color="#AAB1AB"/>
<stop offset="1" stop-color="#E6EBE7"/>
</linearGradient>
<clipPath id="clip0_38_250">
<path d="M0 0H393V260H0V0Z" fill="white"/>
</clipPath>
</defs>
</svg>
