<svg width="393" height="260" viewBox="0 0 393 260" fill="none" xmlns="http://www.w3.org/2000/svg">
<g clip-path="url(#clip0_45_864)">
<path d="M393 0H0V260H393V0Z" fill="white"/>
<rect width="393" height="138" fill="url(#paint0_linear_45_864)"/>
<rect x="268" y="-43" width="183" height="129" fill="url(#paint1_radial_45_864)"/>
<path d="M6.67572e-06 86C6.01117 85.1883 9.68318 85.2803 15.5 87C21.5386 88.7853 23.6858 92.5819 29.5 95C41.3308 99.9202 49.188 99.6722 62 99.5C76.7044 99.3024 84.2972 92.2058 99 92.5C106.676 92.6536 111.049 93.1469 118.5 95C124.733 96.5503 134 100.5 134 100.5V164L67 173H26.5L-2.49999 166.5C-2.49999 166.5 -30.1869 90.0761 6.67572e-06 86Z" fill="url(#paint2_linear_45_864)"/>
<path d="M265 130C265 130 284.774 126.989 297.5 125.5C309.58 124.086 328.5 122.5 328.5 122.5C328.5 122.5 345.783 115.014 355 107.5C370.573 94.8034 364.622 59.6888 384 65C390.896 66.8901 394.272 70.1361 399 75.5C413.096 91.4899 396 130 396 130L403.5 183C403.5 183 379.511 186.82 364 187.5C338.774 188.605 322.723 192.912 299.5 183C287.047 177.685 273.59 175.466 265 165C260.283 159.253 262.018 154.865 261 147.5C260.04 140.556 265 130 265 130Z" fill="url(#paint3_linear_45_864)"/>
<path d="M0 169L425 161V280H0V169Z" fill="url(#paint4_linear_45_864)"/>
<rect x="122" y="117" width="142" height="44" fill="#C9C290"/>
<rect x="174" y="125" width="46" height="17" fill="url(#paint5_linear_45_864)"/>
<path d="M181.605 137.46C181.565 137.38 181.515 137.32 181.455 137.28C181.395 137.23 181.365 137.185 181.365 137.145C181.365 137.105 181.36 137.065 181.35 137.025C181.35 136.975 181.33 136.93 181.29 136.89C181.24 136.83 181.245 136.695 181.305 136.485C181.365 136.265 181.465 136 181.605 135.69C181.745 135.37 181.91 135.035 182.1 134.685C182.18 134.605 182.26 134.5 182.34 134.37C182.42 134.24 182.48 134.155 182.52 134.115C182.52 134.075 182.535 134.04 182.565 134.01C182.595 133.97 182.63 133.95 182.67 133.95V133.86C182.67 133.81 182.715 133.725 182.805 133.605C182.905 133.485 183.025 133.355 183.165 133.215C183.305 133.065 183.45 132.925 183.6 132.795C183.75 132.655 183.875 132.555 183.975 132.495C184.185 132.355 184.4 132.27 184.62 132.24C184.85 132.21 185.045 132.26 185.205 132.39C185.235 132.42 185.285 132.47 185.355 132.54C185.425 132.61 185.505 132.69 185.595 132.78C185.695 132.86 185.795 132.945 185.895 133.035L186.45 133.53L186.18 134.28C186.05 134.68 186.015 135.03 186.075 135.33C186.145 135.63 186.245 135.89 186.375 136.11C186.425 136.22 186.525 136.325 186.675 136.425C186.835 136.525 186.985 136.585 187.125 136.605C187.205 136.615 187.28 136.645 187.35 136.695C187.42 136.745 187.455 136.825 187.455 136.935C187.455 137.035 187.435 137.115 187.395 137.175C187.355 137.235 187.285 137.275 187.185 137.295C186.855 137.335 186.545 137.255 186.255 137.055C185.975 136.855 185.715 136.525 185.475 136.065C185.435 136.005 185.38 135.895 185.31 135.735C185.25 135.565 185.215 135.455 185.205 135.405C185.165 135.455 185.09 135.55 184.98 135.69C184.87 135.82 184.785 135.915 184.725 135.975C184.015 136.695 183.4 137.18 182.88 137.43C182.37 137.67 181.945 137.68 181.605 137.46ZM182.145 136.62C182.145 136.69 182.25 136.69 182.46 136.62C182.68 136.54 182.915 136.4 183.165 136.2C183.505 135.91 183.845 135.59 184.185 135.24C184.535 134.89 184.815 134.565 185.025 134.265L185.355 133.725C185.255 133.495 185.145 133.34 185.025 133.26C184.915 133.17 184.82 133.125 184.74 133.125C184.61 133.125 184.415 133.245 184.155 133.485C183.905 133.725 183.635 134.045 183.345 134.445C183.055 134.845 182.78 135.285 182.52 135.765C182.42 135.965 182.33 136.16 182.25 136.35C182.18 136.53 182.145 136.62 182.145 136.62ZM195.428 133.845C195.558 134.135 195.588 134.425 195.518 134.715C195.448 134.995 195.328 135.27 195.158 135.54C194.998 135.81 194.833 136.07 194.663 136.32L193.748 137.1C193.448 137.16 193.193 137.215 192.983 137.265C192.783 137.315 192.608 137.335 192.458 137.325C192.308 137.305 192.153 137.23 191.993 137.1C191.843 136.97 191.668 136.755 191.468 136.455L191.333 136.5C191.293 136.58 191.258 136.665 191.228 136.755C191.198 136.845 191.168 136.935 191.138 137.025C191.148 136.995 191.133 137.045 191.093 137.175C191.053 137.295 190.998 137.46 190.928 137.67C190.858 137.88 190.783 138.095 190.703 138.315C190.633 138.545 190.573 138.74 190.523 138.9C190.473 139.06 190.443 139.15 190.433 139.17C190.363 139.37 190.303 139.55 190.253 139.71C190.203 139.87 190.158 140.045 190.118 140.235C190.088 140.435 190.043 140.695 189.983 141.015C189.973 141.145 189.958 141.245 189.938 141.315C189.918 141.395 189.883 141.47 189.833 141.54C189.783 141.54 189.733 141.54 189.683 141.54C189.633 141.55 189.578 141.55 189.518 141.54C189.288 141.52 189.143 141.405 189.083 141.195C189.033 140.985 189.068 140.805 189.188 140.655C189.178 140.515 189.173 140.415 189.173 140.355C189.173 140.305 189.178 140.245 189.188 140.175C189.218 140.115 189.243 140.06 189.263 140.01C189.293 139.96 189.318 139.9 189.338 139.83C189.408 139.62 189.508 139.33 189.638 138.96C189.778 138.59 189.913 138.21 190.043 137.82C190.173 137.42 190.258 137.08 190.298 136.8L189.728 137.265C189.688 137.305 189.613 137.375 189.503 137.475C189.393 137.575 189.298 137.65 189.218 137.7C189.088 137.72 188.968 137.765 188.858 137.835C188.758 137.905 188.633 137.965 188.483 138.015C188.393 137.995 188.288 137.955 188.168 137.895C188.058 137.835 187.973 137.755 187.913 137.655C187.833 137.475 187.798 137.25 187.808 136.98C187.818 136.7 187.858 136.445 187.928 136.215C188.068 135.805 188.188 135.46 188.288 135.18C188.388 134.89 188.538 134.59 188.738 134.28C188.828 134.14 188.913 134.005 188.993 133.875C189.083 133.745 189.183 133.625 189.293 133.515C189.373 133.435 189.458 133.36 189.548 133.29C189.638 133.21 189.728 133.13 189.818 133.05C190.098 132.95 190.318 132.89 190.478 132.87C190.638 132.84 190.783 132.855 190.913 132.915C191.043 132.975 191.188 133.09 191.348 133.26C191.358 133.3 191.363 133.395 191.363 133.545C191.363 133.685 191.363 133.83 191.363 133.98C191.373 134.12 191.378 134.21 191.378 134.25C191.438 134.26 191.478 134.2 191.498 134.07C191.518 133.93 191.533 133.825 191.543 133.755C191.593 133.615 191.643 133.455 191.693 133.275C191.753 133.095 191.813 132.95 191.873 132.84C191.953 132.67 192.043 132.46 192.143 132.21C192.243 131.95 192.323 131.735 192.383 131.565C192.403 131.505 192.428 131.445 192.458 131.385C192.498 131.315 192.548 131.25 192.608 131.19C192.778 131.23 192.903 131.285 192.983 131.355C193.073 131.425 193.138 131.495 193.178 131.565C193.178 131.925 193.138 132.19 193.058 132.36C192.988 132.52 192.913 132.65 192.833 132.75C192.753 132.85 192.693 132.995 192.653 133.185C192.653 133.205 192.618 133.29 192.548 133.44C192.488 133.59 192.423 133.74 192.353 133.89C192.283 134.03 192.243 134.115 192.233 134.145L193.313 133.485C193.543 133.375 193.733 133.275 193.883 133.185C194.033 133.085 194.238 133.06 194.498 133.11C194.638 133.12 194.808 133.2 195.008 133.35C195.208 133.5 195.348 133.665 195.428 133.845ZM188.738 136.74C188.868 136.74 189.038 136.67 189.248 136.53C189.468 136.38 189.688 136.215 189.908 136.035C190.128 135.845 190.303 135.705 190.433 135.615C190.593 135.505 190.663 135.38 190.643 135.24C190.633 135.09 190.648 134.965 190.688 134.865C190.708 134.795 190.723 134.665 190.733 134.475C190.753 134.285 190.758 134.095 190.748 133.905C190.738 133.705 190.713 133.58 190.673 133.53C190.523 133.6 190.403 133.665 190.313 133.725C190.223 133.785 190.138 133.86 190.058 133.95C189.988 134.03 189.888 134.145 189.758 134.295C189.678 134.395 189.608 134.495 189.548 134.595C189.488 134.685 189.433 134.78 189.383 134.88C189.203 135.29 189.048 135.615 188.918 135.855C188.788 136.095 188.703 136.285 188.663 136.425C188.633 136.555 188.658 136.66 188.738 136.74ZM192.578 136.455C192.888 136.455 193.158 136.375 193.388 136.215C193.618 136.055 193.773 135.925 193.853 135.825C193.953 135.765 194.053 135.665 194.153 135.525C194.253 135.375 194.338 135.235 194.408 135.105C194.478 134.965 194.513 134.88 194.513 134.85C194.543 134.75 194.573 134.63 194.603 134.49C194.643 134.34 194.663 134.21 194.663 134.1C194.663 133.98 194.613 133.92 194.513 133.92C194.273 133.99 194.073 134.065 193.913 134.145C193.753 134.215 193.558 134.34 193.328 134.52L192.458 135.165C192.378 135.245 192.288 135.315 192.188 135.375C192.088 135.425 191.978 135.44 191.858 135.42C191.768 135.46 191.703 135.515 191.663 135.585C191.633 135.645 191.608 135.715 191.588 135.795C191.638 135.825 191.673 135.845 191.693 135.855C191.713 135.855 191.743 135.855 191.783 135.855C191.873 136.065 191.973 136.22 192.083 136.32C192.193 136.41 192.358 136.455 192.578 136.455ZM200.392 137.82C200.062 137.7 199.807 137.475 199.627 137.145C199.447 136.805 199.332 136.475 199.282 136.155C199.272 136.155 199.242 136.175 199.192 136.215C199.152 136.245 199.102 136.295 199.042 136.365C198.902 136.505 198.727 136.68 198.517 136.89C198.307 137.09 198.087 137.27 197.857 137.43C197.637 137.58 197.427 137.645 197.227 137.625C197.147 137.575 197.062 137.52 196.972 137.46C196.892 137.39 196.812 137.32 196.732 137.25C196.692 137.21 196.657 137.17 196.627 137.13C196.607 137.09 196.587 137.045 196.567 136.995C196.457 136.695 196.397 136.43 196.387 136.2C196.377 135.96 196.402 135.725 196.462 135.495C196.532 135.255 196.612 134.99 196.702 134.7C196.712 134.67 196.747 134.545 196.807 134.325C196.877 134.105 196.957 133.855 197.047 133.575C197.137 133.295 197.222 133.045 197.302 132.825C197.392 132.605 197.457 132.475 197.497 132.435C197.527 132.435 197.557 132.435 197.587 132.435C197.627 132.425 197.662 132.42 197.692 132.42C197.792 132.42 197.867 132.455 197.917 132.525C197.957 132.585 198.007 132.63 198.067 132.66C198.137 132.69 198.187 132.73 198.217 132.78C198.267 132.88 198.232 133.095 198.112 133.425C197.992 133.745 197.862 134.11 197.722 134.52C197.592 134.89 197.482 135.265 197.392 135.645C197.302 136.015 197.297 136.325 197.377 136.575C197.447 136.575 197.542 136.515 197.662 136.395C197.792 136.265 197.892 136.175 197.962 136.125C198.062 136.065 198.192 135.95 198.352 135.78C198.522 135.6 198.687 135.42 198.847 135.24C199.007 135.05 199.117 134.905 199.177 134.805C199.217 134.745 199.277 134.635 199.357 134.475C199.437 134.305 199.517 134.125 199.597 133.935C199.687 133.735 199.757 133.55 199.807 133.38C199.867 133.21 199.892 133.09 199.882 133.02C199.872 132.92 199.882 132.845 199.912 132.795C199.952 132.735 200.012 132.68 200.092 132.63C200.142 132.63 200.197 132.63 200.257 132.63C200.317 132.63 200.372 132.635 200.422 132.645C200.482 132.715 200.547 132.78 200.617 132.84C200.687 132.9 200.757 132.965 200.827 133.035C200.877 133.225 200.847 133.48 200.737 133.8C200.627 134.12 200.517 134.465 200.407 134.835C200.297 135.205 200.227 135.58 200.197 135.96C200.167 136.33 200.267 136.655 200.497 136.935C200.707 136.845 200.867 136.76 200.977 136.68C201.097 136.59 201.212 136.5 201.322 136.41C201.432 136.31 201.572 136.21 201.742 136.11C201.842 136.17 201.917 136.29 201.967 136.47C202.017 136.65 202.042 136.795 202.042 136.905C202.002 136.935 201.962 136.965 201.922 136.995C201.892 137.015 201.867 137.045 201.847 137.085C201.787 137.215 201.667 137.345 201.487 137.475C201.307 137.605 201.117 137.71 200.917 137.79C200.717 137.86 200.542 137.87 200.392 137.82ZM203.802 137.565C203.632 137.515 203.472 137.425 203.322 137.295C203.182 137.165 203.097 137.015 203.067 136.845C203.057 136.775 203.037 136.715 203.007 136.665C202.987 136.605 202.982 136.54 202.992 136.47C203.042 136.27 203.097 136.075 203.157 135.885C203.217 135.685 203.277 135.49 203.337 135.3C203.407 135.1 203.482 134.905 203.562 134.715C203.652 134.525 203.747 134.34 203.847 134.16C203.857 134.14 203.867 134.115 203.877 134.085C203.887 134.055 203.897 134.03 203.907 134.01C203.957 133.83 204.017 133.66 204.087 133.5C204.157 133.33 204.242 133.16 204.342 132.99C204.392 132.91 204.442 132.79 204.492 132.63C204.542 132.47 204.587 132.37 204.627 132.33C204.717 132.22 204.807 132.18 204.897 132.21C204.987 132.24 205.072 132.31 205.152 132.42C205.232 132.52 205.297 132.63 205.347 132.75C205.407 132.87 205.447 132.965 205.467 133.035C205.317 133.235 205.162 133.49 205.002 133.8C204.852 134.11 204.702 134.44 204.552 134.79C204.402 135.13 204.267 135.47 204.147 135.81C204.027 136.14 203.937 136.43 203.877 136.68C203.957 136.76 204.082 136.8 204.252 136.8C204.422 136.79 204.557 136.765 204.657 136.725C204.827 136.715 205.022 136.69 205.242 136.65C205.472 136.6 205.667 136.585 205.827 136.605C205.867 136.525 205.877 136.445 205.857 136.365C205.847 136.275 205.862 136.195 205.902 136.125C205.992 135.985 206.062 135.85 206.112 135.72C206.162 135.59 206.207 135.445 206.247 135.285C206.267 135.215 206.307 135.08 206.367 134.88C206.427 134.68 206.492 134.46 206.562 134.22C206.642 133.98 206.712 133.77 206.772 133.59C206.842 133.4 206.892 133.285 206.922 133.245C206.962 133.215 207.002 133.19 207.042 133.17C207.092 133.15 207.137 133.135 207.177 133.125C207.297 133.175 207.372 133.215 207.402 133.245C207.432 133.275 207.457 133.315 207.477 133.365C207.507 133.405 207.557 133.48 207.627 133.59C207.627 133.66 207.632 133.74 207.642 133.83C207.652 133.91 207.647 133.99 207.627 134.07C207.607 134.08 207.572 134.15 207.522 134.28C207.472 134.41 207.417 134.56 207.357 134.73C207.307 134.89 207.257 135.04 207.207 135.18C207.167 135.31 207.147 135.39 207.147 135.42C207.057 135.56 206.987 135.72 206.937 135.9C206.897 136.07 206.832 136.225 206.742 136.365C206.732 136.385 206.727 136.41 206.727 136.44C206.727 136.46 206.722 136.48 206.712 136.5C206.842 136.48 206.967 136.46 207.087 136.44C207.217 136.41 207.342 136.385 207.462 136.365C207.592 136.345 207.717 136.34 207.837 136.35C207.937 136.27 208.017 136.19 208.077 136.11C208.137 136.02 208.167 135.91 208.167 135.78C208.187 135.75 208.232 135.65 208.302 135.48C208.372 135.31 208.447 135.12 208.527 134.91C208.607 134.69 208.677 134.495 208.737 134.325C208.797 134.155 208.827 134.055 208.827 134.025C208.917 133.905 208.977 133.775 209.007 133.635C209.047 133.485 209.087 133.34 209.127 133.2C209.177 133.18 209.232 133.16 209.292 133.14C209.352 133.11 209.402 133.08 209.442 133.05C209.672 133.16 209.852 133.315 209.982 133.515C209.992 133.575 209.997 133.64 209.997 133.71C209.997 133.77 210.002 133.83 210.012 133.89C209.932 134.03 209.862 134.175 209.802 134.325C209.742 134.465 209.687 134.62 209.637 134.79C209.587 134.98 209.512 135.215 209.412 135.495C209.322 135.765 209.222 136.035 209.112 136.305C209.002 136.575 208.897 136.81 208.797 137.01C208.787 137.04 208.772 137.07 208.752 137.1C208.742 137.13 208.727 137.16 208.707 137.19C208.687 137.22 208.662 137.255 208.632 137.295C208.602 137.325 208.562 137.345 208.512 137.355C208.412 137.375 208.317 137.36 208.227 137.31C208.147 137.25 208.067 137.195 207.987 137.145C207.957 137.135 207.902 137.15 207.822 137.19C207.742 137.22 207.687 137.245 207.657 137.265C207.497 137.245 207.392 137.245 207.342 137.265C207.302 137.285 207.222 137.295 207.102 137.295C206.902 137.295 206.647 137.315 206.337 137.355C206.037 137.395 205.727 137.44 205.407 137.49C205.067 137.53 204.747 137.565 204.447 137.595C204.157 137.615 203.942 137.605 203.802 137.565ZM211.844 137.505C211.724 137.525 211.594 137.505 211.454 137.445C211.314 137.385 211.189 137.3 211.079 137.19C210.979 137.08 210.914 136.965 210.884 136.845C210.844 136.635 210.869 136.375 210.959 136.065C211.059 135.745 211.199 135.41 211.379 135.06C211.569 134.7 211.779 134.355 212.009 134.025C212.249 133.695 212.494 133.41 212.744 133.17C213.004 132.92 213.244 132.75 213.464 132.66C213.574 132.59 213.659 132.545 213.719 132.525C213.789 132.495 213.859 132.49 213.929 132.51C214.009 132.53 214.124 132.58 214.274 132.66C214.414 132.7 214.519 132.745 214.589 132.795C214.659 132.845 214.749 132.945 214.859 133.095C214.939 133.245 214.999 133.395 215.039 133.545C215.079 133.695 215.114 133.865 215.144 134.055C215.224 134.305 215.254 134.47 215.234 134.55C215.214 134.62 215.184 134.675 215.144 134.715C215.064 134.815 215.044 134.865 215.084 134.865C215.084 134.865 215.079 134.885 215.069 134.925C215.069 134.955 215.049 135.005 215.009 135.075C214.939 135.295 214.884 135.525 214.844 135.765C214.814 135.995 214.819 136.185 214.859 136.335C214.939 136.555 215.084 136.685 215.294 136.725C215.504 136.765 215.719 136.675 215.939 136.455C216.049 136.375 216.154 136.305 216.254 136.245C216.354 136.175 216.404 136.18 216.404 136.26C216.404 136.26 216.419 136.275 216.449 136.305C216.479 136.325 216.514 136.335 216.554 136.335C216.604 136.335 216.634 136.355 216.644 136.395C216.664 136.435 216.664 136.49 216.644 136.56C216.634 136.62 216.604 136.69 216.554 136.77C216.404 136.92 216.329 137.02 216.329 137.07C216.329 137.07 216.309 137.09 216.269 137.13C216.239 137.16 216.184 137.21 216.104 137.28C215.924 137.39 215.694 137.445 215.414 137.445C215.144 137.445 214.934 137.39 214.784 137.28C214.634 137.17 214.494 137.02 214.364 136.83C214.244 136.64 214.164 136.475 214.124 136.335L214.049 136.185L213.614 136.47C213.504 136.58 213.384 136.685 213.254 136.785C213.134 136.885 213.054 136.955 213.014 136.995C212.984 137.035 212.949 137.07 212.909 137.1C212.879 137.13 212.844 137.145 212.804 137.145C212.764 137.145 212.729 137.145 212.699 137.145C212.669 137.145 212.654 137.145 212.654 137.145C212.654 137.185 212.604 137.235 212.504 137.295C212.414 137.355 212.304 137.405 212.174 137.445C212.054 137.485 211.944 137.505 211.844 137.505ZM211.694 136.695C211.754 136.695 211.859 136.65 212.009 136.56C212.169 136.46 212.344 136.345 212.534 136.215C212.734 136.085 212.909 135.955 213.059 135.825C213.219 135.695 213.329 135.595 213.389 135.525C213.429 135.485 213.494 135.42 213.584 135.33C213.674 135.23 213.754 135.145 213.824 135.075C214.054 134.815 214.214 134.53 214.304 134.22C214.394 133.9 214.384 133.65 214.274 133.47C214.234 133.36 214.184 133.3 214.124 133.29C214.064 133.28 213.939 133.315 213.749 133.395C213.629 133.465 213.479 133.6 213.299 133.8C213.129 133.99 212.944 134.215 212.744 134.475C212.554 134.725 212.374 134.985 212.204 135.255C212.034 135.525 211.894 135.775 211.784 136.005C211.674 136.235 211.619 136.415 211.619 136.545C211.619 136.585 211.629 136.62 211.649 136.65C211.679 136.68 211.694 136.695 211.694 136.695Z" fill="black"/>
<rect x="186" y="117" width="5" height="44" fill="url(#paint6_linear_45_864)"/>
<rect x="169" y="117" width="5" height="44" fill="url(#paint7_linear_45_864)"/>
<rect x="203" y="117" width="5" height="44" fill="url(#paint8_linear_45_864)"/>
<rect x="152" y="117" width="5" height="44" fill="url(#paint9_linear_45_864)"/>
<rect x="220" y="117" width="5" height="44" fill="url(#paint10_linear_45_864)"/>
<rect x="135" y="117" width="5" height="44" fill="url(#paint11_linear_45_864)"/>
<rect x="237" y="117" width="5" height="44" fill="url(#paint12_linear_45_864)"/>
<rect x="122" y="117" width="5" height="44" fill="url(#paint13_linear_45_864)"/>
<rect x="256" y="117" width="5" height="44" fill="url(#paint14_linear_45_864)"/>
<rect x="267" y="117" width="5" height="44" fill="url(#paint15_linear_45_864)"/>
<rect x="105" y="117" width="5" height="44" fill="url(#paint16_linear_45_864)"/>
<rect x="280" y="117" width="5" height="44" fill="url(#paint17_linear_45_864)"/>
<rect x="105" y="161" width="187" height="6" fill="url(#paint18_linear_45_864)"/>
<rect x="104" y="112" width="184" height="5" fill="#FDF5B8"/>
<path d="M102 107L292 107.5V110.5H288V112H131H105H104V109H102V107Z" fill="#D9D9D9"/>
<rect x="195" y="109" width="3" height="1" fill="#716969"/>
<rect x="201" y="109" width="3" height="1" fill="#716969"/>
<rect x="207" y="109" width="3" height="1" fill="#716969"/>
<rect x="213" y="109" width="3" height="1" fill="#716969"/>
<rect x="219" y="109" width="3" height="1" fill="#716969"/>
<rect x="225" y="109" width="3" height="1" fill="#716969"/>
<rect x="231" y="109" width="3" height="1" fill="#716969"/>
<rect x="237" y="109" width="3" height="1" fill="#716969"/>
<rect x="244" y="109" width="3" height="1" fill="#716969"/>
<rect x="250" y="109" width="3" height="1" fill="#716969"/>
<rect x="256" y="109" width="3" height="1" fill="#716969"/>
<rect x="262" y="109" width="3" height="1" fill="#716969"/>
<rect x="268" y="109" width="3" height="1" fill="#716969"/>
<rect x="274" y="109" width="3" height="1" fill="#716969"/>
<rect x="280" y="109" width="3" height="1" fill="#716969"/>
<rect x="286" y="109" width="3" height="1" fill="#716969"/>
<rect x="104" y="109" width="3" height="1" fill="#716969"/>
<rect x="110" y="109" width="3" height="1" fill="#716969"/>
<rect x="116" y="109" width="3" height="1" fill="#716969"/>
<rect x="122" y="109" width="3" height="1" fill="#716969"/>
<rect x="128" y="109" width="3" height="1" fill="#716969"/>
<rect x="134" y="109" width="3" height="1" fill="#716969"/>
<rect x="140" y="109" width="3" height="1" fill="#716969"/>
<rect x="146" y="109" width="3" height="1" fill="#716969"/>
<rect x="153" y="109" width="3" height="1" fill="#716969"/>
<rect x="159" y="109" width="3" height="1" fill="#716969"/>
<rect x="165" y="109" width="3" height="1" fill="#716969"/>
<rect x="171" y="109" width="3" height="1" fill="#716969"/>
<rect x="177" y="109" width="3" height="1" fill="#716969"/>
<rect x="183" y="109" width="3" height="1" fill="#716969"/>
<rect x="189" y="109" width="3" height="1" fill="#716969"/>
<rect x="195" y="109" width="3" height="1" fill="#716969"/>
<rect x="100" y="105" width="192" height="3" fill="#FEF5BB"/>
<path d="M140 90H253V101.5L288 103V105.5L253 105H140H105V101.5L140 100.5V90Z" fill="url(#paint19_linear_45_864)"/>
<rect x="110" y="103" width="11" height="1" fill="#5A5959"/>
<rect x="126" y="103" width="11" height="1" fill="#5A5959"/>
<rect x="256" y="103" width="11" height="1" fill="#5A5959"/>
<rect x="272" y="103" width="11" height="1" fill="#5A5959"/>
<path d="M178 90.5L184 87L188 86L191.5 85.5H195.5H201L205.5 87L209 88.5L211 91L202 92H189L178 90.5Z" fill="url(#paint20_linear_45_864)"/>
<rect x="192" y="147" width="9" height="14" fill="#A7A48C"/>
<rect x="193" y="148" width="7" height="13" fill="#A85E3F"/>
<path d="M196.5 148L197 148V154.5V161L196.5 161V154.5V148Z" fill="#494949"/>
<path d="M196 153H195.5V155H196V153Z" fill="#5E4F1D"/>
<rect x="175" y="147" width="9" height="14" fill="#A7A48C"/>
<rect x="176" y="148" width="7" height="13" fill="#A85E3F"/>
<path d="M179.5 148L180 148V154.5V161L179.5 161V154.5V148Z" fill="#494949"/>
<path d="M179 153H178.5V155H179V153Z" fill="#5E4F1D"/>
<rect x="209" y="147" width="9" height="14" fill="#A7A48C"/>
<rect x="210" y="148" width="7" height="13" fill="#A85E3F"/>
<path d="M213.5 148L214 148V154.5V161L213.5 161V154.5V148Z" fill="#494949"/>
<path d="M213 153H212.5V155H213V153Z" fill="#5E4F1D"/>
<path d="M166 167H228L295 197.5H103L166 167Z" fill="#EAE5E5"/>
<path d="M178.719 169H216.823L258 188H140L178.719 169Z" fill="#D97070"/>
<path d="M188.047 170H205.807L216.873 175.189C218.809 176.097 218.162 179 216.024 179H178.492C176.38 179 175.71 176.153 177.599 175.21L188.047 170Z" fill="#47A737"/>
<path d="M-9.5 166L105 161.5V171.5L-17.5 187L-9.5 166Z" fill="url(#paint21_linear_45_864)"/>
<path d="M290.5 164L412.5 173L416 197L290.5 173V164Z" fill="url(#paint22_linear_45_864)"/>
</g>
<defs>
<linearGradient id="paint0_linear_45_864" x1="196.5" y1="0" x2="196.5" y2="138" gradientUnits="userSpaceOnUse">
<stop stop-color="#6284FF"/>
<stop offset="1" stop-color="#7B8093"/>
</linearGradient>
<radialGradient id="paint1_radial_45_864" cx="0" cy="0" r="1" gradientUnits="userSpaceOnUse" gradientTransform="translate(359.5 21.5) rotate(90) scale(64.5 91.5)">
<stop stop-color="#B353B5" stop-opacity="0.7"/>
<stop offset="1" stop-color="#B768B9" stop-opacity="0.04"/>
</radialGradient>
<linearGradient id="paint2_linear_45_864" x1="60.2918" y1="85.5056" x2="60.2918" y2="164" gradientUnits="userSpaceOnUse">
<stop stop-color="#66CF64"/>
<stop offset="1" stop-color="#0D450C"/>
</linearGradient>
<linearGradient id="paint3_linear_45_864" x1="332.724" y1="64.4573" x2="332.724" y2="189.382" gradientUnits="userSpaceOnUse">
<stop stop-color="#4EC922"/>
<stop offset="1" stop-color="#1B5308"/>
</linearGradient>
<linearGradient id="paint4_linear_45_864" x1="129" y1="188" x2="356" y2="266.5" gradientUnits="userSpaceOnUse">
<stop stop-color="#AFACAC"/>
<stop offset="1" stop-color="#665D5D"/>
</linearGradient>
<linearGradient id="paint5_linear_45_864" x1="197" y1="125" x2="197" y2="142" gradientUnits="userSpaceOnUse">
<stop stop-color="#BD8484"/>
<stop offset="1" stop-color="#7B2828"/>
</linearGradient>
<linearGradient id="paint6_linear_45_864" x1="188.5" y1="117" x2="188.5" y2="161" gradientUnits="userSpaceOnUse">
<stop stop-color="#FEFCD5"/>
<stop offset="1" stop-color="#D3D082"/>
</linearGradient>
<linearGradient id="paint7_linear_45_864" x1="171.5" y1="117" x2="171.5" y2="161" gradientUnits="userSpaceOnUse">
<stop stop-color="#FEFCD5"/>
<stop offset="1" stop-color="#D3D082"/>
</linearGradient>
<linearGradient id="paint8_linear_45_864" x1="205.5" y1="117" x2="205.5" y2="161" gradientUnits="userSpaceOnUse">
<stop stop-color="#FEFCD5"/>
<stop offset="1" stop-color="#D3D082"/>
</linearGradient>
<linearGradient id="paint9_linear_45_864" x1="154.5" y1="117" x2="154.5" y2="161" gradientUnits="userSpaceOnUse">
<stop stop-color="#FEFCD5"/>
<stop offset="1" stop-color="#D3D082"/>
</linearGradient>
<linearGradient id="paint10_linear_45_864" x1="222.5" y1="117" x2="222.5" y2="161" gradientUnits="userSpaceOnUse">
<stop stop-color="#FEFCD5"/>
<stop offset="1" stop-color="#D3D082"/>
</linearGradient>
<linearGradient id="paint11_linear_45_864" x1="137.5" y1="117" x2="137.5" y2="161" gradientUnits="userSpaceOnUse">
<stop stop-color="#FEFCD5"/>
<stop offset="1" stop-color="#D3D082"/>
</linearGradient>
<linearGradient id="paint12_linear_45_864" x1="239.5" y1="117" x2="239.5" y2="161" gradientUnits="userSpaceOnUse">
<stop stop-color="#FEFCD5"/>
<stop offset="1" stop-color="#D3D082"/>
</linearGradient>
<linearGradient id="paint13_linear_45_864" x1="124.5" y1="117" x2="124.5" y2="161" gradientUnits="userSpaceOnUse">
<stop stop-color="#FEFCD5"/>
<stop offset="1" stop-color="#D3D082"/>
</linearGradient>
<linearGradient id="paint14_linear_45_864" x1="258.5" y1="117" x2="258.5" y2="161" gradientUnits="userSpaceOnUse">
<stop stop-color="#FEFCD5"/>
<stop offset="1" stop-color="#D3D082"/>
</linearGradient>
<linearGradient id="paint15_linear_45_864" x1="269.5" y1="117" x2="269.5" y2="161" gradientUnits="userSpaceOnUse">
<stop stop-color="#FEFCD5"/>
<stop offset="1" stop-color="#D3D082"/>
</linearGradient>
<linearGradient id="paint16_linear_45_864" x1="107.5" y1="117" x2="107.5" y2="161" gradientUnits="userSpaceOnUse">
<stop stop-color="#FEFCD5"/>
<stop offset="1" stop-color="#D3D082"/>
</linearGradient>
<linearGradient id="paint17_linear_45_864" x1="282.5" y1="117" x2="282.5" y2="161" gradientUnits="userSpaceOnUse">
<stop stop-color="#FEFCD5"/>
<stop offset="1" stop-color="#D3D082"/>
</linearGradient>
<linearGradient id="paint18_linear_45_864" x1="198.5" y1="161" x2="198.5" y2="167" gradientUnits="userSpaceOnUse">
<stop stop-color="#FFD694"/>
<stop offset="1" stop-color="#EFBB65"/>
</linearGradient>
<linearGradient id="paint19_linear_45_864" x1="196.5" y1="90" x2="196.5" y2="105.5" gradientUnits="userSpaceOnUse">
<stop stop-color="#FDF7BA"/>
<stop offset="1" stop-color="#E9E2A1"/>
</linearGradient>
<linearGradient id="paint20_linear_45_864" x1="210" y1="85.5" x2="122.5" y2="96.5" gradientUnits="userSpaceOnUse">
<stop stop-color="#FBF0B4"/>
<stop offset="1" stop-color="#D7BC2A"/>
</linearGradient>
<linearGradient id="paint21_linear_45_864" x1="43.75" y1="161.5" x2="43.75" y2="187" gradientUnits="userSpaceOnUse">
<stop stop-color="#313030"/>
<stop offset="1" stop-color="#6B6161"/>
</linearGradient>
<linearGradient id="paint22_linear_45_864" x1="353.25" y1="164" x2="353.25" y2="197" gradientUnits="userSpaceOnUse">
<stop stop-color="#313030"/>
<stop offset="1" stop-color="#6B6161"/>
</linearGradient>
<clipPath id="clip0_45_864">
<path d="M0 0H393V260H0V0Z" fill="white"/>
</clipPath>
</defs>
</svg>
