<svg width="393" height="260" viewBox="0 0 393 260" fill="none" xmlns="http://www.w3.org/2000/svg">
<g clip-path="url(#clip0_35_94)">
<path d="M393 1H0V261H393V1Z" fill="white"/>
<rect x="88" y="-4" width="316" height="60" fill="url(#paint0_linear_35_94)"/>
<path d="M101 53L167 47.5L243 53L301.189 47.5293C301.396 47.5098 301.604 47.5119 301.811 47.5356L349.5 53L397 38L393 141.5L101 137.5V53Z" fill="url(#paint1_linear_35_94)"/>
<path d="M-14.7414 166.245C-15.4469 153.496 -6.04641 142.427 6.64865 141.057L35 138H96.1778C97.7223 138 99.2633 137.851 100.779 137.555L201.681 117.844C204.537 117.286 207.47 117.252 210.337 117.744L328.5 138L413.226 142.335C425.988 142.988 436 153.525 436 166.303V246C436 259.255 425.255 270 412 270H13.7087C0.969021 270 -9.5508 260.046 -10.2547 247.326L-14.7414 166.245Z" fill="url(#paint2_linear_35_94)"/>
<rect x="-8" y="-40" width="109" height="161" fill="#D4C6BE"/>
<rect x="40" y="63" width="34" height="52" fill="#834A4A"/>
<rect x="41" y="64" width="32" height="50" fill="#3D6299"/>
<rect x="57" y="64" width="1" height="50" fill="#322B2B"/>
<rect x="-15" y="64" width="34" height="52" fill="#834A4A"/>
<rect x="-14" y="65" width="32" height="50" fill="#3D6299"/>
<rect x="2" y="65" width="1" height="50" fill="#322B2B"/>
<rect x="41" y="-22" width="34" height="52" fill="#834A4A"/>
<rect x="42" y="-21" width="32" height="50" fill="#3D6299"/>
<rect x="58" y="-21" width="1" height="50" fill="#322B2B"/>
<rect x="-14" y="-22" width="34" height="52" fill="#834A4A"/>
<rect x="-13" y="-21" width="32" height="50" fill="#3D6299"/>
<rect x="3" y="-21" width="1" height="50" fill="#322B2B"/>
<rect x="-16" y="121" width="117" height="26" fill="#7A6F6B"/>
<path d="M53 136H101.5L100.5 111.5L136 109.5L137.5 136L142 147H53V136Z" fill="#666666"/>
<path d="M196 113L204.5 111.5L213 113V128H196V113Z" fill="url(#paint3_linear_35_94)"/>
<path d="M234 113.5L242.5 112L251 113.5V128.5H234V113.5Z" fill="url(#paint4_linear_35_94)"/>
<path d="M131 127.5L202 125.5H231L281 127V140H181L135 137.5L131 127.5Z" fill="url(#paint5_linear_35_94)"/>
<path d="M281 138L307.5 139L335 142.5V149H281V138Z" fill="url(#paint6_linear_35_94)"/>
<path d="M332 149L353.5 148.5L374 150V160L332 155V149Z" fill="url(#paint7_linear_35_94)"/>
<path d="M362.499 193.915C362.352 199.984 359.07 206.553 351.396 213.297C343.714 220.048 332.241 226.385 317.45 231.747C287.919 242.453 246.786 248.691 201.145 247.58C155.504 246.468 114.723 238.235 85.7487 226.104C71.2366 220.028 60.0854 213.14 52.7406 206.023C45.4039 198.914 42.4464 192.193 42.5943 186.124C42.7421 180.055 46.0233 173.485 53.6973 166.742C61.3798 159.991 72.8531 153.654 87.6438 148.292C117.175 137.585 158.307 131.348 203.949 132.459C249.59 133.571 290.37 141.804 319.345 153.935C333.857 160.011 345.008 166.898 352.353 174.015C359.69 181.125 362.647 187.846 362.499 193.915Z" stroke="#DED3C5" stroke-width="16"/>
<ellipse cx="202.829" cy="184.244" rx="156.198" ry="57.7197" transform="rotate(1.23684 202.829 184.244)" fill="#8DBA35"/>
<path d="M181.2 165.495L206.515 155.779L207.487 204.833L191.227 180.815L181.2 165.495Z" fill="#BDA0C8" fill-opacity="0.75"/>
<path d="M232.174 164.474L206.494 155.769L207.468 204.824L222.762 180.179L232.174 164.474Z" fill="#FEFBE9" fill-opacity="0.75"/>
<path d="M145 157.5L206.5 156L181.5 165.5L167.5 162.5L145 157.5Z" fill="#FEFBE9" fill-opacity="0.75"/>
<path d="M268.387 155.563L206.869 155.94L232.148 164.673L246.05 161.247L268.387 155.563Z" fill="#BDA0C8" fill-opacity="0.75"/>
<path d="M145.5 157.5L206.865 156.49L181.463 148.124L167.612 151.75L145.5 157.5Z" fill="#BDA0C8" fill-opacity="0.75"/>
<path d="M268.57 155.537L207.068 156.964L232.079 147.494L246.075 150.511L268.57 155.537Z" fill="#FEFBE9" fill-opacity="0.75"/>
<path d="M197.5 141L207.5 135.5L208 157L181 148L197.5 141Z" fill="#FEFBE9" fill-opacity="0.75"/>
<path d="M217.5 141.5L207.5 136L207 157.5L234 148.5L217.5 141.5Z" fill="#BDA0C8" fill-opacity="0.75"/>
<path d="M207.701 146.49L207.85 146.5H208C239.988 146.5 266.614 150.008 285.083 155.836C294.34 158.756 301.272 162.175 305.801 165.809C310.312 169.43 312 172.875 312 176C312 178.943 310.212 182.38 305.241 186.096C300.311 189.78 292.888 193.221 283.302 196.153C264.182 201.999 237.528 205.5 208 205.5C178.472 205.5 151.946 201.999 132.956 196.155C123.435 193.225 116.077 189.786 111.196 186.107C106.279 182.401 104.5 178.963 104.5 176C104.5 172.952 106.351 169.243 111.281 165.225C116.152 161.254 123.479 157.468 132.926 154.312C151.779 148.014 178.179 144.522 207.701 146.49Z" stroke="#F3F1F1" stroke-opacity="0.48" stroke-width="9"/>
<path d="M333 185.5C333 189.609 330.526 194.307 324.243 199.295C318.012 204.241 308.688 208.915 296.721 212.933C272.839 220.953 239.526 226 202.5 226C165.474 226 132.161 220.953 108.279 212.933C96.3117 208.915 86.9876 204.241 80.7572 199.295C74.4744 194.307 72 189.609 72 185.5C72 181.253 74.6188 175.945 81.0275 170.068C87.3367 164.283 96.7179 158.527 108.653 153.424C132.489 143.233 165.686 136 202.5 136C239.314 136 272.511 143.233 296.347 153.424C308.282 158.527 317.663 164.283 323.973 170.068C330.381 175.945 333 181.253 333 185.5Z" stroke="#7725A9" stroke-opacity="0.83" stroke-width="10"/>
<path d="M158.008 144.974C157.944 145.009 157.858 145.009 157.752 144.974C157.645 144.956 157.528 144.903 157.4 144.815C157.272 144.744 157.134 144.656 156.984 144.55C156.899 144.479 156.846 144.399 156.825 144.311C156.803 144.205 156.825 144.028 156.888 143.781C156.952 143.534 157.048 143.136 157.176 142.589C157.262 142.235 157.357 141.882 157.464 141.529C157.571 141.175 157.667 140.884 157.752 140.654C157.837 140.407 157.88 140.283 157.88 140.283C157.986 140.248 158.136 139.983 158.327 139.488C158.541 138.994 158.775 138.393 159.031 137.686C159.116 137.439 159.265 137.024 159.479 136.441C159.692 135.858 159.905 135.293 160.118 134.745C160.31 134.233 160.47 133.773 160.598 133.367C160.726 132.943 160.79 132.731 160.79 132.731C160.79 132.731 160.63 132.811 160.31 132.97C160.012 133.111 159.628 133.305 159.159 133.553C158.69 133.782 158.232 134.038 157.784 134.321C157.421 134.498 156.984 134.745 156.473 135.063C155.982 135.381 155.545 135.637 155.162 135.831C154.586 136.202 154.234 136.414 154.106 136.467C153.979 136.503 153.819 136.476 153.627 136.388C153.35 136.194 153.158 135.99 153.051 135.778C152.966 135.566 152.987 135.372 153.115 135.196C153.158 135.178 153.286 135.107 153.499 134.984C153.733 134.86 153.989 134.719 154.266 134.56C154.543 134.401 154.799 134.25 155.034 134.109C155.29 133.968 155.471 133.871 155.577 133.818C155.641 133.818 155.759 133.756 155.929 133.632C156.1 133.508 156.281 133.394 156.473 133.288C156.579 133.182 156.952 132.943 157.592 132.572C158.232 132.201 158.924 131.786 159.671 131.327C160.459 130.92 161.12 130.594 161.653 130.346C162.207 130.099 162.527 129.984 162.612 130.002C162.676 130.002 162.772 130.037 162.9 130.108C163.05 130.178 163.188 130.267 163.316 130.373C163.444 130.479 163.519 130.585 163.54 130.691C163.668 130.814 163.604 131.097 163.348 131.539C163.263 131.698 163.124 131.989 162.932 132.413C162.74 132.819 162.527 133.296 162.293 133.844C162.08 134.374 161.866 134.904 161.653 135.434C161.461 135.946 161.301 136.388 161.173 136.759C161.003 137.307 160.843 137.731 160.694 138.031C160.566 138.331 160.438 138.623 160.31 138.905C160.204 139.17 160.076 139.541 159.926 140.018C159.777 140.301 159.617 140.663 159.447 141.105C159.297 141.529 159.159 141.953 159.031 142.377C158.903 142.783 158.807 143.119 158.743 143.384C158.573 143.772 158.434 144.117 158.327 144.417C158.221 144.717 158.114 144.903 158.008 144.974Z" fill="white"/>
<path d="M172.404 144.974C172.34 145.009 172.255 145.009 172.148 144.974C172.041 144.956 171.924 144.903 171.796 144.815C171.668 144.744 171.53 144.656 171.381 144.55C171.295 144.479 171.242 144.399 171.221 144.311C171.199 144.205 171.221 144.028 171.285 143.781C171.349 143.534 171.445 143.136 171.572 142.589C171.658 142.235 171.754 141.882 171.86 141.529C171.967 141.175 172.063 140.884 172.148 140.654C172.233 140.407 172.276 140.283 172.276 140.283C172.383 140.248 172.532 139.983 172.724 139.488C172.937 138.994 173.171 138.393 173.427 137.686C173.512 137.439 173.662 137.024 173.875 136.441C174.088 135.858 174.301 135.293 174.514 134.745C174.706 134.233 174.866 133.773 174.994 133.367C175.122 132.943 175.186 132.731 175.186 132.731C175.186 132.731 175.026 132.811 174.706 132.97C174.408 133.111 174.024 133.305 173.555 133.553C173.086 133.782 172.628 134.038 172.18 134.321C171.818 134.498 171.381 134.745 170.869 135.063C170.379 135.381 169.942 135.637 169.558 135.831C168.982 136.202 168.631 136.414 168.503 136.467C168.375 136.503 168.215 136.476 168.023 136.388C167.746 136.194 167.554 135.99 167.447 135.778C167.362 135.566 167.383 135.372 167.511 135.196C167.554 135.178 167.682 135.107 167.895 134.984C168.13 134.86 168.385 134.719 168.663 134.56C168.94 134.401 169.195 134.25 169.43 134.109C169.686 133.968 169.867 133.871 169.974 133.818C170.038 133.818 170.155 133.756 170.325 133.632C170.496 133.508 170.677 133.394 170.869 133.288C170.976 133.182 171.349 132.943 171.988 132.572C172.628 132.201 173.321 131.786 174.067 131.327C174.856 130.92 175.516 130.594 176.049 130.346C176.604 130.099 176.923 129.984 177.009 130.002C177.073 130.002 177.169 130.037 177.296 130.108C177.446 130.178 177.584 130.267 177.712 130.373C177.84 130.479 177.915 130.585 177.936 130.691C178.064 130.814 178 131.097 177.744 131.539C177.659 131.698 177.52 131.989 177.328 132.413C177.137 132.819 176.923 133.296 176.689 133.844C176.476 134.374 176.263 134.904 176.049 135.434C175.857 135.946 175.698 136.388 175.57 136.759C175.399 137.307 175.239 137.731 175.09 138.031C174.962 138.331 174.834 138.623 174.706 138.905C174.6 139.17 174.472 139.541 174.323 140.018C174.173 140.301 174.013 140.663 173.843 141.105C173.694 141.529 173.555 141.953 173.427 142.377C173.299 142.783 173.203 143.119 173.139 143.384C172.969 143.772 172.83 144.117 172.724 144.417C172.617 144.717 172.51 144.903 172.404 144.974Z" fill="white"/>
<path d="M114.329 151.975C114.248 152.008 114.14 152.008 114.006 151.975C113.871 151.959 113.723 151.909 113.561 151.827C113.399 151.761 113.224 151.678 113.036 151.58C112.928 151.514 112.861 151.439 112.834 151.357C112.807 151.258 112.834 151.093 112.914 150.862C112.995 150.631 113.116 150.261 113.278 149.749C113.386 149.42 113.507 149.09 113.642 148.76C113.777 148.43 113.898 148.158 114.006 147.944C114.113 147.713 114.167 147.598 114.167 147.598C114.302 147.565 114.491 147.317 114.733 146.856C115.002 146.394 115.299 145.833 115.622 145.174C115.73 144.943 115.919 144.556 116.188 144.012C116.457 143.467 116.727 142.94 116.996 142.429C117.239 141.951 117.441 141.522 117.602 141.143C117.764 140.747 117.845 140.549 117.845 140.549C117.845 140.549 117.643 140.623 117.239 140.772C116.862 140.904 116.377 141.085 115.784 141.316C115.191 141.53 114.612 141.769 114.046 142.033C113.588 142.198 113.036 142.429 112.389 142.725C111.769 143.022 111.217 143.261 110.732 143.443C110.005 143.789 109.56 143.987 109.398 144.036C109.237 144.069 109.035 144.045 108.792 143.962C108.442 143.781 108.199 143.591 108.065 143.393C107.957 143.195 107.984 143.014 108.145 142.849C108.199 142.833 108.361 142.767 108.63 142.651C108.927 142.536 109.25 142.404 109.6 142.256C109.951 142.107 110.274 141.967 110.57 141.835C110.894 141.703 111.123 141.613 111.257 141.563C111.338 141.563 111.486 141.505 111.702 141.39C111.918 141.275 112.147 141.167 112.389 141.068C112.524 140.969 112.995 140.747 113.804 140.401C114.612 140.054 115.487 139.667 116.43 139.238C117.427 138.859 118.263 138.554 118.936 138.323C119.637 138.092 120.041 137.985 120.149 138.002C120.229 138.002 120.351 138.035 120.512 138.101C120.701 138.167 120.876 138.249 121.038 138.348C121.199 138.447 121.294 138.546 121.321 138.645C121.482 138.76 121.401 139.024 121.078 139.436C120.97 139.585 120.795 139.857 120.553 140.252C120.31 140.631 120.041 141.077 119.744 141.588C119.475 142.082 119.206 142.577 118.936 143.072C118.694 143.55 118.492 143.962 118.33 144.308C118.114 144.819 117.912 145.215 117.724 145.495C117.562 145.776 117.4 146.048 117.239 146.312C117.104 146.559 116.942 146.905 116.754 147.35C116.565 147.614 116.363 147.952 116.148 148.364C115.959 148.76 115.784 149.156 115.622 149.552C115.461 149.931 115.339 150.244 115.258 150.491C115.043 150.854 114.868 151.176 114.733 151.456C114.598 151.736 114.464 151.909 114.329 151.975Z" fill="white"/>
<path d="M130.866 151.209C130.678 151.209 130.381 151.159 129.977 151.06C129.6 150.945 129.196 150.813 128.765 150.664C128.334 150.5 127.983 150.343 127.714 150.195C127.121 149.848 126.623 149.428 126.219 148.933C125.815 148.439 125.532 147.911 125.37 147.35C125.208 146.773 125.195 146.221 125.33 145.693C125.626 144.638 126.273 143.599 127.269 142.577C128.266 141.538 129.411 140.681 130.705 140.005C131.405 139.626 132.038 139.337 132.604 139.139C133.17 138.925 133.857 138.76 134.665 138.645C134.962 138.595 135.285 138.57 135.635 138.57C135.985 138.554 136.255 138.546 136.444 138.546C136.982 138.546 137.521 138.612 138.06 138.744C138.599 138.876 139.057 139.04 139.434 139.238C139.811 139.42 140 139.593 140 139.758C140 139.873 139.987 139.964 139.96 140.03C139.933 140.079 139.811 140.071 139.596 140.005H139.192L139.596 140.722C139.704 140.854 139.798 141.035 139.879 141.266C139.96 141.481 140 141.678 140 141.86C140 142.008 139.96 142.247 139.879 142.577C139.798 142.89 139.69 143.228 139.555 143.591C139.421 143.954 139.286 144.292 139.151 144.605C139.017 144.918 138.895 145.149 138.788 145.298C138.707 145.397 138.653 145.495 138.626 145.594C138.626 145.677 138.626 145.751 138.626 145.817C138.518 145.932 138.343 146.155 138.101 146.485C137.885 146.815 137.723 147.045 137.616 147.177C137.508 147.243 137.413 147.301 137.333 147.35C137.279 147.4 137.306 147.458 137.413 147.523C137.413 147.556 137.346 147.664 137.211 147.845C137.077 148.01 136.928 148.167 136.767 148.315C136.632 148.463 136.524 148.538 136.444 148.538C136.444 148.538 136.403 148.546 136.322 148.562C136.268 148.562 136.241 148.587 136.241 148.636C136.241 148.702 136.066 148.876 135.716 149.156C135.366 149.42 134.948 149.7 134.463 149.997C134.194 150.162 133.817 150.343 133.332 150.541C132.874 150.722 132.416 150.879 131.958 151.011C131.499 151.143 131.136 151.209 130.866 151.209ZM130.745 149.65C131.041 149.65 131.324 149.626 131.594 149.576C131.863 149.51 132.092 149.42 132.281 149.304C132.766 149.106 133.332 148.785 133.978 148.34C134.625 147.878 135.096 147.433 135.393 147.004C135.689 146.757 135.918 146.501 136.08 146.237C136.268 145.957 136.551 145.487 136.928 144.828C137.144 144.646 137.292 144.424 137.373 144.16C137.454 143.896 137.494 143.674 137.494 143.492C137.494 143.311 137.494 143.063 137.494 142.75C137.521 142.437 137.589 142.173 137.696 141.959C137.696 141.53 137.683 141.25 137.656 141.118C137.629 140.969 137.521 140.829 137.333 140.697C137.225 140.648 137.077 140.599 136.888 140.549C136.726 140.5 136.551 140.475 136.363 140.475C136.174 140.475 135.824 140.541 135.312 140.673C134.8 140.788 134.436 140.887 134.221 140.969C134.032 141.035 133.817 141.044 133.574 140.994C133.359 140.945 133.251 140.879 133.251 140.796C133.251 140.566 133.008 140.549 132.523 140.747C132.038 140.928 131.499 141.242 130.907 141.687C130.422 141.984 130.004 142.289 129.654 142.602C129.331 142.899 129.169 143.08 129.169 143.146C129.169 143.212 129.129 143.294 129.048 143.393C128.967 143.492 128.886 143.608 128.805 143.739C128.67 143.855 128.509 144.045 128.32 144.308C128.132 144.572 127.943 144.836 127.754 145.1C127.593 145.347 127.485 145.537 127.431 145.669C127.431 145.735 127.431 145.916 127.431 146.213C127.431 146.493 127.431 146.757 127.431 147.004C127.431 147.284 127.445 147.523 127.472 147.721C127.525 147.919 127.593 148.092 127.674 148.241C127.754 148.373 127.862 148.521 127.997 148.686C128.105 148.801 128.266 148.941 128.482 149.106C128.724 149.255 128.886 149.362 128.967 149.428C129.263 149.593 129.506 149.692 129.694 149.725C129.883 149.741 130.233 149.716 130.745 149.65Z" fill="white"/>
<path d="M84.8661 167.708C84.7142 167.647 84.5543 167.552 84.3865 167.424C84.2187 167.296 84.0849 167.167 83.9852 167.037C83.8854 166.906 83.8407 166.822 83.8511 166.783C83.9085 166.695 83.8586 166.63 83.7015 166.587C83.7015 166.587 83.6856 166.521 83.6539 166.388C83.6273 166.236 83.6479 166.097 83.7157 165.97C83.7312 165.912 83.7858 165.771 83.8795 165.547C83.9732 165.324 84.0382 165.145 84.0745 165.009C84.2411 164.64 84.5357 164.17 84.9582 163.599C85.3808 163.029 85.8583 162.442 86.3907 161.839C86.9283 161.217 87.4294 160.668 87.8941 160.191C88.5208 159.614 88.8234 159.239 88.8021 159.068C88.8121 158.905 88.4349 158.741 87.6704 158.577C86.6703 158.413 85.7954 158.095 85.0458 157.624C84.3277 157.162 83.7977 156.626 83.4561 156.017C83.1196 155.388 83.058 154.801 83.2712 154.258C83.3805 153.976 83.5448 153.741 83.7641 153.551C84.0201 153.35 84.4094 153.092 84.932 152.776C85.7528 152.354 86.6182 152.017 87.5283 151.764C88.4435 151.492 89.3669 151.315 90.2983 151.233C91.2612 151.16 92.1641 151.185 93.0071 151.307C93.5254 151.384 94.1277 151.525 94.8138 151.73C95.5 151.935 96.0186 152.136 96.3698 152.334C96.81 152.577 97.1903 152.917 97.5106 153.355C97.8676 153.782 98.1251 154.204 98.2831 154.619C98.4411 155.035 98.4419 155.346 98.2853 155.552C97.8942 156.131 97.5131 156.547 97.1421 156.799C96.7711 157.052 96.3451 157.259 95.8639 157.42C95.2885 157.555 94.5592 157.888 93.6759 158.418C92.8241 158.956 91.928 159.596 90.9877 160.338C90.084 161.069 89.2615 161.812 88.5201 162.566C87.8623 163.26 87.3823 163.918 87.0803 164.542C86.8096 165.174 86.7817 165.529 86.9965 165.607C87.1222 165.641 87.2715 165.712 87.4445 165.82C87.6489 165.938 87.814 166.013 87.9397 166.047C88.0132 166.149 88.037 166.249 88.011 166.345C87.9851 166.442 87.865 166.576 87.6509 166.746C87.5203 166.856 87.3191 166.978 87.0472 167.112C86.812 167.236 86.5453 167.351 86.2473 167.457C85.9492 167.564 85.6772 167.636 85.4313 167.673C85.1802 167.73 84.9918 167.742 84.8661 167.708ZM85.7095 156.093C86.0978 156.529 86.7161 156.798 87.5642 156.902C88.4124 157.005 89.3335 156.962 90.3275 156.773C91.3529 156.592 92.2811 156.272 93.1122 155.811C93.5619 155.642 93.9436 155.475 94.2572 155.31C94.6075 155.135 94.8532 155.035 94.9945 155.011C95.4756 154.85 95.7553 154.687 95.8334 154.521C95.9429 154.364 95.9058 154.188 95.7222 153.994C95.5593 153.722 95.2761 153.522 94.8728 153.393C94.4695 153.264 93.8674 153.185 93.0665 153.157C92.5482 153.08 92.0509 153.05 91.5746 153.067C91.135 153.074 90.5489 153.124 89.8164 153.217C89.6699 153.261 89.5313 153.275 89.4004 153.261C89.2747 153.227 89.1516 153.184 89.0311 153.131C89.0311 153.131 88.9971 153.132 88.929 153.134C88.8662 153.117 88.8244 153.148 88.8036 153.225C88.9141 153.441 88.6659 153.613 88.059 153.74C87.0968 154.062 86.399 154.465 85.9658 154.95C85.5377 155.415 85.4523 155.796 85.7095 156.093Z" fill="white"/>
<path d="M74.4169 186.662C74.2073 186.563 74.0087 186.435 73.821 186.276C73.6333 186.117 73.4528 185.938 73.2796 185.739C73.1374 185.552 72.9916 185.374 72.8421 185.207C72.7488 184.787 72.6884 184.471 72.6609 184.257C72.6334 184.043 72.7424 183.742 72.9879 183.355C73.0751 183.114 73.2078 182.845 73.386 182.547C73.5951 182.26 73.8445 182.056 74.1339 181.934C74.496 181.612 75.0074 181.264 75.6681 180.892C76.3598 180.53 77.0825 180.18 77.8361 179.841C78.6207 179.514 79.3407 179.219 79.996 178.958C80.6896 178.688 81.1966 178.498 81.517 178.387C81.9594 178.23 82.1978 178.056 82.2323 177.864C82.3049 177.664 82.1297 177.181 81.7065 176.415C81.6625 176.15 81.5813 175.939 81.4628 175.783C81.3515 175.606 81.3578 175.541 81.4817 175.586C81.4817 175.586 81.4461 175.539 81.375 175.445C81.3422 175.342 81.3047 175.204 81.2627 175.03C80.8998 174.581 80.8238 174.066 81.0345 173.485C81.2762 172.915 81.7155 172.428 82.3526 172.024C83.1096 171.482 83.8478 171.138 84.567 170.991C85.3244 170.834 86.1822 170.885 87.1404 171.141C87.4737 171.285 88.0249 171.553 88.7937 171.945C89.5626 172.337 90.3588 172.751 91.1823 173.185C92.0059 173.62 92.6518 174.013 93.1202 174.364C93.4555 174.599 93.8154 174.911 94.2 175.3C94.6156 175.7 94.9693 176.077 95.261 176.433C95.5599 176.768 95.7031 177.001 95.6905 177.133C95.6687 177.193 95.6897 177.28 95.7535 177.393C95.8556 177.499 95.904 177.607 95.8986 177.718C96.0045 178.006 96.003 178.3 95.894 178.601C95.8159 178.913 95.676 179.202 95.4741 179.469C95.2795 179.716 95.0565 179.896 94.8053 180.009C93.8276 180.289 93.1694 180.413 92.8307 180.381C92.6468 180.405 92.4246 180.438 92.1642 180.479C91.9348 180.532 91.689 180.534 91.4267 180.484C91.221 180.568 91.0225 180.632 90.8314 180.676C90.6712 180.731 90.5291 180.737 90.4052 180.692C90.3032 180.587 90.1902 180.512 90.0663 180.467C89.9497 180.402 89.8769 180.409 89.8478 180.49C89.8333 180.53 89.5838 180.541 89.0994 180.524C88.6459 180.519 88.1842 180.487 87.7143 180.43C87.2444 180.373 86.9548 180.302 86.8455 180.217C86.8455 180.217 86.799 180.2 86.7061 180.167C86.6132 180.133 86.4593 180.123 86.2444 180.135C85.8564 179.949 85.9724 180.354 86.5925 181.35C86.9923 182.47 87.2172 183.492 87.2673 184.417C87.3555 185.334 87.0911 185.918 86.474 186.17C85.5731 186.819 84.6803 187.3 83.7955 187.614C82.918 187.908 82.2816 187.972 81.8863 187.806C81.8863 187.806 81.7979 187.808 81.6213 187.812C81.4756 187.827 81.3145 187.837 81.1378 187.841C81.025 187.958 80.853 187.998 80.6216 187.959C80.414 187.952 80.2364 187.91 80.0889 187.834C79.8392 187.653 79.3229 187.579 78.5398 187.613C78.0718 187.647 77.5446 187.603 76.9581 187.481C76.3953 187.391 75.8816 187.261 75.417 187.093C74.9452 186.944 74.6118 186.801 74.4169 186.662ZM75.716 185.398C76.0184 185.531 76.4738 185.628 77.0821 185.69C77.6904 185.752 78.3442 185.785 79.0435 185.789C79.781 185.784 80.4184 185.766 80.9556 185.734C82.3577 185.539 83.3654 185.225 83.9787 184.789C84.623 184.365 84.8719 183.776 84.7255 183.02C84.6269 182.712 84.5201 182.378 84.405 182.019C84.29 181.66 84.1841 181.372 84.0873 181.156C83.9669 180.908 83.8438 180.716 83.718 180.58C83.6232 180.455 83.5093 180.334 83.3763 180.218C83.3763 180.218 83.2306 180.233 82.9392 180.263C82.6861 180.285 82.4422 180.378 82.2074 180.542C81.765 180.699 81.3991 180.838 81.1097 180.96C80.8512 181.093 80.6346 181.207 80.4598 181.303C80.1922 181.364 79.9437 181.422 79.7143 181.475C79.4848 181.527 79.3128 181.567 79.1981 181.594C79.1763 181.654 79.018 181.8 78.7232 182.033C78.4356 182.247 78.1171 182.449 77.7676 182.639C76.8102 183.154 76.1223 183.698 75.704 184.272C75.3239 184.837 75.3279 185.212 75.716 185.398ZM86.513 178.09C87.3014 177.945 87.9351 177.937 88.4142 178.065C88.9315 178.185 89.2431 178.388 89.349 178.676C89.3819 178.779 89.7707 178.818 90.5155 178.793C91.2913 178.78 91.9887 178.692 92.6077 178.531C92.8735 178.378 93.0436 178.247 93.1182 178.138C93.1927 178.029 93.2572 177.803 93.3115 177.46C93.4151 177.271 93.4423 177.1 93.393 176.946C93.3509 176.772 93.1969 176.568 92.9308 176.336C92.6956 176.115 92.282 175.806 91.6897 175.41C89.9295 174.273 88.401 173.56 87.1041 173.271C85.8072 172.982 84.7712 173.23 83.9961 174.015C83.6722 174.328 83.4558 174.635 83.3468 174.935C83.2378 175.236 83.2455 175.602 83.3697 176.032C83.6193 176.213 83.7652 176.391 83.8072 176.565C83.8566 176.719 83.8812 176.796 83.8812 176.796C83.8158 176.976 83.907 177.111 84.1547 177.201C84.1804 177.324 84.3572 177.512 84.6852 177.767C85.0132 178.022 85.6225 178.13 86.513 178.09Z" fill="white"/>
<path d="M118.385 218.979C117.646 218.914 117 218.705 116.446 218.352C115.892 217.998 115.431 217.596 115.062 217.146C114.815 216.536 115.308 215.475 116.538 213.964C117.769 212.421 119.431 210.621 121.523 208.563C122.877 207.406 123.523 206.731 123.462 206.538C123.4 206.345 122.815 206.249 121.708 206.249C121.154 206.185 120.508 206.12 119.769 206.056C119.031 205.96 118.569 205.847 118.385 205.719C117.4 205.461 116.815 205.188 116.631 204.899C116.508 204.577 116.723 204.401 117.277 204.368C117.523 204.304 117.615 204.224 117.554 204.127C117.492 203.999 117.492 203.886 117.554 203.79C117.738 203.758 117.954 203.758 118.2 203.79C118.508 203.822 118.815 203.854 119.123 203.886C119.985 203.886 120.631 203.886 121.062 203.886C121.492 203.886 122.046 203.886 122.723 203.886C123.031 203.886 123.4 203.886 123.831 203.886C124.323 203.886 124.754 203.902 125.123 203.935C125.985 203.999 126.569 203.967 126.877 203.838C127.185 203.677 127.769 203.308 128.631 202.729C129.123 202.279 129.892 201.684 130.938 200.945C131.985 200.173 132.908 199.386 133.708 198.582C136.662 196.396 138.292 194.934 138.6 194.194C138.969 193.455 138.262 193.118 136.477 193.182C135.492 193.214 134.385 193.327 133.154 193.519C131.985 193.712 130.231 194.034 127.892 194.484C125.615 194.998 124.015 195.32 123.092 195.448C122.231 195.545 121.462 195.496 120.785 195.303C120.415 195.271 120.108 195.175 119.862 195.014C119.677 194.821 119.554 194.612 119.492 194.387C119.492 194.13 119.523 193.889 119.585 193.664C119.708 193.31 120.969 192.925 123.369 192.507C125.769 192.089 128.538 191.671 131.677 191.253C133.092 191.125 134.446 191.044 135.738 191.012C137.031 190.98 138.138 191.012 139.062 191.108C140.046 191.205 140.662 191.382 140.908 191.639C140.908 191.639 140.969 191.687 141.092 191.784C141.277 191.848 141.4 191.816 141.462 191.687C141.708 191.719 141.892 191.848 142.015 192.073C142.138 192.266 142.385 192.523 142.754 192.844C143.369 193.391 143.738 193.793 143.862 194.05C144.046 194.307 144.046 194.677 143.862 195.159C143.677 195.512 143.369 195.866 142.938 196.22C142.508 196.573 142.169 196.798 141.923 196.895C141.615 197.023 141.369 197.168 141.185 197.329C141.062 197.489 141 197.57 141 197.57C140.938 197.698 140.754 197.827 140.446 197.955C140.138 198.052 139.831 198.197 139.523 198.389C139.462 198.518 139.308 198.663 139.062 198.823C138.877 198.984 138.754 199.113 138.692 199.209C138.631 199.241 138.385 199.434 137.954 199.788C137.523 200.141 137 200.559 136.385 201.041C135.769 201.524 135.185 201.974 134.631 202.392C134.138 202.777 133.8 203.051 133.615 203.211C132.754 203.629 132.323 203.935 132.323 204.127C132.323 204.32 132.723 204.513 133.523 204.706C134.569 204.931 135.431 205.204 136.108 205.526C136.785 205.815 137.246 206.185 137.492 206.635C137.554 207.278 137.4 207.647 137.031 207.744C136.723 207.969 136.231 208.065 135.554 208.033C134.938 208.001 134.538 207.921 134.354 207.792C134.169 207.599 133.738 207.422 133.062 207.262C132.446 207.069 131.831 206.924 131.215 206.828C130.6 206.731 130.2 206.683 130.015 206.683C129.769 206.747 129.523 206.876 129.277 207.069C129.031 207.229 128.754 207.406 128.446 207.599C128.015 207.921 127.431 208.451 126.692 209.19C126.015 209.897 125.308 210.605 124.569 211.312C123.892 211.987 123.369 212.485 123 212.807C122.938 212.967 122.754 213.128 122.446 213.289C122.2 213.45 122.015 213.642 121.892 213.867C121.646 214.092 121.431 214.43 121.246 214.88C121.062 215.298 120.969 215.684 120.969 216.037C120.969 216.359 121.062 216.536 121.246 216.568C121.738 216.503 122.077 216.536 122.262 216.664C122.508 216.761 122.692 216.937 122.815 217.194C123.123 217.42 123.031 217.693 122.538 218.014C122.046 218.304 121.4 218.545 120.6 218.737C119.8 218.962 119.062 219.043 118.385 218.979Z" fill="white"/>
<path d="M200.39 234.624C198.539 234.93 196.996 235.049 195.761 234.981C194.527 234.879 193.32 234.488 192.142 233.808C191.357 233.434 190.767 233.077 190.375 232.737C189.982 232.397 189.701 231.886 189.533 231.206C189.252 230.696 189.084 230.288 189.028 229.982C188.972 229.676 189 229.301 189.112 228.859C189.281 228.417 189.505 227.737 189.786 226.819C190.234 225.594 190.627 224.642 190.964 223.962C191.3 223.247 191.974 222.465 192.984 221.615C193.433 220.9 193.938 220.186 194.499 219.472C195.116 218.724 195.565 218.248 195.845 218.043C196.126 217.805 196.547 217.448 197.108 216.972C197.669 216.496 198.258 216.054 198.875 215.646C199.436 215.203 199.941 214.795 200.39 214.421C200.895 214.013 201.148 213.809 201.148 213.809C201.428 213.707 201.681 213.605 201.905 213.503C202.186 213.401 202.466 213.231 202.747 212.993C203.196 212.687 203.813 212.329 204.599 211.921C205.44 211.513 206.366 211.122 207.376 210.748C208.442 210.374 209.48 210.051 210.49 209.779C211.556 209.506 212.538 209.336 213.436 209.268C215.231 208.894 216.073 208.911 215.961 209.319C215.961 209.319 216.045 209.37 216.213 209.472C216.382 209.575 216.69 209.66 217.139 209.728C217.363 209.762 217.532 209.881 217.644 210.085C217.812 210.255 217.981 210.425 218.149 210.595C218.261 210.867 218.233 211.105 218.065 211.309C217.953 211.513 217.504 211.836 216.718 212.278C215.933 212.619 215.372 212.806 215.035 212.84C214.754 212.874 214.502 212.823 214.277 212.687C214.334 212.551 214.221 212.466 213.941 212.432C213.66 212.363 213.52 212.329 213.52 212.329C213.183 212.261 212.454 212.415 211.332 212.789C210.209 213.163 209.003 213.639 207.713 214.217C206.478 214.795 205.44 215.357 204.599 215.901C204.094 216.173 203.645 216.445 203.252 216.717C202.859 216.989 202.607 217.193 202.494 217.329C201.765 217.771 201.12 218.214 200.559 218.656C199.998 219.064 199.717 219.268 199.717 219.268C199.885 219.472 200.278 219.523 200.895 219.421C201.569 219.319 201.933 219.2 201.989 219.064C201.989 218.928 202.607 218.758 203.841 218.554C205.132 218.316 206.422 218.163 207.713 218.095C208.218 217.958 208.891 217.941 209.733 218.043C210.63 218.146 211.36 218.231 211.921 218.299C213.155 218.435 213.997 218.571 214.446 218.707C214.895 218.843 215.456 219.166 216.129 219.676C217.251 220.322 218.009 220.969 218.401 221.615C218.85 222.227 219.047 222.975 218.991 223.86C218.991 224.404 218.906 224.88 218.738 225.288C218.57 225.696 218.177 226.121 217.56 226.563C217.111 227.006 216.522 227.533 215.792 228.145C215.063 228.723 214.334 229.25 213.604 229.727C212.931 230.203 212.342 230.543 211.837 230.747C211.612 230.815 211.388 230.9 211.163 231.002C210.995 231.07 210.911 231.104 210.911 231.104C210.855 231.308 210.434 231.58 209.648 231.92C208.919 232.226 207.993 232.567 206.871 232.941C205.749 233.315 204.599 233.655 203.42 233.961C202.298 234.267 201.288 234.488 200.39 234.624ZM194.751 232.124C195.761 232.26 196.547 232.329 197.108 232.329C197.669 232.295 198.651 232.107 200.054 231.767C200.502 231.699 200.923 231.631 201.316 231.563C201.709 231.495 202.017 231.478 202.242 231.512C202.242 231.512 202.635 231.359 203.42 231.053C204.206 230.713 205.132 230.356 206.198 229.982C209.171 228.825 211.472 227.55 213.099 226.155C214.726 224.727 215.4 223.553 215.119 222.635C215.175 222.363 215.091 222.108 214.867 221.87C214.698 221.598 214.642 221.394 214.698 221.258C214.53 221.258 214.249 221.224 213.857 221.156C213.464 221.088 212.959 221.02 212.342 220.952C211.668 220.849 210.995 220.815 210.322 220.849C209.704 220.883 208.751 220.986 207.46 221.156C206.226 221.292 204.318 221.547 201.737 221.921C201.344 221.989 200.895 222.108 200.39 222.278C199.885 222.414 199.38 222.516 198.875 222.584C198.651 222.686 198.314 222.822 197.865 222.992C197.416 223.128 196.996 223.23 196.603 223.298C195.93 223.332 195.368 223.655 194.92 224.268C194.471 224.88 193.938 226.036 193.32 227.737C192.928 228.893 192.703 229.676 192.647 230.084C192.591 230.492 192.703 230.832 192.984 231.104C193.096 231.512 193.32 231.767 193.657 231.869C193.994 231.971 194.358 232.056 194.751 232.124Z" fill="white"/>
<path d="M261.627 220.607C261.006 220.407 260.658 220.205 260.583 220.001C260.419 219.886 260.266 219.842 260.124 219.868C260.047 219.907 259.936 219.854 259.792 219.711C259.677 219.563 259.553 219.392 259.421 219.198C259.309 218.977 259.25 218.818 259.245 218.722C259.292 218.519 259.425 218.386 259.644 218.321C259.855 218.233 260.077 218.216 260.309 218.27C260.562 218.296 260.736 218.397 260.831 218.573C260.955 218.744 261.223 218.852 261.634 218.897C262.074 218.936 262.603 218.887 263.22 218.748C264.008 218.577 264.775 218.265 265.519 217.812C266.292 217.353 266.965 216.829 267.537 216.238C268.138 215.641 268.578 215.063 268.857 214.502C268.939 214.147 268.969 213.693 268.948 213.14C268.926 212.586 268.868 212.1 268.775 211.681C268.681 211.262 268.563 211.066 268.421 211.092C268.421 211.092 268.363 211.018 268.248 210.87C268.161 210.716 268.041 210.557 267.889 210.391C267.621 210.077 267.169 209.797 266.532 209.552C265.886 209.284 265.292 209.115 264.75 209.046C264.534 209.038 264.152 209.073 263.603 209.15C263.075 209.2 262.605 209.287 262.195 209.411C261.749 209.519 261.336 209.595 260.958 209.641C260.609 209.682 260.434 209.702 260.434 209.702C260.283 209.706 260.036 209.655 259.694 209.549C259.379 209.437 259.075 209.312 258.78 209.173C258.486 209.033 258.318 208.907 258.276 208.794C258.274 208.624 258.324 208.348 258.427 207.966C258.52 207.56 258.644 207.113 258.798 206.624C258.972 206.107 259.173 205.621 259.401 205.167C259.62 204.69 259.85 204.284 260.091 203.948C260.668 203.041 261.43 202.305 262.377 201.742C263.344 201.15 264.419 200.769 265.602 200.598C266.435 200.467 267.039 200.416 267.414 200.443C267.809 200.443 268.244 200.592 268.719 200.892C269.063 201.167 269.267 201.433 269.331 201.687C269.394 201.942 269.343 202.134 269.178 202.261C269.012 202.389 268.734 202.416 268.342 202.344C267.869 202.213 267.285 202.237 266.591 202.414C265.925 202.586 265.241 202.834 264.54 203.158C264.01 203.451 263.479 203.865 262.947 204.4C262.435 204.907 262.153 205.298 262.103 205.574C262.015 205.663 261.954 205.747 261.922 205.826C261.919 205.899 261.856 205.935 261.734 205.934C261.734 205.934 261.708 205.987 261.656 206.094C261.596 206.177 261.583 206.265 261.616 206.356C261.524 206.518 261.462 206.639 261.43 206.717C261.419 206.768 261.339 206.758 261.192 206.689C261.192 206.689 261.205 206.723 261.23 206.791C261.255 206.859 261.27 206.941 261.275 207.037C261.305 207.201 261.369 207.335 261.468 207.438C261.587 207.512 261.925 207.522 262.482 207.468C263.226 207.426 263.8 207.417 264.203 207.439C264.598 207.438 265.214 207.542 266.05 207.751C266.98 207.966 267.8 208.335 268.509 208.858C269.21 209.358 269.784 209.966 270.23 210.683C270.705 211.395 271.014 212.15 271.156 212.948C271.255 213.463 271.311 213.864 271.326 214.153C271.341 214.441 271.238 214.86 271.015 215.41C270.628 216.258 270.07 217.052 269.341 217.794C268.603 218.512 267.781 219.126 266.874 219.633C265.959 220.118 265.036 220.459 264.106 220.656C263.204 220.848 262.378 220.831 261.627 220.607Z" fill="white"/>
<path d="M320.638 203.488C320.296 203.358 320.075 203.146 319.975 202.852C319.875 202.558 319.841 201.9 319.874 200.876C319.847 200.174 319.841 199.41 319.857 198.585C319.864 197.734 319.868 197.063 319.87 196.57C320.015 196 320.097 195.494 320.116 195.05C320.172 194.593 320.2 194.364 320.2 194.364C320.2 194.364 319.957 194.461 319.471 194.654C318.985 194.847 318.433 195.158 317.816 195.588C316.014 196.531 314.56 197.122 313.454 197.363C312.385 197.591 311.434 197.478 310.599 197.024C310.367 196.966 310.125 196.816 309.873 196.574C309.65 196.294 309.489 196.007 309.388 195.713C309.288 195.419 309.312 195.179 309.46 194.991C309.58 194.595 309.7 194.199 309.819 193.802C309.977 193.393 310.09 193.04 310.158 192.743C310.265 192.433 310.31 192.253 310.293 192.204C310.268 192.131 310.281 192.044 310.332 191.945C310.413 191.808 310.436 191.691 310.403 191.593C310.48 191.32 310.703 190.793 311.073 190.01C311.473 189.19 311.913 188.301 312.393 187.344C312.911 186.374 313.393 185.485 313.839 184.676C314.323 183.855 314.688 183.306 314.934 183.031C315.205 182.829 315.503 182.645 315.828 182.48C316.146 182.289 316.378 182.224 316.526 182.283C316.681 182.367 316.858 182.511 317.056 182.717C317.254 182.924 317.405 183.118 317.51 183.301C317.653 183.471 317.667 183.576 317.553 183.615C317.553 183.615 317.5 183.646 317.394 183.71C317.318 183.736 317.297 183.798 317.33 183.896C317.364 183.994 317.245 184.267 316.973 184.715C316.701 185.163 316.396 185.637 316.056 186.136C315.683 186.783 315.343 187.405 315.037 188.001C314.723 188.574 314.427 189.139 314.151 189.699C313.875 190.258 313.599 190.817 313.322 191.376C313.084 191.923 312.85 192.481 312.62 193.052C312.486 194.028 312.418 194.639 312.418 194.885C312.455 195.119 312.566 195.259 312.752 195.305C313.005 195.3 313.489 195.163 314.203 194.892C314.947 194.583 315.943 194.08 317.19 193.381C317.879 193.036 318.516 192.723 319.099 192.442C319.712 192.124 320.135 191.87 320.368 191.681C320.672 191.577 320.926 191.45 321.129 191.299C321.37 191.134 321.474 191.003 321.441 190.905C321.407 190.807 321.45 190.56 321.57 190.163C321.727 189.754 321.836 189.389 321.896 189.067C322.075 188.596 322.27 187.983 322.479 187.227C322.718 186.435 322.986 185.728 323.284 185.107C323.767 183.41 324.055 182.327 324.15 181.857C324.274 181.35 324.412 181.07 324.564 181.018C324.716 180.966 324.942 180.944 325.242 180.951C325.533 180.934 325.788 180.997 326.007 181.141C326.332 181.222 326.562 181.335 326.696 181.481C326.823 181.602 326.792 181.886 326.605 182.333C326.629 182.653 326.603 182.949 326.526 183.221C326.479 183.456 326.372 183.766 326.206 184.151C326.078 184.523 325.882 185.068 325.618 185.788C325.362 186.531 325.068 187.411 324.735 188.427C324.44 189.431 324.154 190.458 323.876 191.51C323.598 192.563 323.341 193.553 323.106 194.481C322.9 195.372 322.759 196.077 322.681 196.596C322.483 197.757 322.347 198.665 322.273 199.32C322.19 199.95 322.185 200.43 322.255 200.762C322.355 201.056 322.542 201.293 322.816 201.473C323.043 201.888 323.02 202.32 322.748 202.768C322.468 203.192 322.104 203.494 321.656 203.674C321.255 203.866 320.915 203.804 320.638 203.488Z" fill="white"/>
<path d="M326.039 176.947C324.986 177.259 323.924 177.515 322.854 177.717C321.813 177.886 320.944 177.97 320.247 177.968C319.537 177.947 319.132 177.813 319.03 177.565C318.881 177.24 318.927 177.03 319.168 176.936C319.396 176.822 319.992 176.657 320.954 176.442C322.47 176.155 324.013 175.71 325.584 175.106C327.155 174.503 328.567 173.842 329.819 173.125C331.072 172.408 331.984 171.745 332.557 171.136C333.383 170.291 333.577 169.633 333.14 169.161C332.744 168.678 331.822 168.43 330.373 168.42C329.718 168.406 328.858 168.464 327.794 168.594C326.729 168.724 325.689 168.893 324.672 169.102C323.686 169.278 322.904 169.463 322.326 169.657C321.959 169.789 321.643 169.883 321.378 169.938C321.156 169.981 320.729 170.014 320.098 170.04C319.761 169.977 319.44 169.899 319.133 169.805C318.815 169.691 318.59 169.608 318.458 169.554C318.356 169.469 318.401 169.34 318.594 169.167C318.829 168.982 319.338 168.635 320.121 168.126C320.892 167.597 322.096 166.802 323.735 165.739C325.228 164.766 326.397 163.993 327.24 163.42C328.113 162.815 328.791 162.337 329.273 161.986C329.785 161.603 330.183 161.278 330.466 161.009C330.937 160.315 331.131 159.9 331.047 159.763C330.963 159.626 330.344 159.67 329.189 159.897C328.112 160.169 327.083 160.439 326.102 160.706C325.122 160.973 324.655 161.146 324.703 161.224C324.703 161.224 324.682 161.23 324.64 161.243C324.64 161.243 324.577 161.261 324.45 161.299C324.216 161.322 323.759 161.469 323.079 161.739C322.398 162.01 321.745 162.284 321.119 162.562C320.535 162.827 320.24 162.995 320.234 163.066C320.216 163.118 320.005 163.261 319.602 163.496C319.228 163.699 318.828 163.898 318.401 164.094C318.015 164.277 317.76 164.388 317.633 164.425C317.399 164.448 317.086 164.425 316.696 164.356C316.335 164.255 316.017 164.141 315.741 164.015C315.453 163.869 315.321 163.734 315.345 163.612C315.381 163.508 315.574 163.336 315.924 163.094C316.303 162.82 316.746 162.527 317.252 162.216C317.746 161.884 318.194 161.602 318.598 161.367C319.139 161.114 319.925 160.812 320.954 160.461C322.025 160.098 323.108 159.755 324.203 159.431C325.286 159.087 326.086 158.85 326.604 158.72C328.601 158.245 330.24 158.037 331.52 158.097C332.801 158.158 333.759 158.463 334.394 159.015C334.688 159.251 334.868 159.464 334.934 159.652C334.999 159.841 334.923 160.083 334.706 160.378C334.477 160.654 334.049 161.093 333.422 161.694C332.561 162.319 331.859 162.839 331.317 163.253C330.774 163.668 329.931 164.241 328.787 164.972C328.552 165.158 328.229 165.403 327.82 165.709C327.41 166.015 327.037 166.299 326.699 166.561C326.35 166.803 326.187 166.943 326.211 166.983C326.211 166.983 326.313 166.987 326.518 166.996C326.71 166.985 326.957 166.981 327.257 166.985C327.558 166.988 327.843 167.008 328.114 167.044C329.455 166.878 330.762 166.861 332.037 166.992C333.311 167.123 334.242 167.264 334.831 167.413C335.792 167.845 336.382 168.364 336.603 168.968C336.866 169.561 336.774 170.224 336.327 170.957C335.868 171.67 335.027 172.451 333.805 173.298C332.817 173.96 331.609 174.629 330.183 175.305C328.744 175.962 327.363 176.51 326.039 176.947Z" fill="white"/>
<path d="M203.601 136.983C203.548 137.006 203.476 137.006 203.387 136.983C203.298 136.972 203.2 136.938 203.093 136.882C202.986 136.837 202.87 136.781 202.745 136.713C202.673 136.668 202.629 136.618 202.611 136.562C202.593 136.494 202.611 136.382 202.664 136.224C202.718 136.067 202.798 135.814 202.905 135.466C202.977 135.241 203.057 135.016 203.146 134.791C203.235 134.566 203.316 134.381 203.387 134.235C203.458 134.077 203.494 133.999 203.494 133.999C203.583 133.976 203.708 133.808 203.869 133.493C204.047 133.178 203.741 134.549 203.955 134.1C204.027 133.942 204.152 133.678 204.33 133.307C204.509 132.936 204.687 132.577 204.865 132.228C205.026 131.902 205.16 131.61 205.267 131.351C205.374 131.082 205.427 130.947 205.427 130.947C205.427 130.947 205.294 130.997 205.026 131.098C204.776 131.188 204.455 131.312 204.062 131.469C203.67 131.615 203.286 131.778 202.912 131.958C202.608 132.071 202.242 132.228 201.814 132.43C201.404 132.633 201.038 132.796 200.717 132.919C202.242 132.242 200.148 132.751 200.717 132.919C202.002 132.565 200.61 132.942 200.717 132.919C202.088 132.532 201.059 132.329 200.042 133.105C201.059 132.329 198.897 132.627 199.004 132.515C199.967 132.11 199.147 132.459 199.325 132.38C199.521 132.301 199.735 132.211 199.967 132.11C200.199 132.009 200.413 131.913 200.61 131.823C200.824 131.734 200.976 131.672 201.065 131.638C201.118 131.638 201.216 131.599 201.359 131.52C201.502 131.441 201.654 131.368 201.814 131.301C201.903 131.233 202.216 131.082 202.751 130.845C203.286 130.609 203.866 130.345 204.491 130.053C205.151 129.794 205.704 129.586 206.15 129.429C206.614 129.272 206.882 129.199 206.953 129.21C207.007 129.21 207.087 129.232 207.194 129.277C207.319 129.322 207.435 129.378 207.542 129.446C207.649 129.513 207.711 129.581 207.729 129.648C207.836 129.727 207.783 129.907 207.569 130.188C207.497 130.289 207.381 130.475 207.221 130.744C207.06 131.003 206.882 131.306 206.685 131.655C206.507 131.992 206.329 132.329 206.15 132.667C205.989 132.993 205.856 133.274 205.749 133.51C205.606 133.858 205.472 134.128 205.849 132.565C205.742 132.756 205.635 132.942 205.528 133.122C205.439 133.29 205.332 133.526 205.207 133.83C205.082 134.01 204.948 134.24 204.806 134.521C204.681 134.791 204.565 135.061 204.458 135.331C204.351 135.589 204.27 135.803 204.217 135.971C204.074 136.219 203.958 136.438 203.869 136.629C203.78 136.82 203.69 136.938 203.601 136.983Z" fill="white"/>
<path d="M209.575 136.477C209.504 136.455 209.397 136.415 209.254 136.359C209.129 136.292 208.995 136.219 208.852 136.14C208.727 136.05 208.638 135.971 208.585 135.904C208.531 135.848 208.531 135.747 208.585 135.601C208.656 135.454 208.727 135.381 208.799 135.381C208.852 135.404 208.942 135.364 209.066 135.263C209.191 135.162 209.316 135.055 209.441 134.943C209.566 134.819 209.628 134.746 209.628 134.724C209.646 134.679 209.691 134.645 209.762 134.623C209.852 134.589 209.932 134.555 210.003 134.521C210.092 134.431 210.208 134.341 210.351 134.252C210.512 134.15 210.637 134.066 210.726 133.999C210.869 133.886 211.127 133.718 211.502 133.493C211.877 133.268 212.243 133.038 212.599 132.801C212.974 132.543 213.304 132.318 213.59 132.127C213.875 131.925 214.027 131.784 214.045 131.705C214.045 131.705 214.071 131.689 214.125 131.655C214.196 131.61 214.277 131.571 214.366 131.537C214.455 131.503 214.571 131.447 214.714 131.368C214.874 131.29 215.008 131.216 215.115 131.149C215.151 131.059 215.249 130.935 215.41 130.778C215.588 130.609 215.767 130.469 215.945 130.356C216.088 130.222 216.222 130.075 216.346 129.918C216.471 129.749 216.552 129.626 216.587 129.547C216.641 129.423 216.641 129.35 216.587 129.328C216.534 129.294 216.311 129.238 215.918 129.159C215.49 129.069 216.668 128.906 214.5 129.058C212.332 129.21 213.438 129.216 212.813 129.497C212.564 129.53 212.332 129.575 212.118 129.631C211.921 129.688 211.752 129.71 211.609 129.699C211.538 129.676 211.457 129.626 211.368 129.547C211.609 129.699 211.181 129.395 211.074 129.328L210.806 128.974L211.636 128.687C212.367 128.395 213.616 128.08 213.616 128.08C214.223 127.968 214.749 127.979 215.249 128.08C215.445 128.08 215.651 128.08 215.811 128.114C215.972 128.136 216.052 128.148 216.052 128.148C216.195 128.136 216.373 128.187 216.587 128.299C216.801 128.401 217.007 128.53 217.203 128.687C217.417 128.845 217.578 129.002 217.685 129.159C217.97 129.429 218.059 129.716 217.952 130.019C217.863 130.312 217.595 130.666 217.149 131.082C217.06 131.149 216.864 131.29 216.561 131.503C216.257 131.717 215.909 131.958 215.517 132.228C215.142 132.487 214.794 132.717 214.473 132.919C214.17 133.122 213.973 133.251 213.884 133.307C213.759 133.341 213.545 133.459 213.242 133.661C212.956 133.852 212.644 134.066 212.305 134.302C211.984 134.527 211.707 134.729 211.475 134.909C211.261 135.078 211.172 135.162 211.208 135.162C211.19 135.207 211.217 135.23 211.288 135.23C211.359 135.218 211.475 135.196 211.636 135.162C211.903 135.106 212.251 135.05 212.68 134.993C213.126 134.937 213.581 134.892 214.045 134.859C214.509 134.814 214.91 134.786 215.249 134.774C215.606 134.763 215.811 134.774 215.865 134.808C215.9 134.864 215.927 134.887 215.945 134.875C215.981 134.853 215.999 134.842 215.999 134.842C216.034 134.763 216.257 134.741 216.668 134.774C217.096 134.808 217.48 134.859 217.819 134.926C218.015 134.96 218.166 134.988 218.274 135.01C218.398 135.033 218.461 135.067 218.461 135.112C218.461 135.112 218.479 135.14 218.514 135.196C218.568 135.241 218.648 135.303 218.755 135.381C219.041 135.527 219.076 135.623 218.862 135.668C218.648 135.713 218.184 135.696 217.471 135.617C217.007 135.617 216.623 135.634 216.32 135.668C216.248 135.69 216.097 135.702 215.865 135.702C215.633 135.702 215.41 135.707 215.196 135.719C214.874 135.696 214.553 135.707 214.232 135.752C213.911 135.786 213.527 135.848 213.081 135.938C212.921 135.971 212.671 136.022 212.332 136.089C211.993 136.157 211.627 136.224 211.234 136.292C210.842 136.359 210.485 136.41 210.164 136.444C209.86 136.477 209.664 136.489 209.575 136.477Z" fill="white"/>
<path d="M255.949 145.927C255.919 145.974 255.865 145.997 255.787 145.995C255.714 146.008 255.624 145.995 255.517 145.953C255.415 145.927 255.302 145.889 255.176 145.839C255.101 145.802 255.044 145.748 255.005 145.679C254.961 145.595 254.924 145.439 254.893 145.213C254.862 144.986 254.808 144.623 254.731 144.125C254.683 143.803 254.642 143.478 254.607 143.15C254.573 142.822 254.549 142.549 254.537 142.332C254.52 142.1 254.511 141.984 254.511 141.984C254.569 141.925 254.587 141.661 254.566 141.191C254.558 140.715 254.534 140.143 254.492 139.476C254.475 139.244 254.449 138.852 254.416 138.301C254.383 137.75 254.355 137.214 254.332 136.694C254.306 136.208 254.275 135.776 254.239 135.398C254.197 135.004 254.177 134.808 254.177 134.808C254.177 134.808 254.098 134.917 253.941 135.137C253.792 135.336 253.604 135.602 253.377 135.936C253.146 136.255 252.928 136.594 252.725 136.952C252.546 137.198 252.34 137.524 252.106 137.929C251.886 138.329 251.683 138.662 251.495 138.928C251.236 139.395 251.074 139.668 251.008 139.747C250.937 139.811 250.827 139.831 250.68 139.807C250.447 139.715 250.267 139.594 250.137 139.442C250.022 139.285 249.979 139.115 250.009 138.931C250.031 138.905 250.092 138.811 250.192 138.65C250.305 138.483 250.427 138.295 250.557 138.087C250.688 137.878 250.807 137.683 250.915 137.501C251.037 137.314 251.124 137.183 251.177 137.11C251.217 137.093 251.274 137.01 251.347 136.86C251.419 136.71 251.501 136.564 251.593 136.423C251.63 136.305 251.798 136.004 252.097 135.52C252.397 135.036 252.717 134.5 253.059 133.913C253.443 133.36 253.768 132.907 254.036 132.556C254.317 132.2 254.487 132.018 254.546 132.01C254.587 131.993 254.658 131.998 254.76 132.024C254.875 132.044 254.989 132.082 255.101 132.138C255.213 132.194 255.291 132.264 255.335 132.349C255.452 132.42 255.493 132.676 255.459 133.119C255.45 133.276 255.447 133.56 255.447 133.97C255.443 134.366 255.445 134.827 255.454 135.353C255.472 135.859 255.49 136.365 255.508 136.871C255.534 137.356 255.56 137.773 255.586 138.122C255.636 138.632 255.657 139.033 255.649 139.328C255.655 139.616 255.658 139.897 255.658 140.171C255.667 140.424 255.693 140.772 255.736 141.217C255.723 141.496 255.726 141.845 255.745 142.265C255.773 142.664 255.808 143.06 255.849 143.454C255.885 143.832 255.921 144.142 255.957 144.384C255.961 144.759 255.973 145.088 255.992 145.371C256.011 145.654 255.997 145.839 255.949 145.927Z" fill="#FFFAFA"/>
<path d="M286.38 154.994C286.284 154.962 286.141 154.907 285.95 154.827C285.782 154.732 285.603 154.629 285.412 154.517C285.245 154.39 285.125 154.279 285.054 154.184C284.982 154.104 284.982 153.961 285.054 153.755C285.149 153.548 285.245 153.445 285.34 153.445C285.412 153.477 285.532 153.421 285.699 153.278C285.866 153.135 286.033 152.984 286.201 152.825C286.368 152.651 286.451 152.547 286.451 152.515C286.475 152.452 286.535 152.404 286.631 152.372C286.75 152.325 286.858 152.277 286.953 152.229C287.073 152.102 287.228 151.975 287.419 151.848C287.634 151.705 287.801 151.586 287.921 151.491C288.112 151.332 288.458 151.093 288.96 150.776C289.462 150.458 289.952 150.132 290.43 149.799C290.931 149.433 291.373 149.115 291.756 148.845C292.138 148.559 292.341 148.361 292.365 148.249C292.365 148.249 292.401 148.226 292.472 148.178C292.568 148.114 292.675 148.059 292.795 148.011C292.914 147.963 293.07 147.884 293.261 147.773C293.476 147.662 293.655 147.558 293.798 147.463C293.846 147.336 293.978 147.161 294.193 146.939C294.431 146.7 294.67 146.502 294.909 146.343C295.1 146.152 295.28 145.946 295.447 145.723C295.614 145.485 295.722 145.31 295.769 145.199C295.841 145.024 295.841 144.921 295.769 144.889C295.698 144.841 295.399 144.762 294.873 144.651C294.3 144.524 293.667 144.476 292.974 144.508C292.305 144.524 291.552 144.73 290.716 145.127C290.382 145.175 290.071 145.239 289.784 145.318C289.522 145.397 289.295 145.429 289.103 145.413C289.008 145.382 288.9 145.31 288.781 145.199C288.661 145.088 288.53 144.984 288.387 144.889L288.028 144.389L289.139 143.983C290.119 143.57 291.003 143.284 291.791 143.125C292.604 142.967 293.344 142.959 294.013 143.102C294.276 143.102 294.515 143.125 294.73 143.173C294.945 143.205 295.053 143.221 295.053 143.221C295.244 143.205 295.483 143.276 295.769 143.435C296.056 143.578 296.331 143.761 296.594 143.983C296.88 144.206 297.095 144.428 297.239 144.651C297.621 145.032 297.741 145.437 297.597 145.866C297.478 146.279 297.119 146.78 296.522 147.368C296.403 147.463 296.14 147.662 295.734 147.963C295.327 148.265 294.862 148.607 294.336 148.988C293.834 149.354 293.368 149.679 292.938 149.965C292.532 150.251 292.269 150.434 292.15 150.514C291.983 150.561 291.696 150.728 291.29 151.014C290.907 151.284 290.489 151.586 290.035 151.92C289.605 152.237 289.235 152.523 288.924 152.778C288.638 153.016 288.518 153.135 288.566 153.135C288.542 153.199 288.578 153.23 288.673 153.23C288.769 153.215 288.924 153.183 289.139 153.135C289.498 153.056 289.964 152.976 290.537 152.897C291.134 152.817 291.744 152.754 292.365 152.706C292.986 152.643 293.524 152.603 293.978 152.587C294.455 152.571 294.73 152.587 294.802 152.635C294.85 152.714 294.885 152.746 294.909 152.73C294.957 152.698 294.981 152.682 294.981 152.682C295.029 152.571 295.327 152.539 295.877 152.587C296.45 152.635 296.964 152.706 297.418 152.801C297.681 152.849 297.884 152.889 298.027 152.921C298.194 152.952 298.278 153 298.278 153.064C298.278 153.064 298.302 153.103 298.35 153.183C298.421 153.246 298.529 153.334 298.672 153.445C299.055 153.651 299.102 153.787 298.816 153.85C298.529 153.914 297.908 153.89 296.952 153.779C296.331 153.779 295.817 153.802 295.411 153.85C295.315 153.882 295.112 153.898 294.802 153.898C294.491 153.898 294.193 153.906 293.906 153.922C293.476 153.89 293.046 153.906 292.616 153.969C292.186 154.017 291.672 154.104 291.075 154.231C290.86 154.279 290.525 154.351 290.071 154.446C289.617 154.541 289.127 154.637 288.602 154.732C288.076 154.827 287.598 154.899 287.168 154.946C286.762 154.994 286.499 155.01 286.38 154.994Z" fill="white"/>
<path d="M189.5 152L245.5 125V126L195.5 155L189.5 152Z" fill="#FE7192"/>
<path d="M183 152L241 127L197.5 148.5L190 152H183Z" fill="#E9616F"/>
<path d="M183 152H189.5L195.5 155L195 157L183.5 154L183 152Z" fill="#3B1C27"/>
<path d="M195.5 155L219 141L201.5 153L195 157L195.5 155Z" fill="#BA4E5C"/>
<path d="M216 145L242.5 134.5L243.5 136L212 152L196.5 159.5L195.5 158.5L216 145Z" fill="#F87892"/>
<path d="M211 146.5L216 145L195.5 158.5L195 157L211 146.5Z" fill="#620B17"/>
<path d="M196.5 159.5L228.5 143.5L199 160.5L196.5 161V159.5Z" fill="#9A3543"/>
<path d="M187 155L195 157L196.5 159V161L182 157.5L181 155.5L187 155Z" fill="#2C191E"/>
<path d="M206 252H265L285 285H223L206 252Z" fill="#DED3C5"/>
<path d="M14.355 198.484L116.327 263.822L92.6467 300.78L-9.32537 235.443L-28.5 198.484L14.355 198.484Z" fill="#DED3C5"/>
<rect x="401.107" y="223.755" width="43" height="107.03" transform="rotate(42.5335 401.107 223.755)" fill="#DED3C5"/>
<rect x="20" y="184" width="2" height="10" fill="#272621"/>
<path d="M-9 180L19 178L23.5 183L-9.5 185L-9 182V180Z" fill="#844F3E"/>
<path d="M-9.5 185L23.5 183L23 184.5L-9.5 187V185Z" fill="#322723"/>
<path d="M21.5 173H23.5V179L22 182L21.5 181V179V173Z" fill="#2A282B"/>
<rect x="19" y="161" width="1" height="19" fill="#352E1B"/>
<path d="M-4.5 165L21 163V167L-0.5 169L-4.5 165Z" fill="#916557"/>
<path d="M-5 160L21 158.5V162L-1 163.5L-5 160Z" fill="#916557"/>
</g>
<defs>
<linearGradient id="paint0_linear_35_94" x1="246" y1="-4" x2="246" y2="56" gradientUnits="userSpaceOnUse">
<stop stop-color="#066397"/>
<stop offset="1" stop-color="#82A1B2"/>
</linearGradient>
<linearGradient id="paint1_linear_35_94" x1="249" y1="38" x2="249" y2="141.5" gradientUnits="userSpaceOnUse">
<stop stop-color="#74C272"/>
<stop offset="1" stop-color="#1F7E1D"/>
</linearGradient>
<linearGradient id="paint2_linear_35_94" x1="210" y1="117" x2="210" y2="270" gradientUnits="userSpaceOnUse">
<stop stop-color="#248B22"/>
<stop offset="1" stop-color="#073D06"/>
</linearGradient>
<linearGradient id="paint3_linear_35_94" x1="204.5" y1="111.5" x2="204.5" y2="128" gradientUnits="userSpaceOnUse">
<stop stop-color="#545151"/>
<stop offset="1" stop-color="#A39184"/>
</linearGradient>
<linearGradient id="paint4_linear_35_94" x1="242.5" y1="112" x2="242.5" y2="128.5" gradientUnits="userSpaceOnUse">
<stop stop-color="#545151"/>
<stop offset="1" stop-color="#A39184"/>
</linearGradient>
<linearGradient id="paint5_linear_35_94" x1="206" y1="125.5" x2="206" y2="140" gradientUnits="userSpaceOnUse">
<stop stop-color="#545151"/>
<stop offset="1" stop-color="#A39184"/>
</linearGradient>
<linearGradient id="paint6_linear_35_94" x1="308" y1="138" x2="308" y2="149" gradientUnits="userSpaceOnUse">
<stop stop-color="#545151"/>
<stop offset="1" stop-color="#A39184"/>
</linearGradient>
<linearGradient id="paint7_linear_35_94" x1="353" y1="148.5" x2="353" y2="160" gradientUnits="userSpaceOnUse">
<stop stop-color="#545151"/>
<stop offset="1" stop-color="#A39184"/>
</linearGradient>
<clipPath id="clip0_35_94">
<path d="M0 0H393V260H0V0Z" fill="white"/>
</clipPath>
</defs>
</svg>
