<svg width="393" height="260" viewBox="0 0 393 260" fill="none" xmlns="http://www.w3.org/2000/svg">
<g clip-path="url(#clip0_51_1375)">
<path d="M393 0H0V260H393V0Z" fill="white" fill-opacity="0.16"/>
<rect x="-21" y="-15" width="440" height="122" fill="url(#paint0_linear_51_1375)"/>
<path d="M0 66C0 66 55.5186 85.9052 97.5 82C130.907 78.8923 152.635 76.8712 181.272 74.2073C197.049 72.7396 212.939 72.7746 228.71 74.3132L279.95 79.3122C298.14 81.0869 316.503 79.2822 334 74C351.571 68.6954 369.827 66 388.181 66H402V282H0V66Z" fill="#6CC975"/>
<path d="M0 66C0 66 55.5186 85.9052 97.5 82C130.907 78.8923 152.635 76.8712 181.272 74.2073C197.049 72.7396 212.939 72.7746 228.71 74.3132L279.95 79.3122C298.14 81.0869 316.503 79.2822 334 74C351.571 68.6954 369.827 66 388.181 66H402V282H0V66Z" fill="url(#paint1_linear_51_1375)"/>
<rect x="299" y="255.297" width="46" height="11" transform="rotate(-42.8725 299 255.297)" fill="#948080"/>
<rect x="278" y="243.297" width="46" height="11" transform="rotate(-42.8725 278 243.297)" fill="#948080"/>
<rect x="258" y="232.297" width="46" height="11" transform="rotate(-42.8725 258 232.297)" fill="#948080"/>
<rect x="238.797" y="222.156" width="46" height="9.82831" transform="rotate(-42.8725 238.797 222.156)" fill="#948080"/>
<rect x="222" y="213.297" width="46" height="9.82831" transform="rotate(-42.8725 222 213.297)" fill="#948080"/>
<rect x="207.412" y="205.121" width="44.1127" height="8.31619" transform="rotate(-42.8725 207.412 205.121)" fill="#948080"/>
<rect x="194.656" y="196.719" width="42.8735" height="7.35247" transform="rotate(-42.8725 194.656 196.719)" fill="#948080"/>
<rect x="185.266" y="189.602" width="39.3462" height="6.21693" transform="rotate(-42.8725 185.266 189.602)" fill="#948080"/>
<rect x="176.795" y="184.627" width="37.2782" height="5.04806" transform="rotate(-42.8725 176.795 184.627)" fill="#948080"/>
<rect x="168" y="179.363" width="37.2782" height="5.04806" transform="rotate(-42.8725 168 179.363)" fill="#948080"/>
<rect x="159.981" y="174.124" width="37.2782" height="4.18074" transform="rotate(-39.6175 159.981 174.124)" fill="#948080"/>
<rect x="153" y="169.771" width="35.8897" height="4.18074" transform="rotate(-39.6175 153 169.771)" fill="#948080"/>
<rect x="145.724" y="164.297" width="34.2035" height="3.45251" transform="rotate(-35.0524 145.724 164.297)" fill="#948080"/>
<rect x="141" y="159.644" width="34.2035" height="3.45251" transform="rotate(-35.0524 141 159.644)" fill="#948080"/>
<rect x="134.809" y="155.125" width="34.2035" height="2.77358" transform="rotate(-30.9733 134.809 155.125)" fill="#948080"/>
<rect x="132" y="149.602" width="34.2035" height="2.77358" transform="rotate(-30.9733 132 149.602)" fill="#948080"/>
<rect x="127.572" y="144.669" width="34.2035" height="2.77358" transform="rotate(-27.5457 127.572 144.669)" fill="#948080"/>
<rect x="124.313" y="138.378" width="34.2035" height="1.92252" transform="rotate(-21.5925 124.313 138.378)" fill="#948080"/>
<rect x="121.857" y="131.925" width="34.9273" height="1.85011" transform="rotate(-14.009 121.857 131.925)" fill="#948080"/>
<rect x="125.215" y="122.501" width="31.6839" height="1.85011" transform="rotate(-2.55044 125.215 122.501)" fill="#948080"/>
<rect x="125.215" y="122.501" width="31.6839" height="1.85011" transform="rotate(-2.55044 125.215 122.501)" fill="#948080"/>
<rect x="132.252" y="116" width="24.9525" height="1.85011" transform="rotate(7.84354 132.252 116)" fill="#948080"/>
<rect x="141.688" y="112" width="16.9214" height="1.85011" transform="rotate(21.8502 141.688 112)" fill="#948080"/>
<rect x="150.134" y="110" width="11.4984" height="1.85011" transform="rotate(37.8119 150.134 110)" fill="#948080"/>
<rect x="157.14" y="107.304" width="10.0661" height="1.85011" transform="rotate(51.421 157.14 107.304)" fill="#948080"/>
<rect x="161.446" y="105" width="10.0661" height="1.85011" transform="rotate(51.421 161.446 105)" fill="#948080"/>
<rect x="167.446" y="103" width="8.41087" height="1.85011" transform="rotate(51.421 167.446 103)" fill="#948080"/>
<path d="M176.5 191.717L141 168.137L126 154.59L120.5 145.058L119 136.027V132.014L119.5 128L129 147.567L147.5 163.119L193.5 191.717L318 263.962L314 275L176.5 191.717Z" fill="url(#paint2_linear_51_1375)"/>
<path d="M162 136.5L188 151L241.5 177L310 205L401.5 240.5L399.5 257L292 212L244 190L200 167.5L181.5 156.5L164.5 144.5L160.5 140L158 136L155.5 131.5L154.5 127.5L162 136.5Z" fill="url(#paint3_linear_51_1375)"/>
<path d="M126 123L131 119L150.5 109L172.5 101.5L186 98.5L200.5 94.5L208.5 91V92L205.5 93.5L195 97L185 99.5L169.5 104L153.5 109.5L145.5 113.5L137 118L130.5 122.5L124 128.5L126 123Z" fill="#373737"/>
<path d="M157 121.5L165.5 114L174.5 109L179 106.5L183.5 105L188.5 102.5L196 100L213 95L221.5 91.5L219.5 93.5L200.5 100.5L192.5 103.5L186 106.5L171.5 113.5L168 116.5L163 122.5L161 125L159 128.5L157 129V121.5Z" fill="#3D3D3D"/>
<path d="M119.5 132L120 128L122.5 124L131 117.5L141 112.5L154 107L160 105L166 103L172.5 101L187 98L194.5 96L199 94.5L204.5 93L207 92C207 92 207.5 92 208 91.5C208.5 91 208 90 208 90L201 88L193 86.5L167.5 82L167 81C167 81 208.5 88.5 209 89C209.5 89.5 209 91.5 209 91.5L208.5 92L207 93L205.5 93.5L198.5 95.5L190.5 98L181 100L172.5 102L163.5 105L149.5 110L141 114L132 119L126.5 124.5L124.5 128L124 130L123.5 132.5L124 135L125.5 138.5L128 142.5L140 154L160 166L193.5 186.5L244.5 215.5L335 268H323.5L236.5 218L181 185L160 172L143.5 161L127.5 147L122.5 140L120.5 136L119.5 132Z" fill="url(#paint4_linear_51_1375)"/>
<path d="M166.5 79.5L167 79L171.5 77L177.5 75.5L183.5 75L196 74V74.5L180.5 75.5L177.5 76L172.5 77.5L167.5 80V81.5V82L166.5 81V79.5Z" fill="url(#paint5_linear_51_1375)"/>
<path d="M157 124.5L161 132L172.5 140.5L183.5 147L196 152.5L228 168L260 180.5L407 237L403 247.5L231.5 173.5L175 145.5L163 137.5L157.5 133L154.5 127.5V125L155 123L157.5 119.5L164.5 113.5L176.5 107L188.5 102L212 95L218 92.5L220.5 91.5L221 90.5L220.5 89.5L215 87.5L198.5 84.5L176.5 81.5H175L174 80.5V79L175 78.5L177 78L196 74.5V75L176 79L175.5 79.5L177 80.5L180.5 81L196 83.5L217.5 87L221 89L222.5 90V91L221.5 91.5L220.5 92L217.5 93.5L207.5 97L188 103L176.5 108L167.5 113L163.5 116L159.5 120L157 124.5Z" fill="url(#paint6_linear_51_1375)"/>
<path d="M261 -19.5L278 0V41.5V83L283.5 167.5L261 153V83V31.75V-19.5Z" fill="#563C0A"/>
<path d="M106 0H122L118 56L122 113.5L106 119L101.5 56L106 0Z" fill="#563C0A"/>
<path d="M310 -16.5L327.5 -7.5V32L335 81.5L345.5 190.5H327.5L315.5 94L310 47V-16.5Z" fill="#563C0A"/>
<path d="M7 0H30L26 63L30 132H7V0Z" fill="#563C0A"/>
<path d="M59 -19H61L57 52.5L61 119H59L55.5 50.5L59 -19Z" fill="#553E35"/>
<path d="M150.259 -6.24862C150.472 -8.93146 152.711 -11 155.403 -11C158.395 -11 160.76 -8.46228 160.55 -5.47704L157.133 42.9331C156.924 45.9036 156.985 48.8871 157.317 51.8464L163 102.491L156.818 105.245L150.636 108L146.291 51.2065C146.097 48.6714 146.101 46.1251 146.302 43.5906L150.259 -6.24862Z" fill="#553E35"/>
<path d="M284.5 0H299V59.5L307.5 129H289L284.5 69V0Z" fill="#553E35"/>
<path d="M206 0H213L213.5 39L213 78H206L207 39L206 0Z" fill="#553E35"/>
<path d="M348 -26H346L350 45.5L346 112H348L351.5 43.5L348 -26Z" fill="#342C29"/>
<path d="M233.241 -6.24862C233.028 -8.93146 230.789 -11 228.097 -11C225.105 -11 222.74 -8.46228 222.95 -5.47704L226.367 42.9331C226.576 45.9036 226.515 48.8871 226.183 51.8464L220.5 102.491L226.682 105.245L232.864 108L237.209 51.2065C237.403 48.6714 237.399 46.1251 237.198 43.5906L233.241 -6.24862Z" fill="#342C29"/>
<path d="M99 0H84.5V59.5L76 129H94.5L99 69V0Z" fill="#342C29"/>
<path d="M177.5 0H170.5L170 39L170.5 78H177.5L176.5 39L177.5 0Z" fill="#342C29"/>
</g>
<defs>
<linearGradient id="paint0_linear_51_1375" x1="199" y1="-44" x2="199" y2="107" gradientUnits="userSpaceOnUse">
<stop stop-color="#D57979"/>
<stop offset="1" stop-color="#0D0D0D"/>
</linearGradient>
<linearGradient id="paint1_linear_51_1375" x1="201" y1="66" x2="201" y2="282" gradientUnits="userSpaceOnUse">
<stop stop-color="#6A685F"/>
<stop offset="1" stop-color="#6A685F" stop-opacity="0.21"/>
</linearGradient>
<linearGradient id="paint2_linear_51_1375" x1="83.5" y1="108.935" x2="255.457" y2="246.333" gradientUnits="userSpaceOnUse">
<stop stop-color="#2F2F2F"/>
<stop offset="1" stop-color="#7B6E6E"/>
</linearGradient>
<linearGradient id="paint3_linear_51_1375" x1="147" y1="125" x2="363.5" y2="235.5" gradientUnits="userSpaceOnUse">
<stop stop-color="#423F3F"/>
<stop offset="1" stop-color="#7B6E6E"/>
</linearGradient>
<linearGradient id="paint4_linear_51_1375" x1="176.774" y1="84.3737" x2="361.329" y2="236.088" gradientUnits="userSpaceOnUse">
<stop stop-color="#7A6858"/>
<stop offset="1" stop-color="#333333"/>
</linearGradient>
<linearGradient id="paint5_linear_51_1375" x1="174.34" y1="74.1443" x2="179.686" y2="88.2068" gradientUnits="userSpaceOnUse">
<stop stop-color="#7A6858"/>
<stop offset="1" stop-color="#7A6858" stop-opacity="0"/>
</linearGradient>
<linearGradient id="paint6_linear_51_1375" x1="214.698" y1="77.3776" x2="375.13" y2="239.893" gradientUnits="userSpaceOnUse">
<stop stop-color="#7A6858"/>
<stop offset="0.0677083" stop-color="#5C5148"/>
<stop offset="1" stop-color="#483E34"/>
</linearGradient>
<clipPath id="clip0_51_1375">
<path d="M0 0H393V260H0V0Z" fill="white"/>
</clipPath>
</defs>
</svg>
